G04 #@! TF.GenerationSoftware,KiCad,Pcbnew,10.0.3*
G04 #@! TF.CreationDate,2026-07-27T11:37:26-06:00*
G04 #@! TF.ProjectId,splitKey,73706c69-744b-4657-992e-6b696361645f,rev?*
G04 #@! TF.SameCoordinates,Original*
G04 #@! TF.FileFunction,Copper,L2,Bot*
G04 #@! TF.FilePolarity,Positive*
%FSLAX46Y46*%
G04 Gerber Fmt 4.6, Leading zero omitted, Abs format (unit mm)*
G04 Created by KiCad (PCBNEW 10.0.3) date 2026-07-27 11:37:26*
%MOMM*%
%LPD*%
G01*
G04 APERTURE LIST*
G04 Aperture macros list*
%AMRoundRect*
0 Rectangle with rounded corners*
0 $1 Rounding radius*
0 $2 $3 $4 $5 $6 $7 $8 $9 X,Y pos of 4 corners*
0 Add a 4 corners polygon primitive as box body*
4,1,4,$2,$3,$4,$5,$6,$7,$8,$9,$2,$3,0*
0 Add four circle primitives for the rounded corners*
1,1,$1+$1,$2,$3*
1,1,$1+$1,$4,$5*
1,1,$1+$1,$6,$7*
1,1,$1+$1,$8,$9*
0 Add four rect primitives between the rounded corners*
20,1,$1+$1,$2,$3,$4,$5,0*
20,1,$1+$1,$4,$5,$6,$7,0*
20,1,$1+$1,$6,$7,$8,$9,0*
20,1,$1+$1,$8,$9,$2,$3,0*%
G04 Aperture macros list end*
G04 #@! TA.AperFunction,ComponentPad*
%ADD10RoundRect,0.750000X0.750000X0.750000X-0.750000X0.750000X-0.750000X-0.750000X0.750000X-0.750000X0*%
G04 #@! TD*
G04 #@! TA.AperFunction,SMDPad,CuDef*
%ADD11RoundRect,0.225000X0.225000X0.375000X-0.225000X0.375000X-0.225000X-0.375000X0.225000X-0.375000X0*%
G04 #@! TD*
G04 #@! TA.AperFunction,SMDPad,CuDef*
%ADD12RoundRect,0.250000X-1.525000X-1.000000X1.525000X-1.000000X1.525000X1.000000X-1.525000X1.000000X0*%
G04 #@! TD*
G04 #@! TA.AperFunction,ComponentPad*
%ADD13C,3.600000*%
G04 #@! TD*
G04 #@! TA.AperFunction,SMDPad,CuDef*
%ADD14RoundRect,0.225000X-0.225000X-0.375000X0.225000X-0.375000X0.225000X0.375000X-0.225000X0.375000X0*%
G04 #@! TD*
G04 #@! TA.AperFunction,ViaPad*
%ADD15C,0.600000*%
G04 #@! TD*
G04 #@! TA.AperFunction,Conductor*
%ADD16C,0.200000*%
G04 #@! TD*
G04 APERTURE END LIST*
D10*
G04 #@! TO.P,U2,15,BAT_15*
G04 #@! TO.N,R.VBAT*
X185610000Y-98116000D03*
G04 #@! TO.P,U2,16,GND_16*
G04 #@! TO.N,R.GND*
X185610000Y-94716000D03*
G04 #@! TD*
G04 #@! TO.P,U1,15,BAT_15*
G04 #@! TO.N,VBAT*
X151975000Y-98116000D03*
G04 #@! TO.P,U1,16,GND_16*
G04 #@! TO.N,GND*
X151975000Y-94716000D03*
G04 #@! TD*
D11*
G04 #@! TO.P,D2,1,K_1*
G04 #@! TO.N,/left/row2*
X44142500Y-123762500D03*
G04 #@! TO.P,D2,2,A_2*
G04 #@! TO.N,Net-(D2-A)*
X40842500Y-123762500D03*
G04 #@! TD*
D12*
G04 #@! TO.P,SW4,1,1_1*
G04 #@! TO.N,/left/col1*
X49077500Y-154877500D03*
D13*
X46302500Y-154877500D03*
G04 #@! TO.P,SW4,2,2_2*
G04 #@! TO.N,Net-(D4-A)*
X39952500Y-157417500D03*
D12*
X37172500Y-157417500D03*
G04 #@! TD*
D14*
G04 #@! TO.P,D38,1,K_1*
G04 #@! TO.N,R.row3*
X245230500Y-152337500D03*
G04 #@! TO.P,D38,2,A_2*
G04 #@! TO.N,Net-(D38-A)*
X248530500Y-152337500D03*
G04 #@! TD*
G04 #@! TO.P,D19,1,K_1*
G04 #@! TO.N,/left/row3*
X117042500Y-138050000D03*
G04 #@! TO.P,D19,2,A_2*
G04 #@! TO.N,Net-(D19-A)*
X120342500Y-138050000D03*
G04 #@! TD*
D12*
G04 #@! TO.P,SW12,1,1_1*
G04 #@! TO.N,/left/col3*
X87177500Y-145352500D03*
D13*
X84402500Y-145352500D03*
G04 #@! TO.P,SW12,2,2_2*
G04 #@! TO.N,Net-(D12-A)*
X78052500Y-147892500D03*
D12*
X75272500Y-147892500D03*
G04 #@! TD*
D14*
G04 #@! TO.P,D40,1,K_1*
G04 #@! TO.N,R.row1*
X264280500Y-114237500D03*
G04 #@! TO.P,D40,2,A_2*
G04 #@! TO.N,Net-(D40-A)*
X267580500Y-114237500D03*
G04 #@! TD*
D12*
G04 #@! TO.P,SW9,1,1_1*
G04 #@! TO.N,/left/col3*
X87177500Y-88202500D03*
D13*
X84402500Y-88202500D03*
G04 #@! TO.P,SW9,2,2_2*
G04 #@! TO.N,Net-(D9-A)*
X78052500Y-90742500D03*
D12*
X75272500Y-90742500D03*
G04 #@! TD*
D14*
G04 #@! TO.P,D11,1,K_1*
G04 #@! TO.N,/left/row3*
X78942500Y-133287500D03*
G04 #@! TO.P,D11,2,A_2*
G04 #@! TO.N,Net-(D11-A)*
X82242500Y-133287500D03*
G04 #@! TD*
D12*
G04 #@! TO.P,SW28,1,1_1*
G04 #@! TO.N,R.col0*
X215365500Y-116777500D03*
D13*
X212590500Y-116777500D03*
G04 #@! TO.P,SW28,2,2_2*
G04 #@! TO.N,Net-(D28-A)*
X206240500Y-119317500D03*
D12*
X203460500Y-119317500D03*
G04 #@! TD*
G04 #@! TO.P,SW36,1,1_1*
G04 #@! TO.N,R.col2*
X253465500Y-107252500D03*
D13*
X250690500Y-107252500D03*
G04 #@! TO.P,SW36,2,2_2*
G04 #@! TO.N,Net-(D36-A)*
X244340500Y-109792500D03*
D12*
X241560500Y-109792500D03*
G04 #@! TD*
D14*
G04 #@! TO.P,D34,1,K_1*
G04 #@! TO.N,R.row3*
X226180500Y-157100000D03*
G04 #@! TO.P,D34,2,A_2*
G04 #@! TO.N,Net-(D34-A)*
X229480500Y-157100000D03*
G04 #@! TD*
D12*
G04 #@! TO.P,SW45,1,1_1*
G04 #@! TO.N,R.col4*
X291565500Y-131065000D03*
D13*
X288790500Y-131065000D03*
G04 #@! TO.P,SW45,2,2_2*
G04 #@! TO.N,Net-(D45-A)*
X282440500Y-133605000D03*
D12*
X279660500Y-133605000D03*
G04 #@! TD*
D14*
G04 #@! TO.P,D14,1,K_1*
G04 #@! TO.N,/left/row2*
X97992500Y-114237500D03*
G04 #@! TO.P,D14,2,A_2*
G04 #@! TO.N,Net-(D14-A)*
X101292500Y-114237500D03*
G04 #@! TD*
G04 #@! TO.P,D25,1,K_1*
G04 #@! TO.N,/left/row4*
X136092500Y-161862500D03*
G04 #@! TO.P,D25,2,A_2*
G04 #@! TO.N,Net-(D25-A)*
X139392500Y-161862500D03*
G04 #@! TD*
D12*
G04 #@! TO.P,SW3,1,1_1*
G04 #@! TO.N,/left/col1*
X49077500Y-135827500D03*
D13*
X46302500Y-135827500D03*
G04 #@! TO.P,SW3,2,2_2*
G04 #@! TO.N,Net-(D3-A)*
X39952500Y-138367500D03*
D12*
X37172500Y-138367500D03*
G04 #@! TD*
G04 #@! TO.P,SW18,1,1_1*
G04 #@! TO.N,/left/col5*
X125277500Y-112015000D03*
D13*
X122502500Y-112015000D03*
G04 #@! TO.P,SW18,2,2_2*
G04 #@! TO.N,Net-(D18-A)*
X116152500Y-114555000D03*
D12*
X113372500Y-114555000D03*
G04 #@! TD*
G04 #@! TO.P,SW16,1,1_1*
G04 #@! TO.N,/left/col4*
X106280000Y-145352500D03*
D13*
X103505000Y-145352500D03*
G04 #@! TO.P,SW16,2,2_2*
G04 #@! TO.N,Net-(D16-A)*
X97155000Y-147892500D03*
D12*
X94375000Y-147892500D03*
G04 #@! TD*
G04 #@! TO.P,SW15,1,1_1*
G04 #@! TO.N,/left/col4*
X106280000Y-126365000D03*
D13*
X103505000Y-126365000D03*
G04 #@! TO.P,SW15,2,2_2*
G04 #@! TO.N,Net-(D15-A)*
X97155000Y-128905000D03*
D12*
X94375000Y-128905000D03*
G04 #@! TD*
D14*
G04 #@! TO.P,D9,1,K_1*
G04 #@! TO.N,/left/row1*
X78942500Y-95187500D03*
G04 #@! TO.P,D9,2,A_2*
G04 #@! TO.N,Net-(D9-A)*
X82242500Y-95187500D03*
G04 #@! TD*
D12*
G04 #@! TO.P,SW31,1,1_1*
G04 #@! TO.N,R.col1*
X234415500Y-92965000D03*
D13*
X231640500Y-92965000D03*
G04 #@! TO.P,SW31,2,2_2*
G04 #@! TO.N,Net-(D31-A)*
X225290500Y-95505000D03*
D12*
X222510500Y-95505000D03*
G04 #@! TD*
G04 #@! TO.P,SW32,1,1_1*
G04 #@! TO.N,R.col1*
X234415500Y-112015000D03*
D13*
X231640500Y-112015000D03*
G04 #@! TO.P,SW32,2,2_2*
G04 #@! TO.N,Net-(D32-A)*
X225290500Y-114555000D03*
D12*
X222510500Y-114555000D03*
G04 #@! TD*
D11*
G04 #@! TO.P,D1,1,K_1*
G04 #@! TO.N,/left/row1*
X44142500Y-104712500D03*
G04 #@! TO.P,D1,2,A_2*
G04 #@! TO.N,Net-(D1-A)*
X40842500Y-104712500D03*
G04 #@! TD*
D14*
G04 #@! TO.P,D37,1,K_1*
G04 #@! TO.N,R.row2*
X245230500Y-133287500D03*
G04 #@! TO.P,D37,2,A_2*
G04 #@! TO.N,Net-(D37-A)*
X248530500Y-133287500D03*
G04 #@! TD*
D12*
G04 #@! TO.P,SW40,1,1_1*
G04 #@! TO.N,R.col3*
X272515500Y-107252500D03*
D13*
X269740500Y-107252500D03*
G04 #@! TO.P,SW40,2,2_2*
G04 #@! TO.N,Net-(D40-A)*
X263390500Y-109792500D03*
D12*
X260610500Y-109792500D03*
G04 #@! TD*
G04 #@! TO.P,SW46,1,1_1*
G04 #@! TO.N,R.col4*
X291565500Y-150115000D03*
D13*
X288790500Y-150115000D03*
G04 #@! TO.P,SW46,2,2_2*
G04 #@! TO.N,Net-(D46-A)*
X282440500Y-152655000D03*
D12*
X279660500Y-152655000D03*
G04 #@! TD*
D14*
G04 #@! TO.P,D41,1,K_1*
G04 #@! TO.N,R.row2*
X264280500Y-133287500D03*
G04 #@! TO.P,D41,2,A_2*
G04 #@! TO.N,Net-(D41-A)*
X267580500Y-133287500D03*
G04 #@! TD*
G04 #@! TO.P,D51,1,K_1*
G04 #@! TO.N,R.row3*
X302380500Y-161862500D03*
G04 #@! TO.P,D51,2,A_2*
G04 #@! TO.N,Net-(D51-A)*
X305680500Y-161862500D03*
G04 #@! TD*
G04 #@! TO.P,D39,1,K_1*
G04 #@! TO.N,R.row0*
X264280500Y-95187500D03*
G04 #@! TO.P,D39,2,A_2*
G04 #@! TO.N,Net-(D39-A)*
X267580500Y-95187500D03*
G04 #@! TD*
G04 #@! TO.P,D12,1,K_1*
G04 #@! TO.N,/left/row4*
X78942500Y-152337500D03*
G04 #@! TO.P,D12,2,A_2*
G04 #@! TO.N,Net-(D12-A)*
X82242500Y-152337500D03*
G04 #@! TD*
G04 #@! TO.P,D32,1,K_1*
G04 #@! TO.N,R.row1*
X226180500Y-119000000D03*
G04 #@! TO.P,D32,2,A_2*
G04 #@! TO.N,Net-(D32-A)*
X229480500Y-119000000D03*
G04 #@! TD*
G04 #@! TO.P,D29,1,K_1*
G04 #@! TO.N,R.row2*
X207130500Y-142812500D03*
G04 #@! TO.P,D29,2,A_2*
G04 #@! TO.N,Net-(D29-A)*
X210430500Y-142812500D03*
G04 #@! TD*
D12*
G04 #@! TO.P,SW20,1,1_1*
G04 #@! TO.N,/left/col5*
X125277500Y-150115000D03*
D13*
X122502500Y-150115000D03*
G04 #@! TO.P,SW20,2,2_2*
G04 #@! TO.N,Net-(D20-A)*
X116152500Y-152655000D03*
D12*
X113372500Y-152655000D03*
G04 #@! TD*
G04 #@! TO.P,SW10,1,1_1*
G04 #@! TO.N,/left/col3*
X87230000Y-107252500D03*
D13*
X84455000Y-107252500D03*
G04 #@! TO.P,SW10,2,2_2*
G04 #@! TO.N,Net-(D10-A)*
X78105000Y-109792500D03*
D12*
X75325000Y-109792500D03*
G04 #@! TD*
D14*
G04 #@! TO.P,D52,1,K_1*
G04 #@! TO.N,R.row4*
X226180500Y-185675000D03*
G04 #@! TO.P,D52,2,A_2*
G04 #@! TO.N,Net-(D52-A)*
X229480500Y-185675000D03*
G04 #@! TD*
G04 #@! TO.P,D6,1,K_1*
G04 #@! TO.N,/left/row2*
X59892500Y-119000000D03*
G04 #@! TO.P,D6,2,A_2*
G04 #@! TO.N,Net-(D6-A)*
X63192500Y-119000000D03*
G04 #@! TD*
G04 #@! TO.P,D44,1,K_1*
G04 #@! TO.N,R.row1*
X283330500Y-119000000D03*
G04 #@! TO.P,D44,2,A_2*
G04 #@! TO.N,Net-(D44-A)*
X286630500Y-119000000D03*
G04 #@! TD*
D12*
G04 #@! TO.P,SW29,1,1_1*
G04 #@! TO.N,R.col0*
X215365500Y-135827500D03*
D13*
X212590500Y-135827500D03*
G04 #@! TO.P,SW29,2,2_2*
G04 #@! TO.N,Net-(D29-A)*
X206240500Y-138367500D03*
D12*
X203460500Y-138367500D03*
G04 #@! TD*
G04 #@! TO.P,SW2,1,1_1*
G04 #@! TO.N,/left/col1*
X49130000Y-116777500D03*
D13*
X46355000Y-116777500D03*
G04 #@! TO.P,SW2,2,2_2*
G04 #@! TO.N,Net-(D2-A)*
X40005000Y-119317500D03*
D12*
X37225000Y-119317500D03*
G04 #@! TD*
G04 #@! TO.P,SW26,1,1_1*
G04 #@! TO.N,/left/col6*
X144380000Y-183515000D03*
D13*
X141605000Y-183515000D03*
G04 #@! TO.P,SW26,2,2_2*
G04 #@! TO.N,Net-(D26-A)*
X135255000Y-186055000D03*
D12*
X132475000Y-186055000D03*
G04 #@! TD*
G04 #@! TO.P,SW43,1,1_1*
G04 #@! TO.N,R.col4*
X291565500Y-92965000D03*
D13*
X288790500Y-92965000D03*
G04 #@! TO.P,SW43,2,2_2*
G04 #@! TO.N,Net-(D43-A)*
X282440500Y-95505000D03*
D12*
X279660500Y-95505000D03*
G04 #@! TD*
D14*
G04 #@! TO.P,D10,1,K_1*
G04 #@! TO.N,/left/row2*
X78942500Y-114237500D03*
G04 #@! TO.P,D10,2,A_2*
G04 #@! TO.N,Net-(D10-A)*
X82242500Y-114237500D03*
G04 #@! TD*
G04 #@! TO.P,D43,1,K_1*
G04 #@! TO.N,R.row0*
X283330500Y-99950000D03*
G04 #@! TO.P,D43,2,A_2*
G04 #@! TO.N,Net-(D43-A)*
X286630500Y-99950000D03*
G04 #@! TD*
D12*
G04 #@! TO.P,SW41,1,1_1*
G04 #@! TO.N,R.col3*
X272515500Y-126302500D03*
D13*
X269740500Y-126302500D03*
G04 #@! TO.P,SW41,2,2_2*
G04 #@! TO.N,Net-(D41-A)*
X263390500Y-128842500D03*
D12*
X260610500Y-128842500D03*
G04 #@! TD*
D14*
G04 #@! TO.P,D24,1,K_1*
G04 #@! TO.N,/left/row3*
X136092500Y-142812500D03*
G04 #@! TO.P,D24,2,A_2*
G04 #@! TO.N,Net-(D24-A)*
X139392500Y-142812500D03*
G04 #@! TD*
G04 #@! TO.P,D5,1,K_1*
G04 #@! TO.N,/left/row1*
X59892500Y-99950000D03*
G04 #@! TO.P,D5,2,A_2*
G04 #@! TO.N,Net-(D5-A)*
X63192500Y-99950000D03*
G04 #@! TD*
D12*
G04 #@! TO.P,SW17,1,1_1*
G04 #@! TO.N,/left/col5*
X125277500Y-92965000D03*
D13*
X122502500Y-92965000D03*
G04 #@! TO.P,SW17,2,2_2*
G04 #@! TO.N,Net-(D17-A)*
X116152500Y-95505000D03*
D12*
X113372500Y-95505000D03*
G04 #@! TD*
G04 #@! TO.P,SW23,1,1_1*
G04 #@! TO.N,/left/col6*
X144327500Y-116777500D03*
D13*
X141552500Y-116777500D03*
G04 #@! TO.P,SW23,2,2_2*
G04 #@! TO.N,Net-(D23-A)*
X135202500Y-119317500D03*
D12*
X132422500Y-119317500D03*
G04 #@! TD*
D14*
G04 #@! TO.P,D17,1,K_1*
G04 #@! TO.N,/left/row1*
X117042500Y-99950000D03*
G04 #@! TO.P,D17,2,A_2*
G04 #@! TO.N,Net-(D17-A)*
X120342500Y-99950000D03*
G04 #@! TD*
G04 #@! TO.P,D36,1,K_1*
G04 #@! TO.N,R.row1*
X245230500Y-114237500D03*
G04 #@! TO.P,D36,2,A_2*
G04 #@! TO.N,Net-(D36-A)*
X248530500Y-114237500D03*
G04 #@! TD*
D12*
G04 #@! TO.P,SW48,1,1_1*
G04 #@! TO.N,R.col5*
X310615500Y-97727500D03*
D13*
X307840500Y-97727500D03*
G04 #@! TO.P,SW48,2,2_2*
G04 #@! TO.N,Net-(D48-A)*
X301490500Y-100267500D03*
D12*
X298710500Y-100267500D03*
G04 #@! TD*
D11*
G04 #@! TO.P,D3,1,K_1*
G04 #@! TO.N,/left/row3*
X44142500Y-142812500D03*
G04 #@! TO.P,D3,2,A_2*
G04 #@! TO.N,Net-(D3-A)*
X40842500Y-142812500D03*
G04 #@! TD*
D12*
G04 #@! TO.P,SW38,1,1_1*
G04 #@! TO.N,R.col2*
X253465500Y-145352500D03*
D13*
X250690500Y-145352500D03*
G04 #@! TO.P,SW38,2,2_2*
G04 #@! TO.N,Net-(D38-A)*
X244340500Y-147892500D03*
D12*
X241560500Y-147892500D03*
G04 #@! TD*
G04 #@! TO.P,SW42,1,1_1*
G04 #@! TO.N,R.col3*
X272515500Y-145352500D03*
D13*
X269740500Y-145352500D03*
G04 #@! TO.P,SW42,2,2_2*
G04 #@! TO.N,Net-(D42-A)*
X263390500Y-147892500D03*
D12*
X260610500Y-147892500D03*
G04 #@! TD*
G04 #@! TO.P,SW14,1,1_1*
G04 #@! TO.N,/left/col4*
X106227500Y-107252500D03*
D13*
X103452500Y-107252500D03*
G04 #@! TO.P,SW14,2,2_2*
G04 #@! TO.N,Net-(D14-A)*
X97102500Y-109792500D03*
D12*
X94322500Y-109792500D03*
G04 #@! TD*
G04 #@! TO.P,SW24,1,1_1*
G04 #@! TO.N,/left/col6*
X144327500Y-135827500D03*
D13*
X141552500Y-135827500D03*
G04 #@! TO.P,SW24,2,2_2*
G04 #@! TO.N,Net-(D24-A)*
X135202500Y-138367500D03*
D12*
X132422500Y-138367500D03*
G04 #@! TD*
G04 #@! TO.P,SW39,1,1_1*
G04 #@! TO.N,R.col3*
X272515500Y-88202500D03*
D13*
X269740500Y-88202500D03*
G04 #@! TO.P,SW39,2,2_2*
G04 #@! TO.N,Net-(D39-A)*
X263390500Y-90742500D03*
D12*
X260610500Y-90742500D03*
G04 #@! TD*
G04 #@! TO.P,SW25,1,1_1*
G04 #@! TO.N,/left/col6*
X144327500Y-154877500D03*
D13*
X141552500Y-154877500D03*
G04 #@! TO.P,SW25,2,2_2*
G04 #@! TO.N,Net-(D25-A)*
X135202500Y-157417500D03*
D12*
X132422500Y-157417500D03*
G04 #@! TD*
G04 #@! TO.P,SW11,1,1_1*
G04 #@! TO.N,/left/col3*
X87177500Y-126302500D03*
D13*
X84402500Y-126302500D03*
G04 #@! TO.P,SW11,2,2_2*
G04 #@! TO.N,Net-(D11-A)*
X78052500Y-128842500D03*
D12*
X75272500Y-128842500D03*
G04 #@! TD*
D14*
G04 #@! TO.P,D27,1,K_1*
G04 #@! TO.N,R.row0*
X207130500Y-104712500D03*
G04 #@! TO.P,D27,2,A_2*
G04 #@! TO.N,Net-(D27-A)*
X210430500Y-104712500D03*
G04 #@! TD*
D12*
G04 #@! TO.P,SW7,1,1_1*
G04 #@! TO.N,/left/col2*
X68127500Y-131065000D03*
D13*
X65352500Y-131065000D03*
G04 #@! TO.P,SW7,2,2_2*
G04 #@! TO.N,Net-(D7-A)*
X59002500Y-133605000D03*
D12*
X56222500Y-133605000D03*
G04 #@! TD*
G04 #@! TO.P,SW33,1,1_1*
G04 #@! TO.N,R.col1*
X234415500Y-131065000D03*
D13*
X231640500Y-131065000D03*
G04 #@! TO.P,SW33,2,2_2*
G04 #@! TO.N,Net-(D33-A)*
X225290500Y-133605000D03*
D12*
X222510500Y-133605000D03*
G04 #@! TD*
D14*
G04 #@! TO.P,D7,1,K_1*
G04 #@! TO.N,/left/row3*
X59892500Y-138050000D03*
G04 #@! TO.P,D7,2,A_2*
G04 #@! TO.N,Net-(D7-A)*
X63192500Y-138050000D03*
G04 #@! TD*
G04 #@! TO.P,D50,1,K_1*
G04 #@! TO.N,R.row2*
X302380500Y-142812500D03*
G04 #@! TO.P,D50,2,A_2*
G04 #@! TO.N,Net-(D50-A)*
X305680500Y-142812500D03*
G04 #@! TD*
G04 #@! TO.P,D35,1,K_1*
G04 #@! TO.N,R.row0*
X245230500Y-95187500D03*
G04 #@! TO.P,D35,2,A_2*
G04 #@! TO.N,Net-(D35-A)*
X248530500Y-95187500D03*
G04 #@! TD*
D12*
G04 #@! TO.P,SW34,1,1_1*
G04 #@! TO.N,R.col1*
X234415500Y-150115000D03*
D13*
X231640500Y-150115000D03*
G04 #@! TO.P,SW34,2,2_2*
G04 #@! TO.N,Net-(D34-A)*
X225290500Y-152655000D03*
D12*
X222510500Y-152655000D03*
G04 #@! TD*
G04 #@! TO.P,SW51,1,1_1*
G04 #@! TO.N,R.col5*
X310615500Y-154877500D03*
D13*
X307840500Y-154877500D03*
G04 #@! TO.P,SW51,2,2_2*
G04 #@! TO.N,Net-(D51-A)*
X301490500Y-157417500D03*
D12*
X298710500Y-157417500D03*
G04 #@! TD*
G04 #@! TO.P,SW44,1,1_1*
G04 #@! TO.N,R.col4*
X291565500Y-112015000D03*
D13*
X288790500Y-112015000D03*
G04 #@! TO.P,SW44,2,2_2*
G04 #@! TO.N,Net-(D44-A)*
X282440500Y-114555000D03*
D12*
X279660500Y-114555000D03*
G04 #@! TD*
G04 #@! TO.P,SW50,1,1_1*
G04 #@! TO.N,R.col5*
X310615500Y-135827500D03*
D13*
X307840500Y-135827500D03*
G04 #@! TO.P,SW50,2,2_2*
G04 #@! TO.N,Net-(D50-A)*
X301490500Y-138367500D03*
D12*
X298710500Y-138367500D03*
G04 #@! TD*
D14*
G04 #@! TO.P,D33,1,K_1*
G04 #@! TO.N,R.row2*
X226180500Y-138050000D03*
G04 #@! TO.P,D33,2,A_2*
G04 #@! TO.N,Net-(D33-A)*
X229480500Y-138050000D03*
G04 #@! TD*
G04 #@! TO.P,D15,1,K_1*
G04 #@! TO.N,/left/row3*
X97992500Y-133287500D03*
G04 #@! TO.P,D15,2,A_2*
G04 #@! TO.N,Net-(D15-A)*
X101292500Y-133287500D03*
G04 #@! TD*
D12*
G04 #@! TO.P,SW8,1,1_1*
G04 #@! TO.N,/left/col2*
X68180000Y-150177500D03*
D13*
X65405000Y-150177500D03*
G04 #@! TO.P,SW8,2,2_2*
G04 #@! TO.N,Net-(D8-A)*
X59055000Y-152717500D03*
D12*
X56275000Y-152717500D03*
G04 #@! TD*
D14*
G04 #@! TO.P,D20,1,K_1*
G04 #@! TO.N,/left/row4*
X117042500Y-157100000D03*
G04 #@! TO.P,D20,2,A_2*
G04 #@! TO.N,Net-(D20-A)*
X120342500Y-157100000D03*
G04 #@! TD*
D12*
G04 #@! TO.P,SW13,1,1_1*
G04 #@! TO.N,/left/col4*
X106227500Y-88202500D03*
D13*
X103452500Y-88202500D03*
G04 #@! TO.P,SW13,2,2_2*
G04 #@! TO.N,Net-(D13-A)*
X97102500Y-90742500D03*
D12*
X94322500Y-90742500D03*
G04 #@! TD*
G04 #@! TO.P,SW47,1,1_1*
G04 #@! TO.N,R.col0*
X215365500Y-183452500D03*
D13*
X212590500Y-183452500D03*
G04 #@! TO.P,SW47,2,2_2*
G04 #@! TO.N,Net-(D47-A)*
X206240500Y-185992500D03*
D12*
X203460500Y-185992500D03*
G04 #@! TD*
G04 #@! TO.P,SW1,1,1_1*
G04 #@! TO.N,/left/col1*
X49077500Y-97727500D03*
D13*
X46302500Y-97727500D03*
G04 #@! TO.P,SW1,2,2_2*
G04 #@! TO.N,Net-(D1-A)*
X39952500Y-100267500D03*
D12*
X37172500Y-100267500D03*
G04 #@! TD*
G04 #@! TO.P,SW5,1,1_1*
G04 #@! TO.N,/left/col2*
X68180000Y-92965000D03*
D13*
X65405000Y-92965000D03*
G04 #@! TO.P,SW5,2,2_2*
G04 #@! TO.N,Net-(D5-A)*
X59055000Y-95505000D03*
D12*
X56275000Y-95505000D03*
G04 #@! TD*
D14*
G04 #@! TO.P,D30,1,K_1*
G04 #@! TO.N,R.row3*
X207130500Y-161862500D03*
G04 #@! TO.P,D30,2,A_2*
G04 #@! TO.N,Net-(D30-A)*
X210430500Y-161862500D03*
G04 #@! TD*
D12*
G04 #@! TO.P,SW52,1,1_1*
G04 #@! TO.N,R.col1*
X234415500Y-178690000D03*
D13*
X231640500Y-178690000D03*
G04 #@! TO.P,SW52,2,2_2*
G04 #@! TO.N,Net-(D52-A)*
X225290500Y-181230000D03*
D12*
X222510500Y-181230000D03*
G04 #@! TD*
D14*
G04 #@! TO.P,D23,1,K_1*
G04 #@! TO.N,/left/row2*
X136092500Y-123762500D03*
G04 #@! TO.P,D23,2,A_2*
G04 #@! TO.N,Net-(D23-A)*
X139392500Y-123762500D03*
G04 #@! TD*
G04 #@! TO.P,D47,1,K_1*
G04 #@! TO.N,R.row4*
X207130500Y-190437500D03*
G04 #@! TO.P,D47,2,A_2*
G04 #@! TO.N,Net-(D47-A)*
X210430500Y-190437500D03*
G04 #@! TD*
G04 #@! TO.P,D31,1,K_1*
G04 #@! TO.N,R.row0*
X226180500Y-99950000D03*
G04 #@! TO.P,D31,2,A_2*
G04 #@! TO.N,Net-(D31-A)*
X229480500Y-99950000D03*
G04 #@! TD*
G04 #@! TO.P,D13,1,K_1*
G04 #@! TO.N,/left/row1*
X97992500Y-95187500D03*
G04 #@! TO.P,D13,2,A_2*
G04 #@! TO.N,Net-(D13-A)*
X101292500Y-95187500D03*
G04 #@! TD*
D12*
G04 #@! TO.P,SW6,1,1_1*
G04 #@! TO.N,/left/col2*
X68180000Y-112015000D03*
D13*
X65405000Y-112015000D03*
G04 #@! TO.P,SW6,2,2_2*
G04 #@! TO.N,Net-(D6-A)*
X59055000Y-114555000D03*
D12*
X56275000Y-114555000D03*
G04 #@! TD*
D14*
G04 #@! TO.P,D16,1,K_1*
G04 #@! TO.N,/left/row4*
X97992500Y-152337500D03*
G04 #@! TO.P,D16,2,A_2*
G04 #@! TO.N,Net-(D16-A)*
X101292500Y-152337500D03*
G04 #@! TD*
D12*
G04 #@! TO.P,SW35,1,1_1*
G04 #@! TO.N,R.col2*
X253465500Y-88202500D03*
D13*
X250690500Y-88202500D03*
G04 #@! TO.P,SW35,2,2_2*
G04 #@! TO.N,Net-(D35-A)*
X244340500Y-90742500D03*
D12*
X241560500Y-90742500D03*
G04 #@! TD*
G04 #@! TO.P,SW21,1,1_1*
G04 #@! TO.N,/left/col5*
X125277500Y-178690000D03*
D13*
X122502500Y-178690000D03*
G04 #@! TO.P,SW21,2,2_2*
G04 #@! TO.N,Net-(D21-A)*
X116152500Y-181230000D03*
D12*
X113372500Y-181230000D03*
G04 #@! TD*
D14*
G04 #@! TO.P,D42,1,K_1*
G04 #@! TO.N,R.row3*
X264280500Y-152337500D03*
G04 #@! TO.P,D42,2,A_2*
G04 #@! TO.N,Net-(D42-A)*
X267580500Y-152337500D03*
G04 #@! TD*
D12*
G04 #@! TO.P,SW37,1,1_1*
G04 #@! TO.N,R.col2*
X253465500Y-126302500D03*
D13*
X250690500Y-126302500D03*
G04 #@! TO.P,SW37,2,2_2*
G04 #@! TO.N,Net-(D37-A)*
X244340500Y-128842500D03*
D12*
X241560500Y-128842500D03*
G04 #@! TD*
G04 #@! TO.P,SW27,1,1_1*
G04 #@! TO.N,R.col0*
X215365500Y-97727500D03*
D13*
X212590500Y-97727500D03*
G04 #@! TO.P,SW27,2,2_2*
G04 #@! TO.N,Net-(D27-A)*
X206240500Y-100267500D03*
D12*
X203460500Y-100267500D03*
G04 #@! TD*
D14*
G04 #@! TO.P,D46,1,K_1*
G04 #@! TO.N,R.row3*
X283330500Y-157100000D03*
G04 #@! TO.P,D46,2,A_2*
G04 #@! TO.N,Net-(D46-A)*
X286630500Y-157100000D03*
G04 #@! TD*
G04 #@! TO.P,D48,1,K_1*
G04 #@! TO.N,R.row0*
X302380500Y-104712500D03*
G04 #@! TO.P,D48,2,A_2*
G04 #@! TO.N,Net-(D48-A)*
X305680500Y-104712500D03*
G04 #@! TD*
D12*
G04 #@! TO.P,SW22,1,1_1*
G04 #@! TO.N,/left/col6*
X144327500Y-97727500D03*
D13*
X141552500Y-97727500D03*
G04 #@! TO.P,SW22,2,2_2*
G04 #@! TO.N,Net-(D22-A)*
X135202500Y-100267500D03*
D12*
X132422500Y-100267500D03*
G04 #@! TD*
G04 #@! TO.P,SW30,1,1_1*
G04 #@! TO.N,R.col0*
X215365500Y-154877500D03*
D13*
X212590500Y-154877500D03*
G04 #@! TO.P,SW30,2,2_2*
G04 #@! TO.N,Net-(D30-A)*
X206240500Y-157417500D03*
D12*
X203460500Y-157417500D03*
G04 #@! TD*
D14*
G04 #@! TO.P,D28,1,K_1*
G04 #@! TO.N,R.row1*
X207130500Y-123762500D03*
G04 #@! TO.P,D28,2,A_2*
G04 #@! TO.N,Net-(D28-A)*
X210430500Y-123762500D03*
G04 #@! TD*
G04 #@! TO.P,D8,1,K_1*
G04 #@! TO.N,/left/row4*
X59892500Y-157100000D03*
G04 #@! TO.P,D8,2,A_2*
G04 #@! TO.N,Net-(D8-A)*
X63192500Y-157100000D03*
G04 #@! TD*
G04 #@! TO.P,D26,1,K_1*
G04 #@! TO.N,/left/row5*
X136092500Y-190437500D03*
G04 #@! TO.P,D26,2,A_2*
G04 #@! TO.N,Net-(D26-A)*
X139392500Y-190437500D03*
G04 #@! TD*
D12*
G04 #@! TO.P,SW19,1,1_1*
G04 #@! TO.N,/left/col5*
X125277500Y-131065000D03*
D13*
X122502500Y-131065000D03*
G04 #@! TO.P,SW19,2,2_2*
G04 #@! TO.N,Net-(D19-A)*
X116152500Y-133605000D03*
D12*
X113372500Y-133605000D03*
G04 #@! TD*
D14*
G04 #@! TO.P,D21,1,K_1*
G04 #@! TO.N,/left/row5*
X117042500Y-185675000D03*
G04 #@! TO.P,D21,2,A_2*
G04 #@! TO.N,Net-(D21-A)*
X120342500Y-185675000D03*
G04 #@! TD*
G04 #@! TO.P,D22,1,K_1*
G04 #@! TO.N,/left/row1*
X136092500Y-104712500D03*
G04 #@! TO.P,D22,2,A_2*
G04 #@! TO.N,Net-(D22-A)*
X139392500Y-104712500D03*
G04 #@! TD*
D12*
G04 #@! TO.P,SW49,1,1_1*
G04 #@! TO.N,R.col5*
X310615500Y-116777500D03*
D13*
X307840500Y-116777500D03*
G04 #@! TO.P,SW49,2,2_2*
G04 #@! TO.N,Net-(D49-A)*
X301490500Y-119317500D03*
D12*
X298710500Y-119317500D03*
G04 #@! TD*
D14*
G04 #@! TO.P,D18,1,K_1*
G04 #@! TO.N,/left/row2*
X117042500Y-119000000D03*
G04 #@! TO.P,D18,2,A_2*
G04 #@! TO.N,Net-(D18-A)*
X120342500Y-119000000D03*
G04 #@! TD*
G04 #@! TO.P,D45,1,K_1*
G04 #@! TO.N,R.row2*
X283330500Y-138050000D03*
G04 #@! TO.P,D45,2,A_2*
G04 #@! TO.N,Net-(D45-A)*
X286630500Y-138050000D03*
G04 #@! TD*
D11*
G04 #@! TO.P,D4,1,K_1*
G04 #@! TO.N,/left/row4*
X44142500Y-161862500D03*
G04 #@! TO.P,D4,2,A_2*
G04 #@! TO.N,Net-(D4-A)*
X40842500Y-161862500D03*
G04 #@! TD*
D14*
G04 #@! TO.P,D49,1,K_1*
G04 #@! TO.N,R.row1*
X302380500Y-123762500D03*
G04 #@! TO.P,D49,2,A_2*
G04 #@! TO.N,Net-(D49-A)*
X305680500Y-123762500D03*
G04 #@! TD*
D15*
G04 #@! TO.N,R.col5*
X293600000Y-106000000D03*
X211500000Y-109400000D03*
G04 #@! TO.N,R.row4*
X181600000Y-108500000D03*
G04 #@! TO.N,R.row3*
X197600000Y-109900000D03*
G04 #@! TO.N,R.row2*
X200400000Y-105500000D03*
G04 #@! TO.N,R.row1*
X201300000Y-102400000D03*
G04 #@! TO.N,R.row0*
X201400000Y-97800000D03*
G04 #@! TO.N,VBAT*
X151000000Y-106000000D03*
G04 #@! TO.N,/left/col5*
X145600000Y-100300000D03*
X140100000Y-101400000D03*
G04 #@! TO.N,/left/row1*
X142200000Y-106500000D03*
G04 #@! TO.N,/left/row2*
X164300000Y-109800000D03*
G04 #@! TO.N,/left/row3*
X165500000Y-109900000D03*
G04 #@! TO.N,/left/row4*
X168000000Y-110000000D03*
G04 #@! TO.N,/left/row5*
X170000000Y-110000000D03*
G04 #@! TD*
G04 #@! TO.N,R.col5*
D16*
X225200000Y-104400000D02*
X233200000Y-104400000D01*
X211500000Y-109400000D02*
X220200000Y-109400000D01*
X244200000Y-102700000D02*
X244800000Y-102100000D01*
X244800000Y-102100000D02*
X282800000Y-102100000D01*
X241100000Y-102700000D02*
X244200000Y-102700000D01*
X233200000Y-104400000D02*
X235237500Y-102362500D01*
X282800000Y-102100000D02*
X286700000Y-106000000D01*
X240762500Y-102362500D02*
X241100000Y-102700000D01*
X286700000Y-106000000D02*
X293600000Y-106000000D01*
X235237500Y-102362500D02*
X240762500Y-102362500D01*
X220200000Y-109400000D02*
X225200000Y-104400000D01*
G04 #@! TO.N,R.row4*
X207130500Y-190437500D02*
X208030500Y-191337500D01*
X208030500Y-191337500D02*
X220518000Y-191337500D01*
X220518000Y-191337500D02*
X226180500Y-185675000D01*
X219000000Y-177000000D02*
X215000000Y-173000000D01*
X219000000Y-181029244D02*
X219000000Y-177000000D01*
X215000000Y-173000000D02*
X186000000Y-173000000D01*
X181600000Y-115700000D02*
X181600000Y-108500000D01*
X181800000Y-124600000D02*
X184700000Y-121700000D01*
X223645756Y-185675000D02*
X219000000Y-181029244D01*
X181800000Y-168800000D02*
X181800000Y-124600000D01*
X184700000Y-118800000D02*
X181600000Y-115700000D01*
X226180500Y-185675000D02*
X223645756Y-185675000D01*
X184700000Y-121700000D02*
X184700000Y-118800000D01*
X186000000Y-173000000D02*
X181800000Y-168800000D01*
G04 #@! TO.N,R.row3*
X240662500Y-152337500D02*
X245230500Y-152337500D01*
X188862500Y-161862500D02*
X182600000Y-155600000D01*
X227080500Y-158000000D02*
X235000000Y-158000000D01*
X264280500Y-152337500D02*
X269043000Y-157100000D01*
X207130500Y-161862500D02*
X188862500Y-161862500D01*
X197600000Y-110000000D02*
X197600000Y-109900000D01*
X291793610Y-161862500D02*
X287931110Y-158000000D01*
X263380500Y-153237500D02*
X264280500Y-152337500D01*
X245230500Y-152337500D02*
X246130500Y-153237500D01*
X220518000Y-162762500D02*
X226180500Y-157100000D01*
X269043000Y-157100000D02*
X283330500Y-157100000D01*
X246130500Y-153237500D02*
X263380500Y-153237500D01*
X235000000Y-158000000D02*
X240662500Y-152337500D01*
X226180500Y-157100000D02*
X227080500Y-158000000D01*
X284230500Y-158000000D02*
X283330500Y-157100000D01*
X302380500Y-161862500D02*
X291793610Y-161862500D01*
X287931110Y-158000000D02*
X284230500Y-158000000D01*
X207130500Y-161862500D02*
X208030500Y-162762500D01*
X182600000Y-155600000D02*
X182600000Y-125000000D01*
X182600000Y-125000000D02*
X197600000Y-110000000D01*
X208030500Y-162762500D02*
X220518000Y-162762500D01*
G04 #@! TO.N,R.row2*
X245230500Y-133287500D02*
X246943000Y-135000000D01*
X220518000Y-143712500D02*
X226180500Y-138050000D01*
X283330500Y-138050000D02*
X288093000Y-142812500D01*
X208030500Y-143712500D02*
X220518000Y-143712500D01*
X186200000Y-122400000D02*
X200400000Y-108200000D01*
X183600000Y-125300000D02*
X186200000Y-122700000D01*
X207130500Y-142812500D02*
X184512500Y-142812500D01*
X264280500Y-133287500D02*
X269043000Y-138050000D01*
X207130500Y-142812500D02*
X208030500Y-143712500D01*
X246943000Y-135000000D02*
X262568000Y-135000000D01*
X186200000Y-122700000D02*
X186200000Y-122400000D01*
X200400000Y-108200000D02*
X200400000Y-105500000D01*
X239568000Y-138950000D02*
X245230500Y-133287500D01*
X227080500Y-138950000D02*
X239568000Y-138950000D01*
X184512500Y-142812500D02*
X183600000Y-141900000D01*
X269043000Y-138050000D02*
X283330500Y-138050000D01*
X262568000Y-135000000D02*
X264280500Y-133287500D01*
X226180500Y-138050000D02*
X227080500Y-138950000D01*
X288093000Y-142812500D02*
X302380500Y-142812500D01*
X183600000Y-141900000D02*
X183600000Y-125300000D01*
G04 #@! TO.N,R.row1*
X264280500Y-114237500D02*
X269043000Y-119000000D01*
X288093000Y-123762500D02*
X302380500Y-123762500D01*
X208030500Y-124662500D02*
X220518000Y-124662500D01*
X227080500Y-119900000D02*
X239568000Y-119900000D01*
X239568000Y-119900000D02*
X245230500Y-114237500D01*
X245230500Y-114237500D02*
X246130500Y-115137500D01*
X269043000Y-119000000D02*
X283330500Y-119000000D01*
X283330500Y-119000000D02*
X288093000Y-123762500D01*
X226180500Y-119000000D02*
X227080500Y-119900000D01*
X207130500Y-123762500D02*
X208030500Y-124662500D01*
X207130500Y-123762500D02*
X204595756Y-123762500D01*
X246130500Y-115137500D02*
X263380500Y-115137500D01*
X263380500Y-115137500D02*
X264280500Y-114237500D01*
X220518000Y-124662500D02*
X226180500Y-119000000D01*
X204595756Y-123762500D02*
X201300000Y-120466744D01*
X201300000Y-120466744D02*
X201300000Y-102400000D01*
G04 #@! TO.N,R.row0*
X283330500Y-99950000D02*
X288093000Y-104712500D01*
X204595756Y-104712500D02*
X201385500Y-101502244D01*
X263380500Y-96087500D02*
X264280500Y-95187500D01*
X246130500Y-96087500D02*
X263380500Y-96087500D01*
X226180500Y-99950000D02*
X227230500Y-101000000D01*
X264280500Y-95187500D02*
X269043000Y-99950000D01*
X201385500Y-101502244D02*
X201385500Y-97814500D01*
X208030500Y-105612500D02*
X220518000Y-105612500D01*
X207130500Y-104712500D02*
X204595756Y-104712500D01*
X239418000Y-101000000D02*
X245230500Y-95187500D01*
X269043000Y-99950000D02*
X283330500Y-99950000D01*
X201385500Y-97814500D02*
X201400000Y-97800000D01*
X227230500Y-101000000D02*
X239418000Y-101000000D01*
X245230500Y-95187500D02*
X246130500Y-96087500D01*
X220518000Y-105612500D02*
X226180500Y-99950000D01*
X288093000Y-104712500D02*
X302380500Y-104712500D01*
X207130500Y-104712500D02*
X208030500Y-105612500D01*
G04 #@! TO.N,VBAT*
X151975000Y-105025000D02*
X151000000Y-106000000D01*
X151975000Y-98116000D02*
X151975000Y-105025000D01*
G04 #@! TO.N,/left/col5*
X140100000Y-101400000D02*
X140200000Y-101500000D01*
X140200000Y-101500000D02*
X143500000Y-101500000D01*
X144700000Y-100300000D02*
X145600000Y-100300000D01*
X143500000Y-101500000D02*
X144700000Y-100300000D01*
G04 #@! TO.N,/left/row1*
X55130000Y-104712500D02*
X59892500Y-99950000D01*
X44142500Y-104712500D02*
X55130000Y-104712500D01*
X78942500Y-95187500D02*
X79842500Y-96087500D01*
X79842500Y-96087500D02*
X97092500Y-96087500D01*
X117042500Y-99950000D02*
X121805000Y-104712500D01*
X97092500Y-96087500D02*
X97992500Y-95187500D01*
X60792500Y-100850000D02*
X73280000Y-100850000D01*
X97992500Y-95187500D02*
X102755000Y-99950000D01*
X137880000Y-106500000D02*
X142200000Y-106500000D01*
X73280000Y-100850000D02*
X78942500Y-95187500D01*
X121805000Y-104712500D02*
X136092500Y-104712500D01*
X102755000Y-99950000D02*
X117042500Y-99950000D01*
X136092500Y-104712500D02*
X137880000Y-106500000D01*
X59892500Y-99950000D02*
X60792500Y-100850000D01*
G04 #@! TO.N,/left/row2*
X97092500Y-115137500D02*
X97992500Y-114237500D01*
X73280000Y-119900000D02*
X78942500Y-114237500D01*
X159000000Y-115100000D02*
X164300000Y-109800000D01*
X55130000Y-123762500D02*
X59892500Y-119000000D01*
X60792500Y-119900000D02*
X73280000Y-119900000D01*
X136992500Y-124662500D02*
X157937500Y-124662500D01*
X59892500Y-119000000D02*
X60792500Y-119900000D01*
X78942500Y-114237500D02*
X79842500Y-115137500D01*
X97992500Y-114237500D02*
X102755000Y-119000000D01*
X157937500Y-124662500D02*
X159000000Y-123600000D01*
X136092500Y-123762500D02*
X136992500Y-124662500D01*
X121805000Y-123762500D02*
X136092500Y-123762500D01*
X159000000Y-123600000D02*
X159000000Y-115100000D01*
X44142500Y-123762500D02*
X55130000Y-123762500D01*
X117042500Y-119000000D02*
X121805000Y-123762500D01*
X102755000Y-119000000D02*
X117042500Y-119000000D01*
X79842500Y-115137500D02*
X97092500Y-115137500D01*
G04 #@! TO.N,/left/row3*
X152787500Y-143712500D02*
X160100000Y-136400000D01*
X55130000Y-142812500D02*
X59892500Y-138050000D01*
X78942500Y-133287500D02*
X79842500Y-134187500D01*
X59892500Y-138050000D02*
X60792500Y-138950000D01*
X44142500Y-142812500D02*
X55130000Y-142812500D01*
X160100000Y-136400000D02*
X160100000Y-115300000D01*
X136992500Y-143712500D02*
X152787500Y-143712500D01*
X97092500Y-134187500D02*
X97992500Y-133287500D01*
X60792500Y-138950000D02*
X73280000Y-138950000D01*
X102755000Y-138050000D02*
X117042500Y-138050000D01*
X117042500Y-138050000D02*
X121805000Y-142812500D01*
X121805000Y-142812500D02*
X136092500Y-142812500D01*
X73280000Y-138950000D02*
X78942500Y-133287500D01*
X97992500Y-133287500D02*
X102755000Y-138050000D01*
X79842500Y-134187500D02*
X97092500Y-134187500D01*
X160100000Y-115300000D02*
X165500000Y-109900000D01*
X136092500Y-142812500D02*
X136992500Y-143712500D01*
G04 #@! TO.N,/left/row4*
X136992500Y-162762500D02*
X156325000Y-162762500D01*
X136092500Y-161862500D02*
X136992500Y-162762500D01*
X73280000Y-158000000D02*
X78942500Y-152337500D01*
X97992500Y-152337500D02*
X99860000Y-154205000D01*
X156325000Y-162762500D02*
X161925000Y-157162500D01*
X121805000Y-161862500D02*
X136092500Y-161862500D01*
X59892500Y-157100000D02*
X60792500Y-158000000D01*
X117042500Y-157100000D02*
X121805000Y-161862500D01*
X97092500Y-153237500D02*
X97992500Y-152337500D01*
X161925000Y-116075000D02*
X168000000Y-110000000D01*
X114147500Y-154205000D02*
X117042500Y-157100000D01*
X60792500Y-158000000D02*
X73280000Y-158000000D01*
X48905000Y-157100000D02*
X59892500Y-157100000D01*
X78942500Y-152337500D02*
X79842500Y-153237500D01*
X79842500Y-153237500D02*
X97092500Y-153237500D01*
X161925000Y-157162500D02*
X161925000Y-116075000D01*
X44142500Y-161862500D02*
X48905000Y-157100000D01*
X99860000Y-154205000D02*
X114147500Y-154205000D01*
G04 #@! TO.N,/left/row5*
X146800000Y-191337500D02*
X147637500Y-190500000D01*
X147637500Y-176212500D02*
X167000000Y-156850000D01*
X136992500Y-191337500D02*
X146800000Y-191337500D01*
X121805000Y-190437500D02*
X117042500Y-185675000D01*
X167000000Y-156850000D02*
X167000000Y-124000000D01*
X147637500Y-190500000D02*
X147637500Y-176212500D01*
X169800000Y-110200000D02*
X170000000Y-110000000D01*
X169800000Y-121200000D02*
X169800000Y-110200000D01*
X136092500Y-190437500D02*
X136992500Y-191337500D01*
X167000000Y-124000000D02*
X169800000Y-121200000D01*
X136092500Y-190437500D02*
X121805000Y-190437500D01*
G04 #@! TO.N,Net-(D2-A)*
X40005000Y-122925000D02*
X40842500Y-123762500D01*
X40005000Y-119317500D02*
X40005000Y-122925000D01*
G04 #@! TO.N,Net-(D4-A)*
X40842500Y-161862500D02*
X40842500Y-158307500D01*
X40842500Y-158307500D02*
X39952500Y-157417500D01*
G04 #@! TO.N,Net-(D38-A)*
X248530500Y-152082500D02*
X248530500Y-152337500D01*
X244340500Y-147892500D02*
X248530500Y-152082500D01*
G04 #@! TO.N,Net-(D19-A)*
X116152500Y-133605000D02*
X120342500Y-137795000D01*
X120342500Y-137795000D02*
X120342500Y-138050000D01*
G04 #@! TO.N,Net-(D12-A)*
X82242500Y-152082500D02*
X82242500Y-152337500D01*
X78052500Y-147892500D02*
X82242500Y-152082500D01*
G04 #@! TO.N,Net-(D40-A)*
X267580500Y-113982500D02*
X267580500Y-114237500D01*
X263390500Y-109792500D02*
X267580500Y-113982500D01*
G04 #@! TO.N,Net-(D9-A)*
X82242500Y-94932500D02*
X82242500Y-95187500D01*
X78052500Y-90742500D02*
X82242500Y-94932500D01*
G04 #@! TO.N,Net-(D11-A)*
X78052500Y-128842500D02*
X82242500Y-133032500D01*
X82242500Y-133032500D02*
X82242500Y-133287500D01*
G04 #@! TO.N,Net-(D28-A)*
X210430500Y-123507500D02*
X210430500Y-123762500D01*
X206240500Y-119317500D02*
X210430500Y-123507500D01*
G04 #@! TO.N,Net-(D36-A)*
X244340500Y-109792500D02*
X248530500Y-113982500D01*
X248530500Y-113982500D02*
X248530500Y-114237500D01*
G04 #@! TO.N,Net-(D34-A)*
X225290500Y-152655000D02*
X229480500Y-156845000D01*
X229480500Y-156845000D02*
X229480500Y-157100000D01*
G04 #@! TO.N,Net-(D45-A)*
X282440500Y-133605000D02*
X286630500Y-137795000D01*
X286630500Y-137795000D02*
X286630500Y-138050000D01*
G04 #@! TO.N,Net-(D14-A)*
X97102500Y-109792500D02*
X101292500Y-113982500D01*
X101292500Y-113982500D02*
X101292500Y-114237500D01*
G04 #@! TO.N,Net-(D25-A)*
X135202500Y-157417500D02*
X139392500Y-161607500D01*
X139392500Y-161607500D02*
X139392500Y-161862500D01*
G04 #@! TO.N,Net-(D3-A)*
X39952500Y-141922500D02*
X40842500Y-142812500D01*
X39952500Y-138367500D02*
X39952500Y-141922500D01*
G04 #@! TO.N,Net-(D18-A)*
X116152500Y-114555000D02*
X120342500Y-118745000D01*
X120342500Y-118745000D02*
X120342500Y-119000000D01*
G04 #@! TO.N,Net-(D16-A)*
X101292500Y-152030000D02*
X101292500Y-152337500D01*
X97155000Y-147892500D02*
X101292500Y-152030000D01*
G04 #@! TO.N,Net-(D15-A)*
X97155000Y-128905000D02*
X101292500Y-133042500D01*
X101292500Y-133042500D02*
X101292500Y-133287500D01*
G04 #@! TO.N,Net-(D31-A)*
X229480500Y-99695000D02*
X229480500Y-99950000D01*
X225290500Y-95505000D02*
X229480500Y-99695000D01*
G04 #@! TO.N,Net-(D32-A)*
X229480500Y-118745000D02*
X229480500Y-119000000D01*
X225290500Y-114555000D02*
X229480500Y-118745000D01*
G04 #@! TO.N,Net-(D1-A)*
X39952500Y-100267500D02*
X39952500Y-103822500D01*
X39952500Y-103822500D02*
X40842500Y-104712500D01*
G04 #@! TO.N,Net-(D37-A)*
X248530500Y-133032500D02*
X248530500Y-133287500D01*
X244340500Y-128842500D02*
X248530500Y-133032500D01*
G04 #@! TO.N,Net-(D46-A)*
X286630500Y-156845000D02*
X286630500Y-157100000D01*
X282440500Y-152655000D02*
X286630500Y-156845000D01*
G04 #@! TO.N,Net-(D41-A)*
X267580500Y-133032500D02*
X267580500Y-133287500D01*
X263390500Y-128842500D02*
X267580500Y-133032500D01*
G04 #@! TO.N,Net-(D51-A)*
X305680500Y-161607500D02*
X301490500Y-157417500D01*
X305680500Y-161862500D02*
X305680500Y-161607500D01*
G04 #@! TO.N,Net-(D39-A)*
X267580500Y-94932500D02*
X267580500Y-95187500D01*
X263390500Y-90742500D02*
X267580500Y-94932500D01*
G04 #@! TO.N,Net-(D29-A)*
X206240500Y-138367500D02*
X210430500Y-142557500D01*
X210430500Y-142557500D02*
X210430500Y-142812500D01*
G04 #@! TO.N,Net-(D20-A)*
X116152500Y-152655000D02*
X120342500Y-156845000D01*
X120342500Y-156845000D02*
X120342500Y-157100000D01*
G04 #@! TO.N,Net-(D10-A)*
X82242500Y-113930000D02*
X82242500Y-114237500D01*
X78105000Y-109792500D02*
X82242500Y-113930000D01*
G04 #@! TO.N,Net-(D52-A)*
X225290500Y-181230000D02*
X229480500Y-185420000D01*
X229480500Y-185420000D02*
X229480500Y-185675000D01*
G04 #@! TO.N,Net-(D6-A)*
X63192500Y-118692500D02*
X63192500Y-119000000D01*
X59055000Y-114555000D02*
X63192500Y-118692500D01*
G04 #@! TO.N,Net-(D44-A)*
X282440500Y-114555000D02*
X286630500Y-118745000D01*
X286630500Y-118745000D02*
X286630500Y-119000000D01*
G04 #@! TO.N,Net-(D26-A)*
X139392500Y-190192500D02*
X139392500Y-190437500D01*
X135255000Y-186055000D02*
X139392500Y-190192500D01*
G04 #@! TO.N,Net-(D43-A)*
X282440500Y-95505000D02*
X286630500Y-99695000D01*
X286630500Y-99695000D02*
X286630500Y-99950000D01*
G04 #@! TO.N,Net-(D24-A)*
X135202500Y-138367500D02*
X139392500Y-142557500D01*
X139392500Y-142557500D02*
X139392500Y-142812500D01*
G04 #@! TO.N,Net-(D5-A)*
X59055000Y-95505000D02*
X63192500Y-99642500D01*
X63192500Y-99642500D02*
X63192500Y-99950000D01*
G04 #@! TO.N,Net-(D17-A)*
X116152500Y-95505000D02*
X120342500Y-99695000D01*
X120342500Y-99695000D02*
X120342500Y-99950000D01*
G04 #@! TO.N,Net-(D23-A)*
X139392500Y-123507500D02*
X139392500Y-123762500D01*
X135202500Y-119317500D02*
X139392500Y-123507500D01*
G04 #@! TO.N,Net-(D48-A)*
X301490500Y-100267500D02*
X305680500Y-104457500D01*
X305680500Y-104457500D02*
X305680500Y-104712500D01*
G04 #@! TO.N,Net-(D42-A)*
X267580500Y-152082500D02*
X263390500Y-147892500D01*
X267580500Y-152337500D02*
X267580500Y-152082500D01*
G04 #@! TO.N,Net-(D27-A)*
X210430500Y-104457500D02*
X210430500Y-104712500D01*
X206240500Y-100267500D02*
X210430500Y-104457500D01*
G04 #@! TO.N,Net-(D7-A)*
X59002500Y-133605000D02*
X63192500Y-137795000D01*
X63192500Y-137795000D02*
X63192500Y-138050000D01*
G04 #@! TO.N,Net-(D33-A)*
X225290500Y-133605000D02*
X229480500Y-137795000D01*
X229480500Y-137795000D02*
X229480500Y-138050000D01*
G04 #@! TO.N,Net-(D50-A)*
X301490500Y-138367500D02*
X305680500Y-142557500D01*
X305680500Y-142557500D02*
X305680500Y-142812500D01*
G04 #@! TO.N,Net-(D35-A)*
X244340500Y-90742500D02*
X248530500Y-94932500D01*
X248530500Y-94932500D02*
X248530500Y-95187500D01*
G04 #@! TO.N,Net-(D8-A)*
X59055000Y-152717500D02*
X63192500Y-156855000D01*
X63192500Y-156855000D02*
X63192500Y-157100000D01*
G04 #@! TO.N,Net-(D13-A)*
X101292500Y-94932500D02*
X101292500Y-95187500D01*
X97102500Y-90742500D02*
X101292500Y-94932500D01*
G04 #@! TO.N,Net-(D47-A)*
X210430500Y-190437500D02*
X210430500Y-190182500D01*
X210430500Y-190182500D02*
X206240500Y-185992500D01*
G04 #@! TO.N,Net-(D30-A)*
X206240500Y-157417500D02*
X210430500Y-161607500D01*
X210430500Y-161607500D02*
X210430500Y-161862500D01*
G04 #@! TO.N,Net-(D21-A)*
X116152500Y-181230000D02*
X120342500Y-185420000D01*
X120342500Y-185420000D02*
X120342500Y-185675000D01*
G04 #@! TO.N,Net-(D22-A)*
X135202500Y-100267500D02*
X139392500Y-104457500D01*
X139392500Y-104457500D02*
X139392500Y-104712500D01*
G04 #@! TO.N,Net-(D49-A)*
X301490500Y-119317500D02*
X305680500Y-123507500D01*
X305680500Y-123507500D02*
X305680500Y-123762500D01*
G04 #@! TD*
M02*
