M48
; DRILL file KiCad 10.0.3 date 2026-07-27T11:37:26
; FORMAT={-:-/ absolute / metric / decimal}
; #@! TF.CreationDate,2026-07-27T11:37:26-06:00
; #@! TF.GenerationSoftware,Kicad,Pcbnew,10.0.3
; #@! TF.FileFunction,NonPlated,1,2,NPTH
FMAT,2
METRIC
; #@! TA.AperFunction,NonPlated,NPTH,ComponentDrill
T1C0.500
; #@! TA.AperFunction,NonPlated,NPTH,ComponentDrill
T2C1.750
; #@! TA.AperFunction,NonPlated,NPTH,ComponentDrill
T3C2.200
; #@! TA.AperFunction,NonPlated,NPTH,ComponentDrill
T4C4.000
%
G90
G05
T1
X170.8Y-132.48
X170.8Y-133.23
X170.8Y-133.98
X170.8Y-134.73
X170.8Y-135.48
X170.8Y-136.23
X170.8Y-136.98
X170.8Y-137.73
X170.8Y-138.48
X170.8Y-139.23
X170.8Y-139.23
X170.8Y-139.98
X170.8Y-174.74
X170.8Y-175.49
X170.8Y-176.24
X170.8Y-176.99
X170.8Y-177.74
X170.8Y-178.49
X170.8Y-179.24
X170.8Y-179.99
X170.8Y-180.74
X170.8Y-181.49
X170.8Y-181.49
X170.8Y-182.24
X170.81Y-96.23
X170.81Y-96.98
X170.81Y-97.73
X170.81Y-98.48
X170.81Y-99.23
X170.81Y-99.98
X170.81Y-100.73
X170.81Y-101.48
X170.81Y-102.23
X170.81Y-102.98
X170.81Y-102.98
X170.81Y-103.73
X175.8Y-132.48
X175.8Y-133.23
X175.8Y-133.98
X175.8Y-134.73
X175.8Y-135.48
X175.8Y-136.23
X175.8Y-136.98
X175.8Y-137.73
X175.8Y-138.48
X175.8Y-139.23
X175.8Y-139.23
X175.8Y-139.98
X175.8Y-174.74
X175.8Y-175.49
X175.8Y-176.24
X175.8Y-176.99
X175.8Y-177.74
X175.8Y-178.49
X175.8Y-179.24
X175.8Y-179.99
X175.8Y-180.74
X175.8Y-181.49
X175.8Y-181.49
X175.8Y-182.24
X175.81Y-96.23
X175.81Y-96.98
X175.81Y-97.73
X175.81Y-98.48
X175.81Y-99.23
X175.81Y-99.98
X175.81Y-100.73
X175.81Y-101.48
X175.81Y-102.23
X175.81Y-102.98
X175.81Y-102.98
X175.81Y-103.73
T2
X37.413Y-95.188
X37.413Y-133.287
X37.413Y-152.338
X37.465Y-114.237
X47.572Y-95.188
X47.572Y-133.287
X47.572Y-152.338
X47.625Y-114.237
X56.462Y-128.525
X56.515Y-90.425
X56.515Y-109.475
X56.515Y-147.637
X66.623Y-128.525
X66.675Y-90.425
X66.675Y-109.475
X66.675Y-147.637
X75.513Y-85.662
X75.513Y-123.762
X75.513Y-142.812
X75.565Y-104.712
X85.672Y-85.662
X85.672Y-123.762
X85.672Y-142.812
X85.725Y-104.712
X94.562Y-85.662
X94.562Y-104.712
X94.615Y-123.825
X94.615Y-142.812
X104.722Y-85.662
X104.722Y-104.712
X104.775Y-123.825
X104.775Y-142.812
X113.612Y-90.425
X113.612Y-109.475
X113.612Y-128.525
X113.612Y-147.575
X113.612Y-176.15
X123.772Y-90.425
X123.772Y-109.475
X123.772Y-128.525
X123.772Y-147.575
X123.772Y-176.15
X132.662Y-95.188
X132.662Y-114.237
X132.662Y-133.287
X132.662Y-152.338
X132.715Y-180.975
X142.822Y-95.188
X142.822Y-114.237
X142.822Y-133.287
X142.822Y-152.338
X142.875Y-180.975
X203.7Y-95.188
X203.7Y-114.237
X203.7Y-133.287
X203.7Y-152.338
X203.7Y-180.912
X213.861Y-95.188
X213.861Y-114.237
X213.861Y-133.287
X213.861Y-152.338
X213.861Y-180.912
X222.75Y-90.425
X222.75Y-109.475
X222.75Y-128.525
X222.75Y-147.575
X222.75Y-176.15
X232.91Y-90.425
X232.91Y-109.475
X232.91Y-128.525
X232.91Y-147.575
X232.91Y-176.15
X241.8Y-85.662
X241.8Y-104.712
X241.8Y-123.762
X241.8Y-142.812
X251.96Y-85.662
X251.96Y-104.712
X251.96Y-123.762
X251.96Y-142.812
X260.851Y-85.662
X260.851Y-104.712
X260.851Y-123.762
X260.851Y-142.812
X271.01Y-85.662
X271.01Y-104.712
X271.01Y-123.762
X271.01Y-142.812
X279.9Y-90.425
X279.9Y-109.475
X279.9Y-128.525
X279.9Y-147.575
X290.06Y-90.425
X290.06Y-109.475
X290.06Y-128.525
X290.06Y-147.575
X298.95Y-95.188
X298.95Y-114.237
X298.95Y-133.287
X298.95Y-152.338
X309.111Y-95.188
X309.111Y-114.237
X309.111Y-133.287
X309.111Y-152.338
T3
X46.938Y-80.9
X56.462Y-161.862
X104.087Y-157.1
X113.612Y-76.138
X161.237Y-185.675
X166.0Y-119.0
X180.975Y-119.062
X184.968Y-185.675
X232.593Y-76.138
X242.118Y-157.1
X289.743Y-161.862
X299.268Y-80.9
T4
X42.492Y-95.188
X42.492Y-133.287
X42.492Y-152.338
X42.545Y-114.237
X61.542Y-128.525
X61.595Y-90.425
X61.595Y-109.475
X61.595Y-147.637
X80.593Y-85.662
X80.593Y-123.762
X80.593Y-142.812
X80.645Y-104.712
X99.642Y-85.662
X99.642Y-104.712
X99.695Y-123.825
X99.695Y-142.812
X118.692Y-90.425
X118.692Y-109.475
X118.692Y-128.525
X118.692Y-147.575
X118.692Y-176.15
X137.743Y-95.188
X137.743Y-114.237
X137.743Y-133.287
X137.743Y-152.338
X137.795Y-180.975
X208.78Y-95.188
X208.78Y-114.237
X208.78Y-133.287
X208.78Y-152.338
X208.78Y-180.912
X227.831Y-90.425
X227.831Y-109.475
X227.831Y-128.525
X227.831Y-147.575
X227.831Y-176.15
X246.88Y-85.662
X246.88Y-104.712
X246.88Y-123.762
X246.88Y-142.812
X265.93Y-85.662
X265.93Y-104.712
X265.93Y-123.762
X265.93Y-142.812
X284.981Y-90.425
X284.981Y-109.475
X284.981Y-128.525
X284.981Y-147.575
X304.03Y-95.188
X304.03Y-114.237
X304.03Y-133.287
X304.03Y-152.338
M30
