G04 #@! TF.GenerationSoftware,KiCad,Pcbnew,10.0.3*
G04 #@! TF.CreationDate,2026-07-27T11:37:26-06:00*
G04 #@! TF.ProjectId,splitKey,73706c69-744b-4657-992e-6b696361645f,rev?*
G04 #@! TF.SameCoordinates,Original*
G04 #@! TF.FileFunction,Profile,NP*
%FSLAX46Y46*%
G04 Gerber Fmt 4.6, Leading zero omitted, Abs format (unit mm)*
G04 Created by KiCad (PCBNEW 10.0.3) date 2026-07-27 11:37:26*
%MOMM*%
%LPD*%
G01*
G04 APERTURE LIST*
G04 #@! TA.AperFunction,Profile*
%ADD10C,0.050000*%
G04 #@! TD*
G04 APERTURE END LIST*
D10*
X27887500Y-85662500D02*
X42175000Y-71375000D01*
X27887500Y-166625000D02*
X27887500Y-85662500D01*
X42175000Y-71375000D02*
X127900000Y-71375000D01*
X94562500Y-166625000D02*
X27887500Y-166625000D01*
X108850000Y-195200000D02*
X94562500Y-166625000D01*
X127900000Y-71375000D02*
X142187500Y-85662500D01*
X127900000Y-195200000D02*
X108850000Y-195200000D01*
X142187500Y-85662500D02*
X170762500Y-85662500D01*
X170762500Y-195200000D02*
X127900000Y-195200000D01*
X170762500Y-195200000D02*
X170800000Y-183490000D01*
X170777342Y-141239320D02*
G75*
G02*
X175822646Y-141217849I2522658J9320D01*
G01*
X170778827Y-131226271D02*
X170810000Y-104980000D01*
X170800000Y-173490000D02*
X170778134Y-141239318D01*
X170800000Y-183490000D02*
G75*
G02*
X175800000Y-183490000I2500000J0D01*
G01*
X170810000Y-94980000D02*
X170762500Y-85662500D01*
X170810000Y-104980000D02*
G75*
G02*
X175810000Y-104980000I2500000J0D01*
G01*
X175800000Y-173490000D02*
G75*
G02*
X170800000Y-173490000I-2500000J0D01*
G01*
X175809998Y-94982957D02*
G75*
G02*
X170810000Y-94980000I-2499998J2957D01*
G01*
X175809998Y-94982957D02*
X175822500Y-85662500D01*
X175821176Y-131230879D02*
G75*
G02*
X170778827Y-131226271I-2521176J879D01*
G01*
X175821176Y-131230879D02*
X175810000Y-104980000D01*
X175822500Y-195200000D02*
X175800000Y-183490000D01*
X175822500Y-195200000D02*
X218685000Y-195200000D01*
X175822646Y-141217849D02*
X175800000Y-173490000D01*
X204397500Y-85662500D02*
X175822500Y-85662500D01*
X218685000Y-71375000D02*
X204397500Y-85662500D01*
X218685000Y-195200000D02*
X237735000Y-195200000D01*
X237735000Y-195200000D02*
X252022500Y-166625000D01*
X252022500Y-166625000D02*
X318697500Y-166625000D01*
X304410000Y-71375000D02*
X218685000Y-71375000D01*
X318697500Y-85662500D02*
X304410000Y-71375000D01*
X318697500Y-166625000D02*
X318697500Y-85662500D01*
M02*
