G04 #@! TF.GenerationSoftware,KiCad,Pcbnew,10.0.3*
G04 #@! TF.CreationDate,2026-07-27T11:37:26-06:00*
G04 #@! TF.ProjectId,splitKey,73706c69-744b-4657-992e-6b696361645f,rev?*
G04 #@! TF.SameCoordinates,Original*
G04 #@! TF.FileFunction,AssemblyDrawing,Top*
%FSLAX46Y46*%
G04 Gerber Fmt 4.6, Leading zero omitted, Abs format (unit mm)*
G04 Created by KiCad (PCBNEW 10.0.3) date 2026-07-27 11:37:26*
%MOMM*%
%LPD*%
G01*
G04 APERTURE LIST*
%ADD10C,0.150000*%
%ADD11C,0.101600*%
%ADD12C,0.100000*%
%ADD13C,0.504000*%
G04 APERTURE END LIST*
D10*
X176189285Y-122667319D02*
X176189285Y-121667319D01*
X176189285Y-121667319D02*
X176522618Y-122381604D01*
X176522618Y-122381604D02*
X176855951Y-121667319D01*
X176855951Y-121667319D02*
X176855951Y-122667319D01*
X177474999Y-122667319D02*
X177379761Y-122619700D01*
X177379761Y-122619700D02*
X177332142Y-122572080D01*
X177332142Y-122572080D02*
X177284523Y-122476842D01*
X177284523Y-122476842D02*
X177284523Y-122191128D01*
X177284523Y-122191128D02*
X177332142Y-122095890D01*
X177332142Y-122095890D02*
X177379761Y-122048271D01*
X177379761Y-122048271D02*
X177474999Y-122000652D01*
X177474999Y-122000652D02*
X177617856Y-122000652D01*
X177617856Y-122000652D02*
X177713094Y-122048271D01*
X177713094Y-122048271D02*
X177760713Y-122095890D01*
X177760713Y-122095890D02*
X177808332Y-122191128D01*
X177808332Y-122191128D02*
X177808332Y-122476842D01*
X177808332Y-122476842D02*
X177760713Y-122572080D01*
X177760713Y-122572080D02*
X177713094Y-122619700D01*
X177713094Y-122619700D02*
X177617856Y-122667319D01*
X177617856Y-122667319D02*
X177474999Y-122667319D01*
X178665475Y-122000652D02*
X178665475Y-122667319D01*
X178236904Y-122000652D02*
X178236904Y-122524461D01*
X178236904Y-122524461D02*
X178284523Y-122619700D01*
X178284523Y-122619700D02*
X178379761Y-122667319D01*
X178379761Y-122667319D02*
X178522618Y-122667319D01*
X178522618Y-122667319D02*
X178617856Y-122619700D01*
X178617856Y-122619700D02*
X178665475Y-122572080D01*
X179141666Y-122000652D02*
X179141666Y-122667319D01*
X179141666Y-122095890D02*
X179189285Y-122048271D01*
X179189285Y-122048271D02*
X179284523Y-122000652D01*
X179284523Y-122000652D02*
X179427380Y-122000652D01*
X179427380Y-122000652D02*
X179522618Y-122048271D01*
X179522618Y-122048271D02*
X179570237Y-122143509D01*
X179570237Y-122143509D02*
X179570237Y-122667319D01*
X179903571Y-122000652D02*
X180284523Y-122000652D01*
X180046428Y-121667319D02*
X180046428Y-122524461D01*
X180046428Y-122524461D02*
X180094047Y-122619700D01*
X180094047Y-122619700D02*
X180189285Y-122667319D01*
X180189285Y-122667319D02*
X180284523Y-122667319D01*
X180617857Y-122667319D02*
X180617857Y-122000652D01*
X180617857Y-121667319D02*
X180570238Y-121714938D01*
X180570238Y-121714938D02*
X180617857Y-121762557D01*
X180617857Y-121762557D02*
X180665476Y-121714938D01*
X180665476Y-121714938D02*
X180617857Y-121667319D01*
X180617857Y-121667319D02*
X180617857Y-121762557D01*
X181094047Y-122000652D02*
X181094047Y-122667319D01*
X181094047Y-122095890D02*
X181141666Y-122048271D01*
X181141666Y-122048271D02*
X181236904Y-122000652D01*
X181236904Y-122000652D02*
X181379761Y-122000652D01*
X181379761Y-122000652D02*
X181474999Y-122048271D01*
X181474999Y-122048271D02*
X181522618Y-122143509D01*
X181522618Y-122143509D02*
X181522618Y-122667319D01*
X182427380Y-122000652D02*
X182427380Y-122810176D01*
X182427380Y-122810176D02*
X182379761Y-122905414D01*
X182379761Y-122905414D02*
X182332142Y-122953033D01*
X182332142Y-122953033D02*
X182236904Y-123000652D01*
X182236904Y-123000652D02*
X182094047Y-123000652D01*
X182094047Y-123000652D02*
X181998809Y-122953033D01*
X182427380Y-122619700D02*
X182332142Y-122667319D01*
X182332142Y-122667319D02*
X182141666Y-122667319D01*
X182141666Y-122667319D02*
X182046428Y-122619700D01*
X182046428Y-122619700D02*
X181998809Y-122572080D01*
X181998809Y-122572080D02*
X181951190Y-122476842D01*
X181951190Y-122476842D02*
X181951190Y-122191128D01*
X181951190Y-122191128D02*
X181998809Y-122095890D01*
X181998809Y-122095890D02*
X182046428Y-122048271D01*
X182046428Y-122048271D02*
X182141666Y-122000652D01*
X182141666Y-122000652D02*
X182332142Y-122000652D01*
X182332142Y-122000652D02*
X182427380Y-122048271D01*
X182903571Y-122667319D02*
X182903571Y-121667319D01*
X182903571Y-122143509D02*
X183474999Y-122143509D01*
X183474999Y-122667319D02*
X183474999Y-121667319D01*
X184094047Y-122667319D02*
X183998809Y-122619700D01*
X183998809Y-122619700D02*
X183951190Y-122572080D01*
X183951190Y-122572080D02*
X183903571Y-122476842D01*
X183903571Y-122476842D02*
X183903571Y-122191128D01*
X183903571Y-122191128D02*
X183951190Y-122095890D01*
X183951190Y-122095890D02*
X183998809Y-122048271D01*
X183998809Y-122048271D02*
X184094047Y-122000652D01*
X184094047Y-122000652D02*
X184236904Y-122000652D01*
X184236904Y-122000652D02*
X184332142Y-122048271D01*
X184332142Y-122048271D02*
X184379761Y-122095890D01*
X184379761Y-122095890D02*
X184427380Y-122191128D01*
X184427380Y-122191128D02*
X184427380Y-122476842D01*
X184427380Y-122476842D02*
X184379761Y-122572080D01*
X184379761Y-122572080D02*
X184332142Y-122619700D01*
X184332142Y-122619700D02*
X184236904Y-122667319D01*
X184236904Y-122667319D02*
X184094047Y-122667319D01*
X184998809Y-122667319D02*
X184903571Y-122619700D01*
X184903571Y-122619700D02*
X184855952Y-122524461D01*
X184855952Y-122524461D02*
X184855952Y-121667319D01*
X185760714Y-122619700D02*
X185665476Y-122667319D01*
X185665476Y-122667319D02*
X185475000Y-122667319D01*
X185475000Y-122667319D02*
X185379762Y-122619700D01*
X185379762Y-122619700D02*
X185332143Y-122524461D01*
X185332143Y-122524461D02*
X185332143Y-122143509D01*
X185332143Y-122143509D02*
X185379762Y-122048271D01*
X185379762Y-122048271D02*
X185475000Y-122000652D01*
X185475000Y-122000652D02*
X185665476Y-122000652D01*
X185665476Y-122000652D02*
X185760714Y-122048271D01*
X185760714Y-122048271D02*
X185808333Y-122143509D01*
X185808333Y-122143509D02*
X185808333Y-122238747D01*
X185808333Y-122238747D02*
X185332143Y-122333985D01*
X185273095Y-119517319D02*
X185273095Y-118517319D01*
X185273095Y-118993509D02*
X185844523Y-118993509D01*
X185844523Y-119517319D02*
X185844523Y-118517319D01*
X186749285Y-118850652D02*
X186749285Y-119517319D01*
X186511190Y-118469700D02*
X186273095Y-119183985D01*
X186273095Y-119183985D02*
X186892142Y-119183985D01*
X182316666Y-111494819D02*
X182888094Y-111494819D01*
X182602380Y-112494819D02*
X182602380Y-111494819D01*
X183602380Y-112447200D02*
X183507142Y-112494819D01*
X183507142Y-112494819D02*
X183316666Y-112494819D01*
X183316666Y-112494819D02*
X183221428Y-112447200D01*
X183221428Y-112447200D02*
X183173809Y-112351961D01*
X183173809Y-112351961D02*
X183173809Y-111971009D01*
X183173809Y-111971009D02*
X183221428Y-111875771D01*
X183221428Y-111875771D02*
X183316666Y-111828152D01*
X183316666Y-111828152D02*
X183507142Y-111828152D01*
X183507142Y-111828152D02*
X183602380Y-111875771D01*
X183602380Y-111875771D02*
X183649999Y-111971009D01*
X183649999Y-111971009D02*
X183649999Y-112066247D01*
X183649999Y-112066247D02*
X183173809Y-112161485D01*
X184030952Y-112447200D02*
X184126190Y-112494819D01*
X184126190Y-112494819D02*
X184316666Y-112494819D01*
X184316666Y-112494819D02*
X184411904Y-112447200D01*
X184411904Y-112447200D02*
X184459523Y-112351961D01*
X184459523Y-112351961D02*
X184459523Y-112304342D01*
X184459523Y-112304342D02*
X184411904Y-112209104D01*
X184411904Y-112209104D02*
X184316666Y-112161485D01*
X184316666Y-112161485D02*
X184173809Y-112161485D01*
X184173809Y-112161485D02*
X184078571Y-112113866D01*
X184078571Y-112113866D02*
X184030952Y-112018628D01*
X184030952Y-112018628D02*
X184030952Y-111971009D01*
X184030952Y-111971009D02*
X184078571Y-111875771D01*
X184078571Y-111875771D02*
X184173809Y-111828152D01*
X184173809Y-111828152D02*
X184316666Y-111828152D01*
X184316666Y-111828152D02*
X184411904Y-111875771D01*
X184745238Y-111828152D02*
X185126190Y-111828152D01*
X184888095Y-111494819D02*
X184888095Y-112351961D01*
X184888095Y-112351961D02*
X184935714Y-112447200D01*
X184935714Y-112447200D02*
X185030952Y-112494819D01*
X185030952Y-112494819D02*
X185126190Y-112494819D01*
X185459524Y-112494819D02*
X185459524Y-111494819D01*
X185459524Y-111494819D02*
X185840476Y-111494819D01*
X185840476Y-111494819D02*
X185935714Y-111542438D01*
X185935714Y-111542438D02*
X185983333Y-111590057D01*
X185983333Y-111590057D02*
X186030952Y-111685295D01*
X186030952Y-111685295D02*
X186030952Y-111828152D01*
X186030952Y-111828152D02*
X185983333Y-111923390D01*
X185983333Y-111923390D02*
X185935714Y-111971009D01*
X185935714Y-111971009D02*
X185840476Y-112018628D01*
X185840476Y-112018628D02*
X185459524Y-112018628D01*
X186602381Y-112494819D02*
X186507143Y-112447200D01*
X186507143Y-112447200D02*
X186459524Y-112399580D01*
X186459524Y-112399580D02*
X186411905Y-112304342D01*
X186411905Y-112304342D02*
X186411905Y-112018628D01*
X186411905Y-112018628D02*
X186459524Y-111923390D01*
X186459524Y-111923390D02*
X186507143Y-111875771D01*
X186507143Y-111875771D02*
X186602381Y-111828152D01*
X186602381Y-111828152D02*
X186745238Y-111828152D01*
X186745238Y-111828152D02*
X186840476Y-111875771D01*
X186840476Y-111875771D02*
X186888095Y-111923390D01*
X186888095Y-111923390D02*
X186935714Y-112018628D01*
X186935714Y-112018628D02*
X186935714Y-112304342D01*
X186935714Y-112304342D02*
X186888095Y-112399580D01*
X186888095Y-112399580D02*
X186840476Y-112447200D01*
X186840476Y-112447200D02*
X186745238Y-112494819D01*
X186745238Y-112494819D02*
X186602381Y-112494819D01*
X187364286Y-112494819D02*
X187364286Y-111828152D01*
X187364286Y-111494819D02*
X187316667Y-111542438D01*
X187316667Y-111542438D02*
X187364286Y-111590057D01*
X187364286Y-111590057D02*
X187411905Y-111542438D01*
X187411905Y-111542438D02*
X187364286Y-111494819D01*
X187364286Y-111494819D02*
X187364286Y-111590057D01*
X187840476Y-111828152D02*
X187840476Y-112494819D01*
X187840476Y-111923390D02*
X187888095Y-111875771D01*
X187888095Y-111875771D02*
X187983333Y-111828152D01*
X187983333Y-111828152D02*
X188126190Y-111828152D01*
X188126190Y-111828152D02*
X188221428Y-111875771D01*
X188221428Y-111875771D02*
X188269047Y-111971009D01*
X188269047Y-111971009D02*
X188269047Y-112494819D01*
X188602381Y-111828152D02*
X188983333Y-111828152D01*
X188745238Y-111494819D02*
X188745238Y-112351961D01*
X188745238Y-112351961D02*
X188792857Y-112447200D01*
X188792857Y-112447200D02*
X188888095Y-112494819D01*
X188888095Y-112494819D02*
X188983333Y-112494819D01*
X184388095Y-107444819D02*
X184959523Y-107444819D01*
X184673809Y-108444819D02*
X184673809Y-107444819D01*
X185292857Y-108444819D02*
X185292857Y-107444819D01*
X185292857Y-107444819D02*
X185673809Y-107444819D01*
X185673809Y-107444819D02*
X185769047Y-107492438D01*
X185769047Y-107492438D02*
X185816666Y-107540057D01*
X185816666Y-107540057D02*
X185864285Y-107635295D01*
X185864285Y-107635295D02*
X185864285Y-107778152D01*
X185864285Y-107778152D02*
X185816666Y-107873390D01*
X185816666Y-107873390D02*
X185769047Y-107921009D01*
X185769047Y-107921009D02*
X185673809Y-107968628D01*
X185673809Y-107968628D02*
X185292857Y-107968628D01*
X186197619Y-107444819D02*
X186816666Y-107444819D01*
X186816666Y-107444819D02*
X186483333Y-107825771D01*
X186483333Y-107825771D02*
X186626190Y-107825771D01*
X186626190Y-107825771D02*
X186721428Y-107873390D01*
X186721428Y-107873390D02*
X186769047Y-107921009D01*
X186769047Y-107921009D02*
X186816666Y-108016247D01*
X186816666Y-108016247D02*
X186816666Y-108254342D01*
X186816666Y-108254342D02*
X186769047Y-108349580D01*
X186769047Y-108349580D02*
X186721428Y-108397200D01*
X186721428Y-108397200D02*
X186626190Y-108444819D01*
X186626190Y-108444819D02*
X186340476Y-108444819D01*
X186340476Y-108444819D02*
X186245238Y-108397200D01*
X186245238Y-108397200D02*
X186197619Y-108349580D01*
D11*
X185039643Y-103869479D02*
X185462976Y-104504479D01*
X185462976Y-103869479D02*
X185039643Y-104504479D01*
X185704881Y-104504479D02*
X185704881Y-103869479D01*
X185977024Y-104323050D02*
X186279405Y-104323050D01*
X185916548Y-104504479D02*
X186128214Y-103869479D01*
X186128214Y-103869479D02*
X186339881Y-104504479D01*
X186672500Y-103869479D02*
X186793453Y-103869479D01*
X186793453Y-103869479D02*
X186853929Y-103899717D01*
X186853929Y-103899717D02*
X186914405Y-103960193D01*
X186914405Y-103960193D02*
X186944643Y-104081145D01*
X186944643Y-104081145D02*
X186944643Y-104292812D01*
X186944643Y-104292812D02*
X186914405Y-104413764D01*
X186914405Y-104413764D02*
X186853929Y-104474241D01*
X186853929Y-104474241D02*
X186793453Y-104504479D01*
X186793453Y-104504479D02*
X186672500Y-104504479D01*
X186672500Y-104504479D02*
X186612024Y-104474241D01*
X186612024Y-104474241D02*
X186551548Y-104413764D01*
X186551548Y-104413764D02*
X186521310Y-104292812D01*
X186521310Y-104292812D02*
X186521310Y-104081145D01*
X186521310Y-104081145D02*
X186551548Y-103960193D01*
X186551548Y-103960193D02*
X186612024Y-103899717D01*
X186612024Y-103899717D02*
X186672500Y-103869479D01*
X187216786Y-104262574D02*
X187700596Y-104262574D01*
X188002976Y-104081145D02*
X188002976Y-104504479D01*
X188002976Y-104141621D02*
X188033214Y-104111383D01*
X188033214Y-104111383D02*
X188093690Y-104081145D01*
X188093690Y-104081145D02*
X188184405Y-104081145D01*
X188184405Y-104081145D02*
X188244881Y-104111383D01*
X188244881Y-104111383D02*
X188275119Y-104171860D01*
X188275119Y-104171860D02*
X188275119Y-104504479D01*
X188940357Y-104504479D02*
X188728690Y-104202098D01*
X188577500Y-104504479D02*
X188577500Y-103869479D01*
X188577500Y-103869479D02*
X188819405Y-103869479D01*
X188819405Y-103869479D02*
X188879881Y-103899717D01*
X188879881Y-103899717D02*
X188910119Y-103929955D01*
X188910119Y-103929955D02*
X188940357Y-103990431D01*
X188940357Y-103990431D02*
X188940357Y-104081145D01*
X188940357Y-104081145D02*
X188910119Y-104141621D01*
X188910119Y-104141621D02*
X188879881Y-104171860D01*
X188879881Y-104171860D02*
X188819405Y-104202098D01*
X188819405Y-104202098D02*
X188577500Y-104202098D01*
X189424167Y-104171860D02*
X189212500Y-104171860D01*
X189212500Y-104504479D02*
X189212500Y-103869479D01*
X189212500Y-103869479D02*
X189514881Y-103869479D01*
X190059167Y-103869479D02*
X189756786Y-103869479D01*
X189756786Y-103869479D02*
X189726548Y-104171860D01*
X189726548Y-104171860D02*
X189756786Y-104141621D01*
X189756786Y-104141621D02*
X189817262Y-104111383D01*
X189817262Y-104111383D02*
X189968453Y-104111383D01*
X189968453Y-104111383D02*
X190028929Y-104141621D01*
X190028929Y-104141621D02*
X190059167Y-104171860D01*
X190059167Y-104171860D02*
X190089405Y-104232336D01*
X190089405Y-104232336D02*
X190089405Y-104383526D01*
X190089405Y-104383526D02*
X190059167Y-104444002D01*
X190059167Y-104444002D02*
X190028929Y-104474241D01*
X190028929Y-104474241D02*
X189968453Y-104504479D01*
X189968453Y-104504479D02*
X189817262Y-104504479D01*
X189817262Y-104504479D02*
X189756786Y-104474241D01*
X189756786Y-104474241D02*
X189726548Y-104444002D01*
X190331310Y-103929955D02*
X190361548Y-103899717D01*
X190361548Y-103899717D02*
X190422024Y-103869479D01*
X190422024Y-103869479D02*
X190573215Y-103869479D01*
X190573215Y-103869479D02*
X190633691Y-103899717D01*
X190633691Y-103899717D02*
X190663929Y-103929955D01*
X190663929Y-103929955D02*
X190694167Y-103990431D01*
X190694167Y-103990431D02*
X190694167Y-104050907D01*
X190694167Y-104050907D02*
X190663929Y-104141621D01*
X190663929Y-104141621D02*
X190301072Y-104504479D01*
X190301072Y-104504479D02*
X190694167Y-104504479D01*
X191057024Y-104141621D02*
X190996548Y-104111383D01*
X190996548Y-104111383D02*
X190966310Y-104081145D01*
X190966310Y-104081145D02*
X190936072Y-104020669D01*
X190936072Y-104020669D02*
X190936072Y-103990431D01*
X190936072Y-103990431D02*
X190966310Y-103929955D01*
X190966310Y-103929955D02*
X190996548Y-103899717D01*
X190996548Y-103899717D02*
X191057024Y-103869479D01*
X191057024Y-103869479D02*
X191177977Y-103869479D01*
X191177977Y-103869479D02*
X191238453Y-103899717D01*
X191238453Y-103899717D02*
X191268691Y-103929955D01*
X191268691Y-103929955D02*
X191298929Y-103990431D01*
X191298929Y-103990431D02*
X191298929Y-104020669D01*
X191298929Y-104020669D02*
X191268691Y-104081145D01*
X191268691Y-104081145D02*
X191238453Y-104111383D01*
X191238453Y-104111383D02*
X191177977Y-104141621D01*
X191177977Y-104141621D02*
X191057024Y-104141621D01*
X191057024Y-104141621D02*
X190996548Y-104171860D01*
X190996548Y-104171860D02*
X190966310Y-104202098D01*
X190966310Y-104202098D02*
X190936072Y-104262574D01*
X190936072Y-104262574D02*
X190936072Y-104383526D01*
X190936072Y-104383526D02*
X190966310Y-104444002D01*
X190966310Y-104444002D02*
X190996548Y-104474241D01*
X190996548Y-104474241D02*
X191057024Y-104504479D01*
X191057024Y-104504479D02*
X191177977Y-104504479D01*
X191177977Y-104504479D02*
X191238453Y-104474241D01*
X191238453Y-104474241D02*
X191268691Y-104444002D01*
X191268691Y-104444002D02*
X191298929Y-104383526D01*
X191298929Y-104383526D02*
X191298929Y-104262574D01*
X191298929Y-104262574D02*
X191268691Y-104202098D01*
X191268691Y-104202098D02*
X191238453Y-104171860D01*
X191238453Y-104171860D02*
X191177977Y-104141621D01*
X191843215Y-104081145D02*
X191843215Y-104504479D01*
X191692024Y-103839241D02*
X191540834Y-104292812D01*
X191540834Y-104292812D02*
X191933929Y-104292812D01*
X192296786Y-103869479D02*
X192357263Y-103869479D01*
X192357263Y-103869479D02*
X192417739Y-103899717D01*
X192417739Y-103899717D02*
X192447977Y-103929955D01*
X192447977Y-103929955D02*
X192478215Y-103990431D01*
X192478215Y-103990431D02*
X192508453Y-104111383D01*
X192508453Y-104111383D02*
X192508453Y-104262574D01*
X192508453Y-104262574D02*
X192478215Y-104383526D01*
X192478215Y-104383526D02*
X192447977Y-104444002D01*
X192447977Y-104444002D02*
X192417739Y-104474241D01*
X192417739Y-104474241D02*
X192357263Y-104504479D01*
X192357263Y-104504479D02*
X192296786Y-104504479D01*
X192296786Y-104504479D02*
X192236310Y-104474241D01*
X192236310Y-104474241D02*
X192206072Y-104444002D01*
X192206072Y-104444002D02*
X192175834Y-104383526D01*
X192175834Y-104383526D02*
X192145596Y-104262574D01*
X192145596Y-104262574D02*
X192145596Y-104111383D01*
X192145596Y-104111383D02*
X192175834Y-103990431D01*
X192175834Y-103990431D02*
X192206072Y-103929955D01*
X192206072Y-103929955D02*
X192236310Y-103899717D01*
X192236310Y-103899717D02*
X192296786Y-103869479D01*
X192780596Y-104262574D02*
X193264406Y-104262574D01*
X193536548Y-104474241D02*
X193627262Y-104504479D01*
X193627262Y-104504479D02*
X193778453Y-104504479D01*
X193778453Y-104504479D02*
X193838929Y-104474241D01*
X193838929Y-104474241D02*
X193869167Y-104444002D01*
X193869167Y-104444002D02*
X193899405Y-104383526D01*
X193899405Y-104383526D02*
X193899405Y-104323050D01*
X193899405Y-104323050D02*
X193869167Y-104262574D01*
X193869167Y-104262574D02*
X193838929Y-104232336D01*
X193838929Y-104232336D02*
X193778453Y-104202098D01*
X193778453Y-104202098D02*
X193657500Y-104171860D01*
X193657500Y-104171860D02*
X193597024Y-104141621D01*
X193597024Y-104141621D02*
X193566786Y-104111383D01*
X193566786Y-104111383D02*
X193536548Y-104050907D01*
X193536548Y-104050907D02*
X193536548Y-103990431D01*
X193536548Y-103990431D02*
X193566786Y-103929955D01*
X193566786Y-103929955D02*
X193597024Y-103899717D01*
X193597024Y-103899717D02*
X193657500Y-103869479D01*
X193657500Y-103869479D02*
X193808691Y-103869479D01*
X193808691Y-103869479D02*
X193899405Y-103899717D01*
X194171548Y-104504479D02*
X194171548Y-103869479D01*
X194171548Y-103869479D02*
X194383215Y-104323050D01*
X194383215Y-104323050D02*
X194594881Y-103869479D01*
X194594881Y-103869479D02*
X194594881Y-104504479D01*
X194897262Y-104504479D02*
X194897262Y-103869479D01*
X194897262Y-103869479D02*
X195048452Y-103869479D01*
X195048452Y-103869479D02*
X195139167Y-103899717D01*
X195139167Y-103899717D02*
X195199643Y-103960193D01*
X195199643Y-103960193D02*
X195229881Y-104020669D01*
X195229881Y-104020669D02*
X195260119Y-104141621D01*
X195260119Y-104141621D02*
X195260119Y-104232336D01*
X195260119Y-104232336D02*
X195229881Y-104353288D01*
X195229881Y-104353288D02*
X195199643Y-104413764D01*
X195199643Y-104413764D02*
X195139167Y-104474241D01*
X195139167Y-104474241D02*
X195048452Y-104504479D01*
X195048452Y-104504479D02*
X194897262Y-104504479D01*
D10*
X147346666Y-111384819D02*
X147918094Y-111384819D01*
X147632380Y-112384819D02*
X147632380Y-111384819D01*
X148632380Y-112337200D02*
X148537142Y-112384819D01*
X148537142Y-112384819D02*
X148346666Y-112384819D01*
X148346666Y-112384819D02*
X148251428Y-112337200D01*
X148251428Y-112337200D02*
X148203809Y-112241961D01*
X148203809Y-112241961D02*
X148203809Y-111861009D01*
X148203809Y-111861009D02*
X148251428Y-111765771D01*
X148251428Y-111765771D02*
X148346666Y-111718152D01*
X148346666Y-111718152D02*
X148537142Y-111718152D01*
X148537142Y-111718152D02*
X148632380Y-111765771D01*
X148632380Y-111765771D02*
X148679999Y-111861009D01*
X148679999Y-111861009D02*
X148679999Y-111956247D01*
X148679999Y-111956247D02*
X148203809Y-112051485D01*
X149060952Y-112337200D02*
X149156190Y-112384819D01*
X149156190Y-112384819D02*
X149346666Y-112384819D01*
X149346666Y-112384819D02*
X149441904Y-112337200D01*
X149441904Y-112337200D02*
X149489523Y-112241961D01*
X149489523Y-112241961D02*
X149489523Y-112194342D01*
X149489523Y-112194342D02*
X149441904Y-112099104D01*
X149441904Y-112099104D02*
X149346666Y-112051485D01*
X149346666Y-112051485D02*
X149203809Y-112051485D01*
X149203809Y-112051485D02*
X149108571Y-112003866D01*
X149108571Y-112003866D02*
X149060952Y-111908628D01*
X149060952Y-111908628D02*
X149060952Y-111861009D01*
X149060952Y-111861009D02*
X149108571Y-111765771D01*
X149108571Y-111765771D02*
X149203809Y-111718152D01*
X149203809Y-111718152D02*
X149346666Y-111718152D01*
X149346666Y-111718152D02*
X149441904Y-111765771D01*
X149775238Y-111718152D02*
X150156190Y-111718152D01*
X149918095Y-111384819D02*
X149918095Y-112241961D01*
X149918095Y-112241961D02*
X149965714Y-112337200D01*
X149965714Y-112337200D02*
X150060952Y-112384819D01*
X150060952Y-112384819D02*
X150156190Y-112384819D01*
X150489524Y-112384819D02*
X150489524Y-111384819D01*
X150489524Y-111384819D02*
X150870476Y-111384819D01*
X150870476Y-111384819D02*
X150965714Y-111432438D01*
X150965714Y-111432438D02*
X151013333Y-111480057D01*
X151013333Y-111480057D02*
X151060952Y-111575295D01*
X151060952Y-111575295D02*
X151060952Y-111718152D01*
X151060952Y-111718152D02*
X151013333Y-111813390D01*
X151013333Y-111813390D02*
X150965714Y-111861009D01*
X150965714Y-111861009D02*
X150870476Y-111908628D01*
X150870476Y-111908628D02*
X150489524Y-111908628D01*
X151632381Y-112384819D02*
X151537143Y-112337200D01*
X151537143Y-112337200D02*
X151489524Y-112289580D01*
X151489524Y-112289580D02*
X151441905Y-112194342D01*
X151441905Y-112194342D02*
X151441905Y-111908628D01*
X151441905Y-111908628D02*
X151489524Y-111813390D01*
X151489524Y-111813390D02*
X151537143Y-111765771D01*
X151537143Y-111765771D02*
X151632381Y-111718152D01*
X151632381Y-111718152D02*
X151775238Y-111718152D01*
X151775238Y-111718152D02*
X151870476Y-111765771D01*
X151870476Y-111765771D02*
X151918095Y-111813390D01*
X151918095Y-111813390D02*
X151965714Y-111908628D01*
X151965714Y-111908628D02*
X151965714Y-112194342D01*
X151965714Y-112194342D02*
X151918095Y-112289580D01*
X151918095Y-112289580D02*
X151870476Y-112337200D01*
X151870476Y-112337200D02*
X151775238Y-112384819D01*
X151775238Y-112384819D02*
X151632381Y-112384819D01*
X152394286Y-112384819D02*
X152394286Y-111718152D01*
X152394286Y-111384819D02*
X152346667Y-111432438D01*
X152346667Y-111432438D02*
X152394286Y-111480057D01*
X152394286Y-111480057D02*
X152441905Y-111432438D01*
X152441905Y-111432438D02*
X152394286Y-111384819D01*
X152394286Y-111384819D02*
X152394286Y-111480057D01*
X152870476Y-111718152D02*
X152870476Y-112384819D01*
X152870476Y-111813390D02*
X152918095Y-111765771D01*
X152918095Y-111765771D02*
X153013333Y-111718152D01*
X153013333Y-111718152D02*
X153156190Y-111718152D01*
X153156190Y-111718152D02*
X153251428Y-111765771D01*
X153251428Y-111765771D02*
X153299047Y-111861009D01*
X153299047Y-111861009D02*
X153299047Y-112384819D01*
X153632381Y-111718152D02*
X154013333Y-111718152D01*
X153775238Y-111384819D02*
X153775238Y-112241961D01*
X153775238Y-112241961D02*
X153822857Y-112337200D01*
X153822857Y-112337200D02*
X153918095Y-112384819D01*
X153918095Y-112384819D02*
X154013333Y-112384819D01*
X149418095Y-107334819D02*
X149989523Y-107334819D01*
X149703809Y-108334819D02*
X149703809Y-107334819D01*
X150322857Y-108334819D02*
X150322857Y-107334819D01*
X150322857Y-107334819D02*
X150703809Y-107334819D01*
X150703809Y-107334819D02*
X150799047Y-107382438D01*
X150799047Y-107382438D02*
X150846666Y-107430057D01*
X150846666Y-107430057D02*
X150894285Y-107525295D01*
X150894285Y-107525295D02*
X150894285Y-107668152D01*
X150894285Y-107668152D02*
X150846666Y-107763390D01*
X150846666Y-107763390D02*
X150799047Y-107811009D01*
X150799047Y-107811009D02*
X150703809Y-107858628D01*
X150703809Y-107858628D02*
X150322857Y-107858628D01*
X151846666Y-108334819D02*
X151275238Y-108334819D01*
X151560952Y-108334819D02*
X151560952Y-107334819D01*
X151560952Y-107334819D02*
X151465714Y-107477676D01*
X151465714Y-107477676D02*
X151370476Y-107572914D01*
X151370476Y-107572914D02*
X151275238Y-107620533D01*
X237332285Y-160704819D02*
X237332285Y-159704819D01*
X237332285Y-159704819D02*
X237665618Y-160419104D01*
X237665618Y-160419104D02*
X237998951Y-159704819D01*
X237998951Y-159704819D02*
X237998951Y-160704819D01*
X238617999Y-160704819D02*
X238522761Y-160657200D01*
X238522761Y-160657200D02*
X238475142Y-160609580D01*
X238475142Y-160609580D02*
X238427523Y-160514342D01*
X238427523Y-160514342D02*
X238427523Y-160228628D01*
X238427523Y-160228628D02*
X238475142Y-160133390D01*
X238475142Y-160133390D02*
X238522761Y-160085771D01*
X238522761Y-160085771D02*
X238617999Y-160038152D01*
X238617999Y-160038152D02*
X238760856Y-160038152D01*
X238760856Y-160038152D02*
X238856094Y-160085771D01*
X238856094Y-160085771D02*
X238903713Y-160133390D01*
X238903713Y-160133390D02*
X238951332Y-160228628D01*
X238951332Y-160228628D02*
X238951332Y-160514342D01*
X238951332Y-160514342D02*
X238903713Y-160609580D01*
X238903713Y-160609580D02*
X238856094Y-160657200D01*
X238856094Y-160657200D02*
X238760856Y-160704819D01*
X238760856Y-160704819D02*
X238617999Y-160704819D01*
X239808475Y-160038152D02*
X239808475Y-160704819D01*
X239379904Y-160038152D02*
X239379904Y-160561961D01*
X239379904Y-160561961D02*
X239427523Y-160657200D01*
X239427523Y-160657200D02*
X239522761Y-160704819D01*
X239522761Y-160704819D02*
X239665618Y-160704819D01*
X239665618Y-160704819D02*
X239760856Y-160657200D01*
X239760856Y-160657200D02*
X239808475Y-160609580D01*
X240284666Y-160038152D02*
X240284666Y-160704819D01*
X240284666Y-160133390D02*
X240332285Y-160085771D01*
X240332285Y-160085771D02*
X240427523Y-160038152D01*
X240427523Y-160038152D02*
X240570380Y-160038152D01*
X240570380Y-160038152D02*
X240665618Y-160085771D01*
X240665618Y-160085771D02*
X240713237Y-160181009D01*
X240713237Y-160181009D02*
X240713237Y-160704819D01*
X241046571Y-160038152D02*
X241427523Y-160038152D01*
X241189428Y-159704819D02*
X241189428Y-160561961D01*
X241189428Y-160561961D02*
X241237047Y-160657200D01*
X241237047Y-160657200D02*
X241332285Y-160704819D01*
X241332285Y-160704819D02*
X241427523Y-160704819D01*
X241760857Y-160704819D02*
X241760857Y-160038152D01*
X241760857Y-159704819D02*
X241713238Y-159752438D01*
X241713238Y-159752438D02*
X241760857Y-159800057D01*
X241760857Y-159800057D02*
X241808476Y-159752438D01*
X241808476Y-159752438D02*
X241760857Y-159704819D01*
X241760857Y-159704819D02*
X241760857Y-159800057D01*
X242237047Y-160038152D02*
X242237047Y-160704819D01*
X242237047Y-160133390D02*
X242284666Y-160085771D01*
X242284666Y-160085771D02*
X242379904Y-160038152D01*
X242379904Y-160038152D02*
X242522761Y-160038152D01*
X242522761Y-160038152D02*
X242617999Y-160085771D01*
X242617999Y-160085771D02*
X242665618Y-160181009D01*
X242665618Y-160181009D02*
X242665618Y-160704819D01*
X243570380Y-160038152D02*
X243570380Y-160847676D01*
X243570380Y-160847676D02*
X243522761Y-160942914D01*
X243522761Y-160942914D02*
X243475142Y-160990533D01*
X243475142Y-160990533D02*
X243379904Y-161038152D01*
X243379904Y-161038152D02*
X243237047Y-161038152D01*
X243237047Y-161038152D02*
X243141809Y-160990533D01*
X243570380Y-160657200D02*
X243475142Y-160704819D01*
X243475142Y-160704819D02*
X243284666Y-160704819D01*
X243284666Y-160704819D02*
X243189428Y-160657200D01*
X243189428Y-160657200D02*
X243141809Y-160609580D01*
X243141809Y-160609580D02*
X243094190Y-160514342D01*
X243094190Y-160514342D02*
X243094190Y-160228628D01*
X243094190Y-160228628D02*
X243141809Y-160133390D01*
X243141809Y-160133390D02*
X243189428Y-160085771D01*
X243189428Y-160085771D02*
X243284666Y-160038152D01*
X243284666Y-160038152D02*
X243475142Y-160038152D01*
X243475142Y-160038152D02*
X243570380Y-160085771D01*
X244046571Y-160704819D02*
X244046571Y-159704819D01*
X244046571Y-160181009D02*
X244617999Y-160181009D01*
X244617999Y-160704819D02*
X244617999Y-159704819D01*
X245237047Y-160704819D02*
X245141809Y-160657200D01*
X245141809Y-160657200D02*
X245094190Y-160609580D01*
X245094190Y-160609580D02*
X245046571Y-160514342D01*
X245046571Y-160514342D02*
X245046571Y-160228628D01*
X245046571Y-160228628D02*
X245094190Y-160133390D01*
X245094190Y-160133390D02*
X245141809Y-160085771D01*
X245141809Y-160085771D02*
X245237047Y-160038152D01*
X245237047Y-160038152D02*
X245379904Y-160038152D01*
X245379904Y-160038152D02*
X245475142Y-160085771D01*
X245475142Y-160085771D02*
X245522761Y-160133390D01*
X245522761Y-160133390D02*
X245570380Y-160228628D01*
X245570380Y-160228628D02*
X245570380Y-160514342D01*
X245570380Y-160514342D02*
X245522761Y-160609580D01*
X245522761Y-160609580D02*
X245475142Y-160657200D01*
X245475142Y-160657200D02*
X245379904Y-160704819D01*
X245379904Y-160704819D02*
X245237047Y-160704819D01*
X246141809Y-160704819D02*
X246046571Y-160657200D01*
X246046571Y-160657200D02*
X245998952Y-160561961D01*
X245998952Y-160561961D02*
X245998952Y-159704819D01*
X246903714Y-160657200D02*
X246808476Y-160704819D01*
X246808476Y-160704819D02*
X246618000Y-160704819D01*
X246618000Y-160704819D02*
X246522762Y-160657200D01*
X246522762Y-160657200D02*
X246475143Y-160561961D01*
X246475143Y-160561961D02*
X246475143Y-160181009D01*
X246475143Y-160181009D02*
X246522762Y-160085771D01*
X246522762Y-160085771D02*
X246618000Y-160038152D01*
X246618000Y-160038152D02*
X246808476Y-160038152D01*
X246808476Y-160038152D02*
X246903714Y-160085771D01*
X246903714Y-160085771D02*
X246951333Y-160181009D01*
X246951333Y-160181009D02*
X246951333Y-160276247D01*
X246951333Y-160276247D02*
X246475143Y-160371485D01*
X241356095Y-157554819D02*
X241356095Y-156554819D01*
X241356095Y-157031009D02*
X241927523Y-157031009D01*
X241927523Y-157554819D02*
X241927523Y-156554819D01*
X242308476Y-156554819D02*
X242927523Y-156554819D01*
X242927523Y-156554819D02*
X242594190Y-156935771D01*
X242594190Y-156935771D02*
X242737047Y-156935771D01*
X242737047Y-156935771D02*
X242832285Y-156983390D01*
X242832285Y-156983390D02*
X242879904Y-157031009D01*
X242879904Y-157031009D02*
X242927523Y-157126247D01*
X242927523Y-157126247D02*
X242927523Y-157364342D01*
X242927523Y-157364342D02*
X242879904Y-157459580D01*
X242879904Y-157459580D02*
X242832285Y-157507200D01*
X242832285Y-157507200D02*
X242737047Y-157554819D01*
X242737047Y-157554819D02*
X242451333Y-157554819D01*
X242451333Y-157554819D02*
X242356095Y-157507200D01*
X242356095Y-157507200D02*
X242308476Y-157459580D01*
X99301785Y-160704819D02*
X99301785Y-159704819D01*
X99301785Y-159704819D02*
X99635118Y-160419104D01*
X99635118Y-160419104D02*
X99968451Y-159704819D01*
X99968451Y-159704819D02*
X99968451Y-160704819D01*
X100587499Y-160704819D02*
X100492261Y-160657200D01*
X100492261Y-160657200D02*
X100444642Y-160609580D01*
X100444642Y-160609580D02*
X100397023Y-160514342D01*
X100397023Y-160514342D02*
X100397023Y-160228628D01*
X100397023Y-160228628D02*
X100444642Y-160133390D01*
X100444642Y-160133390D02*
X100492261Y-160085771D01*
X100492261Y-160085771D02*
X100587499Y-160038152D01*
X100587499Y-160038152D02*
X100730356Y-160038152D01*
X100730356Y-160038152D02*
X100825594Y-160085771D01*
X100825594Y-160085771D02*
X100873213Y-160133390D01*
X100873213Y-160133390D02*
X100920832Y-160228628D01*
X100920832Y-160228628D02*
X100920832Y-160514342D01*
X100920832Y-160514342D02*
X100873213Y-160609580D01*
X100873213Y-160609580D02*
X100825594Y-160657200D01*
X100825594Y-160657200D02*
X100730356Y-160704819D01*
X100730356Y-160704819D02*
X100587499Y-160704819D01*
X101777975Y-160038152D02*
X101777975Y-160704819D01*
X101349404Y-160038152D02*
X101349404Y-160561961D01*
X101349404Y-160561961D02*
X101397023Y-160657200D01*
X101397023Y-160657200D02*
X101492261Y-160704819D01*
X101492261Y-160704819D02*
X101635118Y-160704819D01*
X101635118Y-160704819D02*
X101730356Y-160657200D01*
X101730356Y-160657200D02*
X101777975Y-160609580D01*
X102254166Y-160038152D02*
X102254166Y-160704819D01*
X102254166Y-160133390D02*
X102301785Y-160085771D01*
X102301785Y-160085771D02*
X102397023Y-160038152D01*
X102397023Y-160038152D02*
X102539880Y-160038152D01*
X102539880Y-160038152D02*
X102635118Y-160085771D01*
X102635118Y-160085771D02*
X102682737Y-160181009D01*
X102682737Y-160181009D02*
X102682737Y-160704819D01*
X103016071Y-160038152D02*
X103397023Y-160038152D01*
X103158928Y-159704819D02*
X103158928Y-160561961D01*
X103158928Y-160561961D02*
X103206547Y-160657200D01*
X103206547Y-160657200D02*
X103301785Y-160704819D01*
X103301785Y-160704819D02*
X103397023Y-160704819D01*
X103730357Y-160704819D02*
X103730357Y-160038152D01*
X103730357Y-159704819D02*
X103682738Y-159752438D01*
X103682738Y-159752438D02*
X103730357Y-159800057D01*
X103730357Y-159800057D02*
X103777976Y-159752438D01*
X103777976Y-159752438D02*
X103730357Y-159704819D01*
X103730357Y-159704819D02*
X103730357Y-159800057D01*
X104206547Y-160038152D02*
X104206547Y-160704819D01*
X104206547Y-160133390D02*
X104254166Y-160085771D01*
X104254166Y-160085771D02*
X104349404Y-160038152D01*
X104349404Y-160038152D02*
X104492261Y-160038152D01*
X104492261Y-160038152D02*
X104587499Y-160085771D01*
X104587499Y-160085771D02*
X104635118Y-160181009D01*
X104635118Y-160181009D02*
X104635118Y-160704819D01*
X105539880Y-160038152D02*
X105539880Y-160847676D01*
X105539880Y-160847676D02*
X105492261Y-160942914D01*
X105492261Y-160942914D02*
X105444642Y-160990533D01*
X105444642Y-160990533D02*
X105349404Y-161038152D01*
X105349404Y-161038152D02*
X105206547Y-161038152D01*
X105206547Y-161038152D02*
X105111309Y-160990533D01*
X105539880Y-160657200D02*
X105444642Y-160704819D01*
X105444642Y-160704819D02*
X105254166Y-160704819D01*
X105254166Y-160704819D02*
X105158928Y-160657200D01*
X105158928Y-160657200D02*
X105111309Y-160609580D01*
X105111309Y-160609580D02*
X105063690Y-160514342D01*
X105063690Y-160514342D02*
X105063690Y-160228628D01*
X105063690Y-160228628D02*
X105111309Y-160133390D01*
X105111309Y-160133390D02*
X105158928Y-160085771D01*
X105158928Y-160085771D02*
X105254166Y-160038152D01*
X105254166Y-160038152D02*
X105444642Y-160038152D01*
X105444642Y-160038152D02*
X105539880Y-160085771D01*
X106016071Y-160704819D02*
X106016071Y-159704819D01*
X106016071Y-160181009D02*
X106587499Y-160181009D01*
X106587499Y-160704819D02*
X106587499Y-159704819D01*
X107206547Y-160704819D02*
X107111309Y-160657200D01*
X107111309Y-160657200D02*
X107063690Y-160609580D01*
X107063690Y-160609580D02*
X107016071Y-160514342D01*
X107016071Y-160514342D02*
X107016071Y-160228628D01*
X107016071Y-160228628D02*
X107063690Y-160133390D01*
X107063690Y-160133390D02*
X107111309Y-160085771D01*
X107111309Y-160085771D02*
X107206547Y-160038152D01*
X107206547Y-160038152D02*
X107349404Y-160038152D01*
X107349404Y-160038152D02*
X107444642Y-160085771D01*
X107444642Y-160085771D02*
X107492261Y-160133390D01*
X107492261Y-160133390D02*
X107539880Y-160228628D01*
X107539880Y-160228628D02*
X107539880Y-160514342D01*
X107539880Y-160514342D02*
X107492261Y-160609580D01*
X107492261Y-160609580D02*
X107444642Y-160657200D01*
X107444642Y-160657200D02*
X107349404Y-160704819D01*
X107349404Y-160704819D02*
X107206547Y-160704819D01*
X108111309Y-160704819D02*
X108016071Y-160657200D01*
X108016071Y-160657200D02*
X107968452Y-160561961D01*
X107968452Y-160561961D02*
X107968452Y-159704819D01*
X108873214Y-160657200D02*
X108777976Y-160704819D01*
X108777976Y-160704819D02*
X108587500Y-160704819D01*
X108587500Y-160704819D02*
X108492262Y-160657200D01*
X108492262Y-160657200D02*
X108444643Y-160561961D01*
X108444643Y-160561961D02*
X108444643Y-160181009D01*
X108444643Y-160181009D02*
X108492262Y-160085771D01*
X108492262Y-160085771D02*
X108587500Y-160038152D01*
X108587500Y-160038152D02*
X108777976Y-160038152D01*
X108777976Y-160038152D02*
X108873214Y-160085771D01*
X108873214Y-160085771D02*
X108920833Y-160181009D01*
X108920833Y-160181009D02*
X108920833Y-160276247D01*
X108920833Y-160276247D02*
X108444643Y-160371485D01*
X102849405Y-157554819D02*
X102849405Y-156554819D01*
X102849405Y-157031009D02*
X103420833Y-157031009D01*
X103420833Y-157554819D02*
X103420833Y-156554819D01*
X104420833Y-157554819D02*
X103849405Y-157554819D01*
X104135119Y-157554819D02*
X104135119Y-156554819D01*
X104135119Y-156554819D02*
X104039881Y-156697676D01*
X104039881Y-156697676D02*
X103944643Y-156792914D01*
X103944643Y-156792914D02*
X103849405Y-156840533D01*
X105039881Y-156554819D02*
X105135119Y-156554819D01*
X105135119Y-156554819D02*
X105230357Y-156602438D01*
X105230357Y-156602438D02*
X105277976Y-156650057D01*
X105277976Y-156650057D02*
X105325595Y-156745295D01*
X105325595Y-156745295D02*
X105373214Y-156935771D01*
X105373214Y-156935771D02*
X105373214Y-157173866D01*
X105373214Y-157173866D02*
X105325595Y-157364342D01*
X105325595Y-157364342D02*
X105277976Y-157459580D01*
X105277976Y-157459580D02*
X105230357Y-157507200D01*
X105230357Y-157507200D02*
X105135119Y-157554819D01*
X105135119Y-157554819D02*
X105039881Y-157554819D01*
X105039881Y-157554819D02*
X104944643Y-157507200D01*
X104944643Y-157507200D02*
X104897024Y-157459580D01*
X104897024Y-157459580D02*
X104849405Y-157364342D01*
X104849405Y-157364342D02*
X104801786Y-157173866D01*
X104801786Y-157173866D02*
X104801786Y-156935771D01*
X104801786Y-156935771D02*
X104849405Y-156745295D01*
X104849405Y-156745295D02*
X104897024Y-156650057D01*
X104897024Y-156650057D02*
X104944643Y-156602438D01*
X104944643Y-156602438D02*
X105039881Y-156554819D01*
X156451785Y-189279819D02*
X156451785Y-188279819D01*
X156451785Y-188279819D02*
X156785118Y-188994104D01*
X156785118Y-188994104D02*
X157118451Y-188279819D01*
X157118451Y-188279819D02*
X157118451Y-189279819D01*
X157737499Y-189279819D02*
X157642261Y-189232200D01*
X157642261Y-189232200D02*
X157594642Y-189184580D01*
X157594642Y-189184580D02*
X157547023Y-189089342D01*
X157547023Y-189089342D02*
X157547023Y-188803628D01*
X157547023Y-188803628D02*
X157594642Y-188708390D01*
X157594642Y-188708390D02*
X157642261Y-188660771D01*
X157642261Y-188660771D02*
X157737499Y-188613152D01*
X157737499Y-188613152D02*
X157880356Y-188613152D01*
X157880356Y-188613152D02*
X157975594Y-188660771D01*
X157975594Y-188660771D02*
X158023213Y-188708390D01*
X158023213Y-188708390D02*
X158070832Y-188803628D01*
X158070832Y-188803628D02*
X158070832Y-189089342D01*
X158070832Y-189089342D02*
X158023213Y-189184580D01*
X158023213Y-189184580D02*
X157975594Y-189232200D01*
X157975594Y-189232200D02*
X157880356Y-189279819D01*
X157880356Y-189279819D02*
X157737499Y-189279819D01*
X158927975Y-188613152D02*
X158927975Y-189279819D01*
X158499404Y-188613152D02*
X158499404Y-189136961D01*
X158499404Y-189136961D02*
X158547023Y-189232200D01*
X158547023Y-189232200D02*
X158642261Y-189279819D01*
X158642261Y-189279819D02*
X158785118Y-189279819D01*
X158785118Y-189279819D02*
X158880356Y-189232200D01*
X158880356Y-189232200D02*
X158927975Y-189184580D01*
X159404166Y-188613152D02*
X159404166Y-189279819D01*
X159404166Y-188708390D02*
X159451785Y-188660771D01*
X159451785Y-188660771D02*
X159547023Y-188613152D01*
X159547023Y-188613152D02*
X159689880Y-188613152D01*
X159689880Y-188613152D02*
X159785118Y-188660771D01*
X159785118Y-188660771D02*
X159832737Y-188756009D01*
X159832737Y-188756009D02*
X159832737Y-189279819D01*
X160166071Y-188613152D02*
X160547023Y-188613152D01*
X160308928Y-188279819D02*
X160308928Y-189136961D01*
X160308928Y-189136961D02*
X160356547Y-189232200D01*
X160356547Y-189232200D02*
X160451785Y-189279819D01*
X160451785Y-189279819D02*
X160547023Y-189279819D01*
X160880357Y-189279819D02*
X160880357Y-188613152D01*
X160880357Y-188279819D02*
X160832738Y-188327438D01*
X160832738Y-188327438D02*
X160880357Y-188375057D01*
X160880357Y-188375057D02*
X160927976Y-188327438D01*
X160927976Y-188327438D02*
X160880357Y-188279819D01*
X160880357Y-188279819D02*
X160880357Y-188375057D01*
X161356547Y-188613152D02*
X161356547Y-189279819D01*
X161356547Y-188708390D02*
X161404166Y-188660771D01*
X161404166Y-188660771D02*
X161499404Y-188613152D01*
X161499404Y-188613152D02*
X161642261Y-188613152D01*
X161642261Y-188613152D02*
X161737499Y-188660771D01*
X161737499Y-188660771D02*
X161785118Y-188756009D01*
X161785118Y-188756009D02*
X161785118Y-189279819D01*
X162689880Y-188613152D02*
X162689880Y-189422676D01*
X162689880Y-189422676D02*
X162642261Y-189517914D01*
X162642261Y-189517914D02*
X162594642Y-189565533D01*
X162594642Y-189565533D02*
X162499404Y-189613152D01*
X162499404Y-189613152D02*
X162356547Y-189613152D01*
X162356547Y-189613152D02*
X162261309Y-189565533D01*
X162689880Y-189232200D02*
X162594642Y-189279819D01*
X162594642Y-189279819D02*
X162404166Y-189279819D01*
X162404166Y-189279819D02*
X162308928Y-189232200D01*
X162308928Y-189232200D02*
X162261309Y-189184580D01*
X162261309Y-189184580D02*
X162213690Y-189089342D01*
X162213690Y-189089342D02*
X162213690Y-188803628D01*
X162213690Y-188803628D02*
X162261309Y-188708390D01*
X162261309Y-188708390D02*
X162308928Y-188660771D01*
X162308928Y-188660771D02*
X162404166Y-188613152D01*
X162404166Y-188613152D02*
X162594642Y-188613152D01*
X162594642Y-188613152D02*
X162689880Y-188660771D01*
X163166071Y-189279819D02*
X163166071Y-188279819D01*
X163166071Y-188756009D02*
X163737499Y-188756009D01*
X163737499Y-189279819D02*
X163737499Y-188279819D01*
X164356547Y-189279819D02*
X164261309Y-189232200D01*
X164261309Y-189232200D02*
X164213690Y-189184580D01*
X164213690Y-189184580D02*
X164166071Y-189089342D01*
X164166071Y-189089342D02*
X164166071Y-188803628D01*
X164166071Y-188803628D02*
X164213690Y-188708390D01*
X164213690Y-188708390D02*
X164261309Y-188660771D01*
X164261309Y-188660771D02*
X164356547Y-188613152D01*
X164356547Y-188613152D02*
X164499404Y-188613152D01*
X164499404Y-188613152D02*
X164594642Y-188660771D01*
X164594642Y-188660771D02*
X164642261Y-188708390D01*
X164642261Y-188708390D02*
X164689880Y-188803628D01*
X164689880Y-188803628D02*
X164689880Y-189089342D01*
X164689880Y-189089342D02*
X164642261Y-189184580D01*
X164642261Y-189184580D02*
X164594642Y-189232200D01*
X164594642Y-189232200D02*
X164499404Y-189279819D01*
X164499404Y-189279819D02*
X164356547Y-189279819D01*
X165261309Y-189279819D02*
X165166071Y-189232200D01*
X165166071Y-189232200D02*
X165118452Y-189136961D01*
X165118452Y-189136961D02*
X165118452Y-188279819D01*
X166023214Y-189232200D02*
X165927976Y-189279819D01*
X165927976Y-189279819D02*
X165737500Y-189279819D01*
X165737500Y-189279819D02*
X165642262Y-189232200D01*
X165642262Y-189232200D02*
X165594643Y-189136961D01*
X165594643Y-189136961D02*
X165594643Y-188756009D01*
X165594643Y-188756009D02*
X165642262Y-188660771D01*
X165642262Y-188660771D02*
X165737500Y-188613152D01*
X165737500Y-188613152D02*
X165927976Y-188613152D01*
X165927976Y-188613152D02*
X166023214Y-188660771D01*
X166023214Y-188660771D02*
X166070833Y-188756009D01*
X166070833Y-188756009D02*
X166070833Y-188851247D01*
X166070833Y-188851247D02*
X165594643Y-188946485D01*
X159999405Y-186129819D02*
X159999405Y-185129819D01*
X159999405Y-185606009D02*
X160570833Y-185606009D01*
X160570833Y-186129819D02*
X160570833Y-185129819D01*
X161570833Y-186129819D02*
X160999405Y-186129819D01*
X161285119Y-186129819D02*
X161285119Y-185129819D01*
X161285119Y-185129819D02*
X161189881Y-185272676D01*
X161189881Y-185272676D02*
X161094643Y-185367914D01*
X161094643Y-185367914D02*
X160999405Y-185415533D01*
X162475595Y-185129819D02*
X161999405Y-185129819D01*
X161999405Y-185129819D02*
X161951786Y-185606009D01*
X161951786Y-185606009D02*
X161999405Y-185558390D01*
X161999405Y-185558390D02*
X162094643Y-185510771D01*
X162094643Y-185510771D02*
X162332738Y-185510771D01*
X162332738Y-185510771D02*
X162427976Y-185558390D01*
X162427976Y-185558390D02*
X162475595Y-185606009D01*
X162475595Y-185606009D02*
X162523214Y-185701247D01*
X162523214Y-185701247D02*
X162523214Y-185939342D01*
X162523214Y-185939342D02*
X162475595Y-186034580D01*
X162475595Y-186034580D02*
X162427976Y-186082200D01*
X162427976Y-186082200D02*
X162332738Y-186129819D01*
X162332738Y-186129819D02*
X162094643Y-186129819D01*
X162094643Y-186129819D02*
X161999405Y-186082200D01*
X161999405Y-186082200D02*
X161951786Y-186034580D01*
X150596666Y-111564819D02*
X151168094Y-111564819D01*
X150882380Y-112564819D02*
X150882380Y-111564819D01*
X151882380Y-112517200D02*
X151787142Y-112564819D01*
X151787142Y-112564819D02*
X151596666Y-112564819D01*
X151596666Y-112564819D02*
X151501428Y-112517200D01*
X151501428Y-112517200D02*
X151453809Y-112421961D01*
X151453809Y-112421961D02*
X151453809Y-112041009D01*
X151453809Y-112041009D02*
X151501428Y-111945771D01*
X151501428Y-111945771D02*
X151596666Y-111898152D01*
X151596666Y-111898152D02*
X151787142Y-111898152D01*
X151787142Y-111898152D02*
X151882380Y-111945771D01*
X151882380Y-111945771D02*
X151929999Y-112041009D01*
X151929999Y-112041009D02*
X151929999Y-112136247D01*
X151929999Y-112136247D02*
X151453809Y-112231485D01*
X152310952Y-112517200D02*
X152406190Y-112564819D01*
X152406190Y-112564819D02*
X152596666Y-112564819D01*
X152596666Y-112564819D02*
X152691904Y-112517200D01*
X152691904Y-112517200D02*
X152739523Y-112421961D01*
X152739523Y-112421961D02*
X152739523Y-112374342D01*
X152739523Y-112374342D02*
X152691904Y-112279104D01*
X152691904Y-112279104D02*
X152596666Y-112231485D01*
X152596666Y-112231485D02*
X152453809Y-112231485D01*
X152453809Y-112231485D02*
X152358571Y-112183866D01*
X152358571Y-112183866D02*
X152310952Y-112088628D01*
X152310952Y-112088628D02*
X152310952Y-112041009D01*
X152310952Y-112041009D02*
X152358571Y-111945771D01*
X152358571Y-111945771D02*
X152453809Y-111898152D01*
X152453809Y-111898152D02*
X152596666Y-111898152D01*
X152596666Y-111898152D02*
X152691904Y-111945771D01*
X153025238Y-111898152D02*
X153406190Y-111898152D01*
X153168095Y-111564819D02*
X153168095Y-112421961D01*
X153168095Y-112421961D02*
X153215714Y-112517200D01*
X153215714Y-112517200D02*
X153310952Y-112564819D01*
X153310952Y-112564819D02*
X153406190Y-112564819D01*
X153739524Y-112564819D02*
X153739524Y-111564819D01*
X153739524Y-111564819D02*
X154120476Y-111564819D01*
X154120476Y-111564819D02*
X154215714Y-111612438D01*
X154215714Y-111612438D02*
X154263333Y-111660057D01*
X154263333Y-111660057D02*
X154310952Y-111755295D01*
X154310952Y-111755295D02*
X154310952Y-111898152D01*
X154310952Y-111898152D02*
X154263333Y-111993390D01*
X154263333Y-111993390D02*
X154215714Y-112041009D01*
X154215714Y-112041009D02*
X154120476Y-112088628D01*
X154120476Y-112088628D02*
X153739524Y-112088628D01*
X154882381Y-112564819D02*
X154787143Y-112517200D01*
X154787143Y-112517200D02*
X154739524Y-112469580D01*
X154739524Y-112469580D02*
X154691905Y-112374342D01*
X154691905Y-112374342D02*
X154691905Y-112088628D01*
X154691905Y-112088628D02*
X154739524Y-111993390D01*
X154739524Y-111993390D02*
X154787143Y-111945771D01*
X154787143Y-111945771D02*
X154882381Y-111898152D01*
X154882381Y-111898152D02*
X155025238Y-111898152D01*
X155025238Y-111898152D02*
X155120476Y-111945771D01*
X155120476Y-111945771D02*
X155168095Y-111993390D01*
X155168095Y-111993390D02*
X155215714Y-112088628D01*
X155215714Y-112088628D02*
X155215714Y-112374342D01*
X155215714Y-112374342D02*
X155168095Y-112469580D01*
X155168095Y-112469580D02*
X155120476Y-112517200D01*
X155120476Y-112517200D02*
X155025238Y-112564819D01*
X155025238Y-112564819D02*
X154882381Y-112564819D01*
X155644286Y-112564819D02*
X155644286Y-111898152D01*
X155644286Y-111564819D02*
X155596667Y-111612438D01*
X155596667Y-111612438D02*
X155644286Y-111660057D01*
X155644286Y-111660057D02*
X155691905Y-111612438D01*
X155691905Y-111612438D02*
X155644286Y-111564819D01*
X155644286Y-111564819D02*
X155644286Y-111660057D01*
X156120476Y-111898152D02*
X156120476Y-112564819D01*
X156120476Y-111993390D02*
X156168095Y-111945771D01*
X156168095Y-111945771D02*
X156263333Y-111898152D01*
X156263333Y-111898152D02*
X156406190Y-111898152D01*
X156406190Y-111898152D02*
X156501428Y-111945771D01*
X156501428Y-111945771D02*
X156549047Y-112041009D01*
X156549047Y-112041009D02*
X156549047Y-112564819D01*
X156882381Y-111898152D02*
X157263333Y-111898152D01*
X157025238Y-111564819D02*
X157025238Y-112421961D01*
X157025238Y-112421961D02*
X157072857Y-112517200D01*
X157072857Y-112517200D02*
X157168095Y-112564819D01*
X157168095Y-112564819D02*
X157263333Y-112564819D01*
X152668095Y-107514819D02*
X153239523Y-107514819D01*
X152953809Y-108514819D02*
X152953809Y-107514819D01*
X153572857Y-108514819D02*
X153572857Y-107514819D01*
X153572857Y-107514819D02*
X153953809Y-107514819D01*
X153953809Y-107514819D02*
X154049047Y-107562438D01*
X154049047Y-107562438D02*
X154096666Y-107610057D01*
X154096666Y-107610057D02*
X154144285Y-107705295D01*
X154144285Y-107705295D02*
X154144285Y-107848152D01*
X154144285Y-107848152D02*
X154096666Y-107943390D01*
X154096666Y-107943390D02*
X154049047Y-107991009D01*
X154049047Y-107991009D02*
X153953809Y-108038628D01*
X153953809Y-108038628D02*
X153572857Y-108038628D01*
X154525238Y-107610057D02*
X154572857Y-107562438D01*
X154572857Y-107562438D02*
X154668095Y-107514819D01*
X154668095Y-107514819D02*
X154906190Y-107514819D01*
X154906190Y-107514819D02*
X155001428Y-107562438D01*
X155001428Y-107562438D02*
X155049047Y-107610057D01*
X155049047Y-107610057D02*
X155096666Y-107705295D01*
X155096666Y-107705295D02*
X155096666Y-107800533D01*
X155096666Y-107800533D02*
X155049047Y-107943390D01*
X155049047Y-107943390D02*
X154477619Y-108514819D01*
X154477619Y-108514819D02*
X155096666Y-108514819D01*
D11*
X151404643Y-103869479D02*
X151827976Y-104504479D01*
X151827976Y-103869479D02*
X151404643Y-104504479D01*
X152069881Y-104504479D02*
X152069881Y-103869479D01*
X152342024Y-104323050D02*
X152644405Y-104323050D01*
X152281548Y-104504479D02*
X152493214Y-103869479D01*
X152493214Y-103869479D02*
X152704881Y-104504479D01*
X153037500Y-103869479D02*
X153158453Y-103869479D01*
X153158453Y-103869479D02*
X153218929Y-103899717D01*
X153218929Y-103899717D02*
X153279405Y-103960193D01*
X153279405Y-103960193D02*
X153309643Y-104081145D01*
X153309643Y-104081145D02*
X153309643Y-104292812D01*
X153309643Y-104292812D02*
X153279405Y-104413764D01*
X153279405Y-104413764D02*
X153218929Y-104474241D01*
X153218929Y-104474241D02*
X153158453Y-104504479D01*
X153158453Y-104504479D02*
X153037500Y-104504479D01*
X153037500Y-104504479D02*
X152977024Y-104474241D01*
X152977024Y-104474241D02*
X152916548Y-104413764D01*
X152916548Y-104413764D02*
X152886310Y-104292812D01*
X152886310Y-104292812D02*
X152886310Y-104081145D01*
X152886310Y-104081145D02*
X152916548Y-103960193D01*
X152916548Y-103960193D02*
X152977024Y-103899717D01*
X152977024Y-103899717D02*
X153037500Y-103869479D01*
X153581786Y-104262574D02*
X154065596Y-104262574D01*
X154367976Y-104081145D02*
X154367976Y-104504479D01*
X154367976Y-104141621D02*
X154398214Y-104111383D01*
X154398214Y-104111383D02*
X154458690Y-104081145D01*
X154458690Y-104081145D02*
X154549405Y-104081145D01*
X154549405Y-104081145D02*
X154609881Y-104111383D01*
X154609881Y-104111383D02*
X154640119Y-104171860D01*
X154640119Y-104171860D02*
X154640119Y-104504479D01*
X155305357Y-104504479D02*
X155093690Y-104202098D01*
X154942500Y-104504479D02*
X154942500Y-103869479D01*
X154942500Y-103869479D02*
X155184405Y-103869479D01*
X155184405Y-103869479D02*
X155244881Y-103899717D01*
X155244881Y-103899717D02*
X155275119Y-103929955D01*
X155275119Y-103929955D02*
X155305357Y-103990431D01*
X155305357Y-103990431D02*
X155305357Y-104081145D01*
X155305357Y-104081145D02*
X155275119Y-104141621D01*
X155275119Y-104141621D02*
X155244881Y-104171860D01*
X155244881Y-104171860D02*
X155184405Y-104202098D01*
X155184405Y-104202098D02*
X154942500Y-104202098D01*
X155789167Y-104171860D02*
X155577500Y-104171860D01*
X155577500Y-104504479D02*
X155577500Y-103869479D01*
X155577500Y-103869479D02*
X155879881Y-103869479D01*
X156424167Y-103869479D02*
X156121786Y-103869479D01*
X156121786Y-103869479D02*
X156091548Y-104171860D01*
X156091548Y-104171860D02*
X156121786Y-104141621D01*
X156121786Y-104141621D02*
X156182262Y-104111383D01*
X156182262Y-104111383D02*
X156333453Y-104111383D01*
X156333453Y-104111383D02*
X156393929Y-104141621D01*
X156393929Y-104141621D02*
X156424167Y-104171860D01*
X156424167Y-104171860D02*
X156454405Y-104232336D01*
X156454405Y-104232336D02*
X156454405Y-104383526D01*
X156454405Y-104383526D02*
X156424167Y-104444002D01*
X156424167Y-104444002D02*
X156393929Y-104474241D01*
X156393929Y-104474241D02*
X156333453Y-104504479D01*
X156333453Y-104504479D02*
X156182262Y-104504479D01*
X156182262Y-104504479D02*
X156121786Y-104474241D01*
X156121786Y-104474241D02*
X156091548Y-104444002D01*
X156696310Y-103929955D02*
X156726548Y-103899717D01*
X156726548Y-103899717D02*
X156787024Y-103869479D01*
X156787024Y-103869479D02*
X156938215Y-103869479D01*
X156938215Y-103869479D02*
X156998691Y-103899717D01*
X156998691Y-103899717D02*
X157028929Y-103929955D01*
X157028929Y-103929955D02*
X157059167Y-103990431D01*
X157059167Y-103990431D02*
X157059167Y-104050907D01*
X157059167Y-104050907D02*
X157028929Y-104141621D01*
X157028929Y-104141621D02*
X156666072Y-104504479D01*
X156666072Y-104504479D02*
X157059167Y-104504479D01*
X157422024Y-104141621D02*
X157361548Y-104111383D01*
X157361548Y-104111383D02*
X157331310Y-104081145D01*
X157331310Y-104081145D02*
X157301072Y-104020669D01*
X157301072Y-104020669D02*
X157301072Y-103990431D01*
X157301072Y-103990431D02*
X157331310Y-103929955D01*
X157331310Y-103929955D02*
X157361548Y-103899717D01*
X157361548Y-103899717D02*
X157422024Y-103869479D01*
X157422024Y-103869479D02*
X157542977Y-103869479D01*
X157542977Y-103869479D02*
X157603453Y-103899717D01*
X157603453Y-103899717D02*
X157633691Y-103929955D01*
X157633691Y-103929955D02*
X157663929Y-103990431D01*
X157663929Y-103990431D02*
X157663929Y-104020669D01*
X157663929Y-104020669D02*
X157633691Y-104081145D01*
X157633691Y-104081145D02*
X157603453Y-104111383D01*
X157603453Y-104111383D02*
X157542977Y-104141621D01*
X157542977Y-104141621D02*
X157422024Y-104141621D01*
X157422024Y-104141621D02*
X157361548Y-104171860D01*
X157361548Y-104171860D02*
X157331310Y-104202098D01*
X157331310Y-104202098D02*
X157301072Y-104262574D01*
X157301072Y-104262574D02*
X157301072Y-104383526D01*
X157301072Y-104383526D02*
X157331310Y-104444002D01*
X157331310Y-104444002D02*
X157361548Y-104474241D01*
X157361548Y-104474241D02*
X157422024Y-104504479D01*
X157422024Y-104504479D02*
X157542977Y-104504479D01*
X157542977Y-104504479D02*
X157603453Y-104474241D01*
X157603453Y-104474241D02*
X157633691Y-104444002D01*
X157633691Y-104444002D02*
X157663929Y-104383526D01*
X157663929Y-104383526D02*
X157663929Y-104262574D01*
X157663929Y-104262574D02*
X157633691Y-104202098D01*
X157633691Y-104202098D02*
X157603453Y-104171860D01*
X157603453Y-104171860D02*
X157542977Y-104141621D01*
X158208215Y-104081145D02*
X158208215Y-104504479D01*
X158057024Y-103839241D02*
X157905834Y-104292812D01*
X157905834Y-104292812D02*
X158298929Y-104292812D01*
X158661786Y-103869479D02*
X158722263Y-103869479D01*
X158722263Y-103869479D02*
X158782739Y-103899717D01*
X158782739Y-103899717D02*
X158812977Y-103929955D01*
X158812977Y-103929955D02*
X158843215Y-103990431D01*
X158843215Y-103990431D02*
X158873453Y-104111383D01*
X158873453Y-104111383D02*
X158873453Y-104262574D01*
X158873453Y-104262574D02*
X158843215Y-104383526D01*
X158843215Y-104383526D02*
X158812977Y-104444002D01*
X158812977Y-104444002D02*
X158782739Y-104474241D01*
X158782739Y-104474241D02*
X158722263Y-104504479D01*
X158722263Y-104504479D02*
X158661786Y-104504479D01*
X158661786Y-104504479D02*
X158601310Y-104474241D01*
X158601310Y-104474241D02*
X158571072Y-104444002D01*
X158571072Y-104444002D02*
X158540834Y-104383526D01*
X158540834Y-104383526D02*
X158510596Y-104262574D01*
X158510596Y-104262574D02*
X158510596Y-104111383D01*
X158510596Y-104111383D02*
X158540834Y-103990431D01*
X158540834Y-103990431D02*
X158571072Y-103929955D01*
X158571072Y-103929955D02*
X158601310Y-103899717D01*
X158601310Y-103899717D02*
X158661786Y-103869479D01*
X159145596Y-104262574D02*
X159629406Y-104262574D01*
X159901548Y-104474241D02*
X159992262Y-104504479D01*
X159992262Y-104504479D02*
X160143453Y-104504479D01*
X160143453Y-104504479D02*
X160203929Y-104474241D01*
X160203929Y-104474241D02*
X160234167Y-104444002D01*
X160234167Y-104444002D02*
X160264405Y-104383526D01*
X160264405Y-104383526D02*
X160264405Y-104323050D01*
X160264405Y-104323050D02*
X160234167Y-104262574D01*
X160234167Y-104262574D02*
X160203929Y-104232336D01*
X160203929Y-104232336D02*
X160143453Y-104202098D01*
X160143453Y-104202098D02*
X160022500Y-104171860D01*
X160022500Y-104171860D02*
X159962024Y-104141621D01*
X159962024Y-104141621D02*
X159931786Y-104111383D01*
X159931786Y-104111383D02*
X159901548Y-104050907D01*
X159901548Y-104050907D02*
X159901548Y-103990431D01*
X159901548Y-103990431D02*
X159931786Y-103929955D01*
X159931786Y-103929955D02*
X159962024Y-103899717D01*
X159962024Y-103899717D02*
X160022500Y-103869479D01*
X160022500Y-103869479D02*
X160173691Y-103869479D01*
X160173691Y-103869479D02*
X160264405Y-103899717D01*
X160536548Y-104504479D02*
X160536548Y-103869479D01*
X160536548Y-103869479D02*
X160748215Y-104323050D01*
X160748215Y-104323050D02*
X160959881Y-103869479D01*
X160959881Y-103869479D02*
X160959881Y-104504479D01*
X161262262Y-104504479D02*
X161262262Y-103869479D01*
X161262262Y-103869479D02*
X161413452Y-103869479D01*
X161413452Y-103869479D02*
X161504167Y-103899717D01*
X161504167Y-103899717D02*
X161564643Y-103960193D01*
X161564643Y-103960193D02*
X161594881Y-104020669D01*
X161594881Y-104020669D02*
X161625119Y-104141621D01*
X161625119Y-104141621D02*
X161625119Y-104232336D01*
X161625119Y-104232336D02*
X161594881Y-104353288D01*
X161594881Y-104353288D02*
X161564643Y-104413764D01*
X161564643Y-104413764D02*
X161504167Y-104474241D01*
X161504167Y-104474241D02*
X161413452Y-104504479D01*
X161413452Y-104504479D02*
X161262262Y-104504479D01*
D10*
X51676785Y-165467319D02*
X51676785Y-164467319D01*
X51676785Y-164467319D02*
X52010118Y-165181604D01*
X52010118Y-165181604D02*
X52343451Y-164467319D01*
X52343451Y-164467319D02*
X52343451Y-165467319D01*
X52962499Y-165467319D02*
X52867261Y-165419700D01*
X52867261Y-165419700D02*
X52819642Y-165372080D01*
X52819642Y-165372080D02*
X52772023Y-165276842D01*
X52772023Y-165276842D02*
X52772023Y-164991128D01*
X52772023Y-164991128D02*
X52819642Y-164895890D01*
X52819642Y-164895890D02*
X52867261Y-164848271D01*
X52867261Y-164848271D02*
X52962499Y-164800652D01*
X52962499Y-164800652D02*
X53105356Y-164800652D01*
X53105356Y-164800652D02*
X53200594Y-164848271D01*
X53200594Y-164848271D02*
X53248213Y-164895890D01*
X53248213Y-164895890D02*
X53295832Y-164991128D01*
X53295832Y-164991128D02*
X53295832Y-165276842D01*
X53295832Y-165276842D02*
X53248213Y-165372080D01*
X53248213Y-165372080D02*
X53200594Y-165419700D01*
X53200594Y-165419700D02*
X53105356Y-165467319D01*
X53105356Y-165467319D02*
X52962499Y-165467319D01*
X54152975Y-164800652D02*
X54152975Y-165467319D01*
X53724404Y-164800652D02*
X53724404Y-165324461D01*
X53724404Y-165324461D02*
X53772023Y-165419700D01*
X53772023Y-165419700D02*
X53867261Y-165467319D01*
X53867261Y-165467319D02*
X54010118Y-165467319D01*
X54010118Y-165467319D02*
X54105356Y-165419700D01*
X54105356Y-165419700D02*
X54152975Y-165372080D01*
X54629166Y-164800652D02*
X54629166Y-165467319D01*
X54629166Y-164895890D02*
X54676785Y-164848271D01*
X54676785Y-164848271D02*
X54772023Y-164800652D01*
X54772023Y-164800652D02*
X54914880Y-164800652D01*
X54914880Y-164800652D02*
X55010118Y-164848271D01*
X55010118Y-164848271D02*
X55057737Y-164943509D01*
X55057737Y-164943509D02*
X55057737Y-165467319D01*
X55391071Y-164800652D02*
X55772023Y-164800652D01*
X55533928Y-164467319D02*
X55533928Y-165324461D01*
X55533928Y-165324461D02*
X55581547Y-165419700D01*
X55581547Y-165419700D02*
X55676785Y-165467319D01*
X55676785Y-165467319D02*
X55772023Y-165467319D01*
X56105357Y-165467319D02*
X56105357Y-164800652D01*
X56105357Y-164467319D02*
X56057738Y-164514938D01*
X56057738Y-164514938D02*
X56105357Y-164562557D01*
X56105357Y-164562557D02*
X56152976Y-164514938D01*
X56152976Y-164514938D02*
X56105357Y-164467319D01*
X56105357Y-164467319D02*
X56105357Y-164562557D01*
X56581547Y-164800652D02*
X56581547Y-165467319D01*
X56581547Y-164895890D02*
X56629166Y-164848271D01*
X56629166Y-164848271D02*
X56724404Y-164800652D01*
X56724404Y-164800652D02*
X56867261Y-164800652D01*
X56867261Y-164800652D02*
X56962499Y-164848271D01*
X56962499Y-164848271D02*
X57010118Y-164943509D01*
X57010118Y-164943509D02*
X57010118Y-165467319D01*
X57914880Y-164800652D02*
X57914880Y-165610176D01*
X57914880Y-165610176D02*
X57867261Y-165705414D01*
X57867261Y-165705414D02*
X57819642Y-165753033D01*
X57819642Y-165753033D02*
X57724404Y-165800652D01*
X57724404Y-165800652D02*
X57581547Y-165800652D01*
X57581547Y-165800652D02*
X57486309Y-165753033D01*
X57914880Y-165419700D02*
X57819642Y-165467319D01*
X57819642Y-165467319D02*
X57629166Y-165467319D01*
X57629166Y-165467319D02*
X57533928Y-165419700D01*
X57533928Y-165419700D02*
X57486309Y-165372080D01*
X57486309Y-165372080D02*
X57438690Y-165276842D01*
X57438690Y-165276842D02*
X57438690Y-164991128D01*
X57438690Y-164991128D02*
X57486309Y-164895890D01*
X57486309Y-164895890D02*
X57533928Y-164848271D01*
X57533928Y-164848271D02*
X57629166Y-164800652D01*
X57629166Y-164800652D02*
X57819642Y-164800652D01*
X57819642Y-164800652D02*
X57914880Y-164848271D01*
X58391071Y-165467319D02*
X58391071Y-164467319D01*
X58391071Y-164943509D02*
X58962499Y-164943509D01*
X58962499Y-165467319D02*
X58962499Y-164467319D01*
X59581547Y-165467319D02*
X59486309Y-165419700D01*
X59486309Y-165419700D02*
X59438690Y-165372080D01*
X59438690Y-165372080D02*
X59391071Y-165276842D01*
X59391071Y-165276842D02*
X59391071Y-164991128D01*
X59391071Y-164991128D02*
X59438690Y-164895890D01*
X59438690Y-164895890D02*
X59486309Y-164848271D01*
X59486309Y-164848271D02*
X59581547Y-164800652D01*
X59581547Y-164800652D02*
X59724404Y-164800652D01*
X59724404Y-164800652D02*
X59819642Y-164848271D01*
X59819642Y-164848271D02*
X59867261Y-164895890D01*
X59867261Y-164895890D02*
X59914880Y-164991128D01*
X59914880Y-164991128D02*
X59914880Y-165276842D01*
X59914880Y-165276842D02*
X59867261Y-165372080D01*
X59867261Y-165372080D02*
X59819642Y-165419700D01*
X59819642Y-165419700D02*
X59724404Y-165467319D01*
X59724404Y-165467319D02*
X59581547Y-165467319D01*
X60486309Y-165467319D02*
X60391071Y-165419700D01*
X60391071Y-165419700D02*
X60343452Y-165324461D01*
X60343452Y-165324461D02*
X60343452Y-164467319D01*
X61248214Y-165419700D02*
X61152976Y-165467319D01*
X61152976Y-165467319D02*
X60962500Y-165467319D01*
X60962500Y-165467319D02*
X60867262Y-165419700D01*
X60867262Y-165419700D02*
X60819643Y-165324461D01*
X60819643Y-165324461D02*
X60819643Y-164943509D01*
X60819643Y-164943509D02*
X60867262Y-164848271D01*
X60867262Y-164848271D02*
X60962500Y-164800652D01*
X60962500Y-164800652D02*
X61152976Y-164800652D01*
X61152976Y-164800652D02*
X61248214Y-164848271D01*
X61248214Y-164848271D02*
X61295833Y-164943509D01*
X61295833Y-164943509D02*
X61295833Y-165038747D01*
X61295833Y-165038747D02*
X60819643Y-165133985D01*
X55224405Y-162317319D02*
X55224405Y-161317319D01*
X55224405Y-161793509D02*
X55795833Y-161793509D01*
X55795833Y-162317319D02*
X55795833Y-161317319D01*
X56795833Y-162317319D02*
X56224405Y-162317319D01*
X56510119Y-162317319D02*
X56510119Y-161317319D01*
X56510119Y-161317319D02*
X56414881Y-161460176D01*
X56414881Y-161460176D02*
X56319643Y-161555414D01*
X56319643Y-161555414D02*
X56224405Y-161603033D01*
X57748214Y-162317319D02*
X57176786Y-162317319D01*
X57462500Y-162317319D02*
X57462500Y-161317319D01*
X57462500Y-161317319D02*
X57367262Y-161460176D01*
X57367262Y-161460176D02*
X57272024Y-161555414D01*
X57272024Y-161555414D02*
X57176786Y-161603033D01*
X180182285Y-189279819D02*
X180182285Y-188279819D01*
X180182285Y-188279819D02*
X180515618Y-188994104D01*
X180515618Y-188994104D02*
X180848951Y-188279819D01*
X180848951Y-188279819D02*
X180848951Y-189279819D01*
X181467999Y-189279819D02*
X181372761Y-189232200D01*
X181372761Y-189232200D02*
X181325142Y-189184580D01*
X181325142Y-189184580D02*
X181277523Y-189089342D01*
X181277523Y-189089342D02*
X181277523Y-188803628D01*
X181277523Y-188803628D02*
X181325142Y-188708390D01*
X181325142Y-188708390D02*
X181372761Y-188660771D01*
X181372761Y-188660771D02*
X181467999Y-188613152D01*
X181467999Y-188613152D02*
X181610856Y-188613152D01*
X181610856Y-188613152D02*
X181706094Y-188660771D01*
X181706094Y-188660771D02*
X181753713Y-188708390D01*
X181753713Y-188708390D02*
X181801332Y-188803628D01*
X181801332Y-188803628D02*
X181801332Y-189089342D01*
X181801332Y-189089342D02*
X181753713Y-189184580D01*
X181753713Y-189184580D02*
X181706094Y-189232200D01*
X181706094Y-189232200D02*
X181610856Y-189279819D01*
X181610856Y-189279819D02*
X181467999Y-189279819D01*
X182658475Y-188613152D02*
X182658475Y-189279819D01*
X182229904Y-188613152D02*
X182229904Y-189136961D01*
X182229904Y-189136961D02*
X182277523Y-189232200D01*
X182277523Y-189232200D02*
X182372761Y-189279819D01*
X182372761Y-189279819D02*
X182515618Y-189279819D01*
X182515618Y-189279819D02*
X182610856Y-189232200D01*
X182610856Y-189232200D02*
X182658475Y-189184580D01*
X183134666Y-188613152D02*
X183134666Y-189279819D01*
X183134666Y-188708390D02*
X183182285Y-188660771D01*
X183182285Y-188660771D02*
X183277523Y-188613152D01*
X183277523Y-188613152D02*
X183420380Y-188613152D01*
X183420380Y-188613152D02*
X183515618Y-188660771D01*
X183515618Y-188660771D02*
X183563237Y-188756009D01*
X183563237Y-188756009D02*
X183563237Y-189279819D01*
X183896571Y-188613152D02*
X184277523Y-188613152D01*
X184039428Y-188279819D02*
X184039428Y-189136961D01*
X184039428Y-189136961D02*
X184087047Y-189232200D01*
X184087047Y-189232200D02*
X184182285Y-189279819D01*
X184182285Y-189279819D02*
X184277523Y-189279819D01*
X184610857Y-189279819D02*
X184610857Y-188613152D01*
X184610857Y-188279819D02*
X184563238Y-188327438D01*
X184563238Y-188327438D02*
X184610857Y-188375057D01*
X184610857Y-188375057D02*
X184658476Y-188327438D01*
X184658476Y-188327438D02*
X184610857Y-188279819D01*
X184610857Y-188279819D02*
X184610857Y-188375057D01*
X185087047Y-188613152D02*
X185087047Y-189279819D01*
X185087047Y-188708390D02*
X185134666Y-188660771D01*
X185134666Y-188660771D02*
X185229904Y-188613152D01*
X185229904Y-188613152D02*
X185372761Y-188613152D01*
X185372761Y-188613152D02*
X185467999Y-188660771D01*
X185467999Y-188660771D02*
X185515618Y-188756009D01*
X185515618Y-188756009D02*
X185515618Y-189279819D01*
X186420380Y-188613152D02*
X186420380Y-189422676D01*
X186420380Y-189422676D02*
X186372761Y-189517914D01*
X186372761Y-189517914D02*
X186325142Y-189565533D01*
X186325142Y-189565533D02*
X186229904Y-189613152D01*
X186229904Y-189613152D02*
X186087047Y-189613152D01*
X186087047Y-189613152D02*
X185991809Y-189565533D01*
X186420380Y-189232200D02*
X186325142Y-189279819D01*
X186325142Y-189279819D02*
X186134666Y-189279819D01*
X186134666Y-189279819D02*
X186039428Y-189232200D01*
X186039428Y-189232200D02*
X185991809Y-189184580D01*
X185991809Y-189184580D02*
X185944190Y-189089342D01*
X185944190Y-189089342D02*
X185944190Y-188803628D01*
X185944190Y-188803628D02*
X185991809Y-188708390D01*
X185991809Y-188708390D02*
X186039428Y-188660771D01*
X186039428Y-188660771D02*
X186134666Y-188613152D01*
X186134666Y-188613152D02*
X186325142Y-188613152D01*
X186325142Y-188613152D02*
X186420380Y-188660771D01*
X186896571Y-189279819D02*
X186896571Y-188279819D01*
X186896571Y-188756009D02*
X187467999Y-188756009D01*
X187467999Y-189279819D02*
X187467999Y-188279819D01*
X188087047Y-189279819D02*
X187991809Y-189232200D01*
X187991809Y-189232200D02*
X187944190Y-189184580D01*
X187944190Y-189184580D02*
X187896571Y-189089342D01*
X187896571Y-189089342D02*
X187896571Y-188803628D01*
X187896571Y-188803628D02*
X187944190Y-188708390D01*
X187944190Y-188708390D02*
X187991809Y-188660771D01*
X187991809Y-188660771D02*
X188087047Y-188613152D01*
X188087047Y-188613152D02*
X188229904Y-188613152D01*
X188229904Y-188613152D02*
X188325142Y-188660771D01*
X188325142Y-188660771D02*
X188372761Y-188708390D01*
X188372761Y-188708390D02*
X188420380Y-188803628D01*
X188420380Y-188803628D02*
X188420380Y-189089342D01*
X188420380Y-189089342D02*
X188372761Y-189184580D01*
X188372761Y-189184580D02*
X188325142Y-189232200D01*
X188325142Y-189232200D02*
X188229904Y-189279819D01*
X188229904Y-189279819D02*
X188087047Y-189279819D01*
X188991809Y-189279819D02*
X188896571Y-189232200D01*
X188896571Y-189232200D02*
X188848952Y-189136961D01*
X188848952Y-189136961D02*
X188848952Y-188279819D01*
X189753714Y-189232200D02*
X189658476Y-189279819D01*
X189658476Y-189279819D02*
X189468000Y-189279819D01*
X189468000Y-189279819D02*
X189372762Y-189232200D01*
X189372762Y-189232200D02*
X189325143Y-189136961D01*
X189325143Y-189136961D02*
X189325143Y-188756009D01*
X189325143Y-188756009D02*
X189372762Y-188660771D01*
X189372762Y-188660771D02*
X189468000Y-188613152D01*
X189468000Y-188613152D02*
X189658476Y-188613152D01*
X189658476Y-188613152D02*
X189753714Y-188660771D01*
X189753714Y-188660771D02*
X189801333Y-188756009D01*
X189801333Y-188756009D02*
X189801333Y-188851247D01*
X189801333Y-188851247D02*
X189325143Y-188946485D01*
X184206095Y-186129819D02*
X184206095Y-185129819D01*
X184206095Y-185606009D02*
X184777523Y-185606009D01*
X184777523Y-186129819D02*
X184777523Y-185129819D01*
X185206095Y-185225057D02*
X185253714Y-185177438D01*
X185253714Y-185177438D02*
X185348952Y-185129819D01*
X185348952Y-185129819D02*
X185587047Y-185129819D01*
X185587047Y-185129819D02*
X185682285Y-185177438D01*
X185682285Y-185177438D02*
X185729904Y-185225057D01*
X185729904Y-185225057D02*
X185777523Y-185320295D01*
X185777523Y-185320295D02*
X185777523Y-185415533D01*
X185777523Y-185415533D02*
X185729904Y-185558390D01*
X185729904Y-185558390D02*
X185158476Y-186129819D01*
X185158476Y-186129819D02*
X185777523Y-186129819D01*
X284957285Y-165467319D02*
X284957285Y-164467319D01*
X284957285Y-164467319D02*
X285290618Y-165181604D01*
X285290618Y-165181604D02*
X285623951Y-164467319D01*
X285623951Y-164467319D02*
X285623951Y-165467319D01*
X286242999Y-165467319D02*
X286147761Y-165419700D01*
X286147761Y-165419700D02*
X286100142Y-165372080D01*
X286100142Y-165372080D02*
X286052523Y-165276842D01*
X286052523Y-165276842D02*
X286052523Y-164991128D01*
X286052523Y-164991128D02*
X286100142Y-164895890D01*
X286100142Y-164895890D02*
X286147761Y-164848271D01*
X286147761Y-164848271D02*
X286242999Y-164800652D01*
X286242999Y-164800652D02*
X286385856Y-164800652D01*
X286385856Y-164800652D02*
X286481094Y-164848271D01*
X286481094Y-164848271D02*
X286528713Y-164895890D01*
X286528713Y-164895890D02*
X286576332Y-164991128D01*
X286576332Y-164991128D02*
X286576332Y-165276842D01*
X286576332Y-165276842D02*
X286528713Y-165372080D01*
X286528713Y-165372080D02*
X286481094Y-165419700D01*
X286481094Y-165419700D02*
X286385856Y-165467319D01*
X286385856Y-165467319D02*
X286242999Y-165467319D01*
X287433475Y-164800652D02*
X287433475Y-165467319D01*
X287004904Y-164800652D02*
X287004904Y-165324461D01*
X287004904Y-165324461D02*
X287052523Y-165419700D01*
X287052523Y-165419700D02*
X287147761Y-165467319D01*
X287147761Y-165467319D02*
X287290618Y-165467319D01*
X287290618Y-165467319D02*
X287385856Y-165419700D01*
X287385856Y-165419700D02*
X287433475Y-165372080D01*
X287909666Y-164800652D02*
X287909666Y-165467319D01*
X287909666Y-164895890D02*
X287957285Y-164848271D01*
X287957285Y-164848271D02*
X288052523Y-164800652D01*
X288052523Y-164800652D02*
X288195380Y-164800652D01*
X288195380Y-164800652D02*
X288290618Y-164848271D01*
X288290618Y-164848271D02*
X288338237Y-164943509D01*
X288338237Y-164943509D02*
X288338237Y-165467319D01*
X288671571Y-164800652D02*
X289052523Y-164800652D01*
X288814428Y-164467319D02*
X288814428Y-165324461D01*
X288814428Y-165324461D02*
X288862047Y-165419700D01*
X288862047Y-165419700D02*
X288957285Y-165467319D01*
X288957285Y-165467319D02*
X289052523Y-165467319D01*
X289385857Y-165467319D02*
X289385857Y-164800652D01*
X289385857Y-164467319D02*
X289338238Y-164514938D01*
X289338238Y-164514938D02*
X289385857Y-164562557D01*
X289385857Y-164562557D02*
X289433476Y-164514938D01*
X289433476Y-164514938D02*
X289385857Y-164467319D01*
X289385857Y-164467319D02*
X289385857Y-164562557D01*
X289862047Y-164800652D02*
X289862047Y-165467319D01*
X289862047Y-164895890D02*
X289909666Y-164848271D01*
X289909666Y-164848271D02*
X290004904Y-164800652D01*
X290004904Y-164800652D02*
X290147761Y-164800652D01*
X290147761Y-164800652D02*
X290242999Y-164848271D01*
X290242999Y-164848271D02*
X290290618Y-164943509D01*
X290290618Y-164943509D02*
X290290618Y-165467319D01*
X291195380Y-164800652D02*
X291195380Y-165610176D01*
X291195380Y-165610176D02*
X291147761Y-165705414D01*
X291147761Y-165705414D02*
X291100142Y-165753033D01*
X291100142Y-165753033D02*
X291004904Y-165800652D01*
X291004904Y-165800652D02*
X290862047Y-165800652D01*
X290862047Y-165800652D02*
X290766809Y-165753033D01*
X291195380Y-165419700D02*
X291100142Y-165467319D01*
X291100142Y-165467319D02*
X290909666Y-165467319D01*
X290909666Y-165467319D02*
X290814428Y-165419700D01*
X290814428Y-165419700D02*
X290766809Y-165372080D01*
X290766809Y-165372080D02*
X290719190Y-165276842D01*
X290719190Y-165276842D02*
X290719190Y-164991128D01*
X290719190Y-164991128D02*
X290766809Y-164895890D01*
X290766809Y-164895890D02*
X290814428Y-164848271D01*
X290814428Y-164848271D02*
X290909666Y-164800652D01*
X290909666Y-164800652D02*
X291100142Y-164800652D01*
X291100142Y-164800652D02*
X291195380Y-164848271D01*
X291671571Y-165467319D02*
X291671571Y-164467319D01*
X291671571Y-164943509D02*
X292242999Y-164943509D01*
X292242999Y-165467319D02*
X292242999Y-164467319D01*
X292862047Y-165467319D02*
X292766809Y-165419700D01*
X292766809Y-165419700D02*
X292719190Y-165372080D01*
X292719190Y-165372080D02*
X292671571Y-165276842D01*
X292671571Y-165276842D02*
X292671571Y-164991128D01*
X292671571Y-164991128D02*
X292719190Y-164895890D01*
X292719190Y-164895890D02*
X292766809Y-164848271D01*
X292766809Y-164848271D02*
X292862047Y-164800652D01*
X292862047Y-164800652D02*
X293004904Y-164800652D01*
X293004904Y-164800652D02*
X293100142Y-164848271D01*
X293100142Y-164848271D02*
X293147761Y-164895890D01*
X293147761Y-164895890D02*
X293195380Y-164991128D01*
X293195380Y-164991128D02*
X293195380Y-165276842D01*
X293195380Y-165276842D02*
X293147761Y-165372080D01*
X293147761Y-165372080D02*
X293100142Y-165419700D01*
X293100142Y-165419700D02*
X293004904Y-165467319D01*
X293004904Y-165467319D02*
X292862047Y-165467319D01*
X293766809Y-165467319D02*
X293671571Y-165419700D01*
X293671571Y-165419700D02*
X293623952Y-165324461D01*
X293623952Y-165324461D02*
X293623952Y-164467319D01*
X294528714Y-165419700D02*
X294433476Y-165467319D01*
X294433476Y-165467319D02*
X294243000Y-165467319D01*
X294243000Y-165467319D02*
X294147762Y-165419700D01*
X294147762Y-165419700D02*
X294100143Y-165324461D01*
X294100143Y-165324461D02*
X294100143Y-164943509D01*
X294100143Y-164943509D02*
X294147762Y-164848271D01*
X294147762Y-164848271D02*
X294243000Y-164800652D01*
X294243000Y-164800652D02*
X294433476Y-164800652D01*
X294433476Y-164800652D02*
X294528714Y-164848271D01*
X294528714Y-164848271D02*
X294576333Y-164943509D01*
X294576333Y-164943509D02*
X294576333Y-165038747D01*
X294576333Y-165038747D02*
X294100143Y-165133985D01*
X288981095Y-162317319D02*
X288981095Y-161317319D01*
X288981095Y-161793509D02*
X289552523Y-161793509D01*
X289552523Y-162317319D02*
X289552523Y-161317319D01*
X290504904Y-161317319D02*
X290028714Y-161317319D01*
X290028714Y-161317319D02*
X289981095Y-161793509D01*
X289981095Y-161793509D02*
X290028714Y-161745890D01*
X290028714Y-161745890D02*
X290123952Y-161698271D01*
X290123952Y-161698271D02*
X290362047Y-161698271D01*
X290362047Y-161698271D02*
X290457285Y-161745890D01*
X290457285Y-161745890D02*
X290504904Y-161793509D01*
X290504904Y-161793509D02*
X290552523Y-161888747D01*
X290552523Y-161888747D02*
X290552523Y-162126842D01*
X290552523Y-162126842D02*
X290504904Y-162222080D01*
X290504904Y-162222080D02*
X290457285Y-162269700D01*
X290457285Y-162269700D02*
X290362047Y-162317319D01*
X290362047Y-162317319D02*
X290123952Y-162317319D01*
X290123952Y-162317319D02*
X290028714Y-162269700D01*
X290028714Y-162269700D02*
X289981095Y-162222080D01*
X162566666Y-179104819D02*
X163138094Y-179104819D01*
X162852380Y-180104819D02*
X162852380Y-179104819D01*
X163852380Y-180057200D02*
X163757142Y-180104819D01*
X163757142Y-180104819D02*
X163566666Y-180104819D01*
X163566666Y-180104819D02*
X163471428Y-180057200D01*
X163471428Y-180057200D02*
X163423809Y-179961961D01*
X163423809Y-179961961D02*
X163423809Y-179581009D01*
X163423809Y-179581009D02*
X163471428Y-179485771D01*
X163471428Y-179485771D02*
X163566666Y-179438152D01*
X163566666Y-179438152D02*
X163757142Y-179438152D01*
X163757142Y-179438152D02*
X163852380Y-179485771D01*
X163852380Y-179485771D02*
X163899999Y-179581009D01*
X163899999Y-179581009D02*
X163899999Y-179676247D01*
X163899999Y-179676247D02*
X163423809Y-179771485D01*
X164280952Y-180057200D02*
X164376190Y-180104819D01*
X164376190Y-180104819D02*
X164566666Y-180104819D01*
X164566666Y-180104819D02*
X164661904Y-180057200D01*
X164661904Y-180057200D02*
X164709523Y-179961961D01*
X164709523Y-179961961D02*
X164709523Y-179914342D01*
X164709523Y-179914342D02*
X164661904Y-179819104D01*
X164661904Y-179819104D02*
X164566666Y-179771485D01*
X164566666Y-179771485D02*
X164423809Y-179771485D01*
X164423809Y-179771485D02*
X164328571Y-179723866D01*
X164328571Y-179723866D02*
X164280952Y-179628628D01*
X164280952Y-179628628D02*
X164280952Y-179581009D01*
X164280952Y-179581009D02*
X164328571Y-179485771D01*
X164328571Y-179485771D02*
X164423809Y-179438152D01*
X164423809Y-179438152D02*
X164566666Y-179438152D01*
X164566666Y-179438152D02*
X164661904Y-179485771D01*
X164995238Y-179438152D02*
X165376190Y-179438152D01*
X165138095Y-179104819D02*
X165138095Y-179961961D01*
X165138095Y-179961961D02*
X165185714Y-180057200D01*
X165185714Y-180057200D02*
X165280952Y-180104819D01*
X165280952Y-180104819D02*
X165376190Y-180104819D01*
X165709524Y-180104819D02*
X165709524Y-179104819D01*
X165709524Y-179104819D02*
X166090476Y-179104819D01*
X166090476Y-179104819D02*
X166185714Y-179152438D01*
X166185714Y-179152438D02*
X166233333Y-179200057D01*
X166233333Y-179200057D02*
X166280952Y-179295295D01*
X166280952Y-179295295D02*
X166280952Y-179438152D01*
X166280952Y-179438152D02*
X166233333Y-179533390D01*
X166233333Y-179533390D02*
X166185714Y-179581009D01*
X166185714Y-179581009D02*
X166090476Y-179628628D01*
X166090476Y-179628628D02*
X165709524Y-179628628D01*
X166852381Y-180104819D02*
X166757143Y-180057200D01*
X166757143Y-180057200D02*
X166709524Y-180009580D01*
X166709524Y-180009580D02*
X166661905Y-179914342D01*
X166661905Y-179914342D02*
X166661905Y-179628628D01*
X166661905Y-179628628D02*
X166709524Y-179533390D01*
X166709524Y-179533390D02*
X166757143Y-179485771D01*
X166757143Y-179485771D02*
X166852381Y-179438152D01*
X166852381Y-179438152D02*
X166995238Y-179438152D01*
X166995238Y-179438152D02*
X167090476Y-179485771D01*
X167090476Y-179485771D02*
X167138095Y-179533390D01*
X167138095Y-179533390D02*
X167185714Y-179628628D01*
X167185714Y-179628628D02*
X167185714Y-179914342D01*
X167185714Y-179914342D02*
X167138095Y-180009580D01*
X167138095Y-180009580D02*
X167090476Y-180057200D01*
X167090476Y-180057200D02*
X166995238Y-180104819D01*
X166995238Y-180104819D02*
X166852381Y-180104819D01*
X167614286Y-180104819D02*
X167614286Y-179438152D01*
X167614286Y-179104819D02*
X167566667Y-179152438D01*
X167566667Y-179152438D02*
X167614286Y-179200057D01*
X167614286Y-179200057D02*
X167661905Y-179152438D01*
X167661905Y-179152438D02*
X167614286Y-179104819D01*
X167614286Y-179104819D02*
X167614286Y-179200057D01*
X168090476Y-179438152D02*
X168090476Y-180104819D01*
X168090476Y-179533390D02*
X168138095Y-179485771D01*
X168138095Y-179485771D02*
X168233333Y-179438152D01*
X168233333Y-179438152D02*
X168376190Y-179438152D01*
X168376190Y-179438152D02*
X168471428Y-179485771D01*
X168471428Y-179485771D02*
X168519047Y-179581009D01*
X168519047Y-179581009D02*
X168519047Y-180104819D01*
X168852381Y-179438152D02*
X169233333Y-179438152D01*
X168995238Y-179104819D02*
X168995238Y-179961961D01*
X168995238Y-179961961D02*
X169042857Y-180057200D01*
X169042857Y-180057200D02*
X169138095Y-180104819D01*
X169138095Y-180104819D02*
X169233333Y-180104819D01*
X164638095Y-176104819D02*
X165209523Y-176104819D01*
X164923809Y-177104819D02*
X164923809Y-176104819D01*
X165542857Y-177104819D02*
X165542857Y-176104819D01*
X165542857Y-176104819D02*
X165923809Y-176104819D01*
X165923809Y-176104819D02*
X166019047Y-176152438D01*
X166019047Y-176152438D02*
X166066666Y-176200057D01*
X166066666Y-176200057D02*
X166114285Y-176295295D01*
X166114285Y-176295295D02*
X166114285Y-176438152D01*
X166114285Y-176438152D02*
X166066666Y-176533390D01*
X166066666Y-176533390D02*
X166019047Y-176581009D01*
X166019047Y-176581009D02*
X165923809Y-176628628D01*
X165923809Y-176628628D02*
X165542857Y-176628628D01*
X167019047Y-176104819D02*
X166542857Y-176104819D01*
X166542857Y-176104819D02*
X166495238Y-176581009D01*
X166495238Y-176581009D02*
X166542857Y-176533390D01*
X166542857Y-176533390D02*
X166638095Y-176485771D01*
X166638095Y-176485771D02*
X166876190Y-176485771D01*
X166876190Y-176485771D02*
X166971428Y-176533390D01*
X166971428Y-176533390D02*
X167019047Y-176581009D01*
X167019047Y-176581009D02*
X167066666Y-176676247D01*
X167066666Y-176676247D02*
X167066666Y-176914342D01*
X167066666Y-176914342D02*
X167019047Y-177009580D01*
X167019047Y-177009580D02*
X166971428Y-177057200D01*
X166971428Y-177057200D02*
X166876190Y-177104819D01*
X166876190Y-177104819D02*
X166638095Y-177104819D01*
X166638095Y-177104819D02*
X166542857Y-177057200D01*
X166542857Y-177057200D02*
X166495238Y-177009580D01*
X227807285Y-79742319D02*
X227807285Y-78742319D01*
X227807285Y-78742319D02*
X228140618Y-79456604D01*
X228140618Y-79456604D02*
X228473951Y-78742319D01*
X228473951Y-78742319D02*
X228473951Y-79742319D01*
X229092999Y-79742319D02*
X228997761Y-79694700D01*
X228997761Y-79694700D02*
X228950142Y-79647080D01*
X228950142Y-79647080D02*
X228902523Y-79551842D01*
X228902523Y-79551842D02*
X228902523Y-79266128D01*
X228902523Y-79266128D02*
X228950142Y-79170890D01*
X228950142Y-79170890D02*
X228997761Y-79123271D01*
X228997761Y-79123271D02*
X229092999Y-79075652D01*
X229092999Y-79075652D02*
X229235856Y-79075652D01*
X229235856Y-79075652D02*
X229331094Y-79123271D01*
X229331094Y-79123271D02*
X229378713Y-79170890D01*
X229378713Y-79170890D02*
X229426332Y-79266128D01*
X229426332Y-79266128D02*
X229426332Y-79551842D01*
X229426332Y-79551842D02*
X229378713Y-79647080D01*
X229378713Y-79647080D02*
X229331094Y-79694700D01*
X229331094Y-79694700D02*
X229235856Y-79742319D01*
X229235856Y-79742319D02*
X229092999Y-79742319D01*
X230283475Y-79075652D02*
X230283475Y-79742319D01*
X229854904Y-79075652D02*
X229854904Y-79599461D01*
X229854904Y-79599461D02*
X229902523Y-79694700D01*
X229902523Y-79694700D02*
X229997761Y-79742319D01*
X229997761Y-79742319D02*
X230140618Y-79742319D01*
X230140618Y-79742319D02*
X230235856Y-79694700D01*
X230235856Y-79694700D02*
X230283475Y-79647080D01*
X230759666Y-79075652D02*
X230759666Y-79742319D01*
X230759666Y-79170890D02*
X230807285Y-79123271D01*
X230807285Y-79123271D02*
X230902523Y-79075652D01*
X230902523Y-79075652D02*
X231045380Y-79075652D01*
X231045380Y-79075652D02*
X231140618Y-79123271D01*
X231140618Y-79123271D02*
X231188237Y-79218509D01*
X231188237Y-79218509D02*
X231188237Y-79742319D01*
X231521571Y-79075652D02*
X231902523Y-79075652D01*
X231664428Y-78742319D02*
X231664428Y-79599461D01*
X231664428Y-79599461D02*
X231712047Y-79694700D01*
X231712047Y-79694700D02*
X231807285Y-79742319D01*
X231807285Y-79742319D02*
X231902523Y-79742319D01*
X232235857Y-79742319D02*
X232235857Y-79075652D01*
X232235857Y-78742319D02*
X232188238Y-78789938D01*
X232188238Y-78789938D02*
X232235857Y-78837557D01*
X232235857Y-78837557D02*
X232283476Y-78789938D01*
X232283476Y-78789938D02*
X232235857Y-78742319D01*
X232235857Y-78742319D02*
X232235857Y-78837557D01*
X232712047Y-79075652D02*
X232712047Y-79742319D01*
X232712047Y-79170890D02*
X232759666Y-79123271D01*
X232759666Y-79123271D02*
X232854904Y-79075652D01*
X232854904Y-79075652D02*
X232997761Y-79075652D01*
X232997761Y-79075652D02*
X233092999Y-79123271D01*
X233092999Y-79123271D02*
X233140618Y-79218509D01*
X233140618Y-79218509D02*
X233140618Y-79742319D01*
X234045380Y-79075652D02*
X234045380Y-79885176D01*
X234045380Y-79885176D02*
X233997761Y-79980414D01*
X233997761Y-79980414D02*
X233950142Y-80028033D01*
X233950142Y-80028033D02*
X233854904Y-80075652D01*
X233854904Y-80075652D02*
X233712047Y-80075652D01*
X233712047Y-80075652D02*
X233616809Y-80028033D01*
X234045380Y-79694700D02*
X233950142Y-79742319D01*
X233950142Y-79742319D02*
X233759666Y-79742319D01*
X233759666Y-79742319D02*
X233664428Y-79694700D01*
X233664428Y-79694700D02*
X233616809Y-79647080D01*
X233616809Y-79647080D02*
X233569190Y-79551842D01*
X233569190Y-79551842D02*
X233569190Y-79266128D01*
X233569190Y-79266128D02*
X233616809Y-79170890D01*
X233616809Y-79170890D02*
X233664428Y-79123271D01*
X233664428Y-79123271D02*
X233759666Y-79075652D01*
X233759666Y-79075652D02*
X233950142Y-79075652D01*
X233950142Y-79075652D02*
X234045380Y-79123271D01*
X234521571Y-79742319D02*
X234521571Y-78742319D01*
X234521571Y-79218509D02*
X235092999Y-79218509D01*
X235092999Y-79742319D02*
X235092999Y-78742319D01*
X235712047Y-79742319D02*
X235616809Y-79694700D01*
X235616809Y-79694700D02*
X235569190Y-79647080D01*
X235569190Y-79647080D02*
X235521571Y-79551842D01*
X235521571Y-79551842D02*
X235521571Y-79266128D01*
X235521571Y-79266128D02*
X235569190Y-79170890D01*
X235569190Y-79170890D02*
X235616809Y-79123271D01*
X235616809Y-79123271D02*
X235712047Y-79075652D01*
X235712047Y-79075652D02*
X235854904Y-79075652D01*
X235854904Y-79075652D02*
X235950142Y-79123271D01*
X235950142Y-79123271D02*
X235997761Y-79170890D01*
X235997761Y-79170890D02*
X236045380Y-79266128D01*
X236045380Y-79266128D02*
X236045380Y-79551842D01*
X236045380Y-79551842D02*
X235997761Y-79647080D01*
X235997761Y-79647080D02*
X235950142Y-79694700D01*
X235950142Y-79694700D02*
X235854904Y-79742319D01*
X235854904Y-79742319D02*
X235712047Y-79742319D01*
X236616809Y-79742319D02*
X236521571Y-79694700D01*
X236521571Y-79694700D02*
X236473952Y-79599461D01*
X236473952Y-79599461D02*
X236473952Y-78742319D01*
X237378714Y-79694700D02*
X237283476Y-79742319D01*
X237283476Y-79742319D02*
X237093000Y-79742319D01*
X237093000Y-79742319D02*
X236997762Y-79694700D01*
X236997762Y-79694700D02*
X236950143Y-79599461D01*
X236950143Y-79599461D02*
X236950143Y-79218509D01*
X236950143Y-79218509D02*
X236997762Y-79123271D01*
X236997762Y-79123271D02*
X237093000Y-79075652D01*
X237093000Y-79075652D02*
X237283476Y-79075652D01*
X237283476Y-79075652D02*
X237378714Y-79123271D01*
X237378714Y-79123271D02*
X237426333Y-79218509D01*
X237426333Y-79218509D02*
X237426333Y-79313747D01*
X237426333Y-79313747D02*
X236950143Y-79408985D01*
X231831095Y-76592319D02*
X231831095Y-75592319D01*
X231831095Y-76068509D02*
X232402523Y-76068509D01*
X232402523Y-76592319D02*
X232402523Y-75592319D01*
X233402523Y-76592319D02*
X232831095Y-76592319D01*
X233116809Y-76592319D02*
X233116809Y-75592319D01*
X233116809Y-75592319D02*
X233021571Y-75735176D01*
X233021571Y-75735176D02*
X232926333Y-75830414D01*
X232926333Y-75830414D02*
X232831095Y-75878033D01*
X42151785Y-84504819D02*
X42151785Y-83504819D01*
X42151785Y-83504819D02*
X42485118Y-84219104D01*
X42485118Y-84219104D02*
X42818451Y-83504819D01*
X42818451Y-83504819D02*
X42818451Y-84504819D01*
X43437499Y-84504819D02*
X43342261Y-84457200D01*
X43342261Y-84457200D02*
X43294642Y-84409580D01*
X43294642Y-84409580D02*
X43247023Y-84314342D01*
X43247023Y-84314342D02*
X43247023Y-84028628D01*
X43247023Y-84028628D02*
X43294642Y-83933390D01*
X43294642Y-83933390D02*
X43342261Y-83885771D01*
X43342261Y-83885771D02*
X43437499Y-83838152D01*
X43437499Y-83838152D02*
X43580356Y-83838152D01*
X43580356Y-83838152D02*
X43675594Y-83885771D01*
X43675594Y-83885771D02*
X43723213Y-83933390D01*
X43723213Y-83933390D02*
X43770832Y-84028628D01*
X43770832Y-84028628D02*
X43770832Y-84314342D01*
X43770832Y-84314342D02*
X43723213Y-84409580D01*
X43723213Y-84409580D02*
X43675594Y-84457200D01*
X43675594Y-84457200D02*
X43580356Y-84504819D01*
X43580356Y-84504819D02*
X43437499Y-84504819D01*
X44627975Y-83838152D02*
X44627975Y-84504819D01*
X44199404Y-83838152D02*
X44199404Y-84361961D01*
X44199404Y-84361961D02*
X44247023Y-84457200D01*
X44247023Y-84457200D02*
X44342261Y-84504819D01*
X44342261Y-84504819D02*
X44485118Y-84504819D01*
X44485118Y-84504819D02*
X44580356Y-84457200D01*
X44580356Y-84457200D02*
X44627975Y-84409580D01*
X45104166Y-83838152D02*
X45104166Y-84504819D01*
X45104166Y-83933390D02*
X45151785Y-83885771D01*
X45151785Y-83885771D02*
X45247023Y-83838152D01*
X45247023Y-83838152D02*
X45389880Y-83838152D01*
X45389880Y-83838152D02*
X45485118Y-83885771D01*
X45485118Y-83885771D02*
X45532737Y-83981009D01*
X45532737Y-83981009D02*
X45532737Y-84504819D01*
X45866071Y-83838152D02*
X46247023Y-83838152D01*
X46008928Y-83504819D02*
X46008928Y-84361961D01*
X46008928Y-84361961D02*
X46056547Y-84457200D01*
X46056547Y-84457200D02*
X46151785Y-84504819D01*
X46151785Y-84504819D02*
X46247023Y-84504819D01*
X46580357Y-84504819D02*
X46580357Y-83838152D01*
X46580357Y-83504819D02*
X46532738Y-83552438D01*
X46532738Y-83552438D02*
X46580357Y-83600057D01*
X46580357Y-83600057D02*
X46627976Y-83552438D01*
X46627976Y-83552438D02*
X46580357Y-83504819D01*
X46580357Y-83504819D02*
X46580357Y-83600057D01*
X47056547Y-83838152D02*
X47056547Y-84504819D01*
X47056547Y-83933390D02*
X47104166Y-83885771D01*
X47104166Y-83885771D02*
X47199404Y-83838152D01*
X47199404Y-83838152D02*
X47342261Y-83838152D01*
X47342261Y-83838152D02*
X47437499Y-83885771D01*
X47437499Y-83885771D02*
X47485118Y-83981009D01*
X47485118Y-83981009D02*
X47485118Y-84504819D01*
X48389880Y-83838152D02*
X48389880Y-84647676D01*
X48389880Y-84647676D02*
X48342261Y-84742914D01*
X48342261Y-84742914D02*
X48294642Y-84790533D01*
X48294642Y-84790533D02*
X48199404Y-84838152D01*
X48199404Y-84838152D02*
X48056547Y-84838152D01*
X48056547Y-84838152D02*
X47961309Y-84790533D01*
X48389880Y-84457200D02*
X48294642Y-84504819D01*
X48294642Y-84504819D02*
X48104166Y-84504819D01*
X48104166Y-84504819D02*
X48008928Y-84457200D01*
X48008928Y-84457200D02*
X47961309Y-84409580D01*
X47961309Y-84409580D02*
X47913690Y-84314342D01*
X47913690Y-84314342D02*
X47913690Y-84028628D01*
X47913690Y-84028628D02*
X47961309Y-83933390D01*
X47961309Y-83933390D02*
X48008928Y-83885771D01*
X48008928Y-83885771D02*
X48104166Y-83838152D01*
X48104166Y-83838152D02*
X48294642Y-83838152D01*
X48294642Y-83838152D02*
X48389880Y-83885771D01*
X48866071Y-84504819D02*
X48866071Y-83504819D01*
X48866071Y-83981009D02*
X49437499Y-83981009D01*
X49437499Y-84504819D02*
X49437499Y-83504819D01*
X50056547Y-84504819D02*
X49961309Y-84457200D01*
X49961309Y-84457200D02*
X49913690Y-84409580D01*
X49913690Y-84409580D02*
X49866071Y-84314342D01*
X49866071Y-84314342D02*
X49866071Y-84028628D01*
X49866071Y-84028628D02*
X49913690Y-83933390D01*
X49913690Y-83933390D02*
X49961309Y-83885771D01*
X49961309Y-83885771D02*
X50056547Y-83838152D01*
X50056547Y-83838152D02*
X50199404Y-83838152D01*
X50199404Y-83838152D02*
X50294642Y-83885771D01*
X50294642Y-83885771D02*
X50342261Y-83933390D01*
X50342261Y-83933390D02*
X50389880Y-84028628D01*
X50389880Y-84028628D02*
X50389880Y-84314342D01*
X50389880Y-84314342D02*
X50342261Y-84409580D01*
X50342261Y-84409580D02*
X50294642Y-84457200D01*
X50294642Y-84457200D02*
X50199404Y-84504819D01*
X50199404Y-84504819D02*
X50056547Y-84504819D01*
X50961309Y-84504819D02*
X50866071Y-84457200D01*
X50866071Y-84457200D02*
X50818452Y-84361961D01*
X50818452Y-84361961D02*
X50818452Y-83504819D01*
X51723214Y-84457200D02*
X51627976Y-84504819D01*
X51627976Y-84504819D02*
X51437500Y-84504819D01*
X51437500Y-84504819D02*
X51342262Y-84457200D01*
X51342262Y-84457200D02*
X51294643Y-84361961D01*
X51294643Y-84361961D02*
X51294643Y-83981009D01*
X51294643Y-83981009D02*
X51342262Y-83885771D01*
X51342262Y-83885771D02*
X51437500Y-83838152D01*
X51437500Y-83838152D02*
X51627976Y-83838152D01*
X51627976Y-83838152D02*
X51723214Y-83885771D01*
X51723214Y-83885771D02*
X51770833Y-83981009D01*
X51770833Y-83981009D02*
X51770833Y-84076247D01*
X51770833Y-84076247D02*
X51294643Y-84171485D01*
X45699405Y-81354819D02*
X45699405Y-80354819D01*
X45699405Y-80831009D02*
X46270833Y-80831009D01*
X46270833Y-81354819D02*
X46270833Y-80354819D01*
X47270833Y-81354819D02*
X46699405Y-81354819D01*
X46985119Y-81354819D02*
X46985119Y-80354819D01*
X46985119Y-80354819D02*
X46889881Y-80497676D01*
X46889881Y-80497676D02*
X46794643Y-80592914D01*
X46794643Y-80592914D02*
X46699405Y-80640533D01*
X47651786Y-80450057D02*
X47699405Y-80402438D01*
X47699405Y-80402438D02*
X47794643Y-80354819D01*
X47794643Y-80354819D02*
X48032738Y-80354819D01*
X48032738Y-80354819D02*
X48127976Y-80402438D01*
X48127976Y-80402438D02*
X48175595Y-80450057D01*
X48175595Y-80450057D02*
X48223214Y-80545295D01*
X48223214Y-80545295D02*
X48223214Y-80640533D01*
X48223214Y-80640533D02*
X48175595Y-80783390D01*
X48175595Y-80783390D02*
X47604167Y-81354819D01*
X47604167Y-81354819D02*
X48223214Y-81354819D01*
X294482285Y-84504819D02*
X294482285Y-83504819D01*
X294482285Y-83504819D02*
X294815618Y-84219104D01*
X294815618Y-84219104D02*
X295148951Y-83504819D01*
X295148951Y-83504819D02*
X295148951Y-84504819D01*
X295767999Y-84504819D02*
X295672761Y-84457200D01*
X295672761Y-84457200D02*
X295625142Y-84409580D01*
X295625142Y-84409580D02*
X295577523Y-84314342D01*
X295577523Y-84314342D02*
X295577523Y-84028628D01*
X295577523Y-84028628D02*
X295625142Y-83933390D01*
X295625142Y-83933390D02*
X295672761Y-83885771D01*
X295672761Y-83885771D02*
X295767999Y-83838152D01*
X295767999Y-83838152D02*
X295910856Y-83838152D01*
X295910856Y-83838152D02*
X296006094Y-83885771D01*
X296006094Y-83885771D02*
X296053713Y-83933390D01*
X296053713Y-83933390D02*
X296101332Y-84028628D01*
X296101332Y-84028628D02*
X296101332Y-84314342D01*
X296101332Y-84314342D02*
X296053713Y-84409580D01*
X296053713Y-84409580D02*
X296006094Y-84457200D01*
X296006094Y-84457200D02*
X295910856Y-84504819D01*
X295910856Y-84504819D02*
X295767999Y-84504819D01*
X296958475Y-83838152D02*
X296958475Y-84504819D01*
X296529904Y-83838152D02*
X296529904Y-84361961D01*
X296529904Y-84361961D02*
X296577523Y-84457200D01*
X296577523Y-84457200D02*
X296672761Y-84504819D01*
X296672761Y-84504819D02*
X296815618Y-84504819D01*
X296815618Y-84504819D02*
X296910856Y-84457200D01*
X296910856Y-84457200D02*
X296958475Y-84409580D01*
X297434666Y-83838152D02*
X297434666Y-84504819D01*
X297434666Y-83933390D02*
X297482285Y-83885771D01*
X297482285Y-83885771D02*
X297577523Y-83838152D01*
X297577523Y-83838152D02*
X297720380Y-83838152D01*
X297720380Y-83838152D02*
X297815618Y-83885771D01*
X297815618Y-83885771D02*
X297863237Y-83981009D01*
X297863237Y-83981009D02*
X297863237Y-84504819D01*
X298196571Y-83838152D02*
X298577523Y-83838152D01*
X298339428Y-83504819D02*
X298339428Y-84361961D01*
X298339428Y-84361961D02*
X298387047Y-84457200D01*
X298387047Y-84457200D02*
X298482285Y-84504819D01*
X298482285Y-84504819D02*
X298577523Y-84504819D01*
X298910857Y-84504819D02*
X298910857Y-83838152D01*
X298910857Y-83504819D02*
X298863238Y-83552438D01*
X298863238Y-83552438D02*
X298910857Y-83600057D01*
X298910857Y-83600057D02*
X298958476Y-83552438D01*
X298958476Y-83552438D02*
X298910857Y-83504819D01*
X298910857Y-83504819D02*
X298910857Y-83600057D01*
X299387047Y-83838152D02*
X299387047Y-84504819D01*
X299387047Y-83933390D02*
X299434666Y-83885771D01*
X299434666Y-83885771D02*
X299529904Y-83838152D01*
X299529904Y-83838152D02*
X299672761Y-83838152D01*
X299672761Y-83838152D02*
X299767999Y-83885771D01*
X299767999Y-83885771D02*
X299815618Y-83981009D01*
X299815618Y-83981009D02*
X299815618Y-84504819D01*
X300720380Y-83838152D02*
X300720380Y-84647676D01*
X300720380Y-84647676D02*
X300672761Y-84742914D01*
X300672761Y-84742914D02*
X300625142Y-84790533D01*
X300625142Y-84790533D02*
X300529904Y-84838152D01*
X300529904Y-84838152D02*
X300387047Y-84838152D01*
X300387047Y-84838152D02*
X300291809Y-84790533D01*
X300720380Y-84457200D02*
X300625142Y-84504819D01*
X300625142Y-84504819D02*
X300434666Y-84504819D01*
X300434666Y-84504819D02*
X300339428Y-84457200D01*
X300339428Y-84457200D02*
X300291809Y-84409580D01*
X300291809Y-84409580D02*
X300244190Y-84314342D01*
X300244190Y-84314342D02*
X300244190Y-84028628D01*
X300244190Y-84028628D02*
X300291809Y-83933390D01*
X300291809Y-83933390D02*
X300339428Y-83885771D01*
X300339428Y-83885771D02*
X300434666Y-83838152D01*
X300434666Y-83838152D02*
X300625142Y-83838152D01*
X300625142Y-83838152D02*
X300720380Y-83885771D01*
X301196571Y-84504819D02*
X301196571Y-83504819D01*
X301196571Y-83981009D02*
X301767999Y-83981009D01*
X301767999Y-84504819D02*
X301767999Y-83504819D01*
X302387047Y-84504819D02*
X302291809Y-84457200D01*
X302291809Y-84457200D02*
X302244190Y-84409580D01*
X302244190Y-84409580D02*
X302196571Y-84314342D01*
X302196571Y-84314342D02*
X302196571Y-84028628D01*
X302196571Y-84028628D02*
X302244190Y-83933390D01*
X302244190Y-83933390D02*
X302291809Y-83885771D01*
X302291809Y-83885771D02*
X302387047Y-83838152D01*
X302387047Y-83838152D02*
X302529904Y-83838152D01*
X302529904Y-83838152D02*
X302625142Y-83885771D01*
X302625142Y-83885771D02*
X302672761Y-83933390D01*
X302672761Y-83933390D02*
X302720380Y-84028628D01*
X302720380Y-84028628D02*
X302720380Y-84314342D01*
X302720380Y-84314342D02*
X302672761Y-84409580D01*
X302672761Y-84409580D02*
X302625142Y-84457200D01*
X302625142Y-84457200D02*
X302529904Y-84504819D01*
X302529904Y-84504819D02*
X302387047Y-84504819D01*
X303291809Y-84504819D02*
X303196571Y-84457200D01*
X303196571Y-84457200D02*
X303148952Y-84361961D01*
X303148952Y-84361961D02*
X303148952Y-83504819D01*
X304053714Y-84457200D02*
X303958476Y-84504819D01*
X303958476Y-84504819D02*
X303768000Y-84504819D01*
X303768000Y-84504819D02*
X303672762Y-84457200D01*
X303672762Y-84457200D02*
X303625143Y-84361961D01*
X303625143Y-84361961D02*
X303625143Y-83981009D01*
X303625143Y-83981009D02*
X303672762Y-83885771D01*
X303672762Y-83885771D02*
X303768000Y-83838152D01*
X303768000Y-83838152D02*
X303958476Y-83838152D01*
X303958476Y-83838152D02*
X304053714Y-83885771D01*
X304053714Y-83885771D02*
X304101333Y-83981009D01*
X304101333Y-83981009D02*
X304101333Y-84076247D01*
X304101333Y-84076247D02*
X303625143Y-84171485D01*
X298506095Y-81354819D02*
X298506095Y-80354819D01*
X298506095Y-80831009D02*
X299077523Y-80831009D01*
X299077523Y-81354819D02*
X299077523Y-80354819D01*
X299982285Y-80354819D02*
X299791809Y-80354819D01*
X299791809Y-80354819D02*
X299696571Y-80402438D01*
X299696571Y-80402438D02*
X299648952Y-80450057D01*
X299648952Y-80450057D02*
X299553714Y-80592914D01*
X299553714Y-80592914D02*
X299506095Y-80783390D01*
X299506095Y-80783390D02*
X299506095Y-81164342D01*
X299506095Y-81164342D02*
X299553714Y-81259580D01*
X299553714Y-81259580D02*
X299601333Y-81307200D01*
X299601333Y-81307200D02*
X299696571Y-81354819D01*
X299696571Y-81354819D02*
X299887047Y-81354819D01*
X299887047Y-81354819D02*
X299982285Y-81307200D01*
X299982285Y-81307200D02*
X300029904Y-81259580D01*
X300029904Y-81259580D02*
X300077523Y-81164342D01*
X300077523Y-81164342D02*
X300077523Y-80926247D01*
X300077523Y-80926247D02*
X300029904Y-80831009D01*
X300029904Y-80831009D02*
X299982285Y-80783390D01*
X299982285Y-80783390D02*
X299887047Y-80735771D01*
X299887047Y-80735771D02*
X299696571Y-80735771D01*
X299696571Y-80735771D02*
X299601333Y-80783390D01*
X299601333Y-80783390D02*
X299553714Y-80831009D01*
X299553714Y-80831009D02*
X299506095Y-80926247D01*
X161214285Y-122604819D02*
X161214285Y-121604819D01*
X161214285Y-121604819D02*
X161547618Y-122319104D01*
X161547618Y-122319104D02*
X161880951Y-121604819D01*
X161880951Y-121604819D02*
X161880951Y-122604819D01*
X162499999Y-122604819D02*
X162404761Y-122557200D01*
X162404761Y-122557200D02*
X162357142Y-122509580D01*
X162357142Y-122509580D02*
X162309523Y-122414342D01*
X162309523Y-122414342D02*
X162309523Y-122128628D01*
X162309523Y-122128628D02*
X162357142Y-122033390D01*
X162357142Y-122033390D02*
X162404761Y-121985771D01*
X162404761Y-121985771D02*
X162499999Y-121938152D01*
X162499999Y-121938152D02*
X162642856Y-121938152D01*
X162642856Y-121938152D02*
X162738094Y-121985771D01*
X162738094Y-121985771D02*
X162785713Y-122033390D01*
X162785713Y-122033390D02*
X162833332Y-122128628D01*
X162833332Y-122128628D02*
X162833332Y-122414342D01*
X162833332Y-122414342D02*
X162785713Y-122509580D01*
X162785713Y-122509580D02*
X162738094Y-122557200D01*
X162738094Y-122557200D02*
X162642856Y-122604819D01*
X162642856Y-122604819D02*
X162499999Y-122604819D01*
X163690475Y-121938152D02*
X163690475Y-122604819D01*
X163261904Y-121938152D02*
X163261904Y-122461961D01*
X163261904Y-122461961D02*
X163309523Y-122557200D01*
X163309523Y-122557200D02*
X163404761Y-122604819D01*
X163404761Y-122604819D02*
X163547618Y-122604819D01*
X163547618Y-122604819D02*
X163642856Y-122557200D01*
X163642856Y-122557200D02*
X163690475Y-122509580D01*
X164166666Y-121938152D02*
X164166666Y-122604819D01*
X164166666Y-122033390D02*
X164214285Y-121985771D01*
X164214285Y-121985771D02*
X164309523Y-121938152D01*
X164309523Y-121938152D02*
X164452380Y-121938152D01*
X164452380Y-121938152D02*
X164547618Y-121985771D01*
X164547618Y-121985771D02*
X164595237Y-122081009D01*
X164595237Y-122081009D02*
X164595237Y-122604819D01*
X164928571Y-121938152D02*
X165309523Y-121938152D01*
X165071428Y-121604819D02*
X165071428Y-122461961D01*
X165071428Y-122461961D02*
X165119047Y-122557200D01*
X165119047Y-122557200D02*
X165214285Y-122604819D01*
X165214285Y-122604819D02*
X165309523Y-122604819D01*
X165642857Y-122604819D02*
X165642857Y-121938152D01*
X165642857Y-121604819D02*
X165595238Y-121652438D01*
X165595238Y-121652438D02*
X165642857Y-121700057D01*
X165642857Y-121700057D02*
X165690476Y-121652438D01*
X165690476Y-121652438D02*
X165642857Y-121604819D01*
X165642857Y-121604819D02*
X165642857Y-121700057D01*
X166119047Y-121938152D02*
X166119047Y-122604819D01*
X166119047Y-122033390D02*
X166166666Y-121985771D01*
X166166666Y-121985771D02*
X166261904Y-121938152D01*
X166261904Y-121938152D02*
X166404761Y-121938152D01*
X166404761Y-121938152D02*
X166499999Y-121985771D01*
X166499999Y-121985771D02*
X166547618Y-122081009D01*
X166547618Y-122081009D02*
X166547618Y-122604819D01*
X167452380Y-121938152D02*
X167452380Y-122747676D01*
X167452380Y-122747676D02*
X167404761Y-122842914D01*
X167404761Y-122842914D02*
X167357142Y-122890533D01*
X167357142Y-122890533D02*
X167261904Y-122938152D01*
X167261904Y-122938152D02*
X167119047Y-122938152D01*
X167119047Y-122938152D02*
X167023809Y-122890533D01*
X167452380Y-122557200D02*
X167357142Y-122604819D01*
X167357142Y-122604819D02*
X167166666Y-122604819D01*
X167166666Y-122604819D02*
X167071428Y-122557200D01*
X167071428Y-122557200D02*
X167023809Y-122509580D01*
X167023809Y-122509580D02*
X166976190Y-122414342D01*
X166976190Y-122414342D02*
X166976190Y-122128628D01*
X166976190Y-122128628D02*
X167023809Y-122033390D01*
X167023809Y-122033390D02*
X167071428Y-121985771D01*
X167071428Y-121985771D02*
X167166666Y-121938152D01*
X167166666Y-121938152D02*
X167357142Y-121938152D01*
X167357142Y-121938152D02*
X167452380Y-121985771D01*
X167928571Y-122604819D02*
X167928571Y-121604819D01*
X167928571Y-122081009D02*
X168499999Y-122081009D01*
X168499999Y-122604819D02*
X168499999Y-121604819D01*
X169119047Y-122604819D02*
X169023809Y-122557200D01*
X169023809Y-122557200D02*
X168976190Y-122509580D01*
X168976190Y-122509580D02*
X168928571Y-122414342D01*
X168928571Y-122414342D02*
X168928571Y-122128628D01*
X168928571Y-122128628D02*
X168976190Y-122033390D01*
X168976190Y-122033390D02*
X169023809Y-121985771D01*
X169023809Y-121985771D02*
X169119047Y-121938152D01*
X169119047Y-121938152D02*
X169261904Y-121938152D01*
X169261904Y-121938152D02*
X169357142Y-121985771D01*
X169357142Y-121985771D02*
X169404761Y-122033390D01*
X169404761Y-122033390D02*
X169452380Y-122128628D01*
X169452380Y-122128628D02*
X169452380Y-122414342D01*
X169452380Y-122414342D02*
X169404761Y-122509580D01*
X169404761Y-122509580D02*
X169357142Y-122557200D01*
X169357142Y-122557200D02*
X169261904Y-122604819D01*
X169261904Y-122604819D02*
X169119047Y-122604819D01*
X170023809Y-122604819D02*
X169928571Y-122557200D01*
X169928571Y-122557200D02*
X169880952Y-122461961D01*
X169880952Y-122461961D02*
X169880952Y-121604819D01*
X170785714Y-122557200D02*
X170690476Y-122604819D01*
X170690476Y-122604819D02*
X170500000Y-122604819D01*
X170500000Y-122604819D02*
X170404762Y-122557200D01*
X170404762Y-122557200D02*
X170357143Y-122461961D01*
X170357143Y-122461961D02*
X170357143Y-122081009D01*
X170357143Y-122081009D02*
X170404762Y-121985771D01*
X170404762Y-121985771D02*
X170500000Y-121938152D01*
X170500000Y-121938152D02*
X170690476Y-121938152D01*
X170690476Y-121938152D02*
X170785714Y-121985771D01*
X170785714Y-121985771D02*
X170833333Y-122081009D01*
X170833333Y-122081009D02*
X170833333Y-122176247D01*
X170833333Y-122176247D02*
X170357143Y-122271485D01*
X164761905Y-124217319D02*
X164761905Y-123217319D01*
X164761905Y-123693509D02*
X165333333Y-123693509D01*
X165333333Y-124217319D02*
X165333333Y-123217319D01*
X166333333Y-124217319D02*
X165761905Y-124217319D01*
X166047619Y-124217319D02*
X166047619Y-123217319D01*
X166047619Y-123217319D02*
X165952381Y-123360176D01*
X165952381Y-123360176D02*
X165857143Y-123455414D01*
X165857143Y-123455414D02*
X165761905Y-123503033D01*
X167190476Y-123550652D02*
X167190476Y-124217319D01*
X166952381Y-123169700D02*
X166714286Y-123883985D01*
X166714286Y-123883985D02*
X167333333Y-123883985D01*
X177666666Y-179004819D02*
X178238094Y-179004819D01*
X177952380Y-180004819D02*
X177952380Y-179004819D01*
X178952380Y-179957200D02*
X178857142Y-180004819D01*
X178857142Y-180004819D02*
X178666666Y-180004819D01*
X178666666Y-180004819D02*
X178571428Y-179957200D01*
X178571428Y-179957200D02*
X178523809Y-179861961D01*
X178523809Y-179861961D02*
X178523809Y-179481009D01*
X178523809Y-179481009D02*
X178571428Y-179385771D01*
X178571428Y-179385771D02*
X178666666Y-179338152D01*
X178666666Y-179338152D02*
X178857142Y-179338152D01*
X178857142Y-179338152D02*
X178952380Y-179385771D01*
X178952380Y-179385771D02*
X178999999Y-179481009D01*
X178999999Y-179481009D02*
X178999999Y-179576247D01*
X178999999Y-179576247D02*
X178523809Y-179671485D01*
X179380952Y-179957200D02*
X179476190Y-180004819D01*
X179476190Y-180004819D02*
X179666666Y-180004819D01*
X179666666Y-180004819D02*
X179761904Y-179957200D01*
X179761904Y-179957200D02*
X179809523Y-179861961D01*
X179809523Y-179861961D02*
X179809523Y-179814342D01*
X179809523Y-179814342D02*
X179761904Y-179719104D01*
X179761904Y-179719104D02*
X179666666Y-179671485D01*
X179666666Y-179671485D02*
X179523809Y-179671485D01*
X179523809Y-179671485D02*
X179428571Y-179623866D01*
X179428571Y-179623866D02*
X179380952Y-179528628D01*
X179380952Y-179528628D02*
X179380952Y-179481009D01*
X179380952Y-179481009D02*
X179428571Y-179385771D01*
X179428571Y-179385771D02*
X179523809Y-179338152D01*
X179523809Y-179338152D02*
X179666666Y-179338152D01*
X179666666Y-179338152D02*
X179761904Y-179385771D01*
X180095238Y-179338152D02*
X180476190Y-179338152D01*
X180238095Y-179004819D02*
X180238095Y-179861961D01*
X180238095Y-179861961D02*
X180285714Y-179957200D01*
X180285714Y-179957200D02*
X180380952Y-180004819D01*
X180380952Y-180004819D02*
X180476190Y-180004819D01*
X180809524Y-180004819D02*
X180809524Y-179004819D01*
X180809524Y-179004819D02*
X181190476Y-179004819D01*
X181190476Y-179004819D02*
X181285714Y-179052438D01*
X181285714Y-179052438D02*
X181333333Y-179100057D01*
X181333333Y-179100057D02*
X181380952Y-179195295D01*
X181380952Y-179195295D02*
X181380952Y-179338152D01*
X181380952Y-179338152D02*
X181333333Y-179433390D01*
X181333333Y-179433390D02*
X181285714Y-179481009D01*
X181285714Y-179481009D02*
X181190476Y-179528628D01*
X181190476Y-179528628D02*
X180809524Y-179528628D01*
X181952381Y-180004819D02*
X181857143Y-179957200D01*
X181857143Y-179957200D02*
X181809524Y-179909580D01*
X181809524Y-179909580D02*
X181761905Y-179814342D01*
X181761905Y-179814342D02*
X181761905Y-179528628D01*
X181761905Y-179528628D02*
X181809524Y-179433390D01*
X181809524Y-179433390D02*
X181857143Y-179385771D01*
X181857143Y-179385771D02*
X181952381Y-179338152D01*
X181952381Y-179338152D02*
X182095238Y-179338152D01*
X182095238Y-179338152D02*
X182190476Y-179385771D01*
X182190476Y-179385771D02*
X182238095Y-179433390D01*
X182238095Y-179433390D02*
X182285714Y-179528628D01*
X182285714Y-179528628D02*
X182285714Y-179814342D01*
X182285714Y-179814342D02*
X182238095Y-179909580D01*
X182238095Y-179909580D02*
X182190476Y-179957200D01*
X182190476Y-179957200D02*
X182095238Y-180004819D01*
X182095238Y-180004819D02*
X181952381Y-180004819D01*
X182714286Y-180004819D02*
X182714286Y-179338152D01*
X182714286Y-179004819D02*
X182666667Y-179052438D01*
X182666667Y-179052438D02*
X182714286Y-179100057D01*
X182714286Y-179100057D02*
X182761905Y-179052438D01*
X182761905Y-179052438D02*
X182714286Y-179004819D01*
X182714286Y-179004819D02*
X182714286Y-179100057D01*
X183190476Y-179338152D02*
X183190476Y-180004819D01*
X183190476Y-179433390D02*
X183238095Y-179385771D01*
X183238095Y-179385771D02*
X183333333Y-179338152D01*
X183333333Y-179338152D02*
X183476190Y-179338152D01*
X183476190Y-179338152D02*
X183571428Y-179385771D01*
X183571428Y-179385771D02*
X183619047Y-179481009D01*
X183619047Y-179481009D02*
X183619047Y-180004819D01*
X183952381Y-179338152D02*
X184333333Y-179338152D01*
X184095238Y-179004819D02*
X184095238Y-179861961D01*
X184095238Y-179861961D02*
X184142857Y-179957200D01*
X184142857Y-179957200D02*
X184238095Y-180004819D01*
X184238095Y-180004819D02*
X184333333Y-180004819D01*
X179738095Y-176004819D02*
X180309523Y-176004819D01*
X180023809Y-177004819D02*
X180023809Y-176004819D01*
X180642857Y-177004819D02*
X180642857Y-176004819D01*
X180642857Y-176004819D02*
X181023809Y-176004819D01*
X181023809Y-176004819D02*
X181119047Y-176052438D01*
X181119047Y-176052438D02*
X181166666Y-176100057D01*
X181166666Y-176100057D02*
X181214285Y-176195295D01*
X181214285Y-176195295D02*
X181214285Y-176338152D01*
X181214285Y-176338152D02*
X181166666Y-176433390D01*
X181166666Y-176433390D02*
X181119047Y-176481009D01*
X181119047Y-176481009D02*
X181023809Y-176528628D01*
X181023809Y-176528628D02*
X180642857Y-176528628D01*
X182071428Y-176004819D02*
X181880952Y-176004819D01*
X181880952Y-176004819D02*
X181785714Y-176052438D01*
X181785714Y-176052438D02*
X181738095Y-176100057D01*
X181738095Y-176100057D02*
X181642857Y-176242914D01*
X181642857Y-176242914D02*
X181595238Y-176433390D01*
X181595238Y-176433390D02*
X181595238Y-176814342D01*
X181595238Y-176814342D02*
X181642857Y-176909580D01*
X181642857Y-176909580D02*
X181690476Y-176957200D01*
X181690476Y-176957200D02*
X181785714Y-177004819D01*
X181785714Y-177004819D02*
X181976190Y-177004819D01*
X181976190Y-177004819D02*
X182071428Y-176957200D01*
X182071428Y-176957200D02*
X182119047Y-176909580D01*
X182119047Y-176909580D02*
X182166666Y-176814342D01*
X182166666Y-176814342D02*
X182166666Y-176576247D01*
X182166666Y-176576247D02*
X182119047Y-176481009D01*
X182119047Y-176481009D02*
X182071428Y-176433390D01*
X182071428Y-176433390D02*
X181976190Y-176385771D01*
X181976190Y-176385771D02*
X181785714Y-176385771D01*
X181785714Y-176385771D02*
X181690476Y-176433390D01*
X181690476Y-176433390D02*
X181642857Y-176481009D01*
X181642857Y-176481009D02*
X181595238Y-176576247D01*
X186366666Y-111594819D02*
X186938094Y-111594819D01*
X186652380Y-112594819D02*
X186652380Y-111594819D01*
X187652380Y-112547200D02*
X187557142Y-112594819D01*
X187557142Y-112594819D02*
X187366666Y-112594819D01*
X187366666Y-112594819D02*
X187271428Y-112547200D01*
X187271428Y-112547200D02*
X187223809Y-112451961D01*
X187223809Y-112451961D02*
X187223809Y-112071009D01*
X187223809Y-112071009D02*
X187271428Y-111975771D01*
X187271428Y-111975771D02*
X187366666Y-111928152D01*
X187366666Y-111928152D02*
X187557142Y-111928152D01*
X187557142Y-111928152D02*
X187652380Y-111975771D01*
X187652380Y-111975771D02*
X187699999Y-112071009D01*
X187699999Y-112071009D02*
X187699999Y-112166247D01*
X187699999Y-112166247D02*
X187223809Y-112261485D01*
X188080952Y-112547200D02*
X188176190Y-112594819D01*
X188176190Y-112594819D02*
X188366666Y-112594819D01*
X188366666Y-112594819D02*
X188461904Y-112547200D01*
X188461904Y-112547200D02*
X188509523Y-112451961D01*
X188509523Y-112451961D02*
X188509523Y-112404342D01*
X188509523Y-112404342D02*
X188461904Y-112309104D01*
X188461904Y-112309104D02*
X188366666Y-112261485D01*
X188366666Y-112261485D02*
X188223809Y-112261485D01*
X188223809Y-112261485D02*
X188128571Y-112213866D01*
X188128571Y-112213866D02*
X188080952Y-112118628D01*
X188080952Y-112118628D02*
X188080952Y-112071009D01*
X188080952Y-112071009D02*
X188128571Y-111975771D01*
X188128571Y-111975771D02*
X188223809Y-111928152D01*
X188223809Y-111928152D02*
X188366666Y-111928152D01*
X188366666Y-111928152D02*
X188461904Y-111975771D01*
X188795238Y-111928152D02*
X189176190Y-111928152D01*
X188938095Y-111594819D02*
X188938095Y-112451961D01*
X188938095Y-112451961D02*
X188985714Y-112547200D01*
X188985714Y-112547200D02*
X189080952Y-112594819D01*
X189080952Y-112594819D02*
X189176190Y-112594819D01*
X189509524Y-112594819D02*
X189509524Y-111594819D01*
X189509524Y-111594819D02*
X189890476Y-111594819D01*
X189890476Y-111594819D02*
X189985714Y-111642438D01*
X189985714Y-111642438D02*
X190033333Y-111690057D01*
X190033333Y-111690057D02*
X190080952Y-111785295D01*
X190080952Y-111785295D02*
X190080952Y-111928152D01*
X190080952Y-111928152D02*
X190033333Y-112023390D01*
X190033333Y-112023390D02*
X189985714Y-112071009D01*
X189985714Y-112071009D02*
X189890476Y-112118628D01*
X189890476Y-112118628D02*
X189509524Y-112118628D01*
X190652381Y-112594819D02*
X190557143Y-112547200D01*
X190557143Y-112547200D02*
X190509524Y-112499580D01*
X190509524Y-112499580D02*
X190461905Y-112404342D01*
X190461905Y-112404342D02*
X190461905Y-112118628D01*
X190461905Y-112118628D02*
X190509524Y-112023390D01*
X190509524Y-112023390D02*
X190557143Y-111975771D01*
X190557143Y-111975771D02*
X190652381Y-111928152D01*
X190652381Y-111928152D02*
X190795238Y-111928152D01*
X190795238Y-111928152D02*
X190890476Y-111975771D01*
X190890476Y-111975771D02*
X190938095Y-112023390D01*
X190938095Y-112023390D02*
X190985714Y-112118628D01*
X190985714Y-112118628D02*
X190985714Y-112404342D01*
X190985714Y-112404342D02*
X190938095Y-112499580D01*
X190938095Y-112499580D02*
X190890476Y-112547200D01*
X190890476Y-112547200D02*
X190795238Y-112594819D01*
X190795238Y-112594819D02*
X190652381Y-112594819D01*
X191414286Y-112594819D02*
X191414286Y-111928152D01*
X191414286Y-111594819D02*
X191366667Y-111642438D01*
X191366667Y-111642438D02*
X191414286Y-111690057D01*
X191414286Y-111690057D02*
X191461905Y-111642438D01*
X191461905Y-111642438D02*
X191414286Y-111594819D01*
X191414286Y-111594819D02*
X191414286Y-111690057D01*
X191890476Y-111928152D02*
X191890476Y-112594819D01*
X191890476Y-112023390D02*
X191938095Y-111975771D01*
X191938095Y-111975771D02*
X192033333Y-111928152D01*
X192033333Y-111928152D02*
X192176190Y-111928152D01*
X192176190Y-111928152D02*
X192271428Y-111975771D01*
X192271428Y-111975771D02*
X192319047Y-112071009D01*
X192319047Y-112071009D02*
X192319047Y-112594819D01*
X192652381Y-111928152D02*
X193033333Y-111928152D01*
X192795238Y-111594819D02*
X192795238Y-112451961D01*
X192795238Y-112451961D02*
X192842857Y-112547200D01*
X192842857Y-112547200D02*
X192938095Y-112594819D01*
X192938095Y-112594819D02*
X193033333Y-112594819D01*
X188438095Y-107544819D02*
X189009523Y-107544819D01*
X188723809Y-108544819D02*
X188723809Y-107544819D01*
X189342857Y-108544819D02*
X189342857Y-107544819D01*
X189342857Y-107544819D02*
X189723809Y-107544819D01*
X189723809Y-107544819D02*
X189819047Y-107592438D01*
X189819047Y-107592438D02*
X189866666Y-107640057D01*
X189866666Y-107640057D02*
X189914285Y-107735295D01*
X189914285Y-107735295D02*
X189914285Y-107878152D01*
X189914285Y-107878152D02*
X189866666Y-107973390D01*
X189866666Y-107973390D02*
X189819047Y-108021009D01*
X189819047Y-108021009D02*
X189723809Y-108068628D01*
X189723809Y-108068628D02*
X189342857Y-108068628D01*
X190771428Y-107878152D02*
X190771428Y-108544819D01*
X190533333Y-107497200D02*
X190295238Y-108211485D01*
X190295238Y-108211485D02*
X190914285Y-108211485D01*
X108826785Y-79742319D02*
X108826785Y-78742319D01*
X108826785Y-78742319D02*
X109160118Y-79456604D01*
X109160118Y-79456604D02*
X109493451Y-78742319D01*
X109493451Y-78742319D02*
X109493451Y-79742319D01*
X110112499Y-79742319D02*
X110017261Y-79694700D01*
X110017261Y-79694700D02*
X109969642Y-79647080D01*
X109969642Y-79647080D02*
X109922023Y-79551842D01*
X109922023Y-79551842D02*
X109922023Y-79266128D01*
X109922023Y-79266128D02*
X109969642Y-79170890D01*
X109969642Y-79170890D02*
X110017261Y-79123271D01*
X110017261Y-79123271D02*
X110112499Y-79075652D01*
X110112499Y-79075652D02*
X110255356Y-79075652D01*
X110255356Y-79075652D02*
X110350594Y-79123271D01*
X110350594Y-79123271D02*
X110398213Y-79170890D01*
X110398213Y-79170890D02*
X110445832Y-79266128D01*
X110445832Y-79266128D02*
X110445832Y-79551842D01*
X110445832Y-79551842D02*
X110398213Y-79647080D01*
X110398213Y-79647080D02*
X110350594Y-79694700D01*
X110350594Y-79694700D02*
X110255356Y-79742319D01*
X110255356Y-79742319D02*
X110112499Y-79742319D01*
X111302975Y-79075652D02*
X111302975Y-79742319D01*
X110874404Y-79075652D02*
X110874404Y-79599461D01*
X110874404Y-79599461D02*
X110922023Y-79694700D01*
X110922023Y-79694700D02*
X111017261Y-79742319D01*
X111017261Y-79742319D02*
X111160118Y-79742319D01*
X111160118Y-79742319D02*
X111255356Y-79694700D01*
X111255356Y-79694700D02*
X111302975Y-79647080D01*
X111779166Y-79075652D02*
X111779166Y-79742319D01*
X111779166Y-79170890D02*
X111826785Y-79123271D01*
X111826785Y-79123271D02*
X111922023Y-79075652D01*
X111922023Y-79075652D02*
X112064880Y-79075652D01*
X112064880Y-79075652D02*
X112160118Y-79123271D01*
X112160118Y-79123271D02*
X112207737Y-79218509D01*
X112207737Y-79218509D02*
X112207737Y-79742319D01*
X112541071Y-79075652D02*
X112922023Y-79075652D01*
X112683928Y-78742319D02*
X112683928Y-79599461D01*
X112683928Y-79599461D02*
X112731547Y-79694700D01*
X112731547Y-79694700D02*
X112826785Y-79742319D01*
X112826785Y-79742319D02*
X112922023Y-79742319D01*
X113255357Y-79742319D02*
X113255357Y-79075652D01*
X113255357Y-78742319D02*
X113207738Y-78789938D01*
X113207738Y-78789938D02*
X113255357Y-78837557D01*
X113255357Y-78837557D02*
X113302976Y-78789938D01*
X113302976Y-78789938D02*
X113255357Y-78742319D01*
X113255357Y-78742319D02*
X113255357Y-78837557D01*
X113731547Y-79075652D02*
X113731547Y-79742319D01*
X113731547Y-79170890D02*
X113779166Y-79123271D01*
X113779166Y-79123271D02*
X113874404Y-79075652D01*
X113874404Y-79075652D02*
X114017261Y-79075652D01*
X114017261Y-79075652D02*
X114112499Y-79123271D01*
X114112499Y-79123271D02*
X114160118Y-79218509D01*
X114160118Y-79218509D02*
X114160118Y-79742319D01*
X115064880Y-79075652D02*
X115064880Y-79885176D01*
X115064880Y-79885176D02*
X115017261Y-79980414D01*
X115017261Y-79980414D02*
X114969642Y-80028033D01*
X114969642Y-80028033D02*
X114874404Y-80075652D01*
X114874404Y-80075652D02*
X114731547Y-80075652D01*
X114731547Y-80075652D02*
X114636309Y-80028033D01*
X115064880Y-79694700D02*
X114969642Y-79742319D01*
X114969642Y-79742319D02*
X114779166Y-79742319D01*
X114779166Y-79742319D02*
X114683928Y-79694700D01*
X114683928Y-79694700D02*
X114636309Y-79647080D01*
X114636309Y-79647080D02*
X114588690Y-79551842D01*
X114588690Y-79551842D02*
X114588690Y-79266128D01*
X114588690Y-79266128D02*
X114636309Y-79170890D01*
X114636309Y-79170890D02*
X114683928Y-79123271D01*
X114683928Y-79123271D02*
X114779166Y-79075652D01*
X114779166Y-79075652D02*
X114969642Y-79075652D01*
X114969642Y-79075652D02*
X115064880Y-79123271D01*
X115541071Y-79742319D02*
X115541071Y-78742319D01*
X115541071Y-79218509D02*
X116112499Y-79218509D01*
X116112499Y-79742319D02*
X116112499Y-78742319D01*
X116731547Y-79742319D02*
X116636309Y-79694700D01*
X116636309Y-79694700D02*
X116588690Y-79647080D01*
X116588690Y-79647080D02*
X116541071Y-79551842D01*
X116541071Y-79551842D02*
X116541071Y-79266128D01*
X116541071Y-79266128D02*
X116588690Y-79170890D01*
X116588690Y-79170890D02*
X116636309Y-79123271D01*
X116636309Y-79123271D02*
X116731547Y-79075652D01*
X116731547Y-79075652D02*
X116874404Y-79075652D01*
X116874404Y-79075652D02*
X116969642Y-79123271D01*
X116969642Y-79123271D02*
X117017261Y-79170890D01*
X117017261Y-79170890D02*
X117064880Y-79266128D01*
X117064880Y-79266128D02*
X117064880Y-79551842D01*
X117064880Y-79551842D02*
X117017261Y-79647080D01*
X117017261Y-79647080D02*
X116969642Y-79694700D01*
X116969642Y-79694700D02*
X116874404Y-79742319D01*
X116874404Y-79742319D02*
X116731547Y-79742319D01*
X117636309Y-79742319D02*
X117541071Y-79694700D01*
X117541071Y-79694700D02*
X117493452Y-79599461D01*
X117493452Y-79599461D02*
X117493452Y-78742319D01*
X118398214Y-79694700D02*
X118302976Y-79742319D01*
X118302976Y-79742319D02*
X118112500Y-79742319D01*
X118112500Y-79742319D02*
X118017262Y-79694700D01*
X118017262Y-79694700D02*
X117969643Y-79599461D01*
X117969643Y-79599461D02*
X117969643Y-79218509D01*
X117969643Y-79218509D02*
X118017262Y-79123271D01*
X118017262Y-79123271D02*
X118112500Y-79075652D01*
X118112500Y-79075652D02*
X118302976Y-79075652D01*
X118302976Y-79075652D02*
X118398214Y-79123271D01*
X118398214Y-79123271D02*
X118445833Y-79218509D01*
X118445833Y-79218509D02*
X118445833Y-79313747D01*
X118445833Y-79313747D02*
X117969643Y-79408985D01*
X112374405Y-76592319D02*
X112374405Y-75592319D01*
X112374405Y-76068509D02*
X112945833Y-76068509D01*
X112945833Y-76592319D02*
X112945833Y-75592319D01*
X113945833Y-76592319D02*
X113374405Y-76592319D01*
X113660119Y-76592319D02*
X113660119Y-75592319D01*
X113660119Y-75592319D02*
X113564881Y-75735176D01*
X113564881Y-75735176D02*
X113469643Y-75830414D01*
X113469643Y-75830414D02*
X113374405Y-75878033D01*
X114279167Y-75592319D02*
X114898214Y-75592319D01*
X114898214Y-75592319D02*
X114564881Y-75973271D01*
X114564881Y-75973271D02*
X114707738Y-75973271D01*
X114707738Y-75973271D02*
X114802976Y-76020890D01*
X114802976Y-76020890D02*
X114850595Y-76068509D01*
X114850595Y-76068509D02*
X114898214Y-76163747D01*
X114898214Y-76163747D02*
X114898214Y-76401842D01*
X114898214Y-76401842D02*
X114850595Y-76497080D01*
X114850595Y-76497080D02*
X114802976Y-76544700D01*
X114802976Y-76544700D02*
X114707738Y-76592319D01*
X114707738Y-76592319D02*
X114422024Y-76592319D01*
X114422024Y-76592319D02*
X114326786Y-76544700D01*
X114326786Y-76544700D02*
X114279167Y-76497080D01*
G04 #@! TO.C,U2*
D12*
X181165000Y-87166000D02*
X198965000Y-87166000D01*
X198965000Y-108116000D01*
X181165000Y-108116000D01*
X181165000Y-87166000D01*
D13*
X182501000Y-88316000D02*
G75*
G02*
X181997000Y-88316000I-252000J0D01*
G01*
X181997000Y-88316000D02*
G75*
G02*
X182501000Y-88316000I252000J0D01*
G01*
G04 #@! TO.C,U1*
D12*
X147530000Y-87166000D02*
X165330000Y-87166000D01*
X165330000Y-108116000D01*
X147530000Y-108116000D01*
X147530000Y-87166000D01*
D13*
X148866000Y-88316000D02*
G75*
G02*
X148362000Y-88316000I-252000J0D01*
G01*
X148362000Y-88316000D02*
G75*
G02*
X148866000Y-88316000I252000J0D01*
G01*
G04 #@! TO.C,SW4*
D12*
X35492500Y-145337500D02*
X49492500Y-145337500D01*
X35492500Y-159337500D02*
X35492500Y-145337500D01*
X49492500Y-145337500D02*
X49492500Y-159337500D01*
X49492500Y-159337500D02*
X35492500Y-159337500D01*
G04 #@! TO.C,SW12*
X73592500Y-135812500D02*
X87592500Y-135812500D01*
X73592500Y-149812500D02*
X73592500Y-135812500D01*
X87592500Y-135812500D02*
X87592500Y-149812500D01*
X87592500Y-149812500D02*
X73592500Y-149812500D01*
G04 #@! TO.C,SW9*
X73592500Y-78662500D02*
X87592500Y-78662500D01*
X73592500Y-92662500D02*
X73592500Y-78662500D01*
X87592500Y-78662500D02*
X87592500Y-92662500D01*
X87592500Y-92662500D02*
X73592500Y-92662500D01*
G04 #@! TO.C,SW28*
X201780500Y-107237500D02*
X215780500Y-107237500D01*
X201780500Y-121237500D02*
X201780500Y-107237500D01*
X215780500Y-107237500D02*
X215780500Y-121237500D01*
X215780500Y-121237500D02*
X201780500Y-121237500D01*
G04 #@! TO.C,SW36*
X239880500Y-97712500D02*
X253880500Y-97712500D01*
X239880500Y-111712500D02*
X239880500Y-97712500D01*
X253880500Y-97712500D02*
X253880500Y-111712500D01*
X253880500Y-111712500D02*
X239880500Y-111712500D01*
G04 #@! TO.C,SW45*
X277980500Y-121525000D02*
X291980500Y-121525000D01*
X277980500Y-135525000D02*
X277980500Y-121525000D01*
X291980500Y-121525000D02*
X291980500Y-135525000D01*
X291980500Y-135525000D02*
X277980500Y-135525000D01*
G04 #@! TO.C,SW3*
X35492500Y-126287500D02*
X49492500Y-126287500D01*
X35492500Y-140287500D02*
X35492500Y-126287500D01*
X49492500Y-126287500D02*
X49492500Y-140287500D01*
X49492500Y-140287500D02*
X35492500Y-140287500D01*
G04 #@! TO.C,SW18*
X111692500Y-102475000D02*
X125692500Y-102475000D01*
X111692500Y-116475000D02*
X111692500Y-102475000D01*
X125692500Y-102475000D02*
X125692500Y-116475000D01*
X125692500Y-116475000D02*
X111692500Y-116475000D01*
G04 #@! TO.C,SW16*
X92695000Y-135812500D02*
X106695000Y-135812500D01*
X92695000Y-149812500D02*
X92695000Y-135812500D01*
X106695000Y-135812500D02*
X106695000Y-149812500D01*
X106695000Y-149812500D02*
X92695000Y-149812500D01*
G04 #@! TO.C,SW15*
X92695000Y-116825000D02*
X106695000Y-116825000D01*
X92695000Y-130825000D02*
X92695000Y-116825000D01*
X106695000Y-116825000D02*
X106695000Y-130825000D01*
X106695000Y-130825000D02*
X92695000Y-130825000D01*
G04 #@! TO.C,SW31*
X220830500Y-83425000D02*
X234830500Y-83425000D01*
X220830500Y-97425000D02*
X220830500Y-83425000D01*
X234830500Y-83425000D02*
X234830500Y-97425000D01*
X234830500Y-97425000D02*
X220830500Y-97425000D01*
G04 #@! TO.C,SW32*
X220830500Y-102475000D02*
X234830500Y-102475000D01*
X220830500Y-116475000D02*
X220830500Y-102475000D01*
X234830500Y-102475000D02*
X234830500Y-116475000D01*
X234830500Y-116475000D02*
X220830500Y-116475000D01*
G04 #@! TO.C,SW40*
X258930500Y-97712500D02*
X272930500Y-97712500D01*
X258930500Y-111712500D02*
X258930500Y-97712500D01*
X272930500Y-97712500D02*
X272930500Y-111712500D01*
X272930500Y-111712500D02*
X258930500Y-111712500D01*
G04 #@! TO.C,SW46*
X277980500Y-140575000D02*
X291980500Y-140575000D01*
X277980500Y-154575000D02*
X277980500Y-140575000D01*
X291980500Y-140575000D02*
X291980500Y-154575000D01*
X291980500Y-154575000D02*
X277980500Y-154575000D01*
G04 #@! TO.C,SW20*
X111692500Y-140575000D02*
X125692500Y-140575000D01*
X111692500Y-154575000D02*
X111692500Y-140575000D01*
X125692500Y-140575000D02*
X125692500Y-154575000D01*
X125692500Y-154575000D02*
X111692500Y-154575000D01*
G04 #@! TO.C,SW10*
X73645000Y-97712500D02*
X87645000Y-97712500D01*
X73645000Y-111712500D02*
X73645000Y-97712500D01*
X87645000Y-97712500D02*
X87645000Y-111712500D01*
X87645000Y-111712500D02*
X73645000Y-111712500D01*
G04 #@! TO.C,SW29*
X201780500Y-126287500D02*
X215780500Y-126287500D01*
X201780500Y-140287500D02*
X201780500Y-126287500D01*
X215780500Y-126287500D02*
X215780500Y-140287500D01*
X215780500Y-140287500D02*
X201780500Y-140287500D01*
G04 #@! TO.C,SW2*
X35545000Y-107237500D02*
X49545000Y-107237500D01*
X35545000Y-121237500D02*
X35545000Y-107237500D01*
X49545000Y-107237500D02*
X49545000Y-121237500D01*
X49545000Y-121237500D02*
X35545000Y-121237500D01*
G04 #@! TO.C,SW26*
X130795000Y-173975000D02*
X144795000Y-173975000D01*
X130795000Y-187975000D02*
X130795000Y-173975000D01*
X144795000Y-173975000D02*
X144795000Y-187975000D01*
X144795000Y-187975000D02*
X130795000Y-187975000D01*
G04 #@! TO.C,SW43*
X277980500Y-83425000D02*
X291980500Y-83425000D01*
X277980500Y-97425000D02*
X277980500Y-83425000D01*
X291980500Y-83425000D02*
X291980500Y-97425000D01*
X291980500Y-97425000D02*
X277980500Y-97425000D01*
G04 #@! TO.C,SW41*
X258930500Y-116762500D02*
X272930500Y-116762500D01*
X258930500Y-130762500D02*
X258930500Y-116762500D01*
X272930500Y-116762500D02*
X272930500Y-130762500D01*
X272930500Y-130762500D02*
X258930500Y-130762500D01*
G04 #@! TO.C,SW17*
X111692500Y-83425000D02*
X125692500Y-83425000D01*
X111692500Y-97425000D02*
X111692500Y-83425000D01*
X125692500Y-83425000D02*
X125692500Y-97425000D01*
X125692500Y-97425000D02*
X111692500Y-97425000D01*
G04 #@! TO.C,SW23*
X130742500Y-107237500D02*
X144742500Y-107237500D01*
X130742500Y-121237500D02*
X130742500Y-107237500D01*
X144742500Y-107237500D02*
X144742500Y-121237500D01*
X144742500Y-121237500D02*
X130742500Y-121237500D01*
G04 #@! TO.C,SW48*
X297030500Y-88187500D02*
X311030500Y-88187500D01*
X297030500Y-102187500D02*
X297030500Y-88187500D01*
X311030500Y-88187500D02*
X311030500Y-102187500D01*
X311030500Y-102187500D02*
X297030500Y-102187500D01*
G04 #@! TO.C,SW38*
X239880500Y-135812500D02*
X253880500Y-135812500D01*
X239880500Y-149812500D02*
X239880500Y-135812500D01*
X253880500Y-135812500D02*
X253880500Y-149812500D01*
X253880500Y-149812500D02*
X239880500Y-149812500D01*
G04 #@! TO.C,SW42*
X258930500Y-135812500D02*
X272930500Y-135812500D01*
X258930500Y-149812500D02*
X258930500Y-135812500D01*
X272930500Y-135812500D02*
X272930500Y-149812500D01*
X272930500Y-149812500D02*
X258930500Y-149812500D01*
G04 #@! TO.C,SW14*
X92642500Y-97712500D02*
X106642500Y-97712500D01*
X92642500Y-111712500D02*
X92642500Y-97712500D01*
X106642500Y-97712500D02*
X106642500Y-111712500D01*
X106642500Y-111712500D02*
X92642500Y-111712500D01*
G04 #@! TO.C,SW24*
X130742500Y-126287500D02*
X144742500Y-126287500D01*
X130742500Y-140287500D02*
X130742500Y-126287500D01*
X144742500Y-126287500D02*
X144742500Y-140287500D01*
X144742500Y-140287500D02*
X130742500Y-140287500D01*
G04 #@! TO.C,SW39*
X258930500Y-78662500D02*
X272930500Y-78662500D01*
X258930500Y-92662500D02*
X258930500Y-78662500D01*
X272930500Y-78662500D02*
X272930500Y-92662500D01*
X272930500Y-92662500D02*
X258930500Y-92662500D01*
G04 #@! TO.C,SW25*
X130742500Y-145337500D02*
X144742500Y-145337500D01*
X130742500Y-159337500D02*
X130742500Y-145337500D01*
X144742500Y-145337500D02*
X144742500Y-159337500D01*
X144742500Y-159337500D02*
X130742500Y-159337500D01*
G04 #@! TO.C,SW11*
X73592500Y-116762500D02*
X87592500Y-116762500D01*
X73592500Y-130762500D02*
X73592500Y-116762500D01*
X87592500Y-116762500D02*
X87592500Y-130762500D01*
X87592500Y-130762500D02*
X73592500Y-130762500D01*
G04 #@! TO.C,SW7*
X54542500Y-121525000D02*
X68542500Y-121525000D01*
X54542500Y-135525000D02*
X54542500Y-121525000D01*
X68542500Y-121525000D02*
X68542500Y-135525000D01*
X68542500Y-135525000D02*
X54542500Y-135525000D01*
G04 #@! TO.C,SW33*
X220830500Y-121525000D02*
X234830500Y-121525000D01*
X220830500Y-135525000D02*
X220830500Y-121525000D01*
X234830500Y-121525000D02*
X234830500Y-135525000D01*
X234830500Y-135525000D02*
X220830500Y-135525000D01*
G04 #@! TO.C,SW34*
X220830500Y-140575000D02*
X234830500Y-140575000D01*
X220830500Y-154575000D02*
X220830500Y-140575000D01*
X234830500Y-140575000D02*
X234830500Y-154575000D01*
X234830500Y-154575000D02*
X220830500Y-154575000D01*
G04 #@! TO.C,SW51*
X297030500Y-145337500D02*
X311030500Y-145337500D01*
X297030500Y-159337500D02*
X297030500Y-145337500D01*
X311030500Y-145337500D02*
X311030500Y-159337500D01*
X311030500Y-159337500D02*
X297030500Y-159337500D01*
G04 #@! TO.C,SW44*
X277980500Y-102475000D02*
X291980500Y-102475000D01*
X277980500Y-116475000D02*
X277980500Y-102475000D01*
X291980500Y-102475000D02*
X291980500Y-116475000D01*
X291980500Y-116475000D02*
X277980500Y-116475000D01*
G04 #@! TO.C,SW50*
X297030500Y-126287500D02*
X311030500Y-126287500D01*
X297030500Y-140287500D02*
X297030500Y-126287500D01*
X311030500Y-126287500D02*
X311030500Y-140287500D01*
X311030500Y-140287500D02*
X297030500Y-140287500D01*
G04 #@! TO.C,SW8*
X54595000Y-140637500D02*
X68595000Y-140637500D01*
X54595000Y-154637500D02*
X54595000Y-140637500D01*
X68595000Y-140637500D02*
X68595000Y-154637500D01*
X68595000Y-154637500D02*
X54595000Y-154637500D01*
G04 #@! TO.C,SW13*
X92642500Y-78662500D02*
X106642500Y-78662500D01*
X92642500Y-92662500D02*
X92642500Y-78662500D01*
X106642500Y-78662500D02*
X106642500Y-92662500D01*
X106642500Y-92662500D02*
X92642500Y-92662500D01*
G04 #@! TO.C,SW47*
X201780500Y-173912500D02*
X215780500Y-173912500D01*
X201780500Y-187912500D02*
X201780500Y-173912500D01*
X215780500Y-173912500D02*
X215780500Y-187912500D01*
X215780500Y-187912500D02*
X201780500Y-187912500D01*
G04 #@! TO.C,SW1*
X35492500Y-88187500D02*
X49492500Y-88187500D01*
X35492500Y-102187500D02*
X35492500Y-88187500D01*
X49492500Y-88187500D02*
X49492500Y-102187500D01*
X49492500Y-102187500D02*
X35492500Y-102187500D01*
G04 #@! TO.C,SW5*
X54595000Y-83425000D02*
X68595000Y-83425000D01*
X54595000Y-97425000D02*
X54595000Y-83425000D01*
X68595000Y-83425000D02*
X68595000Y-97425000D01*
X68595000Y-97425000D02*
X54595000Y-97425000D01*
G04 #@! TO.C,SW52*
X220830500Y-169150000D02*
X234830500Y-169150000D01*
X220830500Y-183150000D02*
X220830500Y-169150000D01*
X234830500Y-169150000D02*
X234830500Y-183150000D01*
X234830500Y-183150000D02*
X220830500Y-183150000D01*
G04 #@! TO.C,SW6*
X54595000Y-102475000D02*
X68595000Y-102475000D01*
X54595000Y-116475000D02*
X54595000Y-102475000D01*
X68595000Y-102475000D02*
X68595000Y-116475000D01*
X68595000Y-116475000D02*
X54595000Y-116475000D01*
G04 #@! TO.C,SW35*
X239880500Y-78662500D02*
X253880500Y-78662500D01*
X239880500Y-92662500D02*
X239880500Y-78662500D01*
X253880500Y-78662500D02*
X253880500Y-92662500D01*
X253880500Y-92662500D02*
X239880500Y-92662500D01*
G04 #@! TO.C,SW21*
X111692500Y-169150000D02*
X125692500Y-169150000D01*
X111692500Y-183150000D02*
X111692500Y-169150000D01*
X125692500Y-169150000D02*
X125692500Y-183150000D01*
X125692500Y-183150000D02*
X111692500Y-183150000D01*
G04 #@! TO.C,SW37*
X239880500Y-116762500D02*
X253880500Y-116762500D01*
X239880500Y-130762500D02*
X239880500Y-116762500D01*
X253880500Y-116762500D02*
X253880500Y-130762500D01*
X253880500Y-130762500D02*
X239880500Y-130762500D01*
G04 #@! TO.C,SW27*
X201780500Y-88187500D02*
X215780500Y-88187500D01*
X201780500Y-102187500D02*
X201780500Y-88187500D01*
X215780500Y-88187500D02*
X215780500Y-102187500D01*
X215780500Y-102187500D02*
X201780500Y-102187500D01*
G04 #@! TO.C,SW22*
X130742500Y-88187500D02*
X144742500Y-88187500D01*
X130742500Y-102187500D02*
X130742500Y-88187500D01*
X144742500Y-88187500D02*
X144742500Y-102187500D01*
X144742500Y-102187500D02*
X130742500Y-102187500D01*
G04 #@! TO.C,SW30*
X201780500Y-145337500D02*
X215780500Y-145337500D01*
X201780500Y-159337500D02*
X201780500Y-145337500D01*
X215780500Y-145337500D02*
X215780500Y-159337500D01*
X215780500Y-159337500D02*
X201780500Y-159337500D01*
G04 #@! TO.C,SW19*
X111692500Y-121525000D02*
X125692500Y-121525000D01*
X111692500Y-135525000D02*
X111692500Y-121525000D01*
X125692500Y-121525000D02*
X125692500Y-135525000D01*
X125692500Y-135525000D02*
X111692500Y-135525000D01*
G04 #@! TO.C,SW49*
X297030500Y-107237500D02*
X311030500Y-107237500D01*
X297030500Y-121237500D02*
X297030500Y-107237500D01*
X311030500Y-107237500D02*
X311030500Y-121237500D01*
X311030500Y-121237500D02*
X297030500Y-121237500D01*
G04 #@! TD*
M02*
