G04 #@! TF.GenerationSoftware,KiCad,Pcbnew,10.0.3*
G04 #@! TF.CreationDate,2026-07-27T11:37:26-06:00*
G04 #@! TF.ProjectId,splitKey,73706c69-744b-4657-992e-6b696361645f,rev?*
G04 #@! TF.SameCoordinates,Original*
G04 #@! TF.FileFunction,Other,User*
%FSLAX46Y46*%
G04 Gerber Fmt 4.6, Leading zero omitted, Abs format (unit mm)*
G04 Created by KiCad (PCBNEW 10.0.3) date 2026-07-27 11:37:26*
%MOMM*%
%LPD*%
G01*
G04 APERTURE LIST*
%ADD10C,0.050000*%
G04 APERTURE END LIST*
G04 #@! TO.C,D2*
D10*
X40142500Y-122612500D02*
X40142500Y-124912500D01*
X40142500Y-124912500D02*
X44842500Y-124912500D01*
X44842500Y-122612500D02*
X40142500Y-122612500D01*
X44842500Y-122612500D02*
X44842500Y-124912500D01*
G04 #@! TO.C,SW4*
X37692500Y-155137500D02*
X37692500Y-159137500D01*
X37692500Y-155137500D02*
X42792500Y-155137500D01*
X37692500Y-159137500D02*
X46492500Y-159137500D01*
X44792500Y-153137500D02*
X48492500Y-153137500D01*
X48492500Y-157137500D02*
X48492500Y-153137500D01*
X44792500Y-153137500D02*
G75*
G02*
X42792500Y-155137500I-1999999J-1D01*
G01*
X48492500Y-157137500D02*
G75*
G02*
X46492500Y-159137500I-1999999J-1D01*
G01*
G04 #@! TO.C,D38*
X244530500Y-153487500D02*
X244530500Y-151187500D01*
X244530500Y-153487500D02*
X249230500Y-153487500D01*
X249230500Y-151187500D02*
X244530500Y-151187500D01*
X249230500Y-153487500D02*
X249230500Y-151187500D01*
G04 #@! TO.C,D19*
X116342500Y-139200000D02*
X116342500Y-136900000D01*
X116342500Y-139200000D02*
X121042500Y-139200000D01*
X121042500Y-136900000D02*
X116342500Y-136900000D01*
X121042500Y-139200000D02*
X121042500Y-136900000D01*
G04 #@! TO.C,SW12*
X75792500Y-145612500D02*
X75792500Y-149612500D01*
X75792500Y-145612500D02*
X80892500Y-145612500D01*
X75792500Y-149612500D02*
X84592500Y-149612500D01*
X82892500Y-143612500D02*
X86592500Y-143612500D01*
X86592500Y-147612500D02*
X86592500Y-143612500D01*
X82892500Y-143612500D02*
G75*
G02*
X80892500Y-145612500I-1999999J-1D01*
G01*
X86592500Y-147612500D02*
G75*
G02*
X84592500Y-149612500I-1999999J-1D01*
G01*
G04 #@! TO.C,D40*
X263580500Y-115387500D02*
X263580500Y-113087500D01*
X263580500Y-115387500D02*
X268280500Y-115387500D01*
X268280500Y-113087500D02*
X263580500Y-113087500D01*
X268280500Y-115387500D02*
X268280500Y-113087500D01*
G04 #@! TO.C,SW9*
X75792500Y-88462500D02*
X75792500Y-92462500D01*
X75792500Y-88462500D02*
X80892500Y-88462500D01*
X75792500Y-92462500D02*
X84592500Y-92462500D01*
X82892500Y-86462500D02*
X86592500Y-86462500D01*
X86592500Y-90462500D02*
X86592500Y-86462500D01*
X82892500Y-86462500D02*
G75*
G02*
X80892500Y-88462500I-1999999J-1D01*
G01*
X86592500Y-90462500D02*
G75*
G02*
X84592500Y-92462500I-1999999J-1D01*
G01*
G04 #@! TO.C,D11*
X78242500Y-134437500D02*
X78242500Y-132137500D01*
X78242500Y-134437500D02*
X82942500Y-134437500D01*
X82942500Y-132137500D02*
X78242500Y-132137500D01*
X82942500Y-134437500D02*
X82942500Y-132137500D01*
G04 #@! TO.C,SW28*
X203980500Y-117037500D02*
X203980500Y-121037500D01*
X203980500Y-117037500D02*
X209080500Y-117037500D01*
X203980500Y-121037500D02*
X212780500Y-121037500D01*
X211080500Y-115037500D02*
X214780500Y-115037500D01*
X214780500Y-119037500D02*
X214780500Y-115037500D01*
X211080500Y-115037500D02*
G75*
G02*
X209080500Y-117037500I-1999999J-1D01*
G01*
X214780500Y-119037500D02*
G75*
G02*
X212780500Y-121037500I-1999999J-1D01*
G01*
G04 #@! TO.C,SW36*
X242080500Y-107512500D02*
X242080500Y-111512500D01*
X242080500Y-107512500D02*
X247180500Y-107512500D01*
X242080500Y-111512500D02*
X250880500Y-111512500D01*
X249180500Y-105512500D02*
X252880500Y-105512500D01*
X252880500Y-109512500D02*
X252880500Y-105512500D01*
X249180500Y-105512500D02*
G75*
G02*
X247180500Y-107512500I-1999999J-1D01*
G01*
X252880500Y-109512500D02*
G75*
G02*
X250880500Y-111512500I-1999999J-1D01*
G01*
G04 #@! TO.C,D34*
X225480500Y-158250000D02*
X225480500Y-155950000D01*
X225480500Y-158250000D02*
X230180500Y-158250000D01*
X230180500Y-155950000D02*
X225480500Y-155950000D01*
X230180500Y-158250000D02*
X230180500Y-155950000D01*
G04 #@! TO.C,SW45*
X280180500Y-131325000D02*
X280180500Y-135325000D01*
X280180500Y-131325000D02*
X285280500Y-131325000D01*
X280180500Y-135325000D02*
X288980500Y-135325000D01*
X287280500Y-129325000D02*
X290980500Y-129325000D01*
X290980500Y-133325000D02*
X290980500Y-129325000D01*
X287280500Y-129325000D02*
G75*
G02*
X285280500Y-131325000I-1999999J-1D01*
G01*
X290980500Y-133325000D02*
G75*
G02*
X288980500Y-135325000I-1999999J-1D01*
G01*
G04 #@! TO.C,D14*
X97292500Y-115387500D02*
X97292500Y-113087500D01*
X97292500Y-115387500D02*
X101992500Y-115387500D01*
X101992500Y-113087500D02*
X97292500Y-113087500D01*
X101992500Y-115387500D02*
X101992500Y-113087500D01*
G04 #@! TO.C,D25*
X135392500Y-163012500D02*
X135392500Y-160712500D01*
X135392500Y-163012500D02*
X140092500Y-163012500D01*
X140092500Y-160712500D02*
X135392500Y-160712500D01*
X140092500Y-163012500D02*
X140092500Y-160712500D01*
G04 #@! TO.C,SW3*
X37692500Y-136087500D02*
X37692500Y-140087500D01*
X37692500Y-136087500D02*
X42792500Y-136087500D01*
X37692500Y-140087500D02*
X46492500Y-140087500D01*
X44792500Y-134087500D02*
X48492500Y-134087500D01*
X48492500Y-138087500D02*
X48492500Y-134087500D01*
X44792500Y-134087500D02*
G75*
G02*
X42792500Y-136087500I-1999999J-1D01*
G01*
X48492500Y-138087500D02*
G75*
G02*
X46492500Y-140087500I-1999999J-1D01*
G01*
G04 #@! TO.C,SW18*
X113892500Y-112275000D02*
X113892500Y-116275000D01*
X113892500Y-112275000D02*
X118992500Y-112275000D01*
X113892500Y-116275000D02*
X122692500Y-116275000D01*
X120992500Y-110275000D02*
X124692500Y-110275000D01*
X124692500Y-114275000D02*
X124692500Y-110275000D01*
X120992500Y-110275000D02*
G75*
G02*
X118992500Y-112275000I-1999999J-1D01*
G01*
X124692500Y-114275000D02*
G75*
G02*
X122692500Y-116275000I-1999999J-1D01*
G01*
G04 #@! TO.C,SW16*
X94895000Y-145612500D02*
X94895000Y-149612500D01*
X94895000Y-145612500D02*
X99995000Y-145612500D01*
X94895000Y-149612500D02*
X103695000Y-149612500D01*
X101995000Y-143612500D02*
X105695000Y-143612500D01*
X105695000Y-147612500D02*
X105695000Y-143612500D01*
X101995000Y-143612500D02*
G75*
G02*
X99995000Y-145612500I-1999999J-1D01*
G01*
X105695000Y-147612500D02*
G75*
G02*
X103695000Y-149612500I-1999999J-1D01*
G01*
G04 #@! TO.C,SW15*
X94895000Y-126625000D02*
X94895000Y-130625000D01*
X94895000Y-126625000D02*
X99995000Y-126625000D01*
X94895000Y-130625000D02*
X103695000Y-130625000D01*
X101995000Y-124625000D02*
X105695000Y-124625000D01*
X105695000Y-128625000D02*
X105695000Y-124625000D01*
X101995000Y-124625000D02*
G75*
G02*
X99995000Y-126625000I-1999999J-1D01*
G01*
X105695000Y-128625000D02*
G75*
G02*
X103695000Y-130625000I-1999999J-1D01*
G01*
G04 #@! TO.C,D9*
X78242500Y-96337500D02*
X78242500Y-94037500D01*
X78242500Y-96337500D02*
X82942500Y-96337500D01*
X82942500Y-94037500D02*
X78242500Y-94037500D01*
X82942500Y-96337500D02*
X82942500Y-94037500D01*
G04 #@! TO.C,SW31*
X223030500Y-93225000D02*
X223030500Y-97225000D01*
X223030500Y-93225000D02*
X228130500Y-93225000D01*
X223030500Y-97225000D02*
X231830500Y-97225000D01*
X230130500Y-91225000D02*
X233830500Y-91225000D01*
X233830500Y-95225000D02*
X233830500Y-91225000D01*
X230130500Y-91225000D02*
G75*
G02*
X228130500Y-93225000I-1999999J-1D01*
G01*
X233830500Y-95225000D02*
G75*
G02*
X231830500Y-97225000I-1999999J-1D01*
G01*
G04 #@! TO.C,SW32*
X223030500Y-112275000D02*
X223030500Y-116275000D01*
X223030500Y-112275000D02*
X228130500Y-112275000D01*
X223030500Y-116275000D02*
X231830500Y-116275000D01*
X230130500Y-110275000D02*
X233830500Y-110275000D01*
X233830500Y-114275000D02*
X233830500Y-110275000D01*
X230130500Y-110275000D02*
G75*
G02*
X228130500Y-112275000I-1999999J-1D01*
G01*
X233830500Y-114275000D02*
G75*
G02*
X231830500Y-116275000I-1999999J-1D01*
G01*
G04 #@! TO.C,D1*
X40142500Y-103562500D02*
X40142500Y-105862500D01*
X40142500Y-105862500D02*
X44842500Y-105862500D01*
X44842500Y-103562500D02*
X40142500Y-103562500D01*
X44842500Y-103562500D02*
X44842500Y-105862500D01*
G04 #@! TO.C,D37*
X244530500Y-134437500D02*
X244530500Y-132137500D01*
X244530500Y-134437500D02*
X249230500Y-134437500D01*
X249230500Y-132137500D02*
X244530500Y-132137500D01*
X249230500Y-134437500D02*
X249230500Y-132137500D01*
G04 #@! TO.C,SW40*
X261130500Y-107512500D02*
X261130500Y-111512500D01*
X261130500Y-107512500D02*
X266230500Y-107512500D01*
X261130500Y-111512500D02*
X269930500Y-111512500D01*
X268230500Y-105512500D02*
X271930500Y-105512500D01*
X271930500Y-109512500D02*
X271930500Y-105512500D01*
X268230500Y-105512500D02*
G75*
G02*
X266230500Y-107512500I-1999999J-1D01*
G01*
X271930500Y-109512500D02*
G75*
G02*
X269930500Y-111512500I-1999999J-1D01*
G01*
G04 #@! TO.C,SW46*
X280180500Y-150375000D02*
X280180500Y-154375000D01*
X280180500Y-150375000D02*
X285280500Y-150375000D01*
X280180500Y-154375000D02*
X288980500Y-154375000D01*
X287280500Y-148375000D02*
X290980500Y-148375000D01*
X290980500Y-152375000D02*
X290980500Y-148375000D01*
X287280500Y-148375000D02*
G75*
G02*
X285280500Y-150375000I-1999999J-1D01*
G01*
X290980500Y-152375000D02*
G75*
G02*
X288980500Y-154375000I-1999999J-1D01*
G01*
G04 #@! TO.C,D41*
X263580500Y-134437500D02*
X263580500Y-132137500D01*
X263580500Y-134437500D02*
X268280500Y-134437500D01*
X268280500Y-132137500D02*
X263580500Y-132137500D01*
X268280500Y-134437500D02*
X268280500Y-132137500D01*
G04 #@! TO.C,D51*
X301680500Y-163012500D02*
X301680500Y-160712500D01*
X301680500Y-163012500D02*
X306380500Y-163012500D01*
X306380500Y-160712500D02*
X301680500Y-160712500D01*
X306380500Y-163012500D02*
X306380500Y-160712500D01*
G04 #@! TO.C,D39*
X263580500Y-96337500D02*
X263580500Y-94037500D01*
X263580500Y-96337500D02*
X268280500Y-96337500D01*
X268280500Y-94037500D02*
X263580500Y-94037500D01*
X268280500Y-96337500D02*
X268280500Y-94037500D01*
G04 #@! TO.C,D12*
X78242500Y-153487500D02*
X78242500Y-151187500D01*
X78242500Y-153487500D02*
X82942500Y-153487500D01*
X82942500Y-151187500D02*
X78242500Y-151187500D01*
X82942500Y-153487500D02*
X82942500Y-151187500D01*
G04 #@! TO.C,D32*
X225480500Y-120150000D02*
X225480500Y-117850000D01*
X225480500Y-120150000D02*
X230180500Y-120150000D01*
X230180500Y-117850000D02*
X225480500Y-117850000D01*
X230180500Y-120150000D02*
X230180500Y-117850000D01*
G04 #@! TO.C,D29*
X206430500Y-143962500D02*
X206430500Y-141662500D01*
X206430500Y-143962500D02*
X211130500Y-143962500D01*
X211130500Y-141662500D02*
X206430500Y-141662500D01*
X211130500Y-143962500D02*
X211130500Y-141662500D01*
G04 #@! TO.C,SW20*
X113892500Y-150375000D02*
X113892500Y-154375000D01*
X113892500Y-150375000D02*
X118992500Y-150375000D01*
X113892500Y-154375000D02*
X122692500Y-154375000D01*
X120992500Y-148375000D02*
X124692500Y-148375000D01*
X124692500Y-152375000D02*
X124692500Y-148375000D01*
X120992500Y-148375000D02*
G75*
G02*
X118992500Y-150375000I-1999999J-1D01*
G01*
X124692500Y-152375000D02*
G75*
G02*
X122692500Y-154375000I-1999999J-1D01*
G01*
G04 #@! TO.C,SW10*
X75845000Y-107512500D02*
X75845000Y-111512500D01*
X75845000Y-107512500D02*
X80945000Y-107512500D01*
X75845000Y-111512500D02*
X84645000Y-111512500D01*
X82945000Y-105512500D02*
X86645000Y-105512500D01*
X86645000Y-109512500D02*
X86645000Y-105512500D01*
X82945000Y-105512500D02*
G75*
G02*
X80945000Y-107512500I-1999999J-1D01*
G01*
X86645000Y-109512500D02*
G75*
G02*
X84645000Y-111512500I-1999999J-1D01*
G01*
G04 #@! TO.C,D52*
X225480500Y-186825000D02*
X225480500Y-184525000D01*
X225480500Y-186825000D02*
X230180500Y-186825000D01*
X230180500Y-184525000D02*
X225480500Y-184525000D01*
X230180500Y-186825000D02*
X230180500Y-184525000D01*
G04 #@! TO.C,D6*
X59192500Y-120150000D02*
X59192500Y-117850000D01*
X59192500Y-120150000D02*
X63892500Y-120150000D01*
X63892500Y-117850000D02*
X59192500Y-117850000D01*
X63892500Y-120150000D02*
X63892500Y-117850000D01*
G04 #@! TO.C,D44*
X282630500Y-120150000D02*
X282630500Y-117850000D01*
X282630500Y-120150000D02*
X287330500Y-120150000D01*
X287330500Y-117850000D02*
X282630500Y-117850000D01*
X287330500Y-120150000D02*
X287330500Y-117850000D01*
G04 #@! TO.C,SW29*
X203980500Y-136087500D02*
X203980500Y-140087500D01*
X203980500Y-136087500D02*
X209080500Y-136087500D01*
X203980500Y-140087500D02*
X212780500Y-140087500D01*
X211080500Y-134087500D02*
X214780500Y-134087500D01*
X214780500Y-138087500D02*
X214780500Y-134087500D01*
X211080500Y-134087500D02*
G75*
G02*
X209080500Y-136087500I-1999999J-1D01*
G01*
X214780500Y-138087500D02*
G75*
G02*
X212780500Y-140087500I-1999999J-1D01*
G01*
G04 #@! TO.C,SW2*
X37745000Y-117037500D02*
X37745000Y-121037500D01*
X37745000Y-117037500D02*
X42845000Y-117037500D01*
X37745000Y-121037500D02*
X46545000Y-121037500D01*
X44845000Y-115037500D02*
X48545000Y-115037500D01*
X48545000Y-119037500D02*
X48545000Y-115037500D01*
X44845000Y-115037500D02*
G75*
G02*
X42845000Y-117037500I-1999999J-1D01*
G01*
X48545000Y-119037500D02*
G75*
G02*
X46545000Y-121037500I-1999999J-1D01*
G01*
G04 #@! TO.C,SW26*
X132995000Y-183775000D02*
X132995000Y-187775000D01*
X132995000Y-183775000D02*
X138095000Y-183775000D01*
X132995000Y-187775000D02*
X141795000Y-187775000D01*
X140095000Y-181775000D02*
X143795000Y-181775000D01*
X143795000Y-185775000D02*
X143795000Y-181775000D01*
X140095000Y-181775000D02*
G75*
G02*
X138095000Y-183775000I-1999999J-1D01*
G01*
X143795000Y-185775000D02*
G75*
G02*
X141795000Y-187775000I-1999999J-1D01*
G01*
G04 #@! TO.C,SW43*
X280180500Y-93225000D02*
X280180500Y-97225000D01*
X280180500Y-93225000D02*
X285280500Y-93225000D01*
X280180500Y-97225000D02*
X288980500Y-97225000D01*
X287280500Y-91225000D02*
X290980500Y-91225000D01*
X290980500Y-95225000D02*
X290980500Y-91225000D01*
X287280500Y-91225000D02*
G75*
G02*
X285280500Y-93225000I-1999999J-1D01*
G01*
X290980500Y-95225000D02*
G75*
G02*
X288980500Y-97225000I-1999999J-1D01*
G01*
G04 #@! TO.C,D10*
X78242500Y-115387500D02*
X78242500Y-113087500D01*
X78242500Y-115387500D02*
X82942500Y-115387500D01*
X82942500Y-113087500D02*
X78242500Y-113087500D01*
X82942500Y-115387500D02*
X82942500Y-113087500D01*
G04 #@! TO.C,D43*
X282630500Y-101100000D02*
X282630500Y-98800000D01*
X282630500Y-101100000D02*
X287330500Y-101100000D01*
X287330500Y-98800000D02*
X282630500Y-98800000D01*
X287330500Y-101100000D02*
X287330500Y-98800000D01*
G04 #@! TO.C,SW41*
X261130500Y-126562500D02*
X261130500Y-130562500D01*
X261130500Y-126562500D02*
X266230500Y-126562500D01*
X261130500Y-130562500D02*
X269930500Y-130562500D01*
X268230500Y-124562500D02*
X271930500Y-124562500D01*
X271930500Y-128562500D02*
X271930500Y-124562500D01*
X268230500Y-124562500D02*
G75*
G02*
X266230500Y-126562500I-1999999J-1D01*
G01*
X271930500Y-128562500D02*
G75*
G02*
X269930500Y-130562500I-1999999J-1D01*
G01*
G04 #@! TO.C,D24*
X135392500Y-143962500D02*
X135392500Y-141662500D01*
X135392500Y-143962500D02*
X140092500Y-143962500D01*
X140092500Y-141662500D02*
X135392500Y-141662500D01*
X140092500Y-143962500D02*
X140092500Y-141662500D01*
G04 #@! TO.C,D5*
X59192500Y-101100000D02*
X59192500Y-98800000D01*
X59192500Y-101100000D02*
X63892500Y-101100000D01*
X63892500Y-98800000D02*
X59192500Y-98800000D01*
X63892500Y-101100000D02*
X63892500Y-98800000D01*
G04 #@! TO.C,SW17*
X113892500Y-93225000D02*
X113892500Y-97225000D01*
X113892500Y-93225000D02*
X118992500Y-93225000D01*
X113892500Y-97225000D02*
X122692500Y-97225000D01*
X120992500Y-91225000D02*
X124692500Y-91225000D01*
X124692500Y-95225000D02*
X124692500Y-91225000D01*
X120992500Y-91225000D02*
G75*
G02*
X118992500Y-93225000I-1999999J-1D01*
G01*
X124692500Y-95225000D02*
G75*
G02*
X122692500Y-97225000I-1999999J-1D01*
G01*
G04 #@! TO.C,SW23*
X132942500Y-117037500D02*
X132942500Y-121037500D01*
X132942500Y-117037500D02*
X138042500Y-117037500D01*
X132942500Y-121037500D02*
X141742500Y-121037500D01*
X140042500Y-115037500D02*
X143742500Y-115037500D01*
X143742500Y-119037500D02*
X143742500Y-115037500D01*
X140042500Y-115037500D02*
G75*
G02*
X138042500Y-117037500I-1999999J-1D01*
G01*
X143742500Y-119037500D02*
G75*
G02*
X141742500Y-121037500I-1999999J-1D01*
G01*
G04 #@! TO.C,D17*
X116342500Y-101100000D02*
X116342500Y-98800000D01*
X116342500Y-101100000D02*
X121042500Y-101100000D01*
X121042500Y-98800000D02*
X116342500Y-98800000D01*
X121042500Y-101100000D02*
X121042500Y-98800000D01*
G04 #@! TO.C,D36*
X244530500Y-115387500D02*
X244530500Y-113087500D01*
X244530500Y-115387500D02*
X249230500Y-115387500D01*
X249230500Y-113087500D02*
X244530500Y-113087500D01*
X249230500Y-115387500D02*
X249230500Y-113087500D01*
G04 #@! TO.C,SW48*
X299230500Y-97987500D02*
X299230500Y-101987500D01*
X299230500Y-97987500D02*
X304330500Y-97987500D01*
X299230500Y-101987500D02*
X308030500Y-101987500D01*
X306330500Y-95987500D02*
X310030500Y-95987500D01*
X310030500Y-99987500D02*
X310030500Y-95987500D01*
X306330500Y-95987500D02*
G75*
G02*
X304330500Y-97987500I-1999999J-1D01*
G01*
X310030500Y-99987500D02*
G75*
G02*
X308030500Y-101987500I-1999999J-1D01*
G01*
G04 #@! TO.C,D3*
X40142500Y-141662500D02*
X40142500Y-143962500D01*
X40142500Y-143962500D02*
X44842500Y-143962500D01*
X44842500Y-141662500D02*
X40142500Y-141662500D01*
X44842500Y-141662500D02*
X44842500Y-143962500D01*
G04 #@! TO.C,SW38*
X242080500Y-145612500D02*
X242080500Y-149612500D01*
X242080500Y-145612500D02*
X247180500Y-145612500D01*
X242080500Y-149612500D02*
X250880500Y-149612500D01*
X249180500Y-143612500D02*
X252880500Y-143612500D01*
X252880500Y-147612500D02*
X252880500Y-143612500D01*
X249180500Y-143612500D02*
G75*
G02*
X247180500Y-145612500I-1999999J-1D01*
G01*
X252880500Y-147612500D02*
G75*
G02*
X250880500Y-149612500I-1999999J-1D01*
G01*
G04 #@! TO.C,SW42*
X261130500Y-145612500D02*
X261130500Y-149612500D01*
X261130500Y-145612500D02*
X266230500Y-145612500D01*
X261130500Y-149612500D02*
X269930500Y-149612500D01*
X268230500Y-143612500D02*
X271930500Y-143612500D01*
X271930500Y-147612500D02*
X271930500Y-143612500D01*
X268230500Y-143612500D02*
G75*
G02*
X266230500Y-145612500I-1999999J-1D01*
G01*
X271930500Y-147612500D02*
G75*
G02*
X269930500Y-149612500I-1999999J-1D01*
G01*
G04 #@! TO.C,SW14*
X94842500Y-107512500D02*
X94842500Y-111512500D01*
X94842500Y-107512500D02*
X99942500Y-107512500D01*
X94842500Y-111512500D02*
X103642500Y-111512500D01*
X101942500Y-105512500D02*
X105642500Y-105512500D01*
X105642500Y-109512500D02*
X105642500Y-105512500D01*
X101942500Y-105512500D02*
G75*
G02*
X99942500Y-107512500I-1999999J-1D01*
G01*
X105642500Y-109512500D02*
G75*
G02*
X103642500Y-111512500I-1999999J-1D01*
G01*
G04 #@! TO.C,SW24*
X132942500Y-136087500D02*
X132942500Y-140087500D01*
X132942500Y-136087500D02*
X138042500Y-136087500D01*
X132942500Y-140087500D02*
X141742500Y-140087500D01*
X140042500Y-134087500D02*
X143742500Y-134087500D01*
X143742500Y-138087500D02*
X143742500Y-134087500D01*
X140042500Y-134087500D02*
G75*
G02*
X138042500Y-136087500I-1999999J-1D01*
G01*
X143742500Y-138087500D02*
G75*
G02*
X141742500Y-140087500I-1999999J-1D01*
G01*
G04 #@! TO.C,SW39*
X261130500Y-88462500D02*
X261130500Y-92462500D01*
X261130500Y-88462500D02*
X266230500Y-88462500D01*
X261130500Y-92462500D02*
X269930500Y-92462500D01*
X268230500Y-86462500D02*
X271930500Y-86462500D01*
X271930500Y-90462500D02*
X271930500Y-86462500D01*
X268230500Y-86462500D02*
G75*
G02*
X266230500Y-88462500I-1999999J-1D01*
G01*
X271930500Y-90462500D02*
G75*
G02*
X269930500Y-92462500I-1999999J-1D01*
G01*
G04 #@! TO.C,SW25*
X132942500Y-155137500D02*
X132942500Y-159137500D01*
X132942500Y-155137500D02*
X138042500Y-155137500D01*
X132942500Y-159137500D02*
X141742500Y-159137500D01*
X140042500Y-153137500D02*
X143742500Y-153137500D01*
X143742500Y-157137500D02*
X143742500Y-153137500D01*
X140042500Y-153137500D02*
G75*
G02*
X138042500Y-155137500I-1999999J-1D01*
G01*
X143742500Y-157137500D02*
G75*
G02*
X141742500Y-159137500I-1999999J-1D01*
G01*
G04 #@! TO.C,SW11*
X75792500Y-126562500D02*
X75792500Y-130562500D01*
X75792500Y-126562500D02*
X80892500Y-126562500D01*
X75792500Y-130562500D02*
X84592500Y-130562500D01*
X82892500Y-124562500D02*
X86592500Y-124562500D01*
X86592500Y-128562500D02*
X86592500Y-124562500D01*
X82892500Y-124562500D02*
G75*
G02*
X80892500Y-126562500I-1999999J-1D01*
G01*
X86592500Y-128562500D02*
G75*
G02*
X84592500Y-130562500I-1999999J-1D01*
G01*
G04 #@! TO.C,D27*
X206430500Y-105862500D02*
X206430500Y-103562500D01*
X206430500Y-105862500D02*
X211130500Y-105862500D01*
X211130500Y-103562500D02*
X206430500Y-103562500D01*
X211130500Y-105862500D02*
X211130500Y-103562500D01*
G04 #@! TO.C,SW7*
X56742500Y-131325000D02*
X56742500Y-135325000D01*
X56742500Y-131325000D02*
X61842500Y-131325000D01*
X56742500Y-135325000D02*
X65542500Y-135325000D01*
X63842500Y-129325000D02*
X67542500Y-129325000D01*
X67542500Y-133325000D02*
X67542500Y-129325000D01*
X63842500Y-129325000D02*
G75*
G02*
X61842500Y-131325000I-1999999J-1D01*
G01*
X67542500Y-133325000D02*
G75*
G02*
X65542500Y-135325000I-1999999J-1D01*
G01*
G04 #@! TO.C,SW33*
X223030500Y-131325000D02*
X223030500Y-135325000D01*
X223030500Y-131325000D02*
X228130500Y-131325000D01*
X223030500Y-135325000D02*
X231830500Y-135325000D01*
X230130500Y-129325000D02*
X233830500Y-129325000D01*
X233830500Y-133325000D02*
X233830500Y-129325000D01*
X230130500Y-129325000D02*
G75*
G02*
X228130500Y-131325000I-1999999J-1D01*
G01*
X233830500Y-133325000D02*
G75*
G02*
X231830500Y-135325000I-1999999J-1D01*
G01*
G04 #@! TO.C,D7*
X59192500Y-139200000D02*
X59192500Y-136900000D01*
X59192500Y-139200000D02*
X63892500Y-139200000D01*
X63892500Y-136900000D02*
X59192500Y-136900000D01*
X63892500Y-139200000D02*
X63892500Y-136900000D01*
G04 #@! TO.C,D50*
X301680500Y-143962500D02*
X301680500Y-141662500D01*
X301680500Y-143962500D02*
X306380500Y-143962500D01*
X306380500Y-141662500D02*
X301680500Y-141662500D01*
X306380500Y-143962500D02*
X306380500Y-141662500D01*
G04 #@! TO.C,D35*
X244530500Y-96337500D02*
X244530500Y-94037500D01*
X244530500Y-96337500D02*
X249230500Y-96337500D01*
X249230500Y-94037500D02*
X244530500Y-94037500D01*
X249230500Y-96337500D02*
X249230500Y-94037500D01*
G04 #@! TO.C,SW34*
X223030500Y-150375000D02*
X223030500Y-154375000D01*
X223030500Y-150375000D02*
X228130500Y-150375000D01*
X223030500Y-154375000D02*
X231830500Y-154375000D01*
X230130500Y-148375000D02*
X233830500Y-148375000D01*
X233830500Y-152375000D02*
X233830500Y-148375000D01*
X230130500Y-148375000D02*
G75*
G02*
X228130500Y-150375000I-1999999J-1D01*
G01*
X233830500Y-152375000D02*
G75*
G02*
X231830500Y-154375000I-1999999J-1D01*
G01*
G04 #@! TO.C,SW51*
X299230500Y-155137500D02*
X299230500Y-159137500D01*
X299230500Y-155137500D02*
X304330500Y-155137500D01*
X299230500Y-159137500D02*
X308030500Y-159137500D01*
X306330500Y-153137500D02*
X310030500Y-153137500D01*
X310030500Y-157137500D02*
X310030500Y-153137500D01*
X306330500Y-153137500D02*
G75*
G02*
X304330500Y-155137500I-1999999J-1D01*
G01*
X310030500Y-157137500D02*
G75*
G02*
X308030500Y-159137500I-1999999J-1D01*
G01*
G04 #@! TO.C,SW44*
X280180500Y-112275000D02*
X280180500Y-116275000D01*
X280180500Y-112275000D02*
X285280500Y-112275000D01*
X280180500Y-116275000D02*
X288980500Y-116275000D01*
X287280500Y-110275000D02*
X290980500Y-110275000D01*
X290980500Y-114275000D02*
X290980500Y-110275000D01*
X287280500Y-110275000D02*
G75*
G02*
X285280500Y-112275000I-1999999J-1D01*
G01*
X290980500Y-114275000D02*
G75*
G02*
X288980500Y-116275000I-1999999J-1D01*
G01*
G04 #@! TO.C,SW50*
X299230500Y-136087500D02*
X299230500Y-140087500D01*
X299230500Y-136087500D02*
X304330500Y-136087500D01*
X299230500Y-140087500D02*
X308030500Y-140087500D01*
X306330500Y-134087500D02*
X310030500Y-134087500D01*
X310030500Y-138087500D02*
X310030500Y-134087500D01*
X306330500Y-134087500D02*
G75*
G02*
X304330500Y-136087500I-1999999J-1D01*
G01*
X310030500Y-138087500D02*
G75*
G02*
X308030500Y-140087500I-1999999J-1D01*
G01*
G04 #@! TO.C,D33*
X225480500Y-139200000D02*
X225480500Y-136900000D01*
X225480500Y-139200000D02*
X230180500Y-139200000D01*
X230180500Y-136900000D02*
X225480500Y-136900000D01*
X230180500Y-139200000D02*
X230180500Y-136900000D01*
G04 #@! TO.C,D15*
X97292500Y-134437500D02*
X97292500Y-132137500D01*
X97292500Y-134437500D02*
X101992500Y-134437500D01*
X101992500Y-132137500D02*
X97292500Y-132137500D01*
X101992500Y-134437500D02*
X101992500Y-132137500D01*
G04 #@! TO.C,SW8*
X56795000Y-150437500D02*
X56795000Y-154437500D01*
X56795000Y-150437500D02*
X61895000Y-150437500D01*
X56795000Y-154437500D02*
X65595000Y-154437500D01*
X63895000Y-148437500D02*
X67595000Y-148437500D01*
X67595000Y-152437500D02*
X67595000Y-148437500D01*
X63895000Y-148437500D02*
G75*
G02*
X61895000Y-150437500I-1999999J-1D01*
G01*
X67595000Y-152437500D02*
G75*
G02*
X65595000Y-154437500I-1999999J-1D01*
G01*
G04 #@! TO.C,D20*
X116342500Y-158250000D02*
X116342500Y-155950000D01*
X116342500Y-158250000D02*
X121042500Y-158250000D01*
X121042500Y-155950000D02*
X116342500Y-155950000D01*
X121042500Y-158250000D02*
X121042500Y-155950000D01*
G04 #@! TO.C,SW13*
X94842500Y-88462500D02*
X94842500Y-92462500D01*
X94842500Y-88462500D02*
X99942500Y-88462500D01*
X94842500Y-92462500D02*
X103642500Y-92462500D01*
X101942500Y-86462500D02*
X105642500Y-86462500D01*
X105642500Y-90462500D02*
X105642500Y-86462500D01*
X101942500Y-86462500D02*
G75*
G02*
X99942500Y-88462500I-1999999J-1D01*
G01*
X105642500Y-90462500D02*
G75*
G02*
X103642500Y-92462500I-1999999J-1D01*
G01*
G04 #@! TO.C,SW47*
X203980500Y-183712500D02*
X203980500Y-187712500D01*
X203980500Y-183712500D02*
X209080500Y-183712500D01*
X203980500Y-187712500D02*
X212780500Y-187712500D01*
X211080500Y-181712500D02*
X214780500Y-181712500D01*
X214780500Y-185712500D02*
X214780500Y-181712500D01*
X211080500Y-181712500D02*
G75*
G02*
X209080500Y-183712500I-1999999J-1D01*
G01*
X214780500Y-185712500D02*
G75*
G02*
X212780500Y-187712500I-1999999J-1D01*
G01*
G04 #@! TO.C,SW1*
X37692500Y-97987500D02*
X37692500Y-101987500D01*
X37692500Y-97987500D02*
X42792500Y-97987500D01*
X37692500Y-101987500D02*
X46492500Y-101987500D01*
X44792500Y-95987500D02*
X48492500Y-95987500D01*
X48492500Y-99987500D02*
X48492500Y-95987500D01*
X44792500Y-95987500D02*
G75*
G02*
X42792500Y-97987500I-1999999J-1D01*
G01*
X48492500Y-99987500D02*
G75*
G02*
X46492500Y-101987500I-1999999J-1D01*
G01*
G04 #@! TO.C,SW5*
X56795000Y-93225000D02*
X56795000Y-97225000D01*
X56795000Y-93225000D02*
X61895000Y-93225000D01*
X56795000Y-97225000D02*
X65595000Y-97225000D01*
X63895000Y-91225000D02*
X67595000Y-91225000D01*
X67595000Y-95225000D02*
X67595000Y-91225000D01*
X63895000Y-91225000D02*
G75*
G02*
X61895000Y-93225000I-1999999J-1D01*
G01*
X67595000Y-95225000D02*
G75*
G02*
X65595000Y-97225000I-1999999J-1D01*
G01*
G04 #@! TO.C,D30*
X206430500Y-163012500D02*
X206430500Y-160712500D01*
X206430500Y-163012500D02*
X211130500Y-163012500D01*
X211130500Y-160712500D02*
X206430500Y-160712500D01*
X211130500Y-163012500D02*
X211130500Y-160712500D01*
G04 #@! TO.C,SW52*
X223030500Y-178950000D02*
X223030500Y-182950000D01*
X223030500Y-178950000D02*
X228130500Y-178950000D01*
X223030500Y-182950000D02*
X231830500Y-182950000D01*
X230130500Y-176950000D02*
X233830500Y-176950000D01*
X233830500Y-180950000D02*
X233830500Y-176950000D01*
X230130500Y-176950000D02*
G75*
G02*
X228130500Y-178950000I-1999999J-1D01*
G01*
X233830500Y-180950000D02*
G75*
G02*
X231830500Y-182950000I-1999999J-1D01*
G01*
G04 #@! TO.C,D23*
X135392500Y-124912500D02*
X135392500Y-122612500D01*
X135392500Y-124912500D02*
X140092500Y-124912500D01*
X140092500Y-122612500D02*
X135392500Y-122612500D01*
X140092500Y-124912500D02*
X140092500Y-122612500D01*
G04 #@! TO.C,D47*
X206430500Y-191587500D02*
X206430500Y-189287500D01*
X206430500Y-191587500D02*
X211130500Y-191587500D01*
X211130500Y-189287500D02*
X206430500Y-189287500D01*
X211130500Y-191587500D02*
X211130500Y-189287500D01*
G04 #@! TO.C,D31*
X225480500Y-101100000D02*
X225480500Y-98800000D01*
X225480500Y-101100000D02*
X230180500Y-101100000D01*
X230180500Y-98800000D02*
X225480500Y-98800000D01*
X230180500Y-101100000D02*
X230180500Y-98800000D01*
G04 #@! TO.C,D13*
X97292500Y-96337500D02*
X97292500Y-94037500D01*
X97292500Y-96337500D02*
X101992500Y-96337500D01*
X101992500Y-94037500D02*
X97292500Y-94037500D01*
X101992500Y-96337500D02*
X101992500Y-94037500D01*
G04 #@! TO.C,SW6*
X56795000Y-112275000D02*
X56795000Y-116275000D01*
X56795000Y-112275000D02*
X61895000Y-112275000D01*
X56795000Y-116275000D02*
X65595000Y-116275000D01*
X63895000Y-110275000D02*
X67595000Y-110275000D01*
X67595000Y-114275000D02*
X67595000Y-110275000D01*
X63895000Y-110275000D02*
G75*
G02*
X61895000Y-112275000I-1999999J-1D01*
G01*
X67595000Y-114275000D02*
G75*
G02*
X65595000Y-116275000I-1999999J-1D01*
G01*
G04 #@! TO.C,D16*
X97292500Y-153487500D02*
X97292500Y-151187500D01*
X97292500Y-153487500D02*
X101992500Y-153487500D01*
X101992500Y-151187500D02*
X97292500Y-151187500D01*
X101992500Y-153487500D02*
X101992500Y-151187500D01*
G04 #@! TO.C,SW35*
X242080500Y-88462500D02*
X242080500Y-92462500D01*
X242080500Y-88462500D02*
X247180500Y-88462500D01*
X242080500Y-92462500D02*
X250880500Y-92462500D01*
X249180500Y-86462500D02*
X252880500Y-86462500D01*
X252880500Y-90462500D02*
X252880500Y-86462500D01*
X249180500Y-86462500D02*
G75*
G02*
X247180500Y-88462500I-1999999J-1D01*
G01*
X252880500Y-90462500D02*
G75*
G02*
X250880500Y-92462500I-1999999J-1D01*
G01*
G04 #@! TO.C,SW21*
X113892500Y-178950000D02*
X113892500Y-182950000D01*
X113892500Y-178950000D02*
X118992500Y-178950000D01*
X113892500Y-182950000D02*
X122692500Y-182950000D01*
X120992500Y-176950000D02*
X124692500Y-176950000D01*
X124692500Y-180950000D02*
X124692500Y-176950000D01*
X120992500Y-176950000D02*
G75*
G02*
X118992500Y-178950000I-1999999J-1D01*
G01*
X124692500Y-180950000D02*
G75*
G02*
X122692500Y-182950000I-1999999J-1D01*
G01*
G04 #@! TO.C,D42*
X263580500Y-153487500D02*
X263580500Y-151187500D01*
X263580500Y-153487500D02*
X268280500Y-153487500D01*
X268280500Y-151187500D02*
X263580500Y-151187500D01*
X268280500Y-153487500D02*
X268280500Y-151187500D01*
G04 #@! TO.C,SW37*
X242080500Y-126562500D02*
X242080500Y-130562500D01*
X242080500Y-126562500D02*
X247180500Y-126562500D01*
X242080500Y-130562500D02*
X250880500Y-130562500D01*
X249180500Y-124562500D02*
X252880500Y-124562500D01*
X252880500Y-128562500D02*
X252880500Y-124562500D01*
X249180500Y-124562500D02*
G75*
G02*
X247180500Y-126562500I-1999999J-1D01*
G01*
X252880500Y-128562500D02*
G75*
G02*
X250880500Y-130562500I-1999999J-1D01*
G01*
G04 #@! TO.C,SW27*
X203980500Y-97987500D02*
X203980500Y-101987500D01*
X203980500Y-97987500D02*
X209080500Y-97987500D01*
X203980500Y-101987500D02*
X212780500Y-101987500D01*
X211080500Y-95987500D02*
X214780500Y-95987500D01*
X214780500Y-99987500D02*
X214780500Y-95987500D01*
X211080500Y-95987500D02*
G75*
G02*
X209080500Y-97987500I-1999999J-1D01*
G01*
X214780500Y-99987500D02*
G75*
G02*
X212780500Y-101987500I-1999999J-1D01*
G01*
G04 #@! TO.C,D46*
X282630500Y-158250000D02*
X282630500Y-155950000D01*
X282630500Y-158250000D02*
X287330500Y-158250000D01*
X287330500Y-155950000D02*
X282630500Y-155950000D01*
X287330500Y-158250000D02*
X287330500Y-155950000D01*
G04 #@! TO.C,D48*
X301680500Y-105862500D02*
X301680500Y-103562500D01*
X301680500Y-105862500D02*
X306380500Y-105862500D01*
X306380500Y-103562500D02*
X301680500Y-103562500D01*
X306380500Y-105862500D02*
X306380500Y-103562500D01*
G04 #@! TO.C,SW22*
X132942500Y-97987500D02*
X132942500Y-101987500D01*
X132942500Y-97987500D02*
X138042500Y-97987500D01*
X132942500Y-101987500D02*
X141742500Y-101987500D01*
X140042500Y-95987500D02*
X143742500Y-95987500D01*
X143742500Y-99987500D02*
X143742500Y-95987500D01*
X140042500Y-95987500D02*
G75*
G02*
X138042500Y-97987500I-1999999J-1D01*
G01*
X143742500Y-99987500D02*
G75*
G02*
X141742500Y-101987500I-1999999J-1D01*
G01*
G04 #@! TO.C,SW30*
X203980500Y-155137500D02*
X203980500Y-159137500D01*
X203980500Y-155137500D02*
X209080500Y-155137500D01*
X203980500Y-159137500D02*
X212780500Y-159137500D01*
X211080500Y-153137500D02*
X214780500Y-153137500D01*
X214780500Y-157137500D02*
X214780500Y-153137500D01*
X211080500Y-153137500D02*
G75*
G02*
X209080500Y-155137500I-1999999J-1D01*
G01*
X214780500Y-157137500D02*
G75*
G02*
X212780500Y-159137500I-1999999J-1D01*
G01*
G04 #@! TO.C,D28*
X206430500Y-124912500D02*
X206430500Y-122612500D01*
X206430500Y-124912500D02*
X211130500Y-124912500D01*
X211130500Y-122612500D02*
X206430500Y-122612500D01*
X211130500Y-124912500D02*
X211130500Y-122612500D01*
G04 #@! TO.C,D8*
X59192500Y-158250000D02*
X59192500Y-155950000D01*
X59192500Y-158250000D02*
X63892500Y-158250000D01*
X63892500Y-155950000D02*
X59192500Y-155950000D01*
X63892500Y-158250000D02*
X63892500Y-155950000D01*
G04 #@! TO.C,D26*
X135392500Y-191587500D02*
X135392500Y-189287500D01*
X135392500Y-191587500D02*
X140092500Y-191587500D01*
X140092500Y-189287500D02*
X135392500Y-189287500D01*
X140092500Y-191587500D02*
X140092500Y-189287500D01*
G04 #@! TO.C,SW19*
X113892500Y-131325000D02*
X113892500Y-135325000D01*
X113892500Y-131325000D02*
X118992500Y-131325000D01*
X113892500Y-135325000D02*
X122692500Y-135325000D01*
X120992500Y-129325000D02*
X124692500Y-129325000D01*
X124692500Y-133325000D02*
X124692500Y-129325000D01*
X120992500Y-129325000D02*
G75*
G02*
X118992500Y-131325000I-1999999J-1D01*
G01*
X124692500Y-133325000D02*
G75*
G02*
X122692500Y-135325000I-1999999J-1D01*
G01*
G04 #@! TO.C,D21*
X116342500Y-186825000D02*
X116342500Y-184525000D01*
X116342500Y-186825000D02*
X121042500Y-186825000D01*
X121042500Y-184525000D02*
X116342500Y-184525000D01*
X121042500Y-186825000D02*
X121042500Y-184525000D01*
G04 #@! TO.C,D22*
X135392500Y-105862500D02*
X135392500Y-103562500D01*
X135392500Y-105862500D02*
X140092500Y-105862500D01*
X140092500Y-103562500D02*
X135392500Y-103562500D01*
X140092500Y-105862500D02*
X140092500Y-103562500D01*
G04 #@! TO.C,SW49*
X299230500Y-117037500D02*
X299230500Y-121037500D01*
X299230500Y-117037500D02*
X304330500Y-117037500D01*
X299230500Y-121037500D02*
X308030500Y-121037500D01*
X306330500Y-115037500D02*
X310030500Y-115037500D01*
X310030500Y-119037500D02*
X310030500Y-115037500D01*
X306330500Y-115037500D02*
G75*
G02*
X304330500Y-117037500I-1999999J-1D01*
G01*
X310030500Y-119037500D02*
G75*
G02*
X308030500Y-121037500I-1999999J-1D01*
G01*
G04 #@! TO.C,D18*
X116342500Y-120150000D02*
X116342500Y-117850000D01*
X116342500Y-120150000D02*
X121042500Y-120150000D01*
X121042500Y-117850000D02*
X116342500Y-117850000D01*
X121042500Y-120150000D02*
X121042500Y-117850000D01*
G04 #@! TO.C,D45*
X282630500Y-139200000D02*
X282630500Y-136900000D01*
X282630500Y-139200000D02*
X287330500Y-139200000D01*
X287330500Y-136900000D02*
X282630500Y-136900000D01*
X287330500Y-139200000D02*
X287330500Y-136900000D01*
G04 #@! TO.C,D4*
X40142500Y-160712500D02*
X40142500Y-163012500D01*
X40142500Y-163012500D02*
X44842500Y-163012500D01*
X44842500Y-160712500D02*
X40142500Y-160712500D01*
X44842500Y-160712500D02*
X44842500Y-163012500D01*
G04 #@! TO.C,D49*
X301680500Y-124912500D02*
X301680500Y-122612500D01*
X301680500Y-124912500D02*
X306380500Y-124912500D01*
X306380500Y-122612500D02*
X301680500Y-122612500D01*
X306380500Y-124912500D02*
X306380500Y-122612500D01*
G04 #@! TD*
M02*
