G04 #@! TF.GenerationSoftware,KiCad,Pcbnew,10.0.3*
G04 #@! TF.CreationDate,2026-07-27T11:37:26-06:00*
G04 #@! TF.ProjectId,splitKey,73706c69-744b-4657-992e-6b696361645f,rev?*
G04 #@! TF.SameCoordinates,Original*
G04 #@! TF.FileFunction,Paste,Bot*
G04 #@! TF.FilePolarity,Positive*
%FSLAX46Y46*%
G04 Gerber Fmt 4.6, Leading zero omitted, Abs format (unit mm)*
G04 Created by KiCad (PCBNEW 10.0.3) date 2026-07-27 11:37:26*
%MOMM*%
%LPD*%
G01*
G04 APERTURE LIST*
G04 Aperture macros list*
%AMRoundRect*
0 Rectangle with rounded corners*
0 $1 Rounding radius*
0 $2 $3 $4 $5 $6 $7 $8 $9 X,Y pos of 4 corners*
0 Add a 4 corners polygon primitive as box body*
4,1,4,$2,$3,$4,$5,$6,$7,$8,$9,$2,$3,0*
0 Add four circle primitives for the rounded corners*
1,1,$1+$1,$2,$3*
1,1,$1+$1,$4,$5*
1,1,$1+$1,$6,$7*
1,1,$1+$1,$8,$9*
0 Add four rect primitives between the rounded corners*
20,1,$1+$1,$2,$3,$4,$5,0*
20,1,$1+$1,$4,$5,$6,$7,0*
20,1,$1+$1,$6,$7,$8,$9,0*
20,1,$1+$1,$8,$9,$2,$3,0*%
G04 Aperture macros list end*
%ADD10RoundRect,0.225000X0.225000X0.375000X-0.225000X0.375000X-0.225000X-0.375000X0.225000X-0.375000X0*%
%ADD11RoundRect,0.250000X-1.025000X-1.000000X1.025000X-1.000000X1.025000X1.000000X-1.025000X1.000000X0*%
%ADD12RoundRect,0.225000X-0.225000X-0.375000X0.225000X-0.375000X0.225000X0.375000X-0.225000X0.375000X0*%
G04 APERTURE END LIST*
D10*
G04 #@! TO.C,D2*
X44142500Y-123762500D03*
X40842500Y-123762500D03*
G04 #@! TD*
D11*
G04 #@! TO.C,SW4*
X49577500Y-154877500D03*
X36650500Y-157417500D03*
G04 #@! TD*
D12*
G04 #@! TO.C,D38*
X245230500Y-152337500D03*
X248530500Y-152337500D03*
G04 #@! TD*
G04 #@! TO.C,D19*
X117042500Y-138050000D03*
X120342500Y-138050000D03*
G04 #@! TD*
D11*
G04 #@! TO.C,SW12*
X87677500Y-145352500D03*
X74750500Y-147892500D03*
G04 #@! TD*
D12*
G04 #@! TO.C,D40*
X264280500Y-114237500D03*
X267580500Y-114237500D03*
G04 #@! TD*
D11*
G04 #@! TO.C,SW9*
X87677500Y-88202500D03*
X74750500Y-90742500D03*
G04 #@! TD*
D12*
G04 #@! TO.C,D11*
X78942500Y-133287500D03*
X82242500Y-133287500D03*
G04 #@! TD*
D11*
G04 #@! TO.C,SW28*
X215865500Y-116777500D03*
X202938500Y-119317500D03*
G04 #@! TD*
G04 #@! TO.C,SW36*
X253965500Y-107252500D03*
X241038500Y-109792500D03*
G04 #@! TD*
D12*
G04 #@! TO.C,D34*
X226180500Y-157100000D03*
X229480500Y-157100000D03*
G04 #@! TD*
D11*
G04 #@! TO.C,SW45*
X292065500Y-131065000D03*
X279138500Y-133605000D03*
G04 #@! TD*
D12*
G04 #@! TO.C,D14*
X97992500Y-114237500D03*
X101292500Y-114237500D03*
G04 #@! TD*
G04 #@! TO.C,D25*
X136092500Y-161862500D03*
X139392500Y-161862500D03*
G04 #@! TD*
D11*
G04 #@! TO.C,SW3*
X49577500Y-135827500D03*
X36650500Y-138367500D03*
G04 #@! TD*
G04 #@! TO.C,SW18*
X125777500Y-112015000D03*
X112850500Y-114555000D03*
G04 #@! TD*
G04 #@! TO.C,SW16*
X106780000Y-145352500D03*
X93853000Y-147892500D03*
G04 #@! TD*
G04 #@! TO.C,SW15*
X106780000Y-126365000D03*
X93853000Y-128905000D03*
G04 #@! TD*
D12*
G04 #@! TO.C,D9*
X78942500Y-95187500D03*
X82242500Y-95187500D03*
G04 #@! TD*
D11*
G04 #@! TO.C,SW31*
X234915500Y-92965000D03*
X221988500Y-95505000D03*
G04 #@! TD*
G04 #@! TO.C,SW32*
X234915500Y-112015000D03*
X221988500Y-114555000D03*
G04 #@! TD*
D10*
G04 #@! TO.C,D1*
X44142500Y-104712500D03*
X40842500Y-104712500D03*
G04 #@! TD*
D12*
G04 #@! TO.C,D37*
X245230500Y-133287500D03*
X248530500Y-133287500D03*
G04 #@! TD*
D11*
G04 #@! TO.C,SW40*
X273015500Y-107252500D03*
X260088500Y-109792500D03*
G04 #@! TD*
G04 #@! TO.C,SW46*
X292065500Y-150115000D03*
X279138500Y-152655000D03*
G04 #@! TD*
D12*
G04 #@! TO.C,D41*
X264280500Y-133287500D03*
X267580500Y-133287500D03*
G04 #@! TD*
G04 #@! TO.C,D51*
X302380500Y-161862500D03*
X305680500Y-161862500D03*
G04 #@! TD*
G04 #@! TO.C,D39*
X264280500Y-95187500D03*
X267580500Y-95187500D03*
G04 #@! TD*
G04 #@! TO.C,D12*
X78942500Y-152337500D03*
X82242500Y-152337500D03*
G04 #@! TD*
G04 #@! TO.C,D32*
X226180500Y-119000000D03*
X229480500Y-119000000D03*
G04 #@! TD*
G04 #@! TO.C,D29*
X207130500Y-142812500D03*
X210430500Y-142812500D03*
G04 #@! TD*
D11*
G04 #@! TO.C,SW20*
X125777500Y-150115000D03*
X112850500Y-152655000D03*
G04 #@! TD*
G04 #@! TO.C,SW10*
X87730000Y-107252500D03*
X74803000Y-109792500D03*
G04 #@! TD*
D12*
G04 #@! TO.C,D52*
X226180500Y-185675000D03*
X229480500Y-185675000D03*
G04 #@! TD*
G04 #@! TO.C,D6*
X59892500Y-119000000D03*
X63192500Y-119000000D03*
G04 #@! TD*
G04 #@! TO.C,D44*
X283330500Y-119000000D03*
X286630500Y-119000000D03*
G04 #@! TD*
D11*
G04 #@! TO.C,SW29*
X215865500Y-135827500D03*
X202938500Y-138367500D03*
G04 #@! TD*
G04 #@! TO.C,SW2*
X49630000Y-116777500D03*
X36703000Y-119317500D03*
G04 #@! TD*
G04 #@! TO.C,SW26*
X144880000Y-183515000D03*
X131953000Y-186055000D03*
G04 #@! TD*
G04 #@! TO.C,SW43*
X292065500Y-92965000D03*
X279138500Y-95505000D03*
G04 #@! TD*
D12*
G04 #@! TO.C,D10*
X78942500Y-114237500D03*
X82242500Y-114237500D03*
G04 #@! TD*
G04 #@! TO.C,D43*
X283330500Y-99950000D03*
X286630500Y-99950000D03*
G04 #@! TD*
D11*
G04 #@! TO.C,SW41*
X273015500Y-126302500D03*
X260088500Y-128842500D03*
G04 #@! TD*
D12*
G04 #@! TO.C,D24*
X136092500Y-142812500D03*
X139392500Y-142812500D03*
G04 #@! TD*
G04 #@! TO.C,D5*
X59892500Y-99950000D03*
X63192500Y-99950000D03*
G04 #@! TD*
D11*
G04 #@! TO.C,SW17*
X125777500Y-92965000D03*
X112850500Y-95505000D03*
G04 #@! TD*
G04 #@! TO.C,SW23*
X144827500Y-116777500D03*
X131900500Y-119317500D03*
G04 #@! TD*
D12*
G04 #@! TO.C,D17*
X117042500Y-99950000D03*
X120342500Y-99950000D03*
G04 #@! TD*
G04 #@! TO.C,D36*
X245230500Y-114237500D03*
X248530500Y-114237500D03*
G04 #@! TD*
D11*
G04 #@! TO.C,SW48*
X311115500Y-97727500D03*
X298188500Y-100267500D03*
G04 #@! TD*
D10*
G04 #@! TO.C,D3*
X44142500Y-142812500D03*
X40842500Y-142812500D03*
G04 #@! TD*
D11*
G04 #@! TO.C,SW38*
X253965500Y-145352500D03*
X241038500Y-147892500D03*
G04 #@! TD*
G04 #@! TO.C,SW42*
X273015500Y-145352500D03*
X260088500Y-147892500D03*
G04 #@! TD*
G04 #@! TO.C,SW14*
X106727500Y-107252500D03*
X93800500Y-109792500D03*
G04 #@! TD*
G04 #@! TO.C,SW24*
X144827500Y-135827500D03*
X131900500Y-138367500D03*
G04 #@! TD*
G04 #@! TO.C,SW39*
X273015500Y-88202500D03*
X260088500Y-90742500D03*
G04 #@! TD*
G04 #@! TO.C,SW25*
X144827500Y-154877500D03*
X131900500Y-157417500D03*
G04 #@! TD*
G04 #@! TO.C,SW11*
X87677500Y-126302500D03*
X74750500Y-128842500D03*
G04 #@! TD*
D12*
G04 #@! TO.C,D27*
X207130500Y-104712500D03*
X210430500Y-104712500D03*
G04 #@! TD*
D11*
G04 #@! TO.C,SW7*
X68627500Y-131065000D03*
X55700500Y-133605000D03*
G04 #@! TD*
G04 #@! TO.C,SW33*
X234915500Y-131065000D03*
X221988500Y-133605000D03*
G04 #@! TD*
D12*
G04 #@! TO.C,D7*
X59892500Y-138050000D03*
X63192500Y-138050000D03*
G04 #@! TD*
G04 #@! TO.C,D50*
X302380500Y-142812500D03*
X305680500Y-142812500D03*
G04 #@! TD*
G04 #@! TO.C,D35*
X245230500Y-95187500D03*
X248530500Y-95187500D03*
G04 #@! TD*
D11*
G04 #@! TO.C,SW34*
X234915500Y-150115000D03*
X221988500Y-152655000D03*
G04 #@! TD*
G04 #@! TO.C,SW51*
X311115500Y-154877500D03*
X298188500Y-157417500D03*
G04 #@! TD*
G04 #@! TO.C,SW44*
X292065500Y-112015000D03*
X279138500Y-114555000D03*
G04 #@! TD*
G04 #@! TO.C,SW50*
X311115500Y-135827500D03*
X298188500Y-138367500D03*
G04 #@! TD*
D12*
G04 #@! TO.C,D33*
X226180500Y-138050000D03*
X229480500Y-138050000D03*
G04 #@! TD*
G04 #@! TO.C,D15*
X97992500Y-133287500D03*
X101292500Y-133287500D03*
G04 #@! TD*
D11*
G04 #@! TO.C,SW8*
X68680000Y-150177500D03*
X55753000Y-152717500D03*
G04 #@! TD*
D12*
G04 #@! TO.C,D20*
X117042500Y-157100000D03*
X120342500Y-157100000D03*
G04 #@! TD*
D11*
G04 #@! TO.C,SW13*
X106727500Y-88202500D03*
X93800500Y-90742500D03*
G04 #@! TD*
G04 #@! TO.C,SW47*
X215865500Y-183452500D03*
X202938500Y-185992500D03*
G04 #@! TD*
G04 #@! TO.C,SW1*
X49577500Y-97727500D03*
X36650500Y-100267500D03*
G04 #@! TD*
G04 #@! TO.C,SW5*
X68680000Y-92965000D03*
X55753000Y-95505000D03*
G04 #@! TD*
D12*
G04 #@! TO.C,D30*
X207130500Y-161862500D03*
X210430500Y-161862500D03*
G04 #@! TD*
D11*
G04 #@! TO.C,SW52*
X234915500Y-178690000D03*
X221988500Y-181230000D03*
G04 #@! TD*
D12*
G04 #@! TO.C,D23*
X136092500Y-123762500D03*
X139392500Y-123762500D03*
G04 #@! TD*
G04 #@! TO.C,D47*
X207130500Y-190437500D03*
X210430500Y-190437500D03*
G04 #@! TD*
G04 #@! TO.C,D31*
X226180500Y-99950000D03*
X229480500Y-99950000D03*
G04 #@! TD*
G04 #@! TO.C,D13*
X97992500Y-95187500D03*
X101292500Y-95187500D03*
G04 #@! TD*
D11*
G04 #@! TO.C,SW6*
X68680000Y-112015000D03*
X55753000Y-114555000D03*
G04 #@! TD*
D12*
G04 #@! TO.C,D16*
X97992500Y-152337500D03*
X101292500Y-152337500D03*
G04 #@! TD*
D11*
G04 #@! TO.C,SW35*
X253965500Y-88202500D03*
X241038500Y-90742500D03*
G04 #@! TD*
G04 #@! TO.C,SW21*
X125777500Y-178690000D03*
X112850500Y-181230000D03*
G04 #@! TD*
D12*
G04 #@! TO.C,D42*
X264280500Y-152337500D03*
X267580500Y-152337500D03*
G04 #@! TD*
D11*
G04 #@! TO.C,SW37*
X253965500Y-126302500D03*
X241038500Y-128842500D03*
G04 #@! TD*
G04 #@! TO.C,SW27*
X215865500Y-97727500D03*
X202938500Y-100267500D03*
G04 #@! TD*
D12*
G04 #@! TO.C,D46*
X283330500Y-157100000D03*
X286630500Y-157100000D03*
G04 #@! TD*
G04 #@! TO.C,D48*
X302380500Y-104712500D03*
X305680500Y-104712500D03*
G04 #@! TD*
D11*
G04 #@! TO.C,SW22*
X144827500Y-97727500D03*
X131900500Y-100267500D03*
G04 #@! TD*
G04 #@! TO.C,SW30*
X215865500Y-154877500D03*
X202938500Y-157417500D03*
G04 #@! TD*
D12*
G04 #@! TO.C,D28*
X207130500Y-123762500D03*
X210430500Y-123762500D03*
G04 #@! TD*
G04 #@! TO.C,D8*
X59892500Y-157100000D03*
X63192500Y-157100000D03*
G04 #@! TD*
G04 #@! TO.C,D26*
X136092500Y-190437500D03*
X139392500Y-190437500D03*
G04 #@! TD*
D11*
G04 #@! TO.C,SW19*
X125777500Y-131065000D03*
X112850500Y-133605000D03*
G04 #@! TD*
D12*
G04 #@! TO.C,D21*
X117042500Y-185675000D03*
X120342500Y-185675000D03*
G04 #@! TD*
G04 #@! TO.C,D22*
X136092500Y-104712500D03*
X139392500Y-104712500D03*
G04 #@! TD*
D11*
G04 #@! TO.C,SW49*
X311115500Y-116777500D03*
X298188500Y-119317500D03*
G04 #@! TD*
D12*
G04 #@! TO.C,D18*
X117042500Y-119000000D03*
X120342500Y-119000000D03*
G04 #@! TD*
G04 #@! TO.C,D45*
X283330500Y-138050000D03*
X286630500Y-138050000D03*
G04 #@! TD*
D10*
G04 #@! TO.C,D4*
X44142500Y-161862500D03*
X40842500Y-161862500D03*
G04 #@! TD*
D12*
G04 #@! TO.C,D49*
X302380500Y-123762500D03*
X305680500Y-123762500D03*
G04 #@! TD*
M02*
