G04 #@! TF.GenerationSoftware,KiCad,Pcbnew,10.0.3*
G04 #@! TF.CreationDate,2026-07-27T11:37:26-06:00*
G04 #@! TF.ProjectId,splitKey,73706c69-744b-4657-992e-6b696361645f,rev?*
G04 #@! TF.SameCoordinates,Original*
G04 #@! TF.FileFunction,Copper,L1,Top*
G04 #@! TF.FilePolarity,Positive*
%FSLAX46Y46*%
G04 Gerber Fmt 4.6, Leading zero omitted, Abs format (unit mm)*
G04 Created by KiCad (PCBNEW 10.0.3) date 2026-07-27 11:37:26*
%MOMM*%
%LPD*%
G01*
G04 APERTURE LIST*
G04 Aperture macros list*
%AMRoundRect*
0 Rectangle with rounded corners*
0 $1 Rounding radius*
0 $2 $3 $4 $5 $6 $7 $8 $9 X,Y pos of 4 corners*
0 Add a 4 corners polygon primitive as box body*
4,1,4,$2,$3,$4,$5,$6,$7,$8,$9,$2,$3,0*
0 Add four circle primitives for the rounded corners*
1,1,$1+$1,$2,$3*
1,1,$1+$1,$4,$5*
1,1,$1+$1,$6,$7*
1,1,$1+$1,$8,$9*
0 Add four rect primitives between the rounded corners*
20,1,$1+$1,$2,$3,$4,$5,0*
20,1,$1+$1,$4,$5,$6,$7,0*
20,1,$1+$1,$6,$7,$8,$9,0*
20,1,$1+$1,$8,$9,$2,$3,0*%
G04 Aperture macros list end*
G04 #@! TA.AperFunction,Conductor*
%ADD10C,0.200000*%
G04 #@! TD*
G04 #@! TA.AperFunction,SMDPad,CuDef*
%ADD11C,2.000000*%
G04 #@! TD*
G04 #@! TA.AperFunction,SMDPad,CuDef*
%ADD12RoundRect,0.500000X-0.875000X-0.500000X0.875000X-0.500000X0.875000X0.500000X-0.875000X0.500000X0*%
G04 #@! TD*
G04 #@! TA.AperFunction,ComponentPad*
%ADD13RoundRect,0.750000X0.750000X0.750000X-0.750000X0.750000X-0.750000X-0.750000X0.750000X-0.750000X0*%
G04 #@! TD*
G04 #@! TA.AperFunction,SMDPad,CuDef*
%ADD14RoundRect,0.275000X-0.275000X0.975000X-0.275000X-0.975000X0.275000X-0.975000X0.275000X0.975000X0*%
G04 #@! TD*
G04 #@! TA.AperFunction,SMDPad,CuDef*
%ADD15C,1.700000*%
G04 #@! TD*
G04 #@! TA.AperFunction,SMDPad,CuDef*
%ADD16R,1.000000X1.000000*%
G04 #@! TD*
G04 #@! TA.AperFunction,ComponentPad*
%ADD17C,3.600000*%
G04 #@! TD*
G04 #@! TA.AperFunction,ViaPad*
%ADD18C,0.600000*%
G04 #@! TD*
G04 APERTURE END LIST*
G04 #@! TO.N,Net-(TP5-Pad1)*
D10*
X165900000Y-178100000D02*
X181000000Y-178000000D01*
G04 #@! TD*
D11*
G04 #@! TO.P,TP3,1,1_1*
G04 #@! TO.N,R.VBAT*
X185650000Y-109990000D03*
G04 #@! TD*
D12*
G04 #@! TO.P,U2,1,P0.02_A0_D0_1*
G04 #@! TO.N,R.col0*
X182000000Y-90096000D03*
G04 #@! TO.P,U2,2,P0.03_A1_D1_2*
G04 #@! TO.N,R.col1*
X182000000Y-92636000D03*
G04 #@! TO.P,U2,3,P0.28_A2_D2_3*
G04 #@! TO.N,R.col2*
X182000000Y-95176000D03*
G04 #@! TO.P,U2,4,P0.29_A3_D3_4*
G04 #@! TO.N,R.col3*
X182000000Y-97716000D03*
G04 #@! TO.P,U2,5,P0.04_A4_D4_SDA_5*
G04 #@! TO.N,R.col4*
X182000000Y-100256000D03*
G04 #@! TO.P,U2,6,P0.05_A5_D5_SCL_6*
G04 #@! TO.N,R.col5*
X182000000Y-102796000D03*
G04 #@! TO.P,U2,7,P1.11_D6_TX_7*
G04 #@! TO.N,R.row4*
X182000000Y-105336000D03*
G04 #@! TO.P,U2,8,P1.12_D7_RX_8*
G04 #@! TO.N,R.row3*
X198165000Y-105336000D03*
G04 #@! TO.P,U2,9,P1.13_D8_SCK_9*
G04 #@! TO.N,R.row2*
X198165000Y-102796000D03*
G04 #@! TO.P,U2,10,P1.14_D9_MISO_10*
G04 #@! TO.N,R.row1*
X198165000Y-100256000D03*
G04 #@! TO.P,U2,11,P1.15_D10_MOSI_11*
G04 #@! TO.N,R.row0*
X198165000Y-97716000D03*
G04 #@! TO.P,U2,12,3V3_12*
G04 #@! TO.N,unconnected-(U2-3V3-Pad12)*
X198165000Y-95176000D03*
G04 #@! TO.P,U2,13,GND_13*
G04 #@! TO.N,R.GND*
X198165000Y-92636000D03*
G04 #@! TO.P,U2,14,5V_14*
G04 #@! TO.N,unconnected-(U2-5V-Pad14)*
X198165000Y-90096000D03*
D13*
G04 #@! TO.P,U2,15,BAT_15*
G04 #@! TO.N,R.VBAT*
X185610000Y-98116000D03*
G04 #@! TO.P,U2,16,GND_16*
G04 #@! TO.N,R.GND*
X185610000Y-94716000D03*
D14*
G04 #@! TO.P,U2,17,NFC1_17*
G04 #@! TO.N,unconnected-(U2-NFC1-Pad17)*
X193865000Y-106952900D03*
G04 #@! TO.P,U2,18,NFC2_18*
G04 #@! TO.N,unconnected-(U2-NFC2-Pad18)*
X195770000Y-106952900D03*
D15*
G04 #@! TO.P,U2,19,PA31_SWDIO_19*
G04 #@! TO.N,unconnected-(U2-PA31_SWDIO-Pad19)*
X188785000Y-89147500D03*
G04 #@! TO.P,U2,20,PA30_SWCLK_20*
G04 #@! TO.N,unconnected-(U2-PA30_SWCLK-Pad20)*
X191325000Y-89147500D03*
G04 #@! TO.P,U2,21,RESET_21*
G04 #@! TO.N,unconnected-(U2-RESET-Pad21)*
X188785000Y-91687500D03*
G04 #@! TO.P,U2,22,GND_22*
G04 #@! TO.N,unconnected-(U2-GND-Pad22)*
X191325000Y-91687500D03*
G04 #@! TD*
D11*
G04 #@! TO.P,TP1,1,1_1*
G04 #@! TO.N,VBAT*
X150680000Y-109880000D03*
G04 #@! TD*
G04 #@! TO.P,TP2,1,1_1*
G04 #@! TO.N,GND*
X153930000Y-110060000D03*
G04 #@! TD*
D12*
G04 #@! TO.P,U1,1,P0.02_A0_D0_1*
G04 #@! TO.N,/left/col1*
X148365000Y-90096000D03*
G04 #@! TO.P,U1,2,P0.03_A1_D1_2*
G04 #@! TO.N,/left/col2*
X148365000Y-92636000D03*
G04 #@! TO.P,U1,3,P0.28_A2_D2_3*
G04 #@! TO.N,/left/col3*
X148365000Y-95176000D03*
G04 #@! TO.P,U1,4,P0.29_A3_D3_4*
G04 #@! TO.N,/left/col4*
X148365000Y-97716000D03*
G04 #@! TO.P,U1,5,P0.04_A4_D4_SDA_5*
G04 #@! TO.N,/left/col5*
X148365000Y-100256000D03*
G04 #@! TO.P,U1,6,P0.05_A5_D5_SCL_6*
G04 #@! TO.N,/left/col6*
X148365000Y-102796000D03*
G04 #@! TO.P,U1,7,P1.11_D6_TX_7*
G04 #@! TO.N,/left/row1*
X148365000Y-105336000D03*
G04 #@! TO.P,U1,8,P1.12_D7_RX_8*
G04 #@! TO.N,/left/row2*
X164530000Y-105336000D03*
G04 #@! TO.P,U1,9,P1.13_D8_SCK_9*
G04 #@! TO.N,/left/row3*
X164530000Y-102796000D03*
G04 #@! TO.P,U1,10,P1.14_D9_MISO_10*
G04 #@! TO.N,/left/row4*
X164530000Y-100256000D03*
G04 #@! TO.P,U1,11,P1.15_D10_MOSI_11*
G04 #@! TO.N,/left/row5*
X164530000Y-97716000D03*
G04 #@! TO.P,U1,12,3V3_12*
G04 #@! TO.N,unconnected-(U1-3V3-Pad12)*
X164530000Y-95176000D03*
G04 #@! TO.P,U1,13,GND_13*
G04 #@! TO.N,GND*
X164530000Y-92636000D03*
G04 #@! TO.P,U1,14,5V_14*
G04 #@! TO.N,unconnected-(U1-5V-Pad14)*
X164530000Y-90096000D03*
D13*
G04 #@! TO.P,U1,15,BAT_15*
G04 #@! TO.N,VBAT*
X151975000Y-98116000D03*
G04 #@! TO.P,U1,16,GND_16*
G04 #@! TO.N,GND*
X151975000Y-94716000D03*
D14*
G04 #@! TO.P,U1,17,NFC1_17*
G04 #@! TO.N,unconnected-(U1-NFC1-Pad17)*
X160230000Y-106952900D03*
G04 #@! TO.P,U1,18,NFC2_18*
G04 #@! TO.N,unconnected-(U1-NFC2-Pad18)*
X162135000Y-106952900D03*
D15*
G04 #@! TO.P,U1,19,PA31_SWDIO_19*
G04 #@! TO.N,unconnected-(U1-PA31_SWDIO-Pad19)*
X155150000Y-89147500D03*
G04 #@! TO.P,U1,20,PA30_SWCLK_20*
G04 #@! TO.N,unconnected-(U1-PA30_SWCLK-Pad20)*
X157690000Y-89147500D03*
G04 #@! TO.P,U1,21,RESET_21*
G04 #@! TO.N,unconnected-(U1-RESET-Pad21)*
X155150000Y-91687500D03*
G04 #@! TO.P,U1,22,GND_22*
G04 #@! TO.N,unconnected-(U1-GND-Pad22)*
X157690000Y-91687500D03*
G04 #@! TD*
D16*
G04 #@! TO.P,TP5,1,1_1*
G04 #@! TO.N,Net-(TP5-Pad1)*
X165900000Y-178100000D03*
G04 #@! TD*
G04 #@! TO.P,TP6,1,1_1*
G04 #@! TO.N,Net-(TP5-Pad1)*
X181000000Y-178000000D03*
G04 #@! TD*
D11*
G04 #@! TO.P,TP4,1,1_1*
G04 #@! TO.N,R.GND*
X189700000Y-110090000D03*
G04 #@! TD*
D17*
G04 #@! TO.P,SW4,1,1_1*
G04 #@! TO.N,/left/col1*
X46302500Y-154877500D03*
G04 #@! TO.P,SW4,2,2_2*
G04 #@! TO.N,Net-(D4-A)*
X39952500Y-157417500D03*
G04 #@! TD*
G04 #@! TO.P,SW12,1,1_1*
G04 #@! TO.N,/left/col3*
X84402500Y-145352500D03*
G04 #@! TO.P,SW12,2,2_2*
G04 #@! TO.N,Net-(D12-A)*
X78052500Y-147892500D03*
G04 #@! TD*
G04 #@! TO.P,SW9,1,1_1*
G04 #@! TO.N,/left/col3*
X84402500Y-88202500D03*
G04 #@! TO.P,SW9,2,2_2*
G04 #@! TO.N,Net-(D9-A)*
X78052500Y-90742500D03*
G04 #@! TD*
G04 #@! TO.P,SW28,1,1_1*
G04 #@! TO.N,R.col0*
X212590500Y-116777500D03*
G04 #@! TO.P,SW28,2,2_2*
G04 #@! TO.N,Net-(D28-A)*
X206240500Y-119317500D03*
G04 #@! TD*
G04 #@! TO.P,SW36,1,1_1*
G04 #@! TO.N,R.col2*
X250690500Y-107252500D03*
G04 #@! TO.P,SW36,2,2_2*
G04 #@! TO.N,Net-(D36-A)*
X244340500Y-109792500D03*
G04 #@! TD*
G04 #@! TO.P,SW45,1,1_1*
G04 #@! TO.N,R.col4*
X288790500Y-131065000D03*
G04 #@! TO.P,SW45,2,2_2*
G04 #@! TO.N,Net-(D45-A)*
X282440500Y-133605000D03*
G04 #@! TD*
G04 #@! TO.P,SW3,1,1_1*
G04 #@! TO.N,/left/col1*
X46302500Y-135827500D03*
G04 #@! TO.P,SW3,2,2_2*
G04 #@! TO.N,Net-(D3-A)*
X39952500Y-138367500D03*
G04 #@! TD*
G04 #@! TO.P,SW18,1,1_1*
G04 #@! TO.N,/left/col5*
X122502500Y-112015000D03*
G04 #@! TO.P,SW18,2,2_2*
G04 #@! TO.N,Net-(D18-A)*
X116152500Y-114555000D03*
G04 #@! TD*
G04 #@! TO.P,SW16,1,1_1*
G04 #@! TO.N,/left/col4*
X103505000Y-145352500D03*
G04 #@! TO.P,SW16,2,2_2*
G04 #@! TO.N,Net-(D16-A)*
X97155000Y-147892500D03*
G04 #@! TD*
G04 #@! TO.P,SW15,1,1_1*
G04 #@! TO.N,/left/col4*
X103505000Y-126365000D03*
G04 #@! TO.P,SW15,2,2_2*
G04 #@! TO.N,Net-(D15-A)*
X97155000Y-128905000D03*
G04 #@! TD*
G04 #@! TO.P,SW31,1,1_1*
G04 #@! TO.N,R.col1*
X231640500Y-92965000D03*
G04 #@! TO.P,SW31,2,2_2*
G04 #@! TO.N,Net-(D31-A)*
X225290500Y-95505000D03*
G04 #@! TD*
G04 #@! TO.P,SW32,1,1_1*
G04 #@! TO.N,R.col1*
X231640500Y-112015000D03*
G04 #@! TO.P,SW32,2,2_2*
G04 #@! TO.N,Net-(D32-A)*
X225290500Y-114555000D03*
G04 #@! TD*
G04 #@! TO.P,SW40,1,1_1*
G04 #@! TO.N,R.col3*
X269740500Y-107252500D03*
G04 #@! TO.P,SW40,2,2_2*
G04 #@! TO.N,Net-(D40-A)*
X263390500Y-109792500D03*
G04 #@! TD*
G04 #@! TO.P,SW46,1,1_1*
G04 #@! TO.N,R.col4*
X288790500Y-150115000D03*
G04 #@! TO.P,SW46,2,2_2*
G04 #@! TO.N,Net-(D46-A)*
X282440500Y-152655000D03*
G04 #@! TD*
G04 #@! TO.P,SW20,1,1_1*
G04 #@! TO.N,/left/col5*
X122502500Y-150115000D03*
G04 #@! TO.P,SW20,2,2_2*
G04 #@! TO.N,Net-(D20-A)*
X116152500Y-152655000D03*
G04 #@! TD*
G04 #@! TO.P,SW10,1,1_1*
G04 #@! TO.N,/left/col3*
X84455000Y-107252500D03*
G04 #@! TO.P,SW10,2,2_2*
G04 #@! TO.N,Net-(D10-A)*
X78105000Y-109792500D03*
G04 #@! TD*
G04 #@! TO.P,SW29,1,1_1*
G04 #@! TO.N,R.col0*
X212590500Y-135827500D03*
G04 #@! TO.P,SW29,2,2_2*
G04 #@! TO.N,Net-(D29-A)*
X206240500Y-138367500D03*
G04 #@! TD*
G04 #@! TO.P,SW2,1,1_1*
G04 #@! TO.N,/left/col1*
X46355000Y-116777500D03*
G04 #@! TO.P,SW2,2,2_2*
G04 #@! TO.N,Net-(D2-A)*
X40005000Y-119317500D03*
G04 #@! TD*
G04 #@! TO.P,SW26,1,1_1*
G04 #@! TO.N,/left/col6*
X141605000Y-183515000D03*
G04 #@! TO.P,SW26,2,2_2*
G04 #@! TO.N,Net-(D26-A)*
X135255000Y-186055000D03*
G04 #@! TD*
G04 #@! TO.P,SW43,1,1_1*
G04 #@! TO.N,R.col4*
X288790500Y-92965000D03*
G04 #@! TO.P,SW43,2,2_2*
G04 #@! TO.N,Net-(D43-A)*
X282440500Y-95505000D03*
G04 #@! TD*
G04 #@! TO.P,SW41,1,1_1*
G04 #@! TO.N,R.col3*
X269740500Y-126302500D03*
G04 #@! TO.P,SW41,2,2_2*
G04 #@! TO.N,Net-(D41-A)*
X263390500Y-128842500D03*
G04 #@! TD*
G04 #@! TO.P,SW17,1,1_1*
G04 #@! TO.N,/left/col5*
X122502500Y-92965000D03*
G04 #@! TO.P,SW17,2,2_2*
G04 #@! TO.N,Net-(D17-A)*
X116152500Y-95505000D03*
G04 #@! TD*
G04 #@! TO.P,SW23,1,1_1*
G04 #@! TO.N,/left/col6*
X141552500Y-116777500D03*
G04 #@! TO.P,SW23,2,2_2*
G04 #@! TO.N,Net-(D23-A)*
X135202500Y-119317500D03*
G04 #@! TD*
G04 #@! TO.P,SW48,1,1_1*
G04 #@! TO.N,R.col5*
X307840500Y-97727500D03*
G04 #@! TO.P,SW48,2,2_2*
G04 #@! TO.N,Net-(D48-A)*
X301490500Y-100267500D03*
G04 #@! TD*
G04 #@! TO.P,SW38,1,1_1*
G04 #@! TO.N,R.col2*
X250690500Y-145352500D03*
G04 #@! TO.P,SW38,2,2_2*
G04 #@! TO.N,Net-(D38-A)*
X244340500Y-147892500D03*
G04 #@! TD*
G04 #@! TO.P,SW42,1,1_1*
G04 #@! TO.N,R.col3*
X269740500Y-145352500D03*
G04 #@! TO.P,SW42,2,2_2*
G04 #@! TO.N,Net-(D42-A)*
X263390500Y-147892500D03*
G04 #@! TD*
G04 #@! TO.P,SW14,1,1_1*
G04 #@! TO.N,/left/col4*
X103452500Y-107252500D03*
G04 #@! TO.P,SW14,2,2_2*
G04 #@! TO.N,Net-(D14-A)*
X97102500Y-109792500D03*
G04 #@! TD*
G04 #@! TO.P,SW24,1,1_1*
G04 #@! TO.N,/left/col6*
X141552500Y-135827500D03*
G04 #@! TO.P,SW24,2,2_2*
G04 #@! TO.N,Net-(D24-A)*
X135202500Y-138367500D03*
G04 #@! TD*
G04 #@! TO.P,SW39,1,1_1*
G04 #@! TO.N,R.col3*
X269740500Y-88202500D03*
G04 #@! TO.P,SW39,2,2_2*
G04 #@! TO.N,Net-(D39-A)*
X263390500Y-90742500D03*
G04 #@! TD*
G04 #@! TO.P,SW25,1,1_1*
G04 #@! TO.N,/left/col6*
X141552500Y-154877500D03*
G04 #@! TO.P,SW25,2,2_2*
G04 #@! TO.N,Net-(D25-A)*
X135202500Y-157417500D03*
G04 #@! TD*
G04 #@! TO.P,SW11,1,1_1*
G04 #@! TO.N,/left/col3*
X84402500Y-126302500D03*
G04 #@! TO.P,SW11,2,2_2*
G04 #@! TO.N,Net-(D11-A)*
X78052500Y-128842500D03*
G04 #@! TD*
G04 #@! TO.P,SW7,1,1_1*
G04 #@! TO.N,/left/col2*
X65352500Y-131065000D03*
G04 #@! TO.P,SW7,2,2_2*
G04 #@! TO.N,Net-(D7-A)*
X59002500Y-133605000D03*
G04 #@! TD*
G04 #@! TO.P,SW33,1,1_1*
G04 #@! TO.N,R.col1*
X231640500Y-131065000D03*
G04 #@! TO.P,SW33,2,2_2*
G04 #@! TO.N,Net-(D33-A)*
X225290500Y-133605000D03*
G04 #@! TD*
G04 #@! TO.P,SW34,1,1_1*
G04 #@! TO.N,R.col1*
X231640500Y-150115000D03*
G04 #@! TO.P,SW34,2,2_2*
G04 #@! TO.N,Net-(D34-A)*
X225290500Y-152655000D03*
G04 #@! TD*
G04 #@! TO.P,SW51,1,1_1*
G04 #@! TO.N,R.col5*
X307840500Y-154877500D03*
G04 #@! TO.P,SW51,2,2_2*
G04 #@! TO.N,Net-(D51-A)*
X301490500Y-157417500D03*
G04 #@! TD*
G04 #@! TO.P,SW44,1,1_1*
G04 #@! TO.N,R.col4*
X288790500Y-112015000D03*
G04 #@! TO.P,SW44,2,2_2*
G04 #@! TO.N,Net-(D44-A)*
X282440500Y-114555000D03*
G04 #@! TD*
G04 #@! TO.P,SW50,1,1_1*
G04 #@! TO.N,R.col5*
X307840500Y-135827500D03*
G04 #@! TO.P,SW50,2,2_2*
G04 #@! TO.N,Net-(D50-A)*
X301490500Y-138367500D03*
G04 #@! TD*
G04 #@! TO.P,SW8,1,1_1*
G04 #@! TO.N,/left/col2*
X65405000Y-150177500D03*
G04 #@! TO.P,SW8,2,2_2*
G04 #@! TO.N,Net-(D8-A)*
X59055000Y-152717500D03*
G04 #@! TD*
G04 #@! TO.P,SW13,1,1_1*
G04 #@! TO.N,/left/col4*
X103452500Y-88202500D03*
G04 #@! TO.P,SW13,2,2_2*
G04 #@! TO.N,Net-(D13-A)*
X97102500Y-90742500D03*
G04 #@! TD*
G04 #@! TO.P,SW47,1,1_1*
G04 #@! TO.N,R.col0*
X212590500Y-183452500D03*
G04 #@! TO.P,SW47,2,2_2*
G04 #@! TO.N,Net-(D47-A)*
X206240500Y-185992500D03*
G04 #@! TD*
G04 #@! TO.P,SW1,1,1_1*
G04 #@! TO.N,/left/col1*
X46302500Y-97727500D03*
G04 #@! TO.P,SW1,2,2_2*
G04 #@! TO.N,Net-(D1-A)*
X39952500Y-100267500D03*
G04 #@! TD*
G04 #@! TO.P,SW5,1,1_1*
G04 #@! TO.N,/left/col2*
X65405000Y-92965000D03*
G04 #@! TO.P,SW5,2,2_2*
G04 #@! TO.N,Net-(D5-A)*
X59055000Y-95505000D03*
G04 #@! TD*
G04 #@! TO.P,SW52,1,1_1*
G04 #@! TO.N,R.col1*
X231640500Y-178690000D03*
G04 #@! TO.P,SW52,2,2_2*
G04 #@! TO.N,Net-(D52-A)*
X225290500Y-181230000D03*
G04 #@! TD*
G04 #@! TO.P,SW6,1,1_1*
G04 #@! TO.N,/left/col2*
X65405000Y-112015000D03*
G04 #@! TO.P,SW6,2,2_2*
G04 #@! TO.N,Net-(D6-A)*
X59055000Y-114555000D03*
G04 #@! TD*
G04 #@! TO.P,SW35,1,1_1*
G04 #@! TO.N,R.col2*
X250690500Y-88202500D03*
G04 #@! TO.P,SW35,2,2_2*
G04 #@! TO.N,Net-(D35-A)*
X244340500Y-90742500D03*
G04 #@! TD*
G04 #@! TO.P,SW21,1,1_1*
G04 #@! TO.N,/left/col5*
X122502500Y-178690000D03*
G04 #@! TO.P,SW21,2,2_2*
G04 #@! TO.N,Net-(D21-A)*
X116152500Y-181230000D03*
G04 #@! TD*
G04 #@! TO.P,SW37,1,1_1*
G04 #@! TO.N,R.col2*
X250690500Y-126302500D03*
G04 #@! TO.P,SW37,2,2_2*
G04 #@! TO.N,Net-(D37-A)*
X244340500Y-128842500D03*
G04 #@! TD*
G04 #@! TO.P,SW27,1,1_1*
G04 #@! TO.N,R.col0*
X212590500Y-97727500D03*
G04 #@! TO.P,SW27,2,2_2*
G04 #@! TO.N,Net-(D27-A)*
X206240500Y-100267500D03*
G04 #@! TD*
G04 #@! TO.P,SW22,1,1_1*
G04 #@! TO.N,/left/col6*
X141552500Y-97727500D03*
G04 #@! TO.P,SW22,2,2_2*
G04 #@! TO.N,Net-(D22-A)*
X135202500Y-100267500D03*
G04 #@! TD*
G04 #@! TO.P,SW30,1,1_1*
G04 #@! TO.N,R.col0*
X212590500Y-154877500D03*
G04 #@! TO.P,SW30,2,2_2*
G04 #@! TO.N,Net-(D30-A)*
X206240500Y-157417500D03*
G04 #@! TD*
G04 #@! TO.P,SW19,1,1_1*
G04 #@! TO.N,/left/col5*
X122502500Y-131065000D03*
G04 #@! TO.P,SW19,2,2_2*
G04 #@! TO.N,Net-(D19-A)*
X116152500Y-133605000D03*
G04 #@! TD*
G04 #@! TO.P,SW49,1,1_1*
G04 #@! TO.N,R.col5*
X307840500Y-116777500D03*
G04 #@! TO.P,SW49,2,2_2*
G04 #@! TO.N,Net-(D49-A)*
X301490500Y-119317500D03*
G04 #@! TD*
D18*
G04 #@! TO.N,R.col5*
X293600000Y-106000000D03*
X211500000Y-109400000D03*
G04 #@! TO.N,R.row4*
X181600000Y-108500000D03*
G04 #@! TO.N,R.row3*
X197600000Y-109900000D03*
G04 #@! TO.N,R.row2*
X200400000Y-105500000D03*
G04 #@! TO.N,R.row1*
X201300000Y-102400000D03*
G04 #@! TO.N,R.row0*
X201400000Y-97800000D03*
G04 #@! TO.N,VBAT*
X151000000Y-106000000D03*
G04 #@! TO.N,/left/col5*
X145600000Y-100300000D03*
X140100000Y-101400000D03*
G04 #@! TO.N,/left/row1*
X142200000Y-106500000D03*
G04 #@! TO.N,/left/row2*
X164300000Y-109800000D03*
G04 #@! TO.N,/left/row3*
X165500000Y-109900000D03*
G04 #@! TO.N,/left/row4*
X168000000Y-110000000D03*
G04 #@! TO.N,/left/row5*
X170000000Y-110000000D03*
G04 #@! TD*
G04 #@! TO.N,R.VBAT*
D10*
X185650000Y-109990000D02*
X185650000Y-98156000D01*
X185650000Y-98156000D02*
X185610000Y-98116000D01*
G04 #@! TO.N,R.col0*
X184098500Y-87997500D02*
X204913902Y-87997500D01*
X204913902Y-87997500D02*
X212590500Y-95674098D01*
X212590500Y-135827500D02*
X212590500Y-154877500D01*
X212590500Y-95674098D02*
X212590500Y-97727500D01*
X212590500Y-154877500D02*
X212590500Y-183452500D01*
X212590500Y-97727500D02*
X212590500Y-116777500D01*
X212590500Y-116777500D02*
X212590500Y-135827500D01*
X182000000Y-90096000D02*
X184098500Y-87997500D01*
G04 #@! TO.N,R.col1*
X231640500Y-150115000D02*
X231640500Y-178690000D01*
X182000000Y-92636000D02*
X180325000Y-90961000D01*
X221679598Y-87597500D02*
X227047098Y-92965000D01*
X227047098Y-92965000D02*
X231640500Y-92965000D01*
X231640500Y-112015000D02*
X231640500Y-131065000D01*
X231640500Y-112015000D02*
X231640500Y-92965000D01*
X231640500Y-150115000D02*
X231640500Y-131065000D01*
X180325000Y-89257358D02*
X181984858Y-87597500D01*
X181984858Y-87597500D02*
X221679598Y-87597500D01*
X180325000Y-90961000D02*
X180325000Y-89257358D01*
G04 #@! TO.N,R.col2*
X246097098Y-88202500D02*
X250690500Y-88202500D01*
X179925000Y-93101000D02*
X179925000Y-89091673D01*
X250690500Y-145352500D02*
X250690500Y-126302500D01*
X250690500Y-126302500D02*
X250690500Y-107252500D01*
X250690500Y-88202500D02*
X250690500Y-107252500D01*
X182000000Y-95176000D02*
X179925000Y-93101000D01*
X245092098Y-87197500D02*
X246097098Y-88202500D01*
X179925000Y-89091673D02*
X181819173Y-87197500D01*
X181819173Y-87197500D02*
X245092098Y-87197500D01*
G04 #@! TO.N,R.col3*
X182000000Y-97716000D02*
X179525000Y-95241000D01*
X242418088Y-83312500D02*
X260257098Y-83312500D01*
X238933088Y-86797500D02*
X242418088Y-83312500D01*
X181653488Y-86797500D02*
X238933088Y-86797500D01*
X269740500Y-107252500D02*
X269740500Y-126302500D01*
X269740500Y-145352500D02*
X269740500Y-126302500D01*
X179525000Y-95241000D02*
X179525000Y-88925987D01*
X179525000Y-88925987D02*
X181653488Y-86797500D01*
X260257098Y-83312500D02*
X265147098Y-88202500D01*
X269740500Y-88202500D02*
X269740500Y-107252500D01*
X265147098Y-88202500D02*
X269740500Y-88202500D01*
G04 #@! TO.N,R.col4*
X179125000Y-88760301D02*
X181487803Y-86397500D01*
X182000000Y-100256000D02*
X179125000Y-97381000D01*
X181487803Y-86397500D02*
X238767402Y-86397500D01*
X288790500Y-150115000D02*
X288790500Y-131065000D01*
X288790500Y-112015000D02*
X288790500Y-131065000D01*
X274120412Y-82912500D02*
X284172912Y-92965000D01*
X179125000Y-97381000D02*
X179125000Y-88760301D01*
X242252403Y-82912500D02*
X274120412Y-82912500D01*
X238767402Y-86397500D02*
X242252403Y-82912500D01*
X288790500Y-92965000D02*
X288790500Y-112015000D01*
X284172912Y-92965000D02*
X288790500Y-92965000D01*
G04 #@! TO.N,R.col5*
X183675000Y-104471000D02*
X183675000Y-109853478D01*
X307840500Y-116777500D02*
X307840500Y-135827500D01*
X182000000Y-102796000D02*
X183675000Y-104471000D01*
X209510000Y-111390000D02*
X211500000Y-109400000D01*
X183675000Y-109853478D02*
X185211522Y-111390000D01*
X293600000Y-106000000D02*
X295600000Y-104000000D01*
X185211522Y-111390000D02*
X209510000Y-111390000D01*
X295600000Y-104000000D02*
X295600000Y-98400000D01*
X296272500Y-97727500D02*
X307840500Y-97727500D01*
X307840500Y-116777500D02*
X307840500Y-97727500D01*
X307840500Y-135827500D02*
X307840500Y-154877500D01*
X295600000Y-98400000D02*
X296272500Y-97727500D01*
G04 #@! TO.N,R.row4*
X181600000Y-108500000D02*
X181600000Y-108100000D01*
X181600000Y-108100000D02*
X182000000Y-107700000D01*
X182000000Y-107700000D02*
X182000000Y-105336000D01*
G04 #@! TO.N,R.row3*
X198165000Y-109335000D02*
X198165000Y-105336000D01*
X197600000Y-109900000D02*
X198165000Y-109335000D01*
G04 #@! TO.N,R.row2*
X200096000Y-102796000D02*
X198165000Y-102796000D01*
X200400000Y-105500000D02*
X200400000Y-103100000D01*
X200400000Y-103100000D02*
X200096000Y-102796000D01*
G04 #@! TO.N,R.row1*
X201300000Y-102400000D02*
X201300000Y-101000000D01*
X201300000Y-101000000D02*
X200556000Y-100256000D01*
X200556000Y-100256000D02*
X198165000Y-100256000D01*
G04 #@! TO.N,R.row0*
X201316000Y-97716000D02*
X198165000Y-97716000D01*
X201400000Y-97800000D02*
X201316000Y-97716000D01*
G04 #@! TO.N,R.GND*
X188716000Y-94716000D02*
X185610000Y-94716000D01*
X193184000Y-94716000D02*
X188716000Y-94716000D01*
X195264000Y-92636000D02*
X193184000Y-94716000D01*
X189700000Y-95700000D02*
X188716000Y-94716000D01*
X189700000Y-110090000D02*
X189700000Y-95700000D01*
X198165000Y-92636000D02*
X195264000Y-92636000D01*
G04 #@! TO.N,VBAT*
X151000000Y-106000000D02*
X150680000Y-106320000D01*
X150680000Y-106320000D02*
X150680000Y-109880000D01*
G04 #@! TO.N,GND*
X164530000Y-92636000D02*
X162450000Y-94716000D01*
X153930000Y-110060000D02*
X162450000Y-101540000D01*
X162450000Y-101540000D02*
X162450000Y-94716000D01*
X162450000Y-94716000D02*
X151975000Y-94716000D01*
G04 #@! TO.N,/left/col1*
X71000000Y-87000000D02*
X58000000Y-87000000D01*
X58000000Y-87000000D02*
X47272500Y-97727500D01*
X47272500Y-97727500D02*
X46302500Y-97727500D01*
X76000000Y-82000000D02*
X71000000Y-87000000D01*
X109000000Y-85000000D02*
X106000000Y-82000000D01*
X46302500Y-135827500D02*
X46302500Y-154877500D01*
X46302500Y-116830000D02*
X46302500Y-135827500D01*
X46355000Y-116777500D02*
X46302500Y-116830000D01*
X46302500Y-116725000D02*
X46355000Y-116777500D01*
X106000000Y-82000000D02*
X76000000Y-82000000D01*
X46302500Y-97727500D02*
X46302500Y-116725000D01*
X148365000Y-90096000D02*
X130096000Y-90096000D01*
X125000000Y-85000000D02*
X109000000Y-85000000D01*
X130096000Y-90096000D02*
X125000000Y-85000000D01*
G04 #@! TO.N,/left/col2*
X145000000Y-92000000D02*
X145636000Y-92636000D01*
X69942412Y-92965000D02*
X80507412Y-82400000D01*
X108834314Y-85400000D02*
X124834314Y-85400000D01*
X145000000Y-91496000D02*
X145000000Y-92000000D01*
X65405000Y-92965000D02*
X69942412Y-92965000D01*
X145636000Y-92636000D02*
X148365000Y-92636000D01*
X65405000Y-150177500D02*
X65405000Y-131117500D01*
X65405000Y-131117500D02*
X65352500Y-131065000D01*
X105834314Y-82400000D02*
X108834314Y-85400000D01*
X129930314Y-90496000D02*
X144000000Y-90496000D01*
X80507412Y-82400000D02*
X105834314Y-82400000D01*
X65405000Y-92965000D02*
X65405000Y-112015000D01*
X148365000Y-92636000D02*
X147729000Y-92000000D01*
X65352500Y-112067500D02*
X65352500Y-131065000D01*
X65405000Y-112015000D02*
X65352500Y-112067500D01*
X124834314Y-85400000D02*
X129930314Y-90496000D01*
X144000000Y-90496000D02*
X145000000Y-91496000D01*
G04 #@! TO.N,/left/col3*
X84402500Y-124402500D02*
X84000000Y-124000000D01*
X84402500Y-126302500D02*
X84402500Y-124402500D01*
X145000000Y-95000000D02*
X145000000Y-94000000D01*
X90797500Y-88202500D02*
X84402500Y-88202500D01*
X84402500Y-107200000D02*
X84455000Y-107252500D01*
X84000000Y-122000000D02*
X84455000Y-121545000D01*
X145000000Y-94000000D02*
X143000000Y-92000000D01*
X126000000Y-89000000D02*
X124000000Y-87000000D01*
X84402500Y-88202500D02*
X84402500Y-107200000D01*
X128000000Y-92000000D02*
X126000000Y-90000000D01*
X126000000Y-90000000D02*
X126000000Y-89000000D01*
X104104912Y-83312500D02*
X94687500Y-83312500D01*
X94687500Y-83312500D02*
X92000000Y-86000000D01*
X92000000Y-86000000D02*
X92000000Y-87000000D01*
X124000000Y-87000000D02*
X107792412Y-87000000D01*
X107792412Y-87000000D02*
X104104912Y-83312500D01*
X92000000Y-87000000D02*
X90797500Y-88202500D01*
X84455000Y-107252500D02*
X84455000Y-121545000D01*
X145176000Y-95176000D02*
X145000000Y-95000000D01*
X148365000Y-95176000D02*
X145176000Y-95176000D01*
X143000000Y-92000000D02*
X128000000Y-92000000D01*
X84402500Y-145352500D02*
X84402500Y-126302500D01*
X84455000Y-107252500D02*
X84402500Y-107305000D01*
X84000000Y-124000000D02*
X84000000Y-122000000D01*
G04 #@! TO.N,/left/col4*
X103505000Y-107305000D02*
X103452500Y-107252500D01*
X144047500Y-96047500D02*
X144047500Y-94547500D01*
X126962500Y-92837500D02*
X125300000Y-91175000D01*
X103505000Y-145352500D02*
X103505000Y-126365000D01*
X138715902Y-92837500D02*
X126962500Y-92837500D01*
X103505000Y-126365000D02*
X103505000Y-107305000D01*
X125300000Y-89300000D02*
X124075000Y-88075000D01*
X148365000Y-97716000D02*
X145716000Y-97716000D01*
X139840902Y-93962500D02*
X138715902Y-92837500D01*
X124075000Y-88075000D02*
X103580000Y-88075000D01*
X145716000Y-97716000D02*
X144047500Y-96047500D01*
X125300000Y-91175000D02*
X125300000Y-89300000D01*
X144047500Y-94547500D02*
X143462500Y-93962500D01*
X143462500Y-93962500D02*
X139840902Y-93962500D01*
X103452500Y-107252500D02*
X103452500Y-88202500D01*
X103580000Y-88075000D02*
X103452500Y-88202500D01*
G04 #@! TO.N,/left/col5*
X122502500Y-150115000D02*
X122502500Y-178690000D01*
X122502500Y-92965000D02*
X127075000Y-97537500D01*
X145644000Y-100256000D02*
X148365000Y-100256000D01*
X145600000Y-100300000D02*
X145644000Y-100256000D01*
X122502500Y-92965000D02*
X122502500Y-112015000D01*
X122502500Y-131065000D02*
X122502500Y-150115000D01*
X136237500Y-97537500D02*
X140100000Y-101400000D01*
X122502500Y-112015000D02*
X122502500Y-131065000D01*
X127075000Y-97537500D02*
X136237500Y-97537500D01*
G04 #@! TO.N,/left/col6*
X141552500Y-116777500D02*
X141552500Y-135827500D01*
X141605000Y-183515000D02*
X141605000Y-154930000D01*
X146621000Y-102796000D02*
X148365000Y-102796000D01*
X141605000Y-154930000D02*
X141552500Y-154877500D01*
X141552500Y-116777500D02*
X141552500Y-97727500D01*
X141552500Y-135827500D02*
X141552500Y-154877500D01*
X141552500Y-97727500D02*
X146621000Y-102796000D01*
G04 #@! TO.N,/left/row1*
X143864000Y-105336000D02*
X148365000Y-105336000D01*
X142700000Y-106500000D02*
X143864000Y-105336000D01*
X142200000Y-106500000D02*
X142700000Y-106500000D01*
G04 #@! TO.N,/left/row2*
X164530000Y-109570000D02*
X164530000Y-105336000D01*
X164300000Y-109800000D02*
X164530000Y-109570000D01*
G04 #@! TO.N,/left/row3*
X166700000Y-108700000D02*
X166700000Y-102900000D01*
X166596000Y-102796000D02*
X164530000Y-102796000D01*
X165500000Y-109900000D02*
X166700000Y-108700000D01*
X166700000Y-102900000D02*
X166596000Y-102796000D01*
G04 #@! TO.N,/left/row4*
X168000000Y-110000000D02*
X168000000Y-102351000D01*
X165905000Y-100256000D02*
X164530000Y-100256000D01*
X168000000Y-102351000D02*
X165905000Y-100256000D01*
G04 #@! TO.N,/left/row5*
X170000000Y-103186000D02*
X164530000Y-97716000D01*
X170000000Y-110000000D02*
X170000000Y-103186000D01*
G04 #@! TD*
M02*
