%TF.GenerationSoftware,KiCad,Pcbnew,10.0.3*%
%TF.CreationDate,2026-07-27T11:37:26-06:00*%
%TF.ProjectId,splitKey,73706c69-744b-4657-992e-6b696361645f,rev?*%
%TF.SameCoordinates,Original*%
%TF.FileFunction,Drillmap*%
%TF.FilePolarity,Positive*%
%FSLAX45Y45*%
G04 Gerber Fmt 4.5, Leading zero omitted, Abs format (unit mm)*
G04 Created by KiCad (PCBNEW 10.0.3) date 2026-07-27 11:37:26*
%MOMM*%
%LPD*%
G01*
G04 APERTURE LIST*
%ADD10C,0.050000*%
%ADD11C,0.200000*%
%ADD12C,0.100000*%
%ADD13C,0.175000*%
%ADD14C,0.220000*%
%ADD15C,0.400000*%
G04 APERTURE END LIST*
D10*
X2788750Y-8566250D02*
X4217500Y-7137500D01*
X2788750Y-16662500D02*
X2788750Y-8566250D01*
X4217500Y-7137500D02*
X12790000Y-7137500D01*
X9456250Y-16662500D02*
X2788750Y-16662500D01*
X10885000Y-19520000D02*
X9456250Y-16662500D01*
X12790000Y-7137500D02*
X14218750Y-8566250D01*
X12790000Y-19520000D02*
X10885000Y-19520000D01*
X14218750Y-8566250D02*
X17076250Y-8566250D01*
X17076250Y-19520000D02*
X12790000Y-19520000D01*
X17076250Y-19520000D02*
X17080000Y-18349000D01*
X17077734Y-14123932D02*
G75*
G02*
X17582265Y-14121785I252266J932D01*
G01*
X17077883Y-13122627D02*
X17081000Y-10498000D01*
X17080000Y-17349000D02*
X17077813Y-14123932D01*
X17080000Y-18349000D02*
G75*
G02*
X17580000Y-18349000I250000J0D01*
G01*
X17081000Y-9498000D02*
X17076250Y-8566250D01*
X17081000Y-10498000D02*
G75*
G02*
X17581000Y-10498000I250000J0D01*
G01*
X17580000Y-17349000D02*
G75*
G02*
X17080000Y-17349000I-250000J0D01*
G01*
X17581000Y-9498296D02*
G75*
G02*
X17081000Y-9498000I-250000J296D01*
G01*
X17581000Y-9498296D02*
X17582250Y-8566250D01*
X17582118Y-13123088D02*
G75*
G02*
X17077883Y-13122627I-252118J88D01*
G01*
X17582118Y-13123088D02*
X17581000Y-10498000D01*
X17582250Y-19520000D02*
X17580000Y-18349000D01*
X17582250Y-19520000D02*
X21868500Y-19520000D01*
X17582265Y-14121785D02*
X17580000Y-17349000D01*
X20439750Y-8566250D02*
X17582250Y-8566250D01*
X21868500Y-7137500D02*
X20439750Y-8566250D01*
X21868500Y-19520000D02*
X23773500Y-19520000D01*
X23773500Y-19520000D02*
X25202250Y-16662500D01*
X25202250Y-16662500D02*
X31869750Y-16662500D01*
X30441000Y-7137500D02*
X21868500Y-7137500D01*
X31869750Y-8566250D02*
X30441000Y-7137500D01*
X31869750Y-16662500D02*
X31869750Y-8566250D01*
D11*
D12*
X17055000Y-13223000D02*
X17105000Y-13273000D01*
X17105000Y-13223000D02*
X17055000Y-13273000D01*
X17055000Y-13298000D02*
X17105000Y-13348000D01*
X17105000Y-13298000D02*
X17055000Y-13348000D01*
X17055000Y-13373000D02*
X17105000Y-13423000D01*
X17105000Y-13373000D02*
X17055000Y-13423000D01*
X17055000Y-13448000D02*
X17105000Y-13498000D01*
X17105000Y-13448000D02*
X17055000Y-13498000D01*
X17055000Y-13523000D02*
X17105000Y-13573000D01*
X17105000Y-13523000D02*
X17055000Y-13573000D01*
X17055000Y-13598000D02*
X17105000Y-13648000D01*
X17105000Y-13598000D02*
X17055000Y-13648000D01*
X17055000Y-13673000D02*
X17105000Y-13723000D01*
X17105000Y-13673000D02*
X17055000Y-13723000D01*
X17055000Y-13748000D02*
X17105000Y-13798000D01*
X17105000Y-13748000D02*
X17055000Y-13798000D01*
X17055000Y-13823000D02*
X17105000Y-13873000D01*
X17105000Y-13823000D02*
X17055000Y-13873000D01*
X17055000Y-13898000D02*
X17105000Y-13948000D01*
X17105000Y-13898000D02*
X17055000Y-13948000D01*
X17055000Y-13898000D02*
X17105000Y-13948000D01*
X17105000Y-13898000D02*
X17055000Y-13948000D01*
X17055000Y-13973000D02*
X17105000Y-14023000D01*
X17105000Y-13973000D02*
X17055000Y-14023000D01*
X17055000Y-17449000D02*
X17105000Y-17499000D01*
X17105000Y-17449000D02*
X17055000Y-17499000D01*
X17055000Y-17524000D02*
X17105000Y-17574000D01*
X17105000Y-17524000D02*
X17055000Y-17574000D01*
X17055000Y-17599000D02*
X17105000Y-17649000D01*
X17105000Y-17599000D02*
X17055000Y-17649000D01*
X17055000Y-17674000D02*
X17105000Y-17724000D01*
X17105000Y-17674000D02*
X17055000Y-17724000D01*
X17055000Y-17749000D02*
X17105000Y-17799000D01*
X17105000Y-17749000D02*
X17055000Y-17799000D01*
X17055000Y-17824000D02*
X17105000Y-17874000D01*
X17105000Y-17824000D02*
X17055000Y-17874000D01*
X17055000Y-17899000D02*
X17105000Y-17949000D01*
X17105000Y-17899000D02*
X17055000Y-17949000D01*
X17055000Y-17974000D02*
X17105000Y-18024000D01*
X17105000Y-17974000D02*
X17055000Y-18024000D01*
X17055000Y-18049000D02*
X17105000Y-18099000D01*
X17105000Y-18049000D02*
X17055000Y-18099000D01*
X17055000Y-18124000D02*
X17105000Y-18174000D01*
X17105000Y-18124000D02*
X17055000Y-18174000D01*
X17055000Y-18124000D02*
X17105000Y-18174000D01*
X17105000Y-18124000D02*
X17055000Y-18174000D01*
X17055000Y-18199000D02*
X17105000Y-18249000D01*
X17105000Y-18199000D02*
X17055000Y-18249000D01*
X17056000Y-9598000D02*
X17106000Y-9648000D01*
X17106000Y-9598000D02*
X17056000Y-9648000D01*
X17056000Y-9673000D02*
X17106000Y-9723000D01*
X17106000Y-9673000D02*
X17056000Y-9723000D01*
X17056000Y-9748000D02*
X17106000Y-9798000D01*
X17106000Y-9748000D02*
X17056000Y-9798000D01*
X17056000Y-9823000D02*
X17106000Y-9873000D01*
X17106000Y-9823000D02*
X17056000Y-9873000D01*
X17056000Y-9898000D02*
X17106000Y-9948000D01*
X17106000Y-9898000D02*
X17056000Y-9948000D01*
X17056000Y-9973000D02*
X17106000Y-10023000D01*
X17106000Y-9973000D02*
X17056000Y-10023000D01*
X17056000Y-10048000D02*
X17106000Y-10098000D01*
X17106000Y-10048000D02*
X17056000Y-10098000D01*
X17056000Y-10123000D02*
X17106000Y-10173000D01*
X17106000Y-10123000D02*
X17056000Y-10173000D01*
X17056000Y-10198000D02*
X17106000Y-10248000D01*
X17106000Y-10198000D02*
X17056000Y-10248000D01*
X17056000Y-10273000D02*
X17106000Y-10323000D01*
X17106000Y-10273000D02*
X17056000Y-10323000D01*
X17056000Y-10273000D02*
X17106000Y-10323000D01*
X17106000Y-10273000D02*
X17056000Y-10323000D01*
X17056000Y-10348000D02*
X17106000Y-10398000D01*
X17106000Y-10348000D02*
X17056000Y-10398000D01*
X17555000Y-13223000D02*
X17605000Y-13273000D01*
X17605000Y-13223000D02*
X17555000Y-13273000D01*
X17555000Y-13298000D02*
X17605000Y-13348000D01*
X17605000Y-13298000D02*
X17555000Y-13348000D01*
X17555000Y-13373000D02*
X17605000Y-13423000D01*
X17605000Y-13373000D02*
X17555000Y-13423000D01*
X17555000Y-13448000D02*
X17605000Y-13498000D01*
X17605000Y-13448000D02*
X17555000Y-13498000D01*
X17555000Y-13523000D02*
X17605000Y-13573000D01*
X17605000Y-13523000D02*
X17555000Y-13573000D01*
X17555000Y-13598000D02*
X17605000Y-13648000D01*
X17605000Y-13598000D02*
X17555000Y-13648000D01*
X17555000Y-13673000D02*
X17605000Y-13723000D01*
X17605000Y-13673000D02*
X17555000Y-13723000D01*
X17555000Y-13748000D02*
X17605000Y-13798000D01*
X17605000Y-13748000D02*
X17555000Y-13798000D01*
X17555000Y-13823000D02*
X17605000Y-13873000D01*
X17605000Y-13823000D02*
X17555000Y-13873000D01*
X17555000Y-13898000D02*
X17605000Y-13948000D01*
X17605000Y-13898000D02*
X17555000Y-13948000D01*
X17555000Y-13898000D02*
X17605000Y-13948000D01*
X17605000Y-13898000D02*
X17555000Y-13948000D01*
X17555000Y-13973000D02*
X17605000Y-14023000D01*
X17605000Y-13973000D02*
X17555000Y-14023000D01*
X17555000Y-17449000D02*
X17605000Y-17499000D01*
X17605000Y-17449000D02*
X17555000Y-17499000D01*
X17555000Y-17524000D02*
X17605000Y-17574000D01*
X17605000Y-17524000D02*
X17555000Y-17574000D01*
X17555000Y-17599000D02*
X17605000Y-17649000D01*
X17605000Y-17599000D02*
X17555000Y-17649000D01*
X17555000Y-17674000D02*
X17605000Y-17724000D01*
X17605000Y-17674000D02*
X17555000Y-17724000D01*
X17555000Y-17749000D02*
X17605000Y-17799000D01*
X17605000Y-17749000D02*
X17555000Y-17799000D01*
X17555000Y-17824000D02*
X17605000Y-17874000D01*
X17605000Y-17824000D02*
X17555000Y-17874000D01*
X17555000Y-17899000D02*
X17605000Y-17949000D01*
X17605000Y-17899000D02*
X17555000Y-17949000D01*
X17555000Y-17974000D02*
X17605000Y-18024000D01*
X17605000Y-17974000D02*
X17555000Y-18024000D01*
X17555000Y-18049000D02*
X17605000Y-18099000D01*
X17605000Y-18049000D02*
X17555000Y-18099000D01*
X17555000Y-18124000D02*
X17605000Y-18174000D01*
X17605000Y-18124000D02*
X17555000Y-18174000D01*
X17555000Y-18124000D02*
X17605000Y-18174000D01*
X17605000Y-18124000D02*
X17555000Y-18174000D01*
X17555000Y-18199000D02*
X17605000Y-18249000D01*
X17605000Y-18199000D02*
X17555000Y-18249000D01*
X17556000Y-9598000D02*
X17606000Y-9648000D01*
X17606000Y-9598000D02*
X17556000Y-9648000D01*
X17556000Y-9673000D02*
X17606000Y-9723000D01*
X17606000Y-9673000D02*
X17556000Y-9723000D01*
X17556000Y-9748000D02*
X17606000Y-9798000D01*
X17606000Y-9748000D02*
X17556000Y-9798000D01*
X17556000Y-9823000D02*
X17606000Y-9873000D01*
X17606000Y-9823000D02*
X17556000Y-9873000D01*
X17556000Y-9898000D02*
X17606000Y-9948000D01*
X17606000Y-9898000D02*
X17556000Y-9948000D01*
X17556000Y-9973000D02*
X17606000Y-10023000D01*
X17606000Y-9973000D02*
X17556000Y-10023000D01*
X17556000Y-10048000D02*
X17606000Y-10098000D01*
X17606000Y-10048000D02*
X17556000Y-10098000D01*
X17556000Y-10123000D02*
X17606000Y-10173000D01*
X17606000Y-10123000D02*
X17556000Y-10173000D01*
X17556000Y-10198000D02*
X17606000Y-10248000D01*
X17606000Y-10198000D02*
X17556000Y-10248000D01*
X17556000Y-10273000D02*
X17606000Y-10323000D01*
X17606000Y-10273000D02*
X17556000Y-10323000D01*
X17556000Y-10273000D02*
X17606000Y-10323000D01*
X17606000Y-10273000D02*
X17556000Y-10323000D01*
X17556000Y-10348000D02*
X17606000Y-10398000D01*
X17606000Y-10348000D02*
X17556000Y-10398000D01*
D13*
X3828750Y-9518750D02*
G75*
G02*
X3653750Y-9518750I-87500J0D01*
G01*
X3653750Y-9518750D02*
G75*
G02*
X3828750Y-9518750I87500J0D01*
G01*
X3828750Y-13328750D02*
G75*
G02*
X3653750Y-13328750I-87500J0D01*
G01*
X3653750Y-13328750D02*
G75*
G02*
X3828750Y-13328750I87500J0D01*
G01*
X3828750Y-15233750D02*
G75*
G02*
X3653750Y-15233750I-87500J0D01*
G01*
X3653750Y-15233750D02*
G75*
G02*
X3828750Y-15233750I87500J0D01*
G01*
X3834000Y-11423750D02*
G75*
G02*
X3659000Y-11423750I-87500J0D01*
G01*
X3659000Y-11423750D02*
G75*
G02*
X3834000Y-11423750I87500J0D01*
G01*
X4844750Y-9518750D02*
G75*
G02*
X4669750Y-9518750I-87500J0D01*
G01*
X4669750Y-9518750D02*
G75*
G02*
X4844750Y-9518750I87500J0D01*
G01*
X4844750Y-13328750D02*
G75*
G02*
X4669750Y-13328750I-87500J0D01*
G01*
X4669750Y-13328750D02*
G75*
G02*
X4844750Y-13328750I87500J0D01*
G01*
X4844750Y-15233750D02*
G75*
G02*
X4669750Y-15233750I-87500J0D01*
G01*
X4669750Y-15233750D02*
G75*
G02*
X4844750Y-15233750I87500J0D01*
G01*
X4850000Y-11423750D02*
G75*
G02*
X4675000Y-11423750I-87500J0D01*
G01*
X4675000Y-11423750D02*
G75*
G02*
X4850000Y-11423750I87500J0D01*
G01*
X5733750Y-12852500D02*
G75*
G02*
X5558750Y-12852500I-87500J0D01*
G01*
X5558750Y-12852500D02*
G75*
G02*
X5733750Y-12852500I87500J0D01*
G01*
X5739000Y-9042500D02*
G75*
G02*
X5564000Y-9042500I-87500J0D01*
G01*
X5564000Y-9042500D02*
G75*
G02*
X5739000Y-9042500I87500J0D01*
G01*
X5739000Y-10947500D02*
G75*
G02*
X5564000Y-10947500I-87500J0D01*
G01*
X5564000Y-10947500D02*
G75*
G02*
X5739000Y-10947500I87500J0D01*
G01*
X5739000Y-14763750D02*
G75*
G02*
X5564000Y-14763750I-87500J0D01*
G01*
X5564000Y-14763750D02*
G75*
G02*
X5739000Y-14763750I87500J0D01*
G01*
X6749750Y-12852500D02*
G75*
G02*
X6574750Y-12852500I-87500J0D01*
G01*
X6574750Y-12852500D02*
G75*
G02*
X6749750Y-12852500I87500J0D01*
G01*
X6755000Y-9042500D02*
G75*
G02*
X6580000Y-9042500I-87500J0D01*
G01*
X6580000Y-9042500D02*
G75*
G02*
X6755000Y-9042500I87500J0D01*
G01*
X6755000Y-10947500D02*
G75*
G02*
X6580000Y-10947500I-87500J0D01*
G01*
X6580000Y-10947500D02*
G75*
G02*
X6755000Y-10947500I87500J0D01*
G01*
X6755000Y-14763750D02*
G75*
G02*
X6580000Y-14763750I-87500J0D01*
G01*
X6580000Y-14763750D02*
G75*
G02*
X6755000Y-14763750I87500J0D01*
G01*
X7638750Y-8566250D02*
G75*
G02*
X7463750Y-8566250I-87500J0D01*
G01*
X7463750Y-8566250D02*
G75*
G02*
X7638750Y-8566250I87500J0D01*
G01*
X7638750Y-12376250D02*
G75*
G02*
X7463750Y-12376250I-87500J0D01*
G01*
X7463750Y-12376250D02*
G75*
G02*
X7638750Y-12376250I87500J0D01*
G01*
X7638750Y-14281250D02*
G75*
G02*
X7463750Y-14281250I-87500J0D01*
G01*
X7463750Y-14281250D02*
G75*
G02*
X7638750Y-14281250I87500J0D01*
G01*
X7644000Y-10471250D02*
G75*
G02*
X7469000Y-10471250I-87500J0D01*
G01*
X7469000Y-10471250D02*
G75*
G02*
X7644000Y-10471250I87500J0D01*
G01*
X8654750Y-8566250D02*
G75*
G02*
X8479750Y-8566250I-87500J0D01*
G01*
X8479750Y-8566250D02*
G75*
G02*
X8654750Y-8566250I87500J0D01*
G01*
X8654750Y-12376250D02*
G75*
G02*
X8479750Y-12376250I-87500J0D01*
G01*
X8479750Y-12376250D02*
G75*
G02*
X8654750Y-12376250I87500J0D01*
G01*
X8654750Y-14281250D02*
G75*
G02*
X8479750Y-14281250I-87500J0D01*
G01*
X8479750Y-14281250D02*
G75*
G02*
X8654750Y-14281250I87500J0D01*
G01*
X8660000Y-10471250D02*
G75*
G02*
X8485000Y-10471250I-87500J0D01*
G01*
X8485000Y-10471250D02*
G75*
G02*
X8660000Y-10471250I87500J0D01*
G01*
X9543750Y-8566250D02*
G75*
G02*
X9368750Y-8566250I-87500J0D01*
G01*
X9368750Y-8566250D02*
G75*
G02*
X9543750Y-8566250I87500J0D01*
G01*
X9543750Y-10471250D02*
G75*
G02*
X9368750Y-10471250I-87500J0D01*
G01*
X9368750Y-10471250D02*
G75*
G02*
X9543750Y-10471250I87500J0D01*
G01*
X9549000Y-12382500D02*
G75*
G02*
X9374000Y-12382500I-87500J0D01*
G01*
X9374000Y-12382500D02*
G75*
G02*
X9549000Y-12382500I87500J0D01*
G01*
X9549000Y-14281250D02*
G75*
G02*
X9374000Y-14281250I-87500J0D01*
G01*
X9374000Y-14281250D02*
G75*
G02*
X9549000Y-14281250I87500J0D01*
G01*
X10559750Y-8566250D02*
G75*
G02*
X10384750Y-8566250I-87500J0D01*
G01*
X10384750Y-8566250D02*
G75*
G02*
X10559750Y-8566250I87500J0D01*
G01*
X10559750Y-10471250D02*
G75*
G02*
X10384750Y-10471250I-87500J0D01*
G01*
X10384750Y-10471250D02*
G75*
G02*
X10559750Y-10471250I87500J0D01*
G01*
X10565000Y-12382500D02*
G75*
G02*
X10390000Y-12382500I-87500J0D01*
G01*
X10390000Y-12382500D02*
G75*
G02*
X10565000Y-12382500I87500J0D01*
G01*
X10565000Y-14281250D02*
G75*
G02*
X10390000Y-14281250I-87500J0D01*
G01*
X10390000Y-14281250D02*
G75*
G02*
X10565000Y-14281250I87500J0D01*
G01*
X11448750Y-9042500D02*
G75*
G02*
X11273750Y-9042500I-87500J0D01*
G01*
X11273750Y-9042500D02*
G75*
G02*
X11448750Y-9042500I87500J0D01*
G01*
X11448750Y-10947500D02*
G75*
G02*
X11273750Y-10947500I-87500J0D01*
G01*
X11273750Y-10947500D02*
G75*
G02*
X11448750Y-10947500I87500J0D01*
G01*
X11448750Y-12852500D02*
G75*
G02*
X11273750Y-12852500I-87500J0D01*
G01*
X11273750Y-12852500D02*
G75*
G02*
X11448750Y-12852500I87500J0D01*
G01*
X11448750Y-14757500D02*
G75*
G02*
X11273750Y-14757500I-87500J0D01*
G01*
X11273750Y-14757500D02*
G75*
G02*
X11448750Y-14757500I87500J0D01*
G01*
X11448750Y-17615000D02*
G75*
G02*
X11273750Y-17615000I-87500J0D01*
G01*
X11273750Y-17615000D02*
G75*
G02*
X11448750Y-17615000I87500J0D01*
G01*
X12464750Y-9042500D02*
G75*
G02*
X12289750Y-9042500I-87500J0D01*
G01*
X12289750Y-9042500D02*
G75*
G02*
X12464750Y-9042500I87500J0D01*
G01*
X12464750Y-10947500D02*
G75*
G02*
X12289750Y-10947500I-87500J0D01*
G01*
X12289750Y-10947500D02*
G75*
G02*
X12464750Y-10947500I87500J0D01*
G01*
X12464750Y-12852500D02*
G75*
G02*
X12289750Y-12852500I-87500J0D01*
G01*
X12289750Y-12852500D02*
G75*
G02*
X12464750Y-12852500I87500J0D01*
G01*
X12464750Y-14757500D02*
G75*
G02*
X12289750Y-14757500I-87500J0D01*
G01*
X12289750Y-14757500D02*
G75*
G02*
X12464750Y-14757500I87500J0D01*
G01*
X12464750Y-17615000D02*
G75*
G02*
X12289750Y-17615000I-87500J0D01*
G01*
X12289750Y-17615000D02*
G75*
G02*
X12464750Y-17615000I87500J0D01*
G01*
X13353750Y-9518750D02*
G75*
G02*
X13178750Y-9518750I-87500J0D01*
G01*
X13178750Y-9518750D02*
G75*
G02*
X13353750Y-9518750I87500J0D01*
G01*
X13353750Y-11423750D02*
G75*
G02*
X13178750Y-11423750I-87500J0D01*
G01*
X13178750Y-11423750D02*
G75*
G02*
X13353750Y-11423750I87500J0D01*
G01*
X13353750Y-13328750D02*
G75*
G02*
X13178750Y-13328750I-87500J0D01*
G01*
X13178750Y-13328750D02*
G75*
G02*
X13353750Y-13328750I87500J0D01*
G01*
X13353750Y-15233750D02*
G75*
G02*
X13178750Y-15233750I-87500J0D01*
G01*
X13178750Y-15233750D02*
G75*
G02*
X13353750Y-15233750I87500J0D01*
G01*
X13359000Y-18097500D02*
G75*
G02*
X13184000Y-18097500I-87500J0D01*
G01*
X13184000Y-18097500D02*
G75*
G02*
X13359000Y-18097500I87500J0D01*
G01*
X14369750Y-9518750D02*
G75*
G02*
X14194750Y-9518750I-87500J0D01*
G01*
X14194750Y-9518750D02*
G75*
G02*
X14369750Y-9518750I87500J0D01*
G01*
X14369750Y-11423750D02*
G75*
G02*
X14194750Y-11423750I-87500J0D01*
G01*
X14194750Y-11423750D02*
G75*
G02*
X14369750Y-11423750I87500J0D01*
G01*
X14369750Y-13328750D02*
G75*
G02*
X14194750Y-13328750I-87500J0D01*
G01*
X14194750Y-13328750D02*
G75*
G02*
X14369750Y-13328750I87500J0D01*
G01*
X14369750Y-15233750D02*
G75*
G02*
X14194750Y-15233750I-87500J0D01*
G01*
X14194750Y-15233750D02*
G75*
G02*
X14369750Y-15233750I87500J0D01*
G01*
X14375000Y-18097500D02*
G75*
G02*
X14200000Y-18097500I-87500J0D01*
G01*
X14200000Y-18097500D02*
G75*
G02*
X14375000Y-18097500I87500J0D01*
G01*
X20457550Y-9518750D02*
G75*
G02*
X20282550Y-9518750I-87500J0D01*
G01*
X20282550Y-9518750D02*
G75*
G02*
X20457550Y-9518750I87500J0D01*
G01*
X20457550Y-11423750D02*
G75*
G02*
X20282550Y-11423750I-87500J0D01*
G01*
X20282550Y-11423750D02*
G75*
G02*
X20457550Y-11423750I87500J0D01*
G01*
X20457550Y-13328750D02*
G75*
G02*
X20282550Y-13328750I-87500J0D01*
G01*
X20282550Y-13328750D02*
G75*
G02*
X20457550Y-13328750I87500J0D01*
G01*
X20457550Y-15233750D02*
G75*
G02*
X20282550Y-15233750I-87500J0D01*
G01*
X20282550Y-15233750D02*
G75*
G02*
X20457550Y-15233750I87500J0D01*
G01*
X20457550Y-18091250D02*
G75*
G02*
X20282550Y-18091250I-87500J0D01*
G01*
X20282550Y-18091250D02*
G75*
G02*
X20457550Y-18091250I87500J0D01*
G01*
X21473550Y-9518750D02*
G75*
G02*
X21298550Y-9518750I-87500J0D01*
G01*
X21298550Y-9518750D02*
G75*
G02*
X21473550Y-9518750I87500J0D01*
G01*
X21473550Y-11423750D02*
G75*
G02*
X21298550Y-11423750I-87500J0D01*
G01*
X21298550Y-11423750D02*
G75*
G02*
X21473550Y-11423750I87500J0D01*
G01*
X21473550Y-13328750D02*
G75*
G02*
X21298550Y-13328750I-87500J0D01*
G01*
X21298550Y-13328750D02*
G75*
G02*
X21473550Y-13328750I87500J0D01*
G01*
X21473550Y-15233750D02*
G75*
G02*
X21298550Y-15233750I-87500J0D01*
G01*
X21298550Y-15233750D02*
G75*
G02*
X21473550Y-15233750I87500J0D01*
G01*
X21473550Y-18091250D02*
G75*
G02*
X21298550Y-18091250I-87500J0D01*
G01*
X21298550Y-18091250D02*
G75*
G02*
X21473550Y-18091250I87500J0D01*
G01*
X22362550Y-9042500D02*
G75*
G02*
X22187550Y-9042500I-87500J0D01*
G01*
X22187550Y-9042500D02*
G75*
G02*
X22362550Y-9042500I87500J0D01*
G01*
X22362550Y-10947500D02*
G75*
G02*
X22187550Y-10947500I-87500J0D01*
G01*
X22187550Y-10947500D02*
G75*
G02*
X22362550Y-10947500I87500J0D01*
G01*
X22362550Y-12852500D02*
G75*
G02*
X22187550Y-12852500I-87500J0D01*
G01*
X22187550Y-12852500D02*
G75*
G02*
X22362550Y-12852500I87500J0D01*
G01*
X22362550Y-14757500D02*
G75*
G02*
X22187550Y-14757500I-87500J0D01*
G01*
X22187550Y-14757500D02*
G75*
G02*
X22362550Y-14757500I87500J0D01*
G01*
X22362550Y-17615000D02*
G75*
G02*
X22187550Y-17615000I-87500J0D01*
G01*
X22187550Y-17615000D02*
G75*
G02*
X22362550Y-17615000I87500J0D01*
G01*
X23378550Y-9042500D02*
G75*
G02*
X23203550Y-9042500I-87500J0D01*
G01*
X23203550Y-9042500D02*
G75*
G02*
X23378550Y-9042500I87500J0D01*
G01*
X23378550Y-10947500D02*
G75*
G02*
X23203550Y-10947500I-87500J0D01*
G01*
X23203550Y-10947500D02*
G75*
G02*
X23378550Y-10947500I87500J0D01*
G01*
X23378550Y-12852500D02*
G75*
G02*
X23203550Y-12852500I-87500J0D01*
G01*
X23203550Y-12852500D02*
G75*
G02*
X23378550Y-12852500I87500J0D01*
G01*
X23378550Y-14757500D02*
G75*
G02*
X23203550Y-14757500I-87500J0D01*
G01*
X23203550Y-14757500D02*
G75*
G02*
X23378550Y-14757500I87500J0D01*
G01*
X23378550Y-17615000D02*
G75*
G02*
X23203550Y-17615000I-87500J0D01*
G01*
X23203550Y-17615000D02*
G75*
G02*
X23378550Y-17615000I87500J0D01*
G01*
X24267550Y-8566250D02*
G75*
G02*
X24092550Y-8566250I-87500J0D01*
G01*
X24092550Y-8566250D02*
G75*
G02*
X24267550Y-8566250I87500J0D01*
G01*
X24267550Y-10471250D02*
G75*
G02*
X24092550Y-10471250I-87500J0D01*
G01*
X24092550Y-10471250D02*
G75*
G02*
X24267550Y-10471250I87500J0D01*
G01*
X24267550Y-12376250D02*
G75*
G02*
X24092550Y-12376250I-87500J0D01*
G01*
X24092550Y-12376250D02*
G75*
G02*
X24267550Y-12376250I87500J0D01*
G01*
X24267550Y-14281250D02*
G75*
G02*
X24092550Y-14281250I-87500J0D01*
G01*
X24092550Y-14281250D02*
G75*
G02*
X24267550Y-14281250I87500J0D01*
G01*
X25283550Y-8566250D02*
G75*
G02*
X25108550Y-8566250I-87500J0D01*
G01*
X25108550Y-8566250D02*
G75*
G02*
X25283550Y-8566250I87500J0D01*
G01*
X25283550Y-10471250D02*
G75*
G02*
X25108550Y-10471250I-87500J0D01*
G01*
X25108550Y-10471250D02*
G75*
G02*
X25283550Y-10471250I87500J0D01*
G01*
X25283550Y-12376250D02*
G75*
G02*
X25108550Y-12376250I-87500J0D01*
G01*
X25108550Y-12376250D02*
G75*
G02*
X25283550Y-12376250I87500J0D01*
G01*
X25283550Y-14281250D02*
G75*
G02*
X25108550Y-14281250I-87500J0D01*
G01*
X25108550Y-14281250D02*
G75*
G02*
X25283550Y-14281250I87500J0D01*
G01*
X26172550Y-8566250D02*
G75*
G02*
X25997550Y-8566250I-87500J0D01*
G01*
X25997550Y-8566250D02*
G75*
G02*
X26172550Y-8566250I87500J0D01*
G01*
X26172550Y-10471250D02*
G75*
G02*
X25997550Y-10471250I-87500J0D01*
G01*
X25997550Y-10471250D02*
G75*
G02*
X26172550Y-10471250I87500J0D01*
G01*
X26172550Y-12376250D02*
G75*
G02*
X25997550Y-12376250I-87500J0D01*
G01*
X25997550Y-12376250D02*
G75*
G02*
X26172550Y-12376250I87500J0D01*
G01*
X26172550Y-14281250D02*
G75*
G02*
X25997550Y-14281250I-87500J0D01*
G01*
X25997550Y-14281250D02*
G75*
G02*
X26172550Y-14281250I87500J0D01*
G01*
X27188550Y-8566250D02*
G75*
G02*
X27013550Y-8566250I-87500J0D01*
G01*
X27013550Y-8566250D02*
G75*
G02*
X27188550Y-8566250I87500J0D01*
G01*
X27188550Y-10471250D02*
G75*
G02*
X27013550Y-10471250I-87500J0D01*
G01*
X27013550Y-10471250D02*
G75*
G02*
X27188550Y-10471250I87500J0D01*
G01*
X27188550Y-12376250D02*
G75*
G02*
X27013550Y-12376250I-87500J0D01*
G01*
X27013550Y-12376250D02*
G75*
G02*
X27188550Y-12376250I87500J0D01*
G01*
X27188550Y-14281250D02*
G75*
G02*
X27013550Y-14281250I-87500J0D01*
G01*
X27013550Y-14281250D02*
G75*
G02*
X27188550Y-14281250I87500J0D01*
G01*
X28077550Y-9042500D02*
G75*
G02*
X27902550Y-9042500I-87500J0D01*
G01*
X27902550Y-9042500D02*
G75*
G02*
X28077550Y-9042500I87500J0D01*
G01*
X28077550Y-10947500D02*
G75*
G02*
X27902550Y-10947500I-87500J0D01*
G01*
X27902550Y-10947500D02*
G75*
G02*
X28077550Y-10947500I87500J0D01*
G01*
X28077550Y-12852500D02*
G75*
G02*
X27902550Y-12852500I-87500J0D01*
G01*
X27902550Y-12852500D02*
G75*
G02*
X28077550Y-12852500I87500J0D01*
G01*
X28077550Y-14757500D02*
G75*
G02*
X27902550Y-14757500I-87500J0D01*
G01*
X27902550Y-14757500D02*
G75*
G02*
X28077550Y-14757500I87500J0D01*
G01*
X29093550Y-9042500D02*
G75*
G02*
X28918550Y-9042500I-87500J0D01*
G01*
X28918550Y-9042500D02*
G75*
G02*
X29093550Y-9042500I87500J0D01*
G01*
X29093550Y-10947500D02*
G75*
G02*
X28918550Y-10947500I-87500J0D01*
G01*
X28918550Y-10947500D02*
G75*
G02*
X29093550Y-10947500I87500J0D01*
G01*
X29093550Y-12852500D02*
G75*
G02*
X28918550Y-12852500I-87500J0D01*
G01*
X28918550Y-12852500D02*
G75*
G02*
X29093550Y-12852500I87500J0D01*
G01*
X29093550Y-14757500D02*
G75*
G02*
X28918550Y-14757500I-87500J0D01*
G01*
X28918550Y-14757500D02*
G75*
G02*
X29093550Y-14757500I87500J0D01*
G01*
X29982550Y-9518750D02*
G75*
G02*
X29807550Y-9518750I-87500J0D01*
G01*
X29807550Y-9518750D02*
G75*
G02*
X29982550Y-9518750I87500J0D01*
G01*
X29982550Y-11423750D02*
G75*
G02*
X29807550Y-11423750I-87500J0D01*
G01*
X29807550Y-11423750D02*
G75*
G02*
X29982550Y-11423750I87500J0D01*
G01*
X29982550Y-13328750D02*
G75*
G02*
X29807550Y-13328750I-87500J0D01*
G01*
X29807550Y-13328750D02*
G75*
G02*
X29982550Y-13328750I87500J0D01*
G01*
X29982550Y-15233750D02*
G75*
G02*
X29807550Y-15233750I-87500J0D01*
G01*
X29807550Y-15233750D02*
G75*
G02*
X29982550Y-15233750I87500J0D01*
G01*
X30998550Y-9518750D02*
G75*
G02*
X30823550Y-9518750I-87500J0D01*
G01*
X30823550Y-9518750D02*
G75*
G02*
X30998550Y-9518750I87500J0D01*
G01*
X30998550Y-11423750D02*
G75*
G02*
X30823550Y-11423750I-87500J0D01*
G01*
X30823550Y-11423750D02*
G75*
G02*
X30998550Y-11423750I87500J0D01*
G01*
X30998550Y-13328750D02*
G75*
G02*
X30823550Y-13328750I-87500J0D01*
G01*
X30823550Y-13328750D02*
G75*
G02*
X30998550Y-13328750I87500J0D01*
G01*
X30998550Y-15233750D02*
G75*
G02*
X30823550Y-15233750I-87500J0D01*
G01*
X30823550Y-15233750D02*
G75*
G02*
X30998550Y-15233750I87500J0D01*
G01*
D14*
X4693750Y-7980000D02*
X4693750Y-8200000D01*
X4583750Y-8090000D02*
X4803750Y-8090000D01*
X5646250Y-16076250D02*
X5646250Y-16296250D01*
X5536250Y-16186250D02*
X5756250Y-16186250D01*
X10408750Y-15600000D02*
X10408750Y-15820000D01*
X10298750Y-15710000D02*
X10518750Y-15710000D01*
X11361250Y-7503750D02*
X11361250Y-7723750D01*
X11251250Y-7613750D02*
X11471250Y-7613750D01*
X16123750Y-18457500D02*
X16123750Y-18677500D01*
X16013750Y-18567500D02*
X16233750Y-18567500D01*
X16600000Y-11790000D02*
X16600000Y-12010000D01*
X16490000Y-11900000D02*
X16710000Y-11900000D01*
X18097500Y-11796250D02*
X18097500Y-12016250D01*
X17987500Y-11906250D02*
X18207500Y-11906250D01*
X18496800Y-18457500D02*
X18496800Y-18677500D01*
X18386800Y-18567500D02*
X18606800Y-18567500D01*
X23259300Y-7503750D02*
X23259300Y-7723750D01*
X23149300Y-7613750D02*
X23369300Y-7613750D01*
X24211800Y-15600000D02*
X24211800Y-15820000D01*
X24101800Y-15710000D02*
X24321800Y-15710000D01*
X28974300Y-16076250D02*
X28974300Y-16296250D01*
X28864300Y-16186250D02*
X29084300Y-16186250D01*
X29926800Y-7980000D02*
X29926800Y-8200000D01*
X29816800Y-8090000D02*
X30036800Y-8090000D01*
D15*
X4390673Y-9660173D02*
X4390673Y-9377327D01*
X4107827Y-9377327D01*
X4107827Y-9660173D01*
X4390673Y-9660173D01*
X4390673Y-13470173D02*
X4390673Y-13187327D01*
X4107827Y-13187327D01*
X4107827Y-13470173D01*
X4390673Y-13470173D01*
X4390673Y-15375173D02*
X4390673Y-15092327D01*
X4107827Y-15092327D01*
X4107827Y-15375173D01*
X4390673Y-15375173D01*
X4395923Y-11565173D02*
X4395923Y-11282327D01*
X4113077Y-11282327D01*
X4113077Y-11565173D01*
X4395923Y-11565173D01*
X6295673Y-12993923D02*
X6295673Y-12711077D01*
X6012827Y-12711077D01*
X6012827Y-12993923D01*
X6295673Y-12993923D01*
X6300923Y-9183923D02*
X6300923Y-8901077D01*
X6018077Y-8901077D01*
X6018077Y-9183923D01*
X6300923Y-9183923D01*
X6300923Y-11088923D02*
X6300923Y-10806077D01*
X6018077Y-10806077D01*
X6018077Y-11088923D01*
X6300923Y-11088923D01*
X6300923Y-14905173D02*
X6300923Y-14622327D01*
X6018077Y-14622327D01*
X6018077Y-14905173D01*
X6300923Y-14905173D01*
X8200673Y-8707673D02*
X8200673Y-8424827D01*
X7917827Y-8424827D01*
X7917827Y-8707673D01*
X8200673Y-8707673D01*
X8200673Y-12517673D02*
X8200673Y-12234827D01*
X7917827Y-12234827D01*
X7917827Y-12517673D01*
X8200673Y-12517673D01*
X8200673Y-14422673D02*
X8200673Y-14139827D01*
X7917827Y-14139827D01*
X7917827Y-14422673D01*
X8200673Y-14422673D01*
X8205923Y-10612673D02*
X8205923Y-10329827D01*
X7923077Y-10329827D01*
X7923077Y-10612673D01*
X8205923Y-10612673D01*
X10105673Y-8707673D02*
X10105673Y-8424827D01*
X9822827Y-8424827D01*
X9822827Y-8707673D01*
X10105673Y-8707673D01*
X10105673Y-10612673D02*
X10105673Y-10329827D01*
X9822827Y-10329827D01*
X9822827Y-10612673D01*
X10105673Y-10612673D01*
X10110923Y-12523923D02*
X10110923Y-12241077D01*
X9828077Y-12241077D01*
X9828077Y-12523923D01*
X10110923Y-12523923D01*
X10110923Y-14422673D02*
X10110923Y-14139827D01*
X9828077Y-14139827D01*
X9828077Y-14422673D01*
X10110923Y-14422673D01*
X12010673Y-9183923D02*
X12010673Y-8901077D01*
X11727827Y-8901077D01*
X11727827Y-9183923D01*
X12010673Y-9183923D01*
X12010673Y-11088923D02*
X12010673Y-10806077D01*
X11727827Y-10806077D01*
X11727827Y-11088923D01*
X12010673Y-11088923D01*
X12010673Y-12993923D02*
X12010673Y-12711077D01*
X11727827Y-12711077D01*
X11727827Y-12993923D01*
X12010673Y-12993923D01*
X12010673Y-14898923D02*
X12010673Y-14616077D01*
X11727827Y-14616077D01*
X11727827Y-14898923D01*
X12010673Y-14898923D01*
X12010673Y-17756423D02*
X12010673Y-17473577D01*
X11727827Y-17473577D01*
X11727827Y-17756423D01*
X12010673Y-17756423D01*
X13915673Y-9660173D02*
X13915673Y-9377327D01*
X13632827Y-9377327D01*
X13632827Y-9660173D01*
X13915673Y-9660173D01*
X13915673Y-11565173D02*
X13915673Y-11282327D01*
X13632827Y-11282327D01*
X13632827Y-11565173D01*
X13915673Y-11565173D01*
X13915673Y-13470173D02*
X13915673Y-13187327D01*
X13632827Y-13187327D01*
X13632827Y-13470173D01*
X13915673Y-13470173D01*
X13915673Y-15375173D02*
X13915673Y-15092327D01*
X13632827Y-15092327D01*
X13632827Y-15375173D01*
X13915673Y-15375173D01*
X13920923Y-18238923D02*
X13920923Y-17956077D01*
X13638077Y-17956077D01*
X13638077Y-18238923D01*
X13920923Y-18238923D01*
X21019473Y-9660173D02*
X21019473Y-9377327D01*
X20736627Y-9377327D01*
X20736627Y-9660173D01*
X21019473Y-9660173D01*
X21019473Y-11565173D02*
X21019473Y-11282327D01*
X20736627Y-11282327D01*
X20736627Y-11565173D01*
X21019473Y-11565173D01*
X21019473Y-13470173D02*
X21019473Y-13187327D01*
X20736627Y-13187327D01*
X20736627Y-13470173D01*
X21019473Y-13470173D01*
X21019473Y-15375173D02*
X21019473Y-15092327D01*
X20736627Y-15092327D01*
X20736627Y-15375173D01*
X21019473Y-15375173D01*
X21019473Y-18232673D02*
X21019473Y-17949827D01*
X20736627Y-17949827D01*
X20736627Y-18232673D01*
X21019473Y-18232673D01*
X22924473Y-9183923D02*
X22924473Y-8901077D01*
X22641627Y-8901077D01*
X22641627Y-9183923D01*
X22924473Y-9183923D01*
X22924473Y-11088923D02*
X22924473Y-10806077D01*
X22641627Y-10806077D01*
X22641627Y-11088923D01*
X22924473Y-11088923D01*
X22924473Y-12993923D02*
X22924473Y-12711077D01*
X22641627Y-12711077D01*
X22641627Y-12993923D01*
X22924473Y-12993923D01*
X22924473Y-14898923D02*
X22924473Y-14616077D01*
X22641627Y-14616077D01*
X22641627Y-14898923D01*
X22924473Y-14898923D01*
X22924473Y-17756423D02*
X22924473Y-17473577D01*
X22641627Y-17473577D01*
X22641627Y-17756423D01*
X22924473Y-17756423D01*
X24829473Y-8707673D02*
X24829473Y-8424827D01*
X24546627Y-8424827D01*
X24546627Y-8707673D01*
X24829473Y-8707673D01*
X24829473Y-10612673D02*
X24829473Y-10329827D01*
X24546627Y-10329827D01*
X24546627Y-10612673D01*
X24829473Y-10612673D01*
X24829473Y-12517673D02*
X24829473Y-12234827D01*
X24546627Y-12234827D01*
X24546627Y-12517673D01*
X24829473Y-12517673D01*
X24829473Y-14422673D02*
X24829473Y-14139827D01*
X24546627Y-14139827D01*
X24546627Y-14422673D01*
X24829473Y-14422673D01*
X26734473Y-8707673D02*
X26734473Y-8424827D01*
X26451627Y-8424827D01*
X26451627Y-8707673D01*
X26734473Y-8707673D01*
X26734473Y-10612673D02*
X26734473Y-10329827D01*
X26451627Y-10329827D01*
X26451627Y-10612673D01*
X26734473Y-10612673D01*
X26734473Y-12517673D02*
X26734473Y-12234827D01*
X26451627Y-12234827D01*
X26451627Y-12517673D01*
X26734473Y-12517673D01*
X26734473Y-14422673D02*
X26734473Y-14139827D01*
X26451627Y-14139827D01*
X26451627Y-14422673D01*
X26734473Y-14422673D01*
X28639473Y-9183923D02*
X28639473Y-8901077D01*
X28356627Y-8901077D01*
X28356627Y-9183923D01*
X28639473Y-9183923D01*
X28639473Y-11088923D02*
X28639473Y-10806077D01*
X28356627Y-10806077D01*
X28356627Y-11088923D01*
X28639473Y-11088923D01*
X28639473Y-12993923D02*
X28639473Y-12711077D01*
X28356627Y-12711077D01*
X28356627Y-12993923D01*
X28639473Y-12993923D01*
X28639473Y-14898923D02*
X28639473Y-14616077D01*
X28356627Y-14616077D01*
X28356627Y-14898923D01*
X28639473Y-14898923D01*
X30544473Y-9660173D02*
X30544473Y-9377327D01*
X30261627Y-9377327D01*
X30261627Y-9660173D01*
X30544473Y-9660173D01*
X30544473Y-11565173D02*
X30544473Y-11282327D01*
X30261627Y-11282327D01*
X30261627Y-11565173D01*
X30544473Y-11565173D01*
X30544473Y-13470173D02*
X30544473Y-13187327D01*
X30261627Y-13187327D01*
X30261627Y-13470173D01*
X30544473Y-13470173D01*
X30544473Y-15375173D02*
X30544473Y-15092327D01*
X30261627Y-15092327D01*
X30261627Y-15375173D01*
X30544473Y-15375173D01*
D11*
X3047027Y-19833984D02*
X3047027Y-19633984D01*
X3047027Y-19633984D02*
X3094646Y-19633984D01*
X3094646Y-19633984D02*
X3123217Y-19643508D01*
X3123217Y-19643508D02*
X3142265Y-19662555D01*
X3142265Y-19662555D02*
X3151789Y-19681603D01*
X3151789Y-19681603D02*
X3161312Y-19719698D01*
X3161312Y-19719698D02*
X3161312Y-19748270D01*
X3161312Y-19748270D02*
X3151789Y-19786365D01*
X3151789Y-19786365D02*
X3142265Y-19805412D01*
X3142265Y-19805412D02*
X3123217Y-19824460D01*
X3123217Y-19824460D02*
X3094646Y-19833984D01*
X3094646Y-19833984D02*
X3047027Y-19833984D01*
X3247027Y-19833984D02*
X3247027Y-19700650D01*
X3247027Y-19738746D02*
X3256551Y-19719698D01*
X3256551Y-19719698D02*
X3266074Y-19710174D01*
X3266074Y-19710174D02*
X3285122Y-19700650D01*
X3285122Y-19700650D02*
X3304170Y-19700650D01*
X3370836Y-19833984D02*
X3370836Y-19700650D01*
X3370836Y-19633984D02*
X3361312Y-19643508D01*
X3361312Y-19643508D02*
X3370836Y-19653031D01*
X3370836Y-19653031D02*
X3380360Y-19643508D01*
X3380360Y-19643508D02*
X3370836Y-19633984D01*
X3370836Y-19633984D02*
X3370836Y-19653031D01*
X3494646Y-19833984D02*
X3475598Y-19824460D01*
X3475598Y-19824460D02*
X3466074Y-19805412D01*
X3466074Y-19805412D02*
X3466074Y-19633984D01*
X3599408Y-19833984D02*
X3580360Y-19824460D01*
X3580360Y-19824460D02*
X3570836Y-19805412D01*
X3570836Y-19805412D02*
X3570836Y-19633984D01*
X3827979Y-19833984D02*
X3827979Y-19633984D01*
X3827979Y-19633984D02*
X3894646Y-19776841D01*
X3894646Y-19776841D02*
X3961312Y-19633984D01*
X3961312Y-19633984D02*
X3961312Y-19833984D01*
X4142265Y-19833984D02*
X4142265Y-19729222D01*
X4142265Y-19729222D02*
X4132741Y-19710174D01*
X4132741Y-19710174D02*
X4113693Y-19700650D01*
X4113693Y-19700650D02*
X4075598Y-19700650D01*
X4075598Y-19700650D02*
X4056551Y-19710174D01*
X4142265Y-19824460D02*
X4123217Y-19833984D01*
X4123217Y-19833984D02*
X4075598Y-19833984D01*
X4075598Y-19833984D02*
X4056551Y-19824460D01*
X4056551Y-19824460D02*
X4047027Y-19805412D01*
X4047027Y-19805412D02*
X4047027Y-19786365D01*
X4047027Y-19786365D02*
X4056551Y-19767317D01*
X4056551Y-19767317D02*
X4075598Y-19757793D01*
X4075598Y-19757793D02*
X4123217Y-19757793D01*
X4123217Y-19757793D02*
X4142265Y-19748270D01*
X4237503Y-19700650D02*
X4237503Y-19900650D01*
X4237503Y-19710174D02*
X4256551Y-19700650D01*
X4256551Y-19700650D02*
X4294646Y-19700650D01*
X4294646Y-19700650D02*
X4313694Y-19710174D01*
X4313694Y-19710174D02*
X4323217Y-19719698D01*
X4323217Y-19719698D02*
X4332741Y-19738746D01*
X4332741Y-19738746D02*
X4332741Y-19795889D01*
X4332741Y-19795889D02*
X4323217Y-19814936D01*
X4323217Y-19814936D02*
X4313694Y-19824460D01*
X4313694Y-19824460D02*
X4294646Y-19833984D01*
X4294646Y-19833984D02*
X4256551Y-19833984D01*
X4256551Y-19833984D02*
X4237503Y-19824460D01*
X4418455Y-19814936D02*
X4427979Y-19824460D01*
X4427979Y-19824460D02*
X4418455Y-19833984D01*
X4418455Y-19833984D02*
X4408932Y-19824460D01*
X4408932Y-19824460D02*
X4418455Y-19814936D01*
X4418455Y-19814936D02*
X4418455Y-19833984D01*
X4418455Y-19710174D02*
X4427979Y-19719698D01*
X4427979Y-19719698D02*
X4418455Y-19729222D01*
X4418455Y-19729222D02*
X4408932Y-19719698D01*
X4408932Y-19719698D02*
X4418455Y-19710174D01*
X4418455Y-19710174D02*
X4418455Y-19729222D01*
D12*
X2736250Y-20137500D02*
X2786250Y-20187500D01*
X2786250Y-20137500D02*
X2736250Y-20187500D01*
D11*
X3085122Y-20053984D02*
X3104170Y-20053984D01*
X3104170Y-20053984D02*
X3123217Y-20063508D01*
X3123217Y-20063508D02*
X3132741Y-20073031D01*
X3132741Y-20073031D02*
X3142265Y-20092079D01*
X3142265Y-20092079D02*
X3151789Y-20130174D01*
X3151789Y-20130174D02*
X3151789Y-20177793D01*
X3151789Y-20177793D02*
X3142265Y-20215889D01*
X3142265Y-20215889D02*
X3132741Y-20234936D01*
X3132741Y-20234936D02*
X3123217Y-20244460D01*
X3123217Y-20244460D02*
X3104170Y-20253984D01*
X3104170Y-20253984D02*
X3085122Y-20253984D01*
X3085122Y-20253984D02*
X3066074Y-20244460D01*
X3066074Y-20244460D02*
X3056551Y-20234936D01*
X3056551Y-20234936D02*
X3047027Y-20215889D01*
X3047027Y-20215889D02*
X3037503Y-20177793D01*
X3037503Y-20177793D02*
X3037503Y-20130174D01*
X3037503Y-20130174D02*
X3047027Y-20092079D01*
X3047027Y-20092079D02*
X3056551Y-20073031D01*
X3056551Y-20073031D02*
X3066074Y-20063508D01*
X3066074Y-20063508D02*
X3085122Y-20053984D01*
X3237503Y-20234936D02*
X3247027Y-20244460D01*
X3247027Y-20244460D02*
X3237503Y-20253984D01*
X3237503Y-20253984D02*
X3227979Y-20244460D01*
X3227979Y-20244460D02*
X3237503Y-20234936D01*
X3237503Y-20234936D02*
X3237503Y-20253984D01*
X3427979Y-20053984D02*
X3332741Y-20053984D01*
X3332741Y-20053984D02*
X3323217Y-20149222D01*
X3323217Y-20149222D02*
X3332741Y-20139698D01*
X3332741Y-20139698D02*
X3351789Y-20130174D01*
X3351789Y-20130174D02*
X3399408Y-20130174D01*
X3399408Y-20130174D02*
X3418455Y-20139698D01*
X3418455Y-20139698D02*
X3427979Y-20149222D01*
X3427979Y-20149222D02*
X3437503Y-20168270D01*
X3437503Y-20168270D02*
X3437503Y-20215889D01*
X3437503Y-20215889D02*
X3427979Y-20234936D01*
X3427979Y-20234936D02*
X3418455Y-20244460D01*
X3418455Y-20244460D02*
X3399408Y-20253984D01*
X3399408Y-20253984D02*
X3351789Y-20253984D01*
X3351789Y-20253984D02*
X3332741Y-20244460D01*
X3332741Y-20244460D02*
X3323217Y-20234936D01*
X3561312Y-20053984D02*
X3580360Y-20053984D01*
X3580360Y-20053984D02*
X3599408Y-20063508D01*
X3599408Y-20063508D02*
X3608932Y-20073031D01*
X3608932Y-20073031D02*
X3618455Y-20092079D01*
X3618455Y-20092079D02*
X3627979Y-20130174D01*
X3627979Y-20130174D02*
X3627979Y-20177793D01*
X3627979Y-20177793D02*
X3618455Y-20215889D01*
X3618455Y-20215889D02*
X3608932Y-20234936D01*
X3608932Y-20234936D02*
X3599408Y-20244460D01*
X3599408Y-20244460D02*
X3580360Y-20253984D01*
X3580360Y-20253984D02*
X3561312Y-20253984D01*
X3561312Y-20253984D02*
X3542265Y-20244460D01*
X3542265Y-20244460D02*
X3532741Y-20234936D01*
X3532741Y-20234936D02*
X3523217Y-20215889D01*
X3523217Y-20215889D02*
X3513693Y-20177793D01*
X3513693Y-20177793D02*
X3513693Y-20130174D01*
X3513693Y-20130174D02*
X3523217Y-20092079D01*
X3523217Y-20092079D02*
X3532741Y-20073031D01*
X3532741Y-20073031D02*
X3542265Y-20063508D01*
X3542265Y-20063508D02*
X3561312Y-20053984D01*
X3751789Y-20053984D02*
X3770836Y-20053984D01*
X3770836Y-20053984D02*
X3789884Y-20063508D01*
X3789884Y-20063508D02*
X3799408Y-20073031D01*
X3799408Y-20073031D02*
X3808932Y-20092079D01*
X3808932Y-20092079D02*
X3818455Y-20130174D01*
X3818455Y-20130174D02*
X3818455Y-20177793D01*
X3818455Y-20177793D02*
X3808932Y-20215889D01*
X3808932Y-20215889D02*
X3799408Y-20234936D01*
X3799408Y-20234936D02*
X3789884Y-20244460D01*
X3789884Y-20244460D02*
X3770836Y-20253984D01*
X3770836Y-20253984D02*
X3751789Y-20253984D01*
X3751789Y-20253984D02*
X3732741Y-20244460D01*
X3732741Y-20244460D02*
X3723217Y-20234936D01*
X3723217Y-20234936D02*
X3713693Y-20215889D01*
X3713693Y-20215889D02*
X3704170Y-20177793D01*
X3704170Y-20177793D02*
X3704170Y-20130174D01*
X3704170Y-20130174D02*
X3713693Y-20092079D01*
X3713693Y-20092079D02*
X3723217Y-20073031D01*
X3723217Y-20073031D02*
X3732741Y-20063508D01*
X3732741Y-20063508D02*
X3751789Y-20053984D01*
X3904170Y-20253984D02*
X3904170Y-20120650D01*
X3904170Y-20139698D02*
X3913693Y-20130174D01*
X3913693Y-20130174D02*
X3932741Y-20120650D01*
X3932741Y-20120650D02*
X3961313Y-20120650D01*
X3961313Y-20120650D02*
X3980360Y-20130174D01*
X3980360Y-20130174D02*
X3989884Y-20149222D01*
X3989884Y-20149222D02*
X3989884Y-20253984D01*
X3989884Y-20149222D02*
X3999408Y-20130174D01*
X3999408Y-20130174D02*
X4018455Y-20120650D01*
X4018455Y-20120650D02*
X4047027Y-20120650D01*
X4047027Y-20120650D02*
X4066074Y-20130174D01*
X4066074Y-20130174D02*
X4075598Y-20149222D01*
X4075598Y-20149222D02*
X4075598Y-20253984D01*
X4170836Y-20253984D02*
X4170836Y-20120650D01*
X4170836Y-20139698D02*
X4180360Y-20130174D01*
X4180360Y-20130174D02*
X4199408Y-20120650D01*
X4199408Y-20120650D02*
X4227979Y-20120650D01*
X4227979Y-20120650D02*
X4247027Y-20130174D01*
X4247027Y-20130174D02*
X4256551Y-20149222D01*
X4256551Y-20149222D02*
X4256551Y-20253984D01*
X4256551Y-20149222D02*
X4266075Y-20130174D01*
X4266075Y-20130174D02*
X4285122Y-20120650D01*
X4285122Y-20120650D02*
X4313694Y-20120650D01*
X4313694Y-20120650D02*
X4332741Y-20130174D01*
X4332741Y-20130174D02*
X4342265Y-20149222D01*
X4342265Y-20149222D02*
X4342265Y-20253984D01*
X4732741Y-20044460D02*
X4561313Y-20301603D01*
X4989884Y-20053984D02*
X5008932Y-20053984D01*
X5008932Y-20053984D02*
X5027979Y-20063508D01*
X5027979Y-20063508D02*
X5037503Y-20073031D01*
X5037503Y-20073031D02*
X5047027Y-20092079D01*
X5047027Y-20092079D02*
X5056551Y-20130174D01*
X5056551Y-20130174D02*
X5056551Y-20177793D01*
X5056551Y-20177793D02*
X5047027Y-20215889D01*
X5047027Y-20215889D02*
X5037503Y-20234936D01*
X5037503Y-20234936D02*
X5027979Y-20244460D01*
X5027979Y-20244460D02*
X5008932Y-20253984D01*
X5008932Y-20253984D02*
X4989884Y-20253984D01*
X4989884Y-20253984D02*
X4970837Y-20244460D01*
X4970837Y-20244460D02*
X4961313Y-20234936D01*
X4961313Y-20234936D02*
X4951789Y-20215889D01*
X4951789Y-20215889D02*
X4942265Y-20177793D01*
X4942265Y-20177793D02*
X4942265Y-20130174D01*
X4942265Y-20130174D02*
X4951789Y-20092079D01*
X4951789Y-20092079D02*
X4961313Y-20073031D01*
X4961313Y-20073031D02*
X4970837Y-20063508D01*
X4970837Y-20063508D02*
X4989884Y-20053984D01*
X5142265Y-20234936D02*
X5151789Y-20244460D01*
X5151789Y-20244460D02*
X5142265Y-20253984D01*
X5142265Y-20253984D02*
X5132741Y-20244460D01*
X5132741Y-20244460D02*
X5142265Y-20234936D01*
X5142265Y-20234936D02*
X5142265Y-20253984D01*
X5275598Y-20053984D02*
X5294646Y-20053984D01*
X5294646Y-20053984D02*
X5313694Y-20063508D01*
X5313694Y-20063508D02*
X5323218Y-20073031D01*
X5323218Y-20073031D02*
X5332741Y-20092079D01*
X5332741Y-20092079D02*
X5342265Y-20130174D01*
X5342265Y-20130174D02*
X5342265Y-20177793D01*
X5342265Y-20177793D02*
X5332741Y-20215889D01*
X5332741Y-20215889D02*
X5323218Y-20234936D01*
X5323218Y-20234936D02*
X5313694Y-20244460D01*
X5313694Y-20244460D02*
X5294646Y-20253984D01*
X5294646Y-20253984D02*
X5275598Y-20253984D01*
X5275598Y-20253984D02*
X5256551Y-20244460D01*
X5256551Y-20244460D02*
X5247027Y-20234936D01*
X5247027Y-20234936D02*
X5237503Y-20215889D01*
X5237503Y-20215889D02*
X5227979Y-20177793D01*
X5227979Y-20177793D02*
X5227979Y-20130174D01*
X5227979Y-20130174D02*
X5237503Y-20092079D01*
X5237503Y-20092079D02*
X5247027Y-20073031D01*
X5247027Y-20073031D02*
X5256551Y-20063508D01*
X5256551Y-20063508D02*
X5275598Y-20053984D01*
X5532741Y-20253984D02*
X5418456Y-20253984D01*
X5475598Y-20253984D02*
X5475598Y-20053984D01*
X5475598Y-20053984D02*
X5456551Y-20082555D01*
X5456551Y-20082555D02*
X5437503Y-20101603D01*
X5437503Y-20101603D02*
X5418456Y-20111127D01*
X5627979Y-20253984D02*
X5666075Y-20253984D01*
X5666075Y-20253984D02*
X5685122Y-20244460D01*
X5685122Y-20244460D02*
X5694646Y-20234936D01*
X5694646Y-20234936D02*
X5713694Y-20206365D01*
X5713694Y-20206365D02*
X5723217Y-20168270D01*
X5723217Y-20168270D02*
X5723217Y-20092079D01*
X5723217Y-20092079D02*
X5713694Y-20073031D01*
X5713694Y-20073031D02*
X5704170Y-20063508D01*
X5704170Y-20063508D02*
X5685122Y-20053984D01*
X5685122Y-20053984D02*
X5647027Y-20053984D01*
X5647027Y-20053984D02*
X5627979Y-20063508D01*
X5627979Y-20063508D02*
X5618456Y-20073031D01*
X5618456Y-20073031D02*
X5608932Y-20092079D01*
X5608932Y-20092079D02*
X5608932Y-20139698D01*
X5608932Y-20139698D02*
X5618456Y-20158746D01*
X5618456Y-20158746D02*
X5627979Y-20168270D01*
X5627979Y-20168270D02*
X5647027Y-20177793D01*
X5647027Y-20177793D02*
X5685122Y-20177793D01*
X5685122Y-20177793D02*
X5704170Y-20168270D01*
X5704170Y-20168270D02*
X5713694Y-20158746D01*
X5713694Y-20158746D02*
X5723217Y-20139698D01*
X5789884Y-20053984D02*
X5923217Y-20053984D01*
X5923217Y-20053984D02*
X5837503Y-20253984D01*
X5989884Y-20053984D02*
X5989884Y-20092079D01*
X6066075Y-20053984D02*
X6066075Y-20092079D01*
X6361313Y-20330174D02*
X6351789Y-20320650D01*
X6351789Y-20320650D02*
X6332741Y-20292079D01*
X6332741Y-20292079D02*
X6323218Y-20273031D01*
X6323218Y-20273031D02*
X6313694Y-20244460D01*
X6313694Y-20244460D02*
X6304170Y-20196841D01*
X6304170Y-20196841D02*
X6304170Y-20158746D01*
X6304170Y-20158746D02*
X6313694Y-20111127D01*
X6313694Y-20111127D02*
X6323218Y-20082555D01*
X6323218Y-20082555D02*
X6332741Y-20063508D01*
X6332741Y-20063508D02*
X6351789Y-20034936D01*
X6351789Y-20034936D02*
X6361313Y-20025412D01*
X6418456Y-20053984D02*
X6551789Y-20053984D01*
X6551789Y-20053984D02*
X6466075Y-20253984D01*
X6618456Y-20073031D02*
X6627979Y-20063508D01*
X6627979Y-20063508D02*
X6647027Y-20053984D01*
X6647027Y-20053984D02*
X6694646Y-20053984D01*
X6694646Y-20053984D02*
X6713694Y-20063508D01*
X6713694Y-20063508D02*
X6723218Y-20073031D01*
X6723218Y-20073031D02*
X6732741Y-20092079D01*
X6732741Y-20092079D02*
X6732741Y-20111127D01*
X6732741Y-20111127D02*
X6723218Y-20139698D01*
X6723218Y-20139698D02*
X6608932Y-20253984D01*
X6608932Y-20253984D02*
X6732741Y-20253984D01*
X6970837Y-20253984D02*
X6970837Y-20053984D01*
X7056551Y-20253984D02*
X7056551Y-20149222D01*
X7056551Y-20149222D02*
X7047027Y-20130174D01*
X7047027Y-20130174D02*
X7027980Y-20120650D01*
X7027980Y-20120650D02*
X6999408Y-20120650D01*
X6999408Y-20120650D02*
X6980360Y-20130174D01*
X6980360Y-20130174D02*
X6970837Y-20139698D01*
X7180360Y-20253984D02*
X7161313Y-20244460D01*
X7161313Y-20244460D02*
X7151789Y-20234936D01*
X7151789Y-20234936D02*
X7142265Y-20215889D01*
X7142265Y-20215889D02*
X7142265Y-20158746D01*
X7142265Y-20158746D02*
X7151789Y-20139698D01*
X7151789Y-20139698D02*
X7161313Y-20130174D01*
X7161313Y-20130174D02*
X7180360Y-20120650D01*
X7180360Y-20120650D02*
X7208932Y-20120650D01*
X7208932Y-20120650D02*
X7227980Y-20130174D01*
X7227980Y-20130174D02*
X7237503Y-20139698D01*
X7237503Y-20139698D02*
X7247027Y-20158746D01*
X7247027Y-20158746D02*
X7247027Y-20215889D01*
X7247027Y-20215889D02*
X7237503Y-20234936D01*
X7237503Y-20234936D02*
X7227980Y-20244460D01*
X7227980Y-20244460D02*
X7208932Y-20253984D01*
X7208932Y-20253984D02*
X7180360Y-20253984D01*
X7361313Y-20253984D02*
X7342265Y-20244460D01*
X7342265Y-20244460D02*
X7332741Y-20225412D01*
X7332741Y-20225412D02*
X7332741Y-20053984D01*
X7513694Y-20244460D02*
X7494646Y-20253984D01*
X7494646Y-20253984D02*
X7456551Y-20253984D01*
X7456551Y-20253984D02*
X7437503Y-20244460D01*
X7437503Y-20244460D02*
X7427980Y-20225412D01*
X7427980Y-20225412D02*
X7427980Y-20149222D01*
X7427980Y-20149222D02*
X7437503Y-20130174D01*
X7437503Y-20130174D02*
X7456551Y-20120650D01*
X7456551Y-20120650D02*
X7494646Y-20120650D01*
X7494646Y-20120650D02*
X7513694Y-20130174D01*
X7513694Y-20130174D02*
X7523218Y-20149222D01*
X7523218Y-20149222D02*
X7523218Y-20168270D01*
X7523218Y-20168270D02*
X7427980Y-20187317D01*
X7599408Y-20244460D02*
X7618456Y-20253984D01*
X7618456Y-20253984D02*
X7656551Y-20253984D01*
X7656551Y-20253984D02*
X7675599Y-20244460D01*
X7675599Y-20244460D02*
X7685122Y-20225412D01*
X7685122Y-20225412D02*
X7685122Y-20215889D01*
X7685122Y-20215889D02*
X7675599Y-20196841D01*
X7675599Y-20196841D02*
X7656551Y-20187317D01*
X7656551Y-20187317D02*
X7627980Y-20187317D01*
X7627980Y-20187317D02*
X7608932Y-20177793D01*
X7608932Y-20177793D02*
X7599408Y-20158746D01*
X7599408Y-20158746D02*
X7599408Y-20149222D01*
X7599408Y-20149222D02*
X7608932Y-20130174D01*
X7608932Y-20130174D02*
X7627980Y-20120650D01*
X7627980Y-20120650D02*
X7656551Y-20120650D01*
X7656551Y-20120650D02*
X7675599Y-20130174D01*
X7751789Y-20330174D02*
X7761313Y-20320650D01*
X7761313Y-20320650D02*
X7780361Y-20292079D01*
X7780361Y-20292079D02*
X7789884Y-20273031D01*
X7789884Y-20273031D02*
X7799408Y-20244460D01*
X7799408Y-20244460D02*
X7808932Y-20196841D01*
X7808932Y-20196841D02*
X7808932Y-20158746D01*
X7808932Y-20158746D02*
X7799408Y-20111127D01*
X7799408Y-20111127D02*
X7789884Y-20082555D01*
X7789884Y-20082555D02*
X7780361Y-20063508D01*
X7780361Y-20063508D02*
X7761313Y-20034936D01*
X7761313Y-20034936D02*
X7751789Y-20025412D01*
X8113694Y-20330174D02*
X8104170Y-20320650D01*
X8104170Y-20320650D02*
X8085122Y-20292079D01*
X8085122Y-20292079D02*
X8075599Y-20273031D01*
X8075599Y-20273031D02*
X8066075Y-20244460D01*
X8066075Y-20244460D02*
X8056551Y-20196841D01*
X8056551Y-20196841D02*
X8056551Y-20158746D01*
X8056551Y-20158746D02*
X8066075Y-20111127D01*
X8066075Y-20111127D02*
X8075599Y-20082555D01*
X8075599Y-20082555D02*
X8085122Y-20063508D01*
X8085122Y-20063508D02*
X8104170Y-20034936D01*
X8104170Y-20034936D02*
X8113694Y-20025412D01*
X8189884Y-20120650D02*
X8189884Y-20253984D01*
X8189884Y-20139698D02*
X8199408Y-20130174D01*
X8199408Y-20130174D02*
X8218456Y-20120650D01*
X8218456Y-20120650D02*
X8247027Y-20120650D01*
X8247027Y-20120650D02*
X8266075Y-20130174D01*
X8266075Y-20130174D02*
X8275599Y-20149222D01*
X8275599Y-20149222D02*
X8275599Y-20253984D01*
X8399408Y-20253984D02*
X8380361Y-20244460D01*
X8380361Y-20244460D02*
X8370837Y-20234936D01*
X8370837Y-20234936D02*
X8361313Y-20215889D01*
X8361313Y-20215889D02*
X8361313Y-20158746D01*
X8361313Y-20158746D02*
X8370837Y-20139698D01*
X8370837Y-20139698D02*
X8380361Y-20130174D01*
X8380361Y-20130174D02*
X8399408Y-20120650D01*
X8399408Y-20120650D02*
X8427980Y-20120650D01*
X8427980Y-20120650D02*
X8447027Y-20130174D01*
X8447027Y-20130174D02*
X8456551Y-20139698D01*
X8456551Y-20139698D02*
X8466075Y-20158746D01*
X8466075Y-20158746D02*
X8466075Y-20215889D01*
X8466075Y-20215889D02*
X8456551Y-20234936D01*
X8456551Y-20234936D02*
X8447027Y-20244460D01*
X8447027Y-20244460D02*
X8427980Y-20253984D01*
X8427980Y-20253984D02*
X8399408Y-20253984D01*
X8523218Y-20120650D02*
X8599408Y-20120650D01*
X8551789Y-20053984D02*
X8551789Y-20225412D01*
X8551789Y-20225412D02*
X8561313Y-20244460D01*
X8561313Y-20244460D02*
X8580361Y-20253984D01*
X8580361Y-20253984D02*
X8599408Y-20253984D01*
X8818456Y-20120650D02*
X8818456Y-20320650D01*
X8818456Y-20130174D02*
X8837504Y-20120650D01*
X8837504Y-20120650D02*
X8875599Y-20120650D01*
X8875599Y-20120650D02*
X8894646Y-20130174D01*
X8894646Y-20130174D02*
X8904170Y-20139698D01*
X8904170Y-20139698D02*
X8913694Y-20158746D01*
X8913694Y-20158746D02*
X8913694Y-20215889D01*
X8913694Y-20215889D02*
X8904170Y-20234936D01*
X8904170Y-20234936D02*
X8894646Y-20244460D01*
X8894646Y-20244460D02*
X8875599Y-20253984D01*
X8875599Y-20253984D02*
X8837504Y-20253984D01*
X8837504Y-20253984D02*
X8818456Y-20244460D01*
X9027980Y-20253984D02*
X9008932Y-20244460D01*
X9008932Y-20244460D02*
X8999408Y-20225412D01*
X8999408Y-20225412D02*
X8999408Y-20053984D01*
X9189885Y-20253984D02*
X9189885Y-20149222D01*
X9189885Y-20149222D02*
X9180361Y-20130174D01*
X9180361Y-20130174D02*
X9161313Y-20120650D01*
X9161313Y-20120650D02*
X9123218Y-20120650D01*
X9123218Y-20120650D02*
X9104170Y-20130174D01*
X9189885Y-20244460D02*
X9170837Y-20253984D01*
X9170837Y-20253984D02*
X9123218Y-20253984D01*
X9123218Y-20253984D02*
X9104170Y-20244460D01*
X9104170Y-20244460D02*
X9094646Y-20225412D01*
X9094646Y-20225412D02*
X9094646Y-20206365D01*
X9094646Y-20206365D02*
X9104170Y-20187317D01*
X9104170Y-20187317D02*
X9123218Y-20177793D01*
X9123218Y-20177793D02*
X9170837Y-20177793D01*
X9170837Y-20177793D02*
X9189885Y-20168270D01*
X9256551Y-20120650D02*
X9332742Y-20120650D01*
X9285123Y-20053984D02*
X9285123Y-20225412D01*
X9285123Y-20225412D02*
X9294646Y-20244460D01*
X9294646Y-20244460D02*
X9313694Y-20253984D01*
X9313694Y-20253984D02*
X9332742Y-20253984D01*
X9475599Y-20244460D02*
X9456551Y-20253984D01*
X9456551Y-20253984D02*
X9418456Y-20253984D01*
X9418456Y-20253984D02*
X9399408Y-20244460D01*
X9399408Y-20244460D02*
X9389885Y-20225412D01*
X9389885Y-20225412D02*
X9389885Y-20149222D01*
X9389885Y-20149222D02*
X9399408Y-20130174D01*
X9399408Y-20130174D02*
X9418456Y-20120650D01*
X9418456Y-20120650D02*
X9456551Y-20120650D01*
X9456551Y-20120650D02*
X9475599Y-20130174D01*
X9475599Y-20130174D02*
X9485123Y-20149222D01*
X9485123Y-20149222D02*
X9485123Y-20168270D01*
X9485123Y-20168270D02*
X9389885Y-20187317D01*
X9656551Y-20253984D02*
X9656551Y-20053984D01*
X9656551Y-20244460D02*
X9637504Y-20253984D01*
X9637504Y-20253984D02*
X9599408Y-20253984D01*
X9599408Y-20253984D02*
X9580361Y-20244460D01*
X9580361Y-20244460D02*
X9570837Y-20234936D01*
X9570837Y-20234936D02*
X9561313Y-20215889D01*
X9561313Y-20215889D02*
X9561313Y-20158746D01*
X9561313Y-20158746D02*
X9570837Y-20139698D01*
X9570837Y-20139698D02*
X9580361Y-20130174D01*
X9580361Y-20130174D02*
X9599408Y-20120650D01*
X9599408Y-20120650D02*
X9637504Y-20120650D01*
X9637504Y-20120650D02*
X9656551Y-20130174D01*
X9732742Y-20330174D02*
X9742266Y-20320650D01*
X9742266Y-20320650D02*
X9761313Y-20292079D01*
X9761313Y-20292079D02*
X9770837Y-20273031D01*
X9770837Y-20273031D02*
X9780361Y-20244460D01*
X9780361Y-20244460D02*
X9789885Y-20196841D01*
X9789885Y-20196841D02*
X9789885Y-20158746D01*
X9789885Y-20158746D02*
X9780361Y-20111127D01*
X9780361Y-20111127D02*
X9770837Y-20082555D01*
X9770837Y-20082555D02*
X9761313Y-20063508D01*
X9761313Y-20063508D02*
X9742266Y-20034936D01*
X9742266Y-20034936D02*
X9732742Y-20025412D01*
D13*
X2786250Y-20426500D02*
G75*
G02*
X2611250Y-20426500I-87500J0D01*
G01*
X2611250Y-20426500D02*
G75*
G02*
X2786250Y-20426500I87500J0D01*
G01*
D11*
X3151789Y-20517984D02*
X3037503Y-20517984D01*
X3094646Y-20517984D02*
X3094646Y-20317984D01*
X3094646Y-20317984D02*
X3075598Y-20346555D01*
X3075598Y-20346555D02*
X3056551Y-20365603D01*
X3056551Y-20365603D02*
X3037503Y-20375127D01*
X3237503Y-20498936D02*
X3247027Y-20508460D01*
X3247027Y-20508460D02*
X3237503Y-20517984D01*
X3237503Y-20517984D02*
X3227979Y-20508460D01*
X3227979Y-20508460D02*
X3237503Y-20498936D01*
X3237503Y-20498936D02*
X3237503Y-20517984D01*
X3313693Y-20317984D02*
X3447027Y-20317984D01*
X3447027Y-20317984D02*
X3361312Y-20517984D01*
X3618455Y-20317984D02*
X3523217Y-20317984D01*
X3523217Y-20317984D02*
X3513693Y-20413222D01*
X3513693Y-20413222D02*
X3523217Y-20403698D01*
X3523217Y-20403698D02*
X3542265Y-20394174D01*
X3542265Y-20394174D02*
X3589884Y-20394174D01*
X3589884Y-20394174D02*
X3608932Y-20403698D01*
X3608932Y-20403698D02*
X3618455Y-20413222D01*
X3618455Y-20413222D02*
X3627979Y-20432270D01*
X3627979Y-20432270D02*
X3627979Y-20479889D01*
X3627979Y-20479889D02*
X3618455Y-20498936D01*
X3618455Y-20498936D02*
X3608932Y-20508460D01*
X3608932Y-20508460D02*
X3589884Y-20517984D01*
X3589884Y-20517984D02*
X3542265Y-20517984D01*
X3542265Y-20517984D02*
X3523217Y-20508460D01*
X3523217Y-20508460D02*
X3513693Y-20498936D01*
X3751789Y-20317984D02*
X3770836Y-20317984D01*
X3770836Y-20317984D02*
X3789884Y-20327508D01*
X3789884Y-20327508D02*
X3799408Y-20337031D01*
X3799408Y-20337031D02*
X3808932Y-20356079D01*
X3808932Y-20356079D02*
X3818455Y-20394174D01*
X3818455Y-20394174D02*
X3818455Y-20441793D01*
X3818455Y-20441793D02*
X3808932Y-20479889D01*
X3808932Y-20479889D02*
X3799408Y-20498936D01*
X3799408Y-20498936D02*
X3789884Y-20508460D01*
X3789884Y-20508460D02*
X3770836Y-20517984D01*
X3770836Y-20517984D02*
X3751789Y-20517984D01*
X3751789Y-20517984D02*
X3732741Y-20508460D01*
X3732741Y-20508460D02*
X3723217Y-20498936D01*
X3723217Y-20498936D02*
X3713693Y-20479889D01*
X3713693Y-20479889D02*
X3704170Y-20441793D01*
X3704170Y-20441793D02*
X3704170Y-20394174D01*
X3704170Y-20394174D02*
X3713693Y-20356079D01*
X3713693Y-20356079D02*
X3723217Y-20337031D01*
X3723217Y-20337031D02*
X3732741Y-20327508D01*
X3732741Y-20327508D02*
X3751789Y-20317984D01*
X3904170Y-20517984D02*
X3904170Y-20384650D01*
X3904170Y-20403698D02*
X3913693Y-20394174D01*
X3913693Y-20394174D02*
X3932741Y-20384650D01*
X3932741Y-20384650D02*
X3961313Y-20384650D01*
X3961313Y-20384650D02*
X3980360Y-20394174D01*
X3980360Y-20394174D02*
X3989884Y-20413222D01*
X3989884Y-20413222D02*
X3989884Y-20517984D01*
X3989884Y-20413222D02*
X3999408Y-20394174D01*
X3999408Y-20394174D02*
X4018455Y-20384650D01*
X4018455Y-20384650D02*
X4047027Y-20384650D01*
X4047027Y-20384650D02*
X4066074Y-20394174D01*
X4066074Y-20394174D02*
X4075598Y-20413222D01*
X4075598Y-20413222D02*
X4075598Y-20517984D01*
X4170836Y-20517984D02*
X4170836Y-20384650D01*
X4170836Y-20403698D02*
X4180360Y-20394174D01*
X4180360Y-20394174D02*
X4199408Y-20384650D01*
X4199408Y-20384650D02*
X4227979Y-20384650D01*
X4227979Y-20384650D02*
X4247027Y-20394174D01*
X4247027Y-20394174D02*
X4256551Y-20413222D01*
X4256551Y-20413222D02*
X4256551Y-20517984D01*
X4256551Y-20413222D02*
X4266075Y-20394174D01*
X4266075Y-20394174D02*
X4285122Y-20384650D01*
X4285122Y-20384650D02*
X4313694Y-20384650D01*
X4313694Y-20384650D02*
X4332741Y-20394174D01*
X4332741Y-20394174D02*
X4342265Y-20413222D01*
X4342265Y-20413222D02*
X4342265Y-20517984D01*
X4732741Y-20308460D02*
X4561313Y-20565603D01*
X4989884Y-20317984D02*
X5008932Y-20317984D01*
X5008932Y-20317984D02*
X5027979Y-20327508D01*
X5027979Y-20327508D02*
X5037503Y-20337031D01*
X5037503Y-20337031D02*
X5047027Y-20356079D01*
X5047027Y-20356079D02*
X5056551Y-20394174D01*
X5056551Y-20394174D02*
X5056551Y-20441793D01*
X5056551Y-20441793D02*
X5047027Y-20479889D01*
X5047027Y-20479889D02*
X5037503Y-20498936D01*
X5037503Y-20498936D02*
X5027979Y-20508460D01*
X5027979Y-20508460D02*
X5008932Y-20517984D01*
X5008932Y-20517984D02*
X4989884Y-20517984D01*
X4989884Y-20517984D02*
X4970837Y-20508460D01*
X4970837Y-20508460D02*
X4961313Y-20498936D01*
X4961313Y-20498936D02*
X4951789Y-20479889D01*
X4951789Y-20479889D02*
X4942265Y-20441793D01*
X4942265Y-20441793D02*
X4942265Y-20394174D01*
X4942265Y-20394174D02*
X4951789Y-20356079D01*
X4951789Y-20356079D02*
X4961313Y-20337031D01*
X4961313Y-20337031D02*
X4970837Y-20327508D01*
X4970837Y-20327508D02*
X4989884Y-20317984D01*
X5142265Y-20498936D02*
X5151789Y-20508460D01*
X5151789Y-20508460D02*
X5142265Y-20517984D01*
X5142265Y-20517984D02*
X5132741Y-20508460D01*
X5132741Y-20508460D02*
X5142265Y-20498936D01*
X5142265Y-20498936D02*
X5142265Y-20517984D01*
X5275598Y-20317984D02*
X5294646Y-20317984D01*
X5294646Y-20317984D02*
X5313694Y-20327508D01*
X5313694Y-20327508D02*
X5323218Y-20337031D01*
X5323218Y-20337031D02*
X5332741Y-20356079D01*
X5332741Y-20356079D02*
X5342265Y-20394174D01*
X5342265Y-20394174D02*
X5342265Y-20441793D01*
X5342265Y-20441793D02*
X5332741Y-20479889D01*
X5332741Y-20479889D02*
X5323218Y-20498936D01*
X5323218Y-20498936D02*
X5313694Y-20508460D01*
X5313694Y-20508460D02*
X5294646Y-20517984D01*
X5294646Y-20517984D02*
X5275598Y-20517984D01*
X5275598Y-20517984D02*
X5256551Y-20508460D01*
X5256551Y-20508460D02*
X5247027Y-20498936D01*
X5247027Y-20498936D02*
X5237503Y-20479889D01*
X5237503Y-20479889D02*
X5227979Y-20441793D01*
X5227979Y-20441793D02*
X5227979Y-20394174D01*
X5227979Y-20394174D02*
X5237503Y-20356079D01*
X5237503Y-20356079D02*
X5247027Y-20337031D01*
X5247027Y-20337031D02*
X5256551Y-20327508D01*
X5256551Y-20327508D02*
X5275598Y-20317984D01*
X5513694Y-20317984D02*
X5475598Y-20317984D01*
X5475598Y-20317984D02*
X5456551Y-20327508D01*
X5456551Y-20327508D02*
X5447027Y-20337031D01*
X5447027Y-20337031D02*
X5427979Y-20365603D01*
X5427979Y-20365603D02*
X5418456Y-20403698D01*
X5418456Y-20403698D02*
X5418456Y-20479889D01*
X5418456Y-20479889D02*
X5427979Y-20498936D01*
X5427979Y-20498936D02*
X5437503Y-20508460D01*
X5437503Y-20508460D02*
X5456551Y-20517984D01*
X5456551Y-20517984D02*
X5494646Y-20517984D01*
X5494646Y-20517984D02*
X5513694Y-20508460D01*
X5513694Y-20508460D02*
X5523218Y-20498936D01*
X5523218Y-20498936D02*
X5532741Y-20479889D01*
X5532741Y-20479889D02*
X5532741Y-20432270D01*
X5532741Y-20432270D02*
X5523218Y-20413222D01*
X5523218Y-20413222D02*
X5513694Y-20403698D01*
X5513694Y-20403698D02*
X5494646Y-20394174D01*
X5494646Y-20394174D02*
X5456551Y-20394174D01*
X5456551Y-20394174D02*
X5437503Y-20403698D01*
X5437503Y-20403698D02*
X5427979Y-20413222D01*
X5427979Y-20413222D02*
X5418456Y-20432270D01*
X5647027Y-20403698D02*
X5627979Y-20394174D01*
X5627979Y-20394174D02*
X5618456Y-20384650D01*
X5618456Y-20384650D02*
X5608932Y-20365603D01*
X5608932Y-20365603D02*
X5608932Y-20356079D01*
X5608932Y-20356079D02*
X5618456Y-20337031D01*
X5618456Y-20337031D02*
X5627979Y-20327508D01*
X5627979Y-20327508D02*
X5647027Y-20317984D01*
X5647027Y-20317984D02*
X5685122Y-20317984D01*
X5685122Y-20317984D02*
X5704170Y-20327508D01*
X5704170Y-20327508D02*
X5713694Y-20337031D01*
X5713694Y-20337031D02*
X5723217Y-20356079D01*
X5723217Y-20356079D02*
X5723217Y-20365603D01*
X5723217Y-20365603D02*
X5713694Y-20384650D01*
X5713694Y-20384650D02*
X5704170Y-20394174D01*
X5704170Y-20394174D02*
X5685122Y-20403698D01*
X5685122Y-20403698D02*
X5647027Y-20403698D01*
X5647027Y-20403698D02*
X5627979Y-20413222D01*
X5627979Y-20413222D02*
X5618456Y-20422746D01*
X5618456Y-20422746D02*
X5608932Y-20441793D01*
X5608932Y-20441793D02*
X5608932Y-20479889D01*
X5608932Y-20479889D02*
X5618456Y-20498936D01*
X5618456Y-20498936D02*
X5627979Y-20508460D01*
X5627979Y-20508460D02*
X5647027Y-20517984D01*
X5647027Y-20517984D02*
X5685122Y-20517984D01*
X5685122Y-20517984D02*
X5704170Y-20508460D01*
X5704170Y-20508460D02*
X5713694Y-20498936D01*
X5713694Y-20498936D02*
X5723217Y-20479889D01*
X5723217Y-20479889D02*
X5723217Y-20441793D01*
X5723217Y-20441793D02*
X5713694Y-20422746D01*
X5713694Y-20422746D02*
X5704170Y-20413222D01*
X5704170Y-20413222D02*
X5685122Y-20403698D01*
X5818456Y-20517984D02*
X5856551Y-20517984D01*
X5856551Y-20517984D02*
X5875598Y-20508460D01*
X5875598Y-20508460D02*
X5885122Y-20498936D01*
X5885122Y-20498936D02*
X5904170Y-20470365D01*
X5904170Y-20470365D02*
X5913694Y-20432270D01*
X5913694Y-20432270D02*
X5913694Y-20356079D01*
X5913694Y-20356079D02*
X5904170Y-20337031D01*
X5904170Y-20337031D02*
X5894646Y-20327508D01*
X5894646Y-20327508D02*
X5875598Y-20317984D01*
X5875598Y-20317984D02*
X5837503Y-20317984D01*
X5837503Y-20317984D02*
X5818456Y-20327508D01*
X5818456Y-20327508D02*
X5808932Y-20337031D01*
X5808932Y-20337031D02*
X5799408Y-20356079D01*
X5799408Y-20356079D02*
X5799408Y-20403698D01*
X5799408Y-20403698D02*
X5808932Y-20422746D01*
X5808932Y-20422746D02*
X5818456Y-20432270D01*
X5818456Y-20432270D02*
X5837503Y-20441793D01*
X5837503Y-20441793D02*
X5875598Y-20441793D01*
X5875598Y-20441793D02*
X5894646Y-20432270D01*
X5894646Y-20432270D02*
X5904170Y-20422746D01*
X5904170Y-20422746D02*
X5913694Y-20403698D01*
X5989884Y-20317984D02*
X5989884Y-20356079D01*
X6066075Y-20317984D02*
X6066075Y-20356079D01*
X6361313Y-20594174D02*
X6351789Y-20584650D01*
X6351789Y-20584650D02*
X6332741Y-20556079D01*
X6332741Y-20556079D02*
X6323218Y-20537031D01*
X6323218Y-20537031D02*
X6313694Y-20508460D01*
X6313694Y-20508460D02*
X6304170Y-20460841D01*
X6304170Y-20460841D02*
X6304170Y-20422746D01*
X6304170Y-20422746D02*
X6313694Y-20375127D01*
X6313694Y-20375127D02*
X6323218Y-20346555D01*
X6323218Y-20346555D02*
X6332741Y-20327508D01*
X6332741Y-20327508D02*
X6351789Y-20298936D01*
X6351789Y-20298936D02*
X6361313Y-20289412D01*
X6542265Y-20517984D02*
X6427979Y-20517984D01*
X6485122Y-20517984D02*
X6485122Y-20317984D01*
X6485122Y-20317984D02*
X6466075Y-20346555D01*
X6466075Y-20346555D02*
X6447027Y-20365603D01*
X6447027Y-20365603D02*
X6427979Y-20375127D01*
X6666075Y-20317984D02*
X6685122Y-20317984D01*
X6685122Y-20317984D02*
X6704170Y-20327508D01*
X6704170Y-20327508D02*
X6713694Y-20337031D01*
X6713694Y-20337031D02*
X6723218Y-20356079D01*
X6723218Y-20356079D02*
X6732741Y-20394174D01*
X6732741Y-20394174D02*
X6732741Y-20441793D01*
X6732741Y-20441793D02*
X6723218Y-20479889D01*
X6723218Y-20479889D02*
X6713694Y-20498936D01*
X6713694Y-20498936D02*
X6704170Y-20508460D01*
X6704170Y-20508460D02*
X6685122Y-20517984D01*
X6685122Y-20517984D02*
X6666075Y-20517984D01*
X6666075Y-20517984D02*
X6647027Y-20508460D01*
X6647027Y-20508460D02*
X6637503Y-20498936D01*
X6637503Y-20498936D02*
X6627979Y-20479889D01*
X6627979Y-20479889D02*
X6618456Y-20441793D01*
X6618456Y-20441793D02*
X6618456Y-20394174D01*
X6618456Y-20394174D02*
X6627979Y-20356079D01*
X6627979Y-20356079D02*
X6637503Y-20337031D01*
X6637503Y-20337031D02*
X6647027Y-20327508D01*
X6647027Y-20327508D02*
X6666075Y-20317984D01*
X6904170Y-20384650D02*
X6904170Y-20517984D01*
X6856551Y-20308460D02*
X6808932Y-20451317D01*
X6808932Y-20451317D02*
X6932741Y-20451317D01*
X7161313Y-20517984D02*
X7161313Y-20317984D01*
X7247027Y-20517984D02*
X7247027Y-20413222D01*
X7247027Y-20413222D02*
X7237503Y-20394174D01*
X7237503Y-20394174D02*
X7218456Y-20384650D01*
X7218456Y-20384650D02*
X7189884Y-20384650D01*
X7189884Y-20384650D02*
X7170837Y-20394174D01*
X7170837Y-20394174D02*
X7161313Y-20403698D01*
X7370837Y-20517984D02*
X7351789Y-20508460D01*
X7351789Y-20508460D02*
X7342265Y-20498936D01*
X7342265Y-20498936D02*
X7332741Y-20479889D01*
X7332741Y-20479889D02*
X7332741Y-20422746D01*
X7332741Y-20422746D02*
X7342265Y-20403698D01*
X7342265Y-20403698D02*
X7351789Y-20394174D01*
X7351789Y-20394174D02*
X7370837Y-20384650D01*
X7370837Y-20384650D02*
X7399408Y-20384650D01*
X7399408Y-20384650D02*
X7418456Y-20394174D01*
X7418456Y-20394174D02*
X7427980Y-20403698D01*
X7427980Y-20403698D02*
X7437503Y-20422746D01*
X7437503Y-20422746D02*
X7437503Y-20479889D01*
X7437503Y-20479889D02*
X7427980Y-20498936D01*
X7427980Y-20498936D02*
X7418456Y-20508460D01*
X7418456Y-20508460D02*
X7399408Y-20517984D01*
X7399408Y-20517984D02*
X7370837Y-20517984D01*
X7551789Y-20517984D02*
X7532741Y-20508460D01*
X7532741Y-20508460D02*
X7523218Y-20489412D01*
X7523218Y-20489412D02*
X7523218Y-20317984D01*
X7704170Y-20508460D02*
X7685122Y-20517984D01*
X7685122Y-20517984D02*
X7647027Y-20517984D01*
X7647027Y-20517984D02*
X7627980Y-20508460D01*
X7627980Y-20508460D02*
X7618456Y-20489412D01*
X7618456Y-20489412D02*
X7618456Y-20413222D01*
X7618456Y-20413222D02*
X7627980Y-20394174D01*
X7627980Y-20394174D02*
X7647027Y-20384650D01*
X7647027Y-20384650D02*
X7685122Y-20384650D01*
X7685122Y-20384650D02*
X7704170Y-20394174D01*
X7704170Y-20394174D02*
X7713694Y-20413222D01*
X7713694Y-20413222D02*
X7713694Y-20432270D01*
X7713694Y-20432270D02*
X7618456Y-20451317D01*
X7789884Y-20508460D02*
X7808932Y-20517984D01*
X7808932Y-20517984D02*
X7847027Y-20517984D01*
X7847027Y-20517984D02*
X7866075Y-20508460D01*
X7866075Y-20508460D02*
X7875599Y-20489412D01*
X7875599Y-20489412D02*
X7875599Y-20479889D01*
X7875599Y-20479889D02*
X7866075Y-20460841D01*
X7866075Y-20460841D02*
X7847027Y-20451317D01*
X7847027Y-20451317D02*
X7818456Y-20451317D01*
X7818456Y-20451317D02*
X7799408Y-20441793D01*
X7799408Y-20441793D02*
X7789884Y-20422746D01*
X7789884Y-20422746D02*
X7789884Y-20413222D01*
X7789884Y-20413222D02*
X7799408Y-20394174D01*
X7799408Y-20394174D02*
X7818456Y-20384650D01*
X7818456Y-20384650D02*
X7847027Y-20384650D01*
X7847027Y-20384650D02*
X7866075Y-20394174D01*
X7942265Y-20594174D02*
X7951789Y-20584650D01*
X7951789Y-20584650D02*
X7970837Y-20556079D01*
X7970837Y-20556079D02*
X7980361Y-20537031D01*
X7980361Y-20537031D02*
X7989884Y-20508460D01*
X7989884Y-20508460D02*
X7999408Y-20460841D01*
X7999408Y-20460841D02*
X7999408Y-20422746D01*
X7999408Y-20422746D02*
X7989884Y-20375127D01*
X7989884Y-20375127D02*
X7980361Y-20346555D01*
X7980361Y-20346555D02*
X7970837Y-20327508D01*
X7970837Y-20327508D02*
X7951789Y-20298936D01*
X7951789Y-20298936D02*
X7942265Y-20289412D01*
X8304170Y-20594174D02*
X8294646Y-20584650D01*
X8294646Y-20584650D02*
X8275599Y-20556079D01*
X8275599Y-20556079D02*
X8266075Y-20537031D01*
X8266075Y-20537031D02*
X8256551Y-20508460D01*
X8256551Y-20508460D02*
X8247027Y-20460841D01*
X8247027Y-20460841D02*
X8247027Y-20422746D01*
X8247027Y-20422746D02*
X8256551Y-20375127D01*
X8256551Y-20375127D02*
X8266075Y-20346555D01*
X8266075Y-20346555D02*
X8275599Y-20327508D01*
X8275599Y-20327508D02*
X8294646Y-20298936D01*
X8294646Y-20298936D02*
X8304170Y-20289412D01*
X8380361Y-20384650D02*
X8380361Y-20517984D01*
X8380361Y-20403698D02*
X8389884Y-20394174D01*
X8389884Y-20394174D02*
X8408932Y-20384650D01*
X8408932Y-20384650D02*
X8437504Y-20384650D01*
X8437504Y-20384650D02*
X8456551Y-20394174D01*
X8456551Y-20394174D02*
X8466075Y-20413222D01*
X8466075Y-20413222D02*
X8466075Y-20517984D01*
X8589884Y-20517984D02*
X8570837Y-20508460D01*
X8570837Y-20508460D02*
X8561313Y-20498936D01*
X8561313Y-20498936D02*
X8551789Y-20479889D01*
X8551789Y-20479889D02*
X8551789Y-20422746D01*
X8551789Y-20422746D02*
X8561313Y-20403698D01*
X8561313Y-20403698D02*
X8570837Y-20394174D01*
X8570837Y-20394174D02*
X8589884Y-20384650D01*
X8589884Y-20384650D02*
X8618456Y-20384650D01*
X8618456Y-20384650D02*
X8637504Y-20394174D01*
X8637504Y-20394174D02*
X8647027Y-20403698D01*
X8647027Y-20403698D02*
X8656551Y-20422746D01*
X8656551Y-20422746D02*
X8656551Y-20479889D01*
X8656551Y-20479889D02*
X8647027Y-20498936D01*
X8647027Y-20498936D02*
X8637504Y-20508460D01*
X8637504Y-20508460D02*
X8618456Y-20517984D01*
X8618456Y-20517984D02*
X8589884Y-20517984D01*
X8713694Y-20384650D02*
X8789884Y-20384650D01*
X8742265Y-20317984D02*
X8742265Y-20489412D01*
X8742265Y-20489412D02*
X8751789Y-20508460D01*
X8751789Y-20508460D02*
X8770837Y-20517984D01*
X8770837Y-20517984D02*
X8789884Y-20517984D01*
X9008932Y-20384650D02*
X9008932Y-20584650D01*
X9008932Y-20394174D02*
X9027980Y-20384650D01*
X9027980Y-20384650D02*
X9066075Y-20384650D01*
X9066075Y-20384650D02*
X9085123Y-20394174D01*
X9085123Y-20394174D02*
X9094646Y-20403698D01*
X9094646Y-20403698D02*
X9104170Y-20422746D01*
X9104170Y-20422746D02*
X9104170Y-20479889D01*
X9104170Y-20479889D02*
X9094646Y-20498936D01*
X9094646Y-20498936D02*
X9085123Y-20508460D01*
X9085123Y-20508460D02*
X9066075Y-20517984D01*
X9066075Y-20517984D02*
X9027980Y-20517984D01*
X9027980Y-20517984D02*
X9008932Y-20508460D01*
X9218456Y-20517984D02*
X9199408Y-20508460D01*
X9199408Y-20508460D02*
X9189885Y-20489412D01*
X9189885Y-20489412D02*
X9189885Y-20317984D01*
X9380361Y-20517984D02*
X9380361Y-20413222D01*
X9380361Y-20413222D02*
X9370837Y-20394174D01*
X9370837Y-20394174D02*
X9351789Y-20384650D01*
X9351789Y-20384650D02*
X9313694Y-20384650D01*
X9313694Y-20384650D02*
X9294646Y-20394174D01*
X9380361Y-20508460D02*
X9361313Y-20517984D01*
X9361313Y-20517984D02*
X9313694Y-20517984D01*
X9313694Y-20517984D02*
X9294646Y-20508460D01*
X9294646Y-20508460D02*
X9285123Y-20489412D01*
X9285123Y-20489412D02*
X9285123Y-20470365D01*
X9285123Y-20470365D02*
X9294646Y-20451317D01*
X9294646Y-20451317D02*
X9313694Y-20441793D01*
X9313694Y-20441793D02*
X9361313Y-20441793D01*
X9361313Y-20441793D02*
X9380361Y-20432270D01*
X9447027Y-20384650D02*
X9523218Y-20384650D01*
X9475599Y-20317984D02*
X9475599Y-20489412D01*
X9475599Y-20489412D02*
X9485123Y-20508460D01*
X9485123Y-20508460D02*
X9504170Y-20517984D01*
X9504170Y-20517984D02*
X9523218Y-20517984D01*
X9666075Y-20508460D02*
X9647027Y-20517984D01*
X9647027Y-20517984D02*
X9608932Y-20517984D01*
X9608932Y-20517984D02*
X9589885Y-20508460D01*
X9589885Y-20508460D02*
X9580361Y-20489412D01*
X9580361Y-20489412D02*
X9580361Y-20413222D01*
X9580361Y-20413222D02*
X9589885Y-20394174D01*
X9589885Y-20394174D02*
X9608932Y-20384650D01*
X9608932Y-20384650D02*
X9647027Y-20384650D01*
X9647027Y-20384650D02*
X9666075Y-20394174D01*
X9666075Y-20394174D02*
X9675599Y-20413222D01*
X9675599Y-20413222D02*
X9675599Y-20432270D01*
X9675599Y-20432270D02*
X9580361Y-20451317D01*
X9847027Y-20517984D02*
X9847027Y-20317984D01*
X9847027Y-20508460D02*
X9827980Y-20517984D01*
X9827980Y-20517984D02*
X9789885Y-20517984D01*
X9789885Y-20517984D02*
X9770837Y-20508460D01*
X9770837Y-20508460D02*
X9761313Y-20498936D01*
X9761313Y-20498936D02*
X9751789Y-20479889D01*
X9751789Y-20479889D02*
X9751789Y-20422746D01*
X9751789Y-20422746D02*
X9761313Y-20403698D01*
X9761313Y-20403698D02*
X9770837Y-20394174D01*
X9770837Y-20394174D02*
X9789885Y-20384650D01*
X9789885Y-20384650D02*
X9827980Y-20384650D01*
X9827980Y-20384650D02*
X9847027Y-20394174D01*
X9923218Y-20594174D02*
X9932742Y-20584650D01*
X9932742Y-20584650D02*
X9951789Y-20556079D01*
X9951789Y-20556079D02*
X9961313Y-20537031D01*
X9961313Y-20537031D02*
X9970837Y-20508460D01*
X9970837Y-20508460D02*
X9980361Y-20460841D01*
X9980361Y-20460841D02*
X9980361Y-20422746D01*
X9980361Y-20422746D02*
X9970837Y-20375127D01*
X9970837Y-20375127D02*
X9961313Y-20346555D01*
X9961313Y-20346555D02*
X9951789Y-20327508D01*
X9951789Y-20327508D02*
X9932742Y-20298936D01*
X9932742Y-20298936D02*
X9923218Y-20289412D01*
X2686250Y-20621500D02*
X2686250Y-20821500D01*
X2586250Y-20721500D02*
X2786250Y-20721500D01*
X3037503Y-20632031D02*
X3047027Y-20622508D01*
X3047027Y-20622508D02*
X3066074Y-20612984D01*
X3066074Y-20612984D02*
X3113693Y-20612984D01*
X3113693Y-20612984D02*
X3132741Y-20622508D01*
X3132741Y-20622508D02*
X3142265Y-20632031D01*
X3142265Y-20632031D02*
X3151789Y-20651079D01*
X3151789Y-20651079D02*
X3151789Y-20670127D01*
X3151789Y-20670127D02*
X3142265Y-20698698D01*
X3142265Y-20698698D02*
X3027979Y-20812984D01*
X3027979Y-20812984D02*
X3151789Y-20812984D01*
X3237503Y-20793936D02*
X3247027Y-20803460D01*
X3247027Y-20803460D02*
X3237503Y-20812984D01*
X3237503Y-20812984D02*
X3227979Y-20803460D01*
X3227979Y-20803460D02*
X3237503Y-20793936D01*
X3237503Y-20793936D02*
X3237503Y-20812984D01*
X3323217Y-20632031D02*
X3332741Y-20622508D01*
X3332741Y-20622508D02*
X3351789Y-20612984D01*
X3351789Y-20612984D02*
X3399408Y-20612984D01*
X3399408Y-20612984D02*
X3418455Y-20622508D01*
X3418455Y-20622508D02*
X3427979Y-20632031D01*
X3427979Y-20632031D02*
X3437503Y-20651079D01*
X3437503Y-20651079D02*
X3437503Y-20670127D01*
X3437503Y-20670127D02*
X3427979Y-20698698D01*
X3427979Y-20698698D02*
X3313693Y-20812984D01*
X3313693Y-20812984D02*
X3437503Y-20812984D01*
X3561312Y-20612984D02*
X3580360Y-20612984D01*
X3580360Y-20612984D02*
X3599408Y-20622508D01*
X3599408Y-20622508D02*
X3608932Y-20632031D01*
X3608932Y-20632031D02*
X3618455Y-20651079D01*
X3618455Y-20651079D02*
X3627979Y-20689174D01*
X3627979Y-20689174D02*
X3627979Y-20736793D01*
X3627979Y-20736793D02*
X3618455Y-20774889D01*
X3618455Y-20774889D02*
X3608932Y-20793936D01*
X3608932Y-20793936D02*
X3599408Y-20803460D01*
X3599408Y-20803460D02*
X3580360Y-20812984D01*
X3580360Y-20812984D02*
X3561312Y-20812984D01*
X3561312Y-20812984D02*
X3542265Y-20803460D01*
X3542265Y-20803460D02*
X3532741Y-20793936D01*
X3532741Y-20793936D02*
X3523217Y-20774889D01*
X3523217Y-20774889D02*
X3513693Y-20736793D01*
X3513693Y-20736793D02*
X3513693Y-20689174D01*
X3513693Y-20689174D02*
X3523217Y-20651079D01*
X3523217Y-20651079D02*
X3532741Y-20632031D01*
X3532741Y-20632031D02*
X3542265Y-20622508D01*
X3542265Y-20622508D02*
X3561312Y-20612984D01*
X3751789Y-20612984D02*
X3770836Y-20612984D01*
X3770836Y-20612984D02*
X3789884Y-20622508D01*
X3789884Y-20622508D02*
X3799408Y-20632031D01*
X3799408Y-20632031D02*
X3808932Y-20651079D01*
X3808932Y-20651079D02*
X3818455Y-20689174D01*
X3818455Y-20689174D02*
X3818455Y-20736793D01*
X3818455Y-20736793D02*
X3808932Y-20774889D01*
X3808932Y-20774889D02*
X3799408Y-20793936D01*
X3799408Y-20793936D02*
X3789884Y-20803460D01*
X3789884Y-20803460D02*
X3770836Y-20812984D01*
X3770836Y-20812984D02*
X3751789Y-20812984D01*
X3751789Y-20812984D02*
X3732741Y-20803460D01*
X3732741Y-20803460D02*
X3723217Y-20793936D01*
X3723217Y-20793936D02*
X3713693Y-20774889D01*
X3713693Y-20774889D02*
X3704170Y-20736793D01*
X3704170Y-20736793D02*
X3704170Y-20689174D01*
X3704170Y-20689174D02*
X3713693Y-20651079D01*
X3713693Y-20651079D02*
X3723217Y-20632031D01*
X3723217Y-20632031D02*
X3732741Y-20622508D01*
X3732741Y-20622508D02*
X3751789Y-20612984D01*
X3904170Y-20812984D02*
X3904170Y-20679650D01*
X3904170Y-20698698D02*
X3913693Y-20689174D01*
X3913693Y-20689174D02*
X3932741Y-20679650D01*
X3932741Y-20679650D02*
X3961313Y-20679650D01*
X3961313Y-20679650D02*
X3980360Y-20689174D01*
X3980360Y-20689174D02*
X3989884Y-20708222D01*
X3989884Y-20708222D02*
X3989884Y-20812984D01*
X3989884Y-20708222D02*
X3999408Y-20689174D01*
X3999408Y-20689174D02*
X4018455Y-20679650D01*
X4018455Y-20679650D02*
X4047027Y-20679650D01*
X4047027Y-20679650D02*
X4066074Y-20689174D01*
X4066074Y-20689174D02*
X4075598Y-20708222D01*
X4075598Y-20708222D02*
X4075598Y-20812984D01*
X4170836Y-20812984D02*
X4170836Y-20679650D01*
X4170836Y-20698698D02*
X4180360Y-20689174D01*
X4180360Y-20689174D02*
X4199408Y-20679650D01*
X4199408Y-20679650D02*
X4227979Y-20679650D01*
X4227979Y-20679650D02*
X4247027Y-20689174D01*
X4247027Y-20689174D02*
X4256551Y-20708222D01*
X4256551Y-20708222D02*
X4256551Y-20812984D01*
X4256551Y-20708222D02*
X4266075Y-20689174D01*
X4266075Y-20689174D02*
X4285122Y-20679650D01*
X4285122Y-20679650D02*
X4313694Y-20679650D01*
X4313694Y-20679650D02*
X4332741Y-20689174D01*
X4332741Y-20689174D02*
X4342265Y-20708222D01*
X4342265Y-20708222D02*
X4342265Y-20812984D01*
X4732741Y-20603460D02*
X4561313Y-20860603D01*
X4989884Y-20612984D02*
X5008932Y-20612984D01*
X5008932Y-20612984D02*
X5027979Y-20622508D01*
X5027979Y-20622508D02*
X5037503Y-20632031D01*
X5037503Y-20632031D02*
X5047027Y-20651079D01*
X5047027Y-20651079D02*
X5056551Y-20689174D01*
X5056551Y-20689174D02*
X5056551Y-20736793D01*
X5056551Y-20736793D02*
X5047027Y-20774889D01*
X5047027Y-20774889D02*
X5037503Y-20793936D01*
X5037503Y-20793936D02*
X5027979Y-20803460D01*
X5027979Y-20803460D02*
X5008932Y-20812984D01*
X5008932Y-20812984D02*
X4989884Y-20812984D01*
X4989884Y-20812984D02*
X4970837Y-20803460D01*
X4970837Y-20803460D02*
X4961313Y-20793936D01*
X4961313Y-20793936D02*
X4951789Y-20774889D01*
X4951789Y-20774889D02*
X4942265Y-20736793D01*
X4942265Y-20736793D02*
X4942265Y-20689174D01*
X4942265Y-20689174D02*
X4951789Y-20651079D01*
X4951789Y-20651079D02*
X4961313Y-20632031D01*
X4961313Y-20632031D02*
X4970837Y-20622508D01*
X4970837Y-20622508D02*
X4989884Y-20612984D01*
X5142265Y-20793936D02*
X5151789Y-20803460D01*
X5151789Y-20803460D02*
X5142265Y-20812984D01*
X5142265Y-20812984D02*
X5132741Y-20803460D01*
X5132741Y-20803460D02*
X5142265Y-20793936D01*
X5142265Y-20793936D02*
X5142265Y-20812984D01*
X5275598Y-20612984D02*
X5294646Y-20612984D01*
X5294646Y-20612984D02*
X5313694Y-20622508D01*
X5313694Y-20622508D02*
X5323218Y-20632031D01*
X5323218Y-20632031D02*
X5332741Y-20651079D01*
X5332741Y-20651079D02*
X5342265Y-20689174D01*
X5342265Y-20689174D02*
X5342265Y-20736793D01*
X5342265Y-20736793D02*
X5332741Y-20774889D01*
X5332741Y-20774889D02*
X5323218Y-20793936D01*
X5323218Y-20793936D02*
X5313694Y-20803460D01*
X5313694Y-20803460D02*
X5294646Y-20812984D01*
X5294646Y-20812984D02*
X5275598Y-20812984D01*
X5275598Y-20812984D02*
X5256551Y-20803460D01*
X5256551Y-20803460D02*
X5247027Y-20793936D01*
X5247027Y-20793936D02*
X5237503Y-20774889D01*
X5237503Y-20774889D02*
X5227979Y-20736793D01*
X5227979Y-20736793D02*
X5227979Y-20689174D01*
X5227979Y-20689174D02*
X5237503Y-20651079D01*
X5237503Y-20651079D02*
X5247027Y-20632031D01*
X5247027Y-20632031D02*
X5256551Y-20622508D01*
X5256551Y-20622508D02*
X5275598Y-20612984D01*
X5456551Y-20698698D02*
X5437503Y-20689174D01*
X5437503Y-20689174D02*
X5427979Y-20679650D01*
X5427979Y-20679650D02*
X5418456Y-20660603D01*
X5418456Y-20660603D02*
X5418456Y-20651079D01*
X5418456Y-20651079D02*
X5427979Y-20632031D01*
X5427979Y-20632031D02*
X5437503Y-20622508D01*
X5437503Y-20622508D02*
X5456551Y-20612984D01*
X5456551Y-20612984D02*
X5494646Y-20612984D01*
X5494646Y-20612984D02*
X5513694Y-20622508D01*
X5513694Y-20622508D02*
X5523218Y-20632031D01*
X5523218Y-20632031D02*
X5532741Y-20651079D01*
X5532741Y-20651079D02*
X5532741Y-20660603D01*
X5532741Y-20660603D02*
X5523218Y-20679650D01*
X5523218Y-20679650D02*
X5513694Y-20689174D01*
X5513694Y-20689174D02*
X5494646Y-20698698D01*
X5494646Y-20698698D02*
X5456551Y-20698698D01*
X5456551Y-20698698D02*
X5437503Y-20708222D01*
X5437503Y-20708222D02*
X5427979Y-20717746D01*
X5427979Y-20717746D02*
X5418456Y-20736793D01*
X5418456Y-20736793D02*
X5418456Y-20774889D01*
X5418456Y-20774889D02*
X5427979Y-20793936D01*
X5427979Y-20793936D02*
X5437503Y-20803460D01*
X5437503Y-20803460D02*
X5456551Y-20812984D01*
X5456551Y-20812984D02*
X5494646Y-20812984D01*
X5494646Y-20812984D02*
X5513694Y-20803460D01*
X5513694Y-20803460D02*
X5523218Y-20793936D01*
X5523218Y-20793936D02*
X5532741Y-20774889D01*
X5532741Y-20774889D02*
X5532741Y-20736793D01*
X5532741Y-20736793D02*
X5523218Y-20717746D01*
X5523218Y-20717746D02*
X5513694Y-20708222D01*
X5513694Y-20708222D02*
X5494646Y-20698698D01*
X5704170Y-20612984D02*
X5666075Y-20612984D01*
X5666075Y-20612984D02*
X5647027Y-20622508D01*
X5647027Y-20622508D02*
X5637503Y-20632031D01*
X5637503Y-20632031D02*
X5618456Y-20660603D01*
X5618456Y-20660603D02*
X5608932Y-20698698D01*
X5608932Y-20698698D02*
X5608932Y-20774889D01*
X5608932Y-20774889D02*
X5618456Y-20793936D01*
X5618456Y-20793936D02*
X5627979Y-20803460D01*
X5627979Y-20803460D02*
X5647027Y-20812984D01*
X5647027Y-20812984D02*
X5685122Y-20812984D01*
X5685122Y-20812984D02*
X5704170Y-20803460D01*
X5704170Y-20803460D02*
X5713694Y-20793936D01*
X5713694Y-20793936D02*
X5723217Y-20774889D01*
X5723217Y-20774889D02*
X5723217Y-20727270D01*
X5723217Y-20727270D02*
X5713694Y-20708222D01*
X5713694Y-20708222D02*
X5704170Y-20698698D01*
X5704170Y-20698698D02*
X5685122Y-20689174D01*
X5685122Y-20689174D02*
X5647027Y-20689174D01*
X5647027Y-20689174D02*
X5627979Y-20698698D01*
X5627979Y-20698698D02*
X5618456Y-20708222D01*
X5618456Y-20708222D02*
X5608932Y-20727270D01*
X5894646Y-20612984D02*
X5856551Y-20612984D01*
X5856551Y-20612984D02*
X5837503Y-20622508D01*
X5837503Y-20622508D02*
X5827979Y-20632031D01*
X5827979Y-20632031D02*
X5808932Y-20660603D01*
X5808932Y-20660603D02*
X5799408Y-20698698D01*
X5799408Y-20698698D02*
X5799408Y-20774889D01*
X5799408Y-20774889D02*
X5808932Y-20793936D01*
X5808932Y-20793936D02*
X5818456Y-20803460D01*
X5818456Y-20803460D02*
X5837503Y-20812984D01*
X5837503Y-20812984D02*
X5875598Y-20812984D01*
X5875598Y-20812984D02*
X5894646Y-20803460D01*
X5894646Y-20803460D02*
X5904170Y-20793936D01*
X5904170Y-20793936D02*
X5913694Y-20774889D01*
X5913694Y-20774889D02*
X5913694Y-20727270D01*
X5913694Y-20727270D02*
X5904170Y-20708222D01*
X5904170Y-20708222D02*
X5894646Y-20698698D01*
X5894646Y-20698698D02*
X5875598Y-20689174D01*
X5875598Y-20689174D02*
X5837503Y-20689174D01*
X5837503Y-20689174D02*
X5818456Y-20698698D01*
X5818456Y-20698698D02*
X5808932Y-20708222D01*
X5808932Y-20708222D02*
X5799408Y-20727270D01*
X5989884Y-20612984D02*
X5989884Y-20651079D01*
X6066075Y-20612984D02*
X6066075Y-20651079D01*
X6361313Y-20889174D02*
X6351789Y-20879650D01*
X6351789Y-20879650D02*
X6332741Y-20851079D01*
X6332741Y-20851079D02*
X6323218Y-20832031D01*
X6323218Y-20832031D02*
X6313694Y-20803460D01*
X6313694Y-20803460D02*
X6304170Y-20755841D01*
X6304170Y-20755841D02*
X6304170Y-20717746D01*
X6304170Y-20717746D02*
X6313694Y-20670127D01*
X6313694Y-20670127D02*
X6323218Y-20641555D01*
X6323218Y-20641555D02*
X6332741Y-20622508D01*
X6332741Y-20622508D02*
X6351789Y-20593936D01*
X6351789Y-20593936D02*
X6361313Y-20584412D01*
X6542265Y-20812984D02*
X6427979Y-20812984D01*
X6485122Y-20812984D02*
X6485122Y-20612984D01*
X6485122Y-20612984D02*
X6466075Y-20641555D01*
X6466075Y-20641555D02*
X6447027Y-20660603D01*
X6447027Y-20660603D02*
X6427979Y-20670127D01*
X6618456Y-20632031D02*
X6627979Y-20622508D01*
X6627979Y-20622508D02*
X6647027Y-20612984D01*
X6647027Y-20612984D02*
X6694646Y-20612984D01*
X6694646Y-20612984D02*
X6713694Y-20622508D01*
X6713694Y-20622508D02*
X6723218Y-20632031D01*
X6723218Y-20632031D02*
X6732741Y-20651079D01*
X6732741Y-20651079D02*
X6732741Y-20670127D01*
X6732741Y-20670127D02*
X6723218Y-20698698D01*
X6723218Y-20698698D02*
X6608932Y-20812984D01*
X6608932Y-20812984D02*
X6732741Y-20812984D01*
X6970837Y-20812984D02*
X6970837Y-20612984D01*
X7056551Y-20812984D02*
X7056551Y-20708222D01*
X7056551Y-20708222D02*
X7047027Y-20689174D01*
X7047027Y-20689174D02*
X7027980Y-20679650D01*
X7027980Y-20679650D02*
X6999408Y-20679650D01*
X6999408Y-20679650D02*
X6980360Y-20689174D01*
X6980360Y-20689174D02*
X6970837Y-20698698D01*
X7180360Y-20812984D02*
X7161313Y-20803460D01*
X7161313Y-20803460D02*
X7151789Y-20793936D01*
X7151789Y-20793936D02*
X7142265Y-20774889D01*
X7142265Y-20774889D02*
X7142265Y-20717746D01*
X7142265Y-20717746D02*
X7151789Y-20698698D01*
X7151789Y-20698698D02*
X7161313Y-20689174D01*
X7161313Y-20689174D02*
X7180360Y-20679650D01*
X7180360Y-20679650D02*
X7208932Y-20679650D01*
X7208932Y-20679650D02*
X7227980Y-20689174D01*
X7227980Y-20689174D02*
X7237503Y-20698698D01*
X7237503Y-20698698D02*
X7247027Y-20717746D01*
X7247027Y-20717746D02*
X7247027Y-20774889D01*
X7247027Y-20774889D02*
X7237503Y-20793936D01*
X7237503Y-20793936D02*
X7227980Y-20803460D01*
X7227980Y-20803460D02*
X7208932Y-20812984D01*
X7208932Y-20812984D02*
X7180360Y-20812984D01*
X7361313Y-20812984D02*
X7342265Y-20803460D01*
X7342265Y-20803460D02*
X7332741Y-20784412D01*
X7332741Y-20784412D02*
X7332741Y-20612984D01*
X7513694Y-20803460D02*
X7494646Y-20812984D01*
X7494646Y-20812984D02*
X7456551Y-20812984D01*
X7456551Y-20812984D02*
X7437503Y-20803460D01*
X7437503Y-20803460D02*
X7427980Y-20784412D01*
X7427980Y-20784412D02*
X7427980Y-20708222D01*
X7427980Y-20708222D02*
X7437503Y-20689174D01*
X7437503Y-20689174D02*
X7456551Y-20679650D01*
X7456551Y-20679650D02*
X7494646Y-20679650D01*
X7494646Y-20679650D02*
X7513694Y-20689174D01*
X7513694Y-20689174D02*
X7523218Y-20708222D01*
X7523218Y-20708222D02*
X7523218Y-20727270D01*
X7523218Y-20727270D02*
X7427980Y-20746317D01*
X7599408Y-20803460D02*
X7618456Y-20812984D01*
X7618456Y-20812984D02*
X7656551Y-20812984D01*
X7656551Y-20812984D02*
X7675599Y-20803460D01*
X7675599Y-20803460D02*
X7685122Y-20784412D01*
X7685122Y-20784412D02*
X7685122Y-20774889D01*
X7685122Y-20774889D02*
X7675599Y-20755841D01*
X7675599Y-20755841D02*
X7656551Y-20746317D01*
X7656551Y-20746317D02*
X7627980Y-20746317D01*
X7627980Y-20746317D02*
X7608932Y-20736793D01*
X7608932Y-20736793D02*
X7599408Y-20717746D01*
X7599408Y-20717746D02*
X7599408Y-20708222D01*
X7599408Y-20708222D02*
X7608932Y-20689174D01*
X7608932Y-20689174D02*
X7627980Y-20679650D01*
X7627980Y-20679650D02*
X7656551Y-20679650D01*
X7656551Y-20679650D02*
X7675599Y-20689174D01*
X7751789Y-20889174D02*
X7761313Y-20879650D01*
X7761313Y-20879650D02*
X7780361Y-20851079D01*
X7780361Y-20851079D02*
X7789884Y-20832031D01*
X7789884Y-20832031D02*
X7799408Y-20803460D01*
X7799408Y-20803460D02*
X7808932Y-20755841D01*
X7808932Y-20755841D02*
X7808932Y-20717746D01*
X7808932Y-20717746D02*
X7799408Y-20670127D01*
X7799408Y-20670127D02*
X7789884Y-20641555D01*
X7789884Y-20641555D02*
X7780361Y-20622508D01*
X7780361Y-20622508D02*
X7761313Y-20593936D01*
X7761313Y-20593936D02*
X7751789Y-20584412D01*
X8113694Y-20889174D02*
X8104170Y-20879650D01*
X8104170Y-20879650D02*
X8085122Y-20851079D01*
X8085122Y-20851079D02*
X8075599Y-20832031D01*
X8075599Y-20832031D02*
X8066075Y-20803460D01*
X8066075Y-20803460D02*
X8056551Y-20755841D01*
X8056551Y-20755841D02*
X8056551Y-20717746D01*
X8056551Y-20717746D02*
X8066075Y-20670127D01*
X8066075Y-20670127D02*
X8075599Y-20641555D01*
X8075599Y-20641555D02*
X8085122Y-20622508D01*
X8085122Y-20622508D02*
X8104170Y-20593936D01*
X8104170Y-20593936D02*
X8113694Y-20584412D01*
X8189884Y-20679650D02*
X8189884Y-20812984D01*
X8189884Y-20698698D02*
X8199408Y-20689174D01*
X8199408Y-20689174D02*
X8218456Y-20679650D01*
X8218456Y-20679650D02*
X8247027Y-20679650D01*
X8247027Y-20679650D02*
X8266075Y-20689174D01*
X8266075Y-20689174D02*
X8275599Y-20708222D01*
X8275599Y-20708222D02*
X8275599Y-20812984D01*
X8399408Y-20812984D02*
X8380361Y-20803460D01*
X8380361Y-20803460D02*
X8370837Y-20793936D01*
X8370837Y-20793936D02*
X8361313Y-20774889D01*
X8361313Y-20774889D02*
X8361313Y-20717746D01*
X8361313Y-20717746D02*
X8370837Y-20698698D01*
X8370837Y-20698698D02*
X8380361Y-20689174D01*
X8380361Y-20689174D02*
X8399408Y-20679650D01*
X8399408Y-20679650D02*
X8427980Y-20679650D01*
X8427980Y-20679650D02*
X8447027Y-20689174D01*
X8447027Y-20689174D02*
X8456551Y-20698698D01*
X8456551Y-20698698D02*
X8466075Y-20717746D01*
X8466075Y-20717746D02*
X8466075Y-20774889D01*
X8466075Y-20774889D02*
X8456551Y-20793936D01*
X8456551Y-20793936D02*
X8447027Y-20803460D01*
X8447027Y-20803460D02*
X8427980Y-20812984D01*
X8427980Y-20812984D02*
X8399408Y-20812984D01*
X8523218Y-20679650D02*
X8599408Y-20679650D01*
X8551789Y-20612984D02*
X8551789Y-20784412D01*
X8551789Y-20784412D02*
X8561313Y-20803460D01*
X8561313Y-20803460D02*
X8580361Y-20812984D01*
X8580361Y-20812984D02*
X8599408Y-20812984D01*
X8818456Y-20679650D02*
X8818456Y-20879650D01*
X8818456Y-20689174D02*
X8837504Y-20679650D01*
X8837504Y-20679650D02*
X8875599Y-20679650D01*
X8875599Y-20679650D02*
X8894646Y-20689174D01*
X8894646Y-20689174D02*
X8904170Y-20698698D01*
X8904170Y-20698698D02*
X8913694Y-20717746D01*
X8913694Y-20717746D02*
X8913694Y-20774889D01*
X8913694Y-20774889D02*
X8904170Y-20793936D01*
X8904170Y-20793936D02*
X8894646Y-20803460D01*
X8894646Y-20803460D02*
X8875599Y-20812984D01*
X8875599Y-20812984D02*
X8837504Y-20812984D01*
X8837504Y-20812984D02*
X8818456Y-20803460D01*
X9027980Y-20812984D02*
X9008932Y-20803460D01*
X9008932Y-20803460D02*
X8999408Y-20784412D01*
X8999408Y-20784412D02*
X8999408Y-20612984D01*
X9189885Y-20812984D02*
X9189885Y-20708222D01*
X9189885Y-20708222D02*
X9180361Y-20689174D01*
X9180361Y-20689174D02*
X9161313Y-20679650D01*
X9161313Y-20679650D02*
X9123218Y-20679650D01*
X9123218Y-20679650D02*
X9104170Y-20689174D01*
X9189885Y-20803460D02*
X9170837Y-20812984D01*
X9170837Y-20812984D02*
X9123218Y-20812984D01*
X9123218Y-20812984D02*
X9104170Y-20803460D01*
X9104170Y-20803460D02*
X9094646Y-20784412D01*
X9094646Y-20784412D02*
X9094646Y-20765365D01*
X9094646Y-20765365D02*
X9104170Y-20746317D01*
X9104170Y-20746317D02*
X9123218Y-20736793D01*
X9123218Y-20736793D02*
X9170837Y-20736793D01*
X9170837Y-20736793D02*
X9189885Y-20727270D01*
X9256551Y-20679650D02*
X9332742Y-20679650D01*
X9285123Y-20612984D02*
X9285123Y-20784412D01*
X9285123Y-20784412D02*
X9294646Y-20803460D01*
X9294646Y-20803460D02*
X9313694Y-20812984D01*
X9313694Y-20812984D02*
X9332742Y-20812984D01*
X9475599Y-20803460D02*
X9456551Y-20812984D01*
X9456551Y-20812984D02*
X9418456Y-20812984D01*
X9418456Y-20812984D02*
X9399408Y-20803460D01*
X9399408Y-20803460D02*
X9389885Y-20784412D01*
X9389885Y-20784412D02*
X9389885Y-20708222D01*
X9389885Y-20708222D02*
X9399408Y-20689174D01*
X9399408Y-20689174D02*
X9418456Y-20679650D01*
X9418456Y-20679650D02*
X9456551Y-20679650D01*
X9456551Y-20679650D02*
X9475599Y-20689174D01*
X9475599Y-20689174D02*
X9485123Y-20708222D01*
X9485123Y-20708222D02*
X9485123Y-20727270D01*
X9485123Y-20727270D02*
X9389885Y-20746317D01*
X9656551Y-20812984D02*
X9656551Y-20612984D01*
X9656551Y-20803460D02*
X9637504Y-20812984D01*
X9637504Y-20812984D02*
X9599408Y-20812984D01*
X9599408Y-20812984D02*
X9580361Y-20803460D01*
X9580361Y-20803460D02*
X9570837Y-20793936D01*
X9570837Y-20793936D02*
X9561313Y-20774889D01*
X9561313Y-20774889D02*
X9561313Y-20717746D01*
X9561313Y-20717746D02*
X9570837Y-20698698D01*
X9570837Y-20698698D02*
X9580361Y-20689174D01*
X9580361Y-20689174D02*
X9599408Y-20679650D01*
X9599408Y-20679650D02*
X9637504Y-20679650D01*
X9637504Y-20679650D02*
X9656551Y-20689174D01*
X9732742Y-20889174D02*
X9742266Y-20879650D01*
X9742266Y-20879650D02*
X9761313Y-20851079D01*
X9761313Y-20851079D02*
X9770837Y-20832031D01*
X9770837Y-20832031D02*
X9780361Y-20803460D01*
X9780361Y-20803460D02*
X9789885Y-20755841D01*
X9789885Y-20755841D02*
X9789885Y-20717746D01*
X9789885Y-20717746D02*
X9780361Y-20670127D01*
X9780361Y-20670127D02*
X9770837Y-20641555D01*
X9770837Y-20641555D02*
X9761313Y-20622508D01*
X9761313Y-20622508D02*
X9742266Y-20593936D01*
X9742266Y-20593936D02*
X9732742Y-20584412D01*
X2756961Y-21112211D02*
X2756961Y-20970789D01*
X2615539Y-20970789D01*
X2615539Y-21112211D01*
X2756961Y-21112211D01*
X3132741Y-20999650D02*
X3132741Y-21132984D01*
X3085122Y-20923460D02*
X3037503Y-21066317D01*
X3037503Y-21066317D02*
X3161312Y-21066317D01*
X3237503Y-21113936D02*
X3247027Y-21123460D01*
X3247027Y-21123460D02*
X3237503Y-21132984D01*
X3237503Y-21132984D02*
X3227979Y-21123460D01*
X3227979Y-21123460D02*
X3237503Y-21113936D01*
X3237503Y-21113936D02*
X3237503Y-21132984D01*
X3370836Y-20932984D02*
X3389884Y-20932984D01*
X3389884Y-20932984D02*
X3408932Y-20942508D01*
X3408932Y-20942508D02*
X3418455Y-20952031D01*
X3418455Y-20952031D02*
X3427979Y-20971079D01*
X3427979Y-20971079D02*
X3437503Y-21009174D01*
X3437503Y-21009174D02*
X3437503Y-21056793D01*
X3437503Y-21056793D02*
X3427979Y-21094889D01*
X3427979Y-21094889D02*
X3418455Y-21113936D01*
X3418455Y-21113936D02*
X3408932Y-21123460D01*
X3408932Y-21123460D02*
X3389884Y-21132984D01*
X3389884Y-21132984D02*
X3370836Y-21132984D01*
X3370836Y-21132984D02*
X3351789Y-21123460D01*
X3351789Y-21123460D02*
X3342265Y-21113936D01*
X3342265Y-21113936D02*
X3332741Y-21094889D01*
X3332741Y-21094889D02*
X3323217Y-21056793D01*
X3323217Y-21056793D02*
X3323217Y-21009174D01*
X3323217Y-21009174D02*
X3332741Y-20971079D01*
X3332741Y-20971079D02*
X3342265Y-20952031D01*
X3342265Y-20952031D02*
X3351789Y-20942508D01*
X3351789Y-20942508D02*
X3370836Y-20932984D01*
X3561312Y-20932984D02*
X3580360Y-20932984D01*
X3580360Y-20932984D02*
X3599408Y-20942508D01*
X3599408Y-20942508D02*
X3608932Y-20952031D01*
X3608932Y-20952031D02*
X3618455Y-20971079D01*
X3618455Y-20971079D02*
X3627979Y-21009174D01*
X3627979Y-21009174D02*
X3627979Y-21056793D01*
X3627979Y-21056793D02*
X3618455Y-21094889D01*
X3618455Y-21094889D02*
X3608932Y-21113936D01*
X3608932Y-21113936D02*
X3599408Y-21123460D01*
X3599408Y-21123460D02*
X3580360Y-21132984D01*
X3580360Y-21132984D02*
X3561312Y-21132984D01*
X3561312Y-21132984D02*
X3542265Y-21123460D01*
X3542265Y-21123460D02*
X3532741Y-21113936D01*
X3532741Y-21113936D02*
X3523217Y-21094889D01*
X3523217Y-21094889D02*
X3513693Y-21056793D01*
X3513693Y-21056793D02*
X3513693Y-21009174D01*
X3513693Y-21009174D02*
X3523217Y-20971079D01*
X3523217Y-20971079D02*
X3532741Y-20952031D01*
X3532741Y-20952031D02*
X3542265Y-20942508D01*
X3542265Y-20942508D02*
X3561312Y-20932984D01*
X3751789Y-20932984D02*
X3770836Y-20932984D01*
X3770836Y-20932984D02*
X3789884Y-20942508D01*
X3789884Y-20942508D02*
X3799408Y-20952031D01*
X3799408Y-20952031D02*
X3808932Y-20971079D01*
X3808932Y-20971079D02*
X3818455Y-21009174D01*
X3818455Y-21009174D02*
X3818455Y-21056793D01*
X3818455Y-21056793D02*
X3808932Y-21094889D01*
X3808932Y-21094889D02*
X3799408Y-21113936D01*
X3799408Y-21113936D02*
X3789884Y-21123460D01*
X3789884Y-21123460D02*
X3770836Y-21132984D01*
X3770836Y-21132984D02*
X3751789Y-21132984D01*
X3751789Y-21132984D02*
X3732741Y-21123460D01*
X3732741Y-21123460D02*
X3723217Y-21113936D01*
X3723217Y-21113936D02*
X3713693Y-21094889D01*
X3713693Y-21094889D02*
X3704170Y-21056793D01*
X3704170Y-21056793D02*
X3704170Y-21009174D01*
X3704170Y-21009174D02*
X3713693Y-20971079D01*
X3713693Y-20971079D02*
X3723217Y-20952031D01*
X3723217Y-20952031D02*
X3732741Y-20942508D01*
X3732741Y-20942508D02*
X3751789Y-20932984D01*
X3904170Y-21132984D02*
X3904170Y-20999650D01*
X3904170Y-21018698D02*
X3913693Y-21009174D01*
X3913693Y-21009174D02*
X3932741Y-20999650D01*
X3932741Y-20999650D02*
X3961313Y-20999650D01*
X3961313Y-20999650D02*
X3980360Y-21009174D01*
X3980360Y-21009174D02*
X3989884Y-21028222D01*
X3989884Y-21028222D02*
X3989884Y-21132984D01*
X3989884Y-21028222D02*
X3999408Y-21009174D01*
X3999408Y-21009174D02*
X4018455Y-20999650D01*
X4018455Y-20999650D02*
X4047027Y-20999650D01*
X4047027Y-20999650D02*
X4066074Y-21009174D01*
X4066074Y-21009174D02*
X4075598Y-21028222D01*
X4075598Y-21028222D02*
X4075598Y-21132984D01*
X4170836Y-21132984D02*
X4170836Y-20999650D01*
X4170836Y-21018698D02*
X4180360Y-21009174D01*
X4180360Y-21009174D02*
X4199408Y-20999650D01*
X4199408Y-20999650D02*
X4227979Y-20999650D01*
X4227979Y-20999650D02*
X4247027Y-21009174D01*
X4247027Y-21009174D02*
X4256551Y-21028222D01*
X4256551Y-21028222D02*
X4256551Y-21132984D01*
X4256551Y-21028222D02*
X4266075Y-21009174D01*
X4266075Y-21009174D02*
X4285122Y-20999650D01*
X4285122Y-20999650D02*
X4313694Y-20999650D01*
X4313694Y-20999650D02*
X4332741Y-21009174D01*
X4332741Y-21009174D02*
X4342265Y-21028222D01*
X4342265Y-21028222D02*
X4342265Y-21132984D01*
X4732741Y-20923460D02*
X4561313Y-21180603D01*
X4989884Y-20932984D02*
X5008932Y-20932984D01*
X5008932Y-20932984D02*
X5027979Y-20942508D01*
X5027979Y-20942508D02*
X5037503Y-20952031D01*
X5037503Y-20952031D02*
X5047027Y-20971079D01*
X5047027Y-20971079D02*
X5056551Y-21009174D01*
X5056551Y-21009174D02*
X5056551Y-21056793D01*
X5056551Y-21056793D02*
X5047027Y-21094889D01*
X5047027Y-21094889D02*
X5037503Y-21113936D01*
X5037503Y-21113936D02*
X5027979Y-21123460D01*
X5027979Y-21123460D02*
X5008932Y-21132984D01*
X5008932Y-21132984D02*
X4989884Y-21132984D01*
X4989884Y-21132984D02*
X4970837Y-21123460D01*
X4970837Y-21123460D02*
X4961313Y-21113936D01*
X4961313Y-21113936D02*
X4951789Y-21094889D01*
X4951789Y-21094889D02*
X4942265Y-21056793D01*
X4942265Y-21056793D02*
X4942265Y-21009174D01*
X4942265Y-21009174D02*
X4951789Y-20971079D01*
X4951789Y-20971079D02*
X4961313Y-20952031D01*
X4961313Y-20952031D02*
X4970837Y-20942508D01*
X4970837Y-20942508D02*
X4989884Y-20932984D01*
X5142265Y-21113936D02*
X5151789Y-21123460D01*
X5151789Y-21123460D02*
X5142265Y-21132984D01*
X5142265Y-21132984D02*
X5132741Y-21123460D01*
X5132741Y-21123460D02*
X5142265Y-21113936D01*
X5142265Y-21113936D02*
X5142265Y-21132984D01*
X5342265Y-21132984D02*
X5227979Y-21132984D01*
X5285122Y-21132984D02*
X5285122Y-20932984D01*
X5285122Y-20932984D02*
X5266075Y-20961555D01*
X5266075Y-20961555D02*
X5247027Y-20980603D01*
X5247027Y-20980603D02*
X5227979Y-20990127D01*
X5523218Y-20932984D02*
X5427979Y-20932984D01*
X5427979Y-20932984D02*
X5418456Y-21028222D01*
X5418456Y-21028222D02*
X5427979Y-21018698D01*
X5427979Y-21018698D02*
X5447027Y-21009174D01*
X5447027Y-21009174D02*
X5494646Y-21009174D01*
X5494646Y-21009174D02*
X5513694Y-21018698D01*
X5513694Y-21018698D02*
X5523218Y-21028222D01*
X5523218Y-21028222D02*
X5532741Y-21047270D01*
X5532741Y-21047270D02*
X5532741Y-21094889D01*
X5532741Y-21094889D02*
X5523218Y-21113936D01*
X5523218Y-21113936D02*
X5513694Y-21123460D01*
X5513694Y-21123460D02*
X5494646Y-21132984D01*
X5494646Y-21132984D02*
X5447027Y-21132984D01*
X5447027Y-21132984D02*
X5427979Y-21123460D01*
X5427979Y-21123460D02*
X5418456Y-21113936D01*
X5599408Y-20932984D02*
X5732741Y-20932984D01*
X5732741Y-20932984D02*
X5647027Y-21132984D01*
X5904170Y-20932984D02*
X5808932Y-20932984D01*
X5808932Y-20932984D02*
X5799408Y-21028222D01*
X5799408Y-21028222D02*
X5808932Y-21018698D01*
X5808932Y-21018698D02*
X5827979Y-21009174D01*
X5827979Y-21009174D02*
X5875598Y-21009174D01*
X5875598Y-21009174D02*
X5894646Y-21018698D01*
X5894646Y-21018698D02*
X5904170Y-21028222D01*
X5904170Y-21028222D02*
X5913694Y-21047270D01*
X5913694Y-21047270D02*
X5913694Y-21094889D01*
X5913694Y-21094889D02*
X5904170Y-21113936D01*
X5904170Y-21113936D02*
X5894646Y-21123460D01*
X5894646Y-21123460D02*
X5875598Y-21132984D01*
X5875598Y-21132984D02*
X5827979Y-21132984D01*
X5827979Y-21132984D02*
X5808932Y-21123460D01*
X5808932Y-21123460D02*
X5799408Y-21113936D01*
X5989884Y-20932984D02*
X5989884Y-20971079D01*
X6066075Y-20932984D02*
X6066075Y-20971079D01*
X6361313Y-21209174D02*
X6351789Y-21199650D01*
X6351789Y-21199650D02*
X6332741Y-21171079D01*
X6332741Y-21171079D02*
X6323218Y-21152031D01*
X6323218Y-21152031D02*
X6313694Y-21123460D01*
X6313694Y-21123460D02*
X6304170Y-21075841D01*
X6304170Y-21075841D02*
X6304170Y-21037746D01*
X6304170Y-21037746D02*
X6313694Y-20990127D01*
X6313694Y-20990127D02*
X6323218Y-20961555D01*
X6323218Y-20961555D02*
X6332741Y-20942508D01*
X6332741Y-20942508D02*
X6351789Y-20913936D01*
X6351789Y-20913936D02*
X6361313Y-20904412D01*
X6532741Y-20932984D02*
X6437503Y-20932984D01*
X6437503Y-20932984D02*
X6427979Y-21028222D01*
X6427979Y-21028222D02*
X6437503Y-21018698D01*
X6437503Y-21018698D02*
X6456551Y-21009174D01*
X6456551Y-21009174D02*
X6504170Y-21009174D01*
X6504170Y-21009174D02*
X6523218Y-21018698D01*
X6523218Y-21018698D02*
X6532741Y-21028222D01*
X6532741Y-21028222D02*
X6542265Y-21047270D01*
X6542265Y-21047270D02*
X6542265Y-21094889D01*
X6542265Y-21094889D02*
X6532741Y-21113936D01*
X6532741Y-21113936D02*
X6523218Y-21123460D01*
X6523218Y-21123460D02*
X6504170Y-21132984D01*
X6504170Y-21132984D02*
X6456551Y-21132984D01*
X6456551Y-21132984D02*
X6437503Y-21123460D01*
X6437503Y-21123460D02*
X6427979Y-21113936D01*
X6618456Y-20952031D02*
X6627979Y-20942508D01*
X6627979Y-20942508D02*
X6647027Y-20932984D01*
X6647027Y-20932984D02*
X6694646Y-20932984D01*
X6694646Y-20932984D02*
X6713694Y-20942508D01*
X6713694Y-20942508D02*
X6723218Y-20952031D01*
X6723218Y-20952031D02*
X6732741Y-20971079D01*
X6732741Y-20971079D02*
X6732741Y-20990127D01*
X6732741Y-20990127D02*
X6723218Y-21018698D01*
X6723218Y-21018698D02*
X6608932Y-21132984D01*
X6608932Y-21132984D02*
X6732741Y-21132984D01*
X6970837Y-21132984D02*
X6970837Y-20932984D01*
X7056551Y-21132984D02*
X7056551Y-21028222D01*
X7056551Y-21028222D02*
X7047027Y-21009174D01*
X7047027Y-21009174D02*
X7027980Y-20999650D01*
X7027980Y-20999650D02*
X6999408Y-20999650D01*
X6999408Y-20999650D02*
X6980360Y-21009174D01*
X6980360Y-21009174D02*
X6970837Y-21018698D01*
X7180360Y-21132984D02*
X7161313Y-21123460D01*
X7161313Y-21123460D02*
X7151789Y-21113936D01*
X7151789Y-21113936D02*
X7142265Y-21094889D01*
X7142265Y-21094889D02*
X7142265Y-21037746D01*
X7142265Y-21037746D02*
X7151789Y-21018698D01*
X7151789Y-21018698D02*
X7161313Y-21009174D01*
X7161313Y-21009174D02*
X7180360Y-20999650D01*
X7180360Y-20999650D02*
X7208932Y-20999650D01*
X7208932Y-20999650D02*
X7227980Y-21009174D01*
X7227980Y-21009174D02*
X7237503Y-21018698D01*
X7237503Y-21018698D02*
X7247027Y-21037746D01*
X7247027Y-21037746D02*
X7247027Y-21094889D01*
X7247027Y-21094889D02*
X7237503Y-21113936D01*
X7237503Y-21113936D02*
X7227980Y-21123460D01*
X7227980Y-21123460D02*
X7208932Y-21132984D01*
X7208932Y-21132984D02*
X7180360Y-21132984D01*
X7361313Y-21132984D02*
X7342265Y-21123460D01*
X7342265Y-21123460D02*
X7332741Y-21104412D01*
X7332741Y-21104412D02*
X7332741Y-20932984D01*
X7513694Y-21123460D02*
X7494646Y-21132984D01*
X7494646Y-21132984D02*
X7456551Y-21132984D01*
X7456551Y-21132984D02*
X7437503Y-21123460D01*
X7437503Y-21123460D02*
X7427980Y-21104412D01*
X7427980Y-21104412D02*
X7427980Y-21028222D01*
X7427980Y-21028222D02*
X7437503Y-21009174D01*
X7437503Y-21009174D02*
X7456551Y-20999650D01*
X7456551Y-20999650D02*
X7494646Y-20999650D01*
X7494646Y-20999650D02*
X7513694Y-21009174D01*
X7513694Y-21009174D02*
X7523218Y-21028222D01*
X7523218Y-21028222D02*
X7523218Y-21047270D01*
X7523218Y-21047270D02*
X7427980Y-21066317D01*
X7599408Y-21123460D02*
X7618456Y-21132984D01*
X7618456Y-21132984D02*
X7656551Y-21132984D01*
X7656551Y-21132984D02*
X7675599Y-21123460D01*
X7675599Y-21123460D02*
X7685122Y-21104412D01*
X7685122Y-21104412D02*
X7685122Y-21094889D01*
X7685122Y-21094889D02*
X7675599Y-21075841D01*
X7675599Y-21075841D02*
X7656551Y-21066317D01*
X7656551Y-21066317D02*
X7627980Y-21066317D01*
X7627980Y-21066317D02*
X7608932Y-21056793D01*
X7608932Y-21056793D02*
X7599408Y-21037746D01*
X7599408Y-21037746D02*
X7599408Y-21028222D01*
X7599408Y-21028222D02*
X7608932Y-21009174D01*
X7608932Y-21009174D02*
X7627980Y-20999650D01*
X7627980Y-20999650D02*
X7656551Y-20999650D01*
X7656551Y-20999650D02*
X7675599Y-21009174D01*
X7751789Y-21209174D02*
X7761313Y-21199650D01*
X7761313Y-21199650D02*
X7780361Y-21171079D01*
X7780361Y-21171079D02*
X7789884Y-21152031D01*
X7789884Y-21152031D02*
X7799408Y-21123460D01*
X7799408Y-21123460D02*
X7808932Y-21075841D01*
X7808932Y-21075841D02*
X7808932Y-21037746D01*
X7808932Y-21037746D02*
X7799408Y-20990127D01*
X7799408Y-20990127D02*
X7789884Y-20961555D01*
X7789884Y-20961555D02*
X7780361Y-20942508D01*
X7780361Y-20942508D02*
X7761313Y-20913936D01*
X7761313Y-20913936D02*
X7751789Y-20904412D01*
X8113694Y-21209174D02*
X8104170Y-21199650D01*
X8104170Y-21199650D02*
X8085122Y-21171079D01*
X8085122Y-21171079D02*
X8075599Y-21152031D01*
X8075599Y-21152031D02*
X8066075Y-21123460D01*
X8066075Y-21123460D02*
X8056551Y-21075841D01*
X8056551Y-21075841D02*
X8056551Y-21037746D01*
X8056551Y-21037746D02*
X8066075Y-20990127D01*
X8066075Y-20990127D02*
X8075599Y-20961555D01*
X8075599Y-20961555D02*
X8085122Y-20942508D01*
X8085122Y-20942508D02*
X8104170Y-20913936D01*
X8104170Y-20913936D02*
X8113694Y-20904412D01*
X8189884Y-20999650D02*
X8189884Y-21132984D01*
X8189884Y-21018698D02*
X8199408Y-21009174D01*
X8199408Y-21009174D02*
X8218456Y-20999650D01*
X8218456Y-20999650D02*
X8247027Y-20999650D01*
X8247027Y-20999650D02*
X8266075Y-21009174D01*
X8266075Y-21009174D02*
X8275599Y-21028222D01*
X8275599Y-21028222D02*
X8275599Y-21132984D01*
X8399408Y-21132984D02*
X8380361Y-21123460D01*
X8380361Y-21123460D02*
X8370837Y-21113936D01*
X8370837Y-21113936D02*
X8361313Y-21094889D01*
X8361313Y-21094889D02*
X8361313Y-21037746D01*
X8361313Y-21037746D02*
X8370837Y-21018698D01*
X8370837Y-21018698D02*
X8380361Y-21009174D01*
X8380361Y-21009174D02*
X8399408Y-20999650D01*
X8399408Y-20999650D02*
X8427980Y-20999650D01*
X8427980Y-20999650D02*
X8447027Y-21009174D01*
X8447027Y-21009174D02*
X8456551Y-21018698D01*
X8456551Y-21018698D02*
X8466075Y-21037746D01*
X8466075Y-21037746D02*
X8466075Y-21094889D01*
X8466075Y-21094889D02*
X8456551Y-21113936D01*
X8456551Y-21113936D02*
X8447027Y-21123460D01*
X8447027Y-21123460D02*
X8427980Y-21132984D01*
X8427980Y-21132984D02*
X8399408Y-21132984D01*
X8523218Y-20999650D02*
X8599408Y-20999650D01*
X8551789Y-20932984D02*
X8551789Y-21104412D01*
X8551789Y-21104412D02*
X8561313Y-21123460D01*
X8561313Y-21123460D02*
X8580361Y-21132984D01*
X8580361Y-21132984D02*
X8599408Y-21132984D01*
X8818456Y-20999650D02*
X8818456Y-21199650D01*
X8818456Y-21009174D02*
X8837504Y-20999650D01*
X8837504Y-20999650D02*
X8875599Y-20999650D01*
X8875599Y-20999650D02*
X8894646Y-21009174D01*
X8894646Y-21009174D02*
X8904170Y-21018698D01*
X8904170Y-21018698D02*
X8913694Y-21037746D01*
X8913694Y-21037746D02*
X8913694Y-21094889D01*
X8913694Y-21094889D02*
X8904170Y-21113936D01*
X8904170Y-21113936D02*
X8894646Y-21123460D01*
X8894646Y-21123460D02*
X8875599Y-21132984D01*
X8875599Y-21132984D02*
X8837504Y-21132984D01*
X8837504Y-21132984D02*
X8818456Y-21123460D01*
X9027980Y-21132984D02*
X9008932Y-21123460D01*
X9008932Y-21123460D02*
X8999408Y-21104412D01*
X8999408Y-21104412D02*
X8999408Y-20932984D01*
X9189885Y-21132984D02*
X9189885Y-21028222D01*
X9189885Y-21028222D02*
X9180361Y-21009174D01*
X9180361Y-21009174D02*
X9161313Y-20999650D01*
X9161313Y-20999650D02*
X9123218Y-20999650D01*
X9123218Y-20999650D02*
X9104170Y-21009174D01*
X9189885Y-21123460D02*
X9170837Y-21132984D01*
X9170837Y-21132984D02*
X9123218Y-21132984D01*
X9123218Y-21132984D02*
X9104170Y-21123460D01*
X9104170Y-21123460D02*
X9094646Y-21104412D01*
X9094646Y-21104412D02*
X9094646Y-21085365D01*
X9094646Y-21085365D02*
X9104170Y-21066317D01*
X9104170Y-21066317D02*
X9123218Y-21056793D01*
X9123218Y-21056793D02*
X9170837Y-21056793D01*
X9170837Y-21056793D02*
X9189885Y-21047270D01*
X9256551Y-20999650D02*
X9332742Y-20999650D01*
X9285123Y-20932984D02*
X9285123Y-21104412D01*
X9285123Y-21104412D02*
X9294646Y-21123460D01*
X9294646Y-21123460D02*
X9313694Y-21132984D01*
X9313694Y-21132984D02*
X9332742Y-21132984D01*
X9475599Y-21123460D02*
X9456551Y-21132984D01*
X9456551Y-21132984D02*
X9418456Y-21132984D01*
X9418456Y-21132984D02*
X9399408Y-21123460D01*
X9399408Y-21123460D02*
X9389885Y-21104412D01*
X9389885Y-21104412D02*
X9389885Y-21028222D01*
X9389885Y-21028222D02*
X9399408Y-21009174D01*
X9399408Y-21009174D02*
X9418456Y-20999650D01*
X9418456Y-20999650D02*
X9456551Y-20999650D01*
X9456551Y-20999650D02*
X9475599Y-21009174D01*
X9475599Y-21009174D02*
X9485123Y-21028222D01*
X9485123Y-21028222D02*
X9485123Y-21047270D01*
X9485123Y-21047270D02*
X9389885Y-21066317D01*
X9656551Y-21132984D02*
X9656551Y-20932984D01*
X9656551Y-21123460D02*
X9637504Y-21132984D01*
X9637504Y-21132984D02*
X9599408Y-21132984D01*
X9599408Y-21132984D02*
X9580361Y-21123460D01*
X9580361Y-21123460D02*
X9570837Y-21113936D01*
X9570837Y-21113936D02*
X9561313Y-21094889D01*
X9561313Y-21094889D02*
X9561313Y-21037746D01*
X9561313Y-21037746D02*
X9570837Y-21018698D01*
X9570837Y-21018698D02*
X9580361Y-21009174D01*
X9580361Y-21009174D02*
X9599408Y-20999650D01*
X9599408Y-20999650D02*
X9637504Y-20999650D01*
X9637504Y-20999650D02*
X9656551Y-21009174D01*
X9732742Y-21209174D02*
X9742266Y-21199650D01*
X9742266Y-21199650D02*
X9761313Y-21171079D01*
X9761313Y-21171079D02*
X9770837Y-21152031D01*
X9770837Y-21152031D02*
X9780361Y-21123460D01*
X9780361Y-21123460D02*
X9789885Y-21075841D01*
X9789885Y-21075841D02*
X9789885Y-21037746D01*
X9789885Y-21037746D02*
X9780361Y-20990127D01*
X9780361Y-20990127D02*
X9770837Y-20961555D01*
X9770837Y-20961555D02*
X9761313Y-20942508D01*
X9761313Y-20942508D02*
X9742266Y-20913936D01*
X9742266Y-20913936D02*
X9732742Y-20904412D01*
M02*
