M48
; DRILL file KiCad 10.0.3 date 2026-07-27T11:37:26
; FORMAT={-:-/ absolute / metric / decimal}
; #@! TF.CreationDate,2026-07-27T11:37:26-06:00
; #@! TF.GenerationSoftware,Kicad,Pcbnew,10.0.3
; #@! TF.FileFunction,Plated,1,2,PTH
FMAT,2
METRIC
; #@! TA.AperFunction,Plated,PTH,ViaDrill
T1C0.300
; #@! TA.AperFunction,Plated,PTH,ComponentDrill
T2C2.500
; #@! TA.AperFunction,Plated,PTH,ComponentDrill
T3C3.050
%
G90
G05
T1
X140.1Y-101.4
X142.2Y-106.5
X145.6Y-100.3
X151.0Y-106.0
X164.3Y-109.8
X165.5Y-109.9
X168.0Y-110.0
X170.0Y-110.0
X181.6Y-108.5
X197.6Y-109.9
X200.4Y-105.5
X201.3Y-102.4
X201.4Y-97.8
X211.5Y-109.4
X293.6Y-106.0
T2
X151.975Y-94.716
X151.975Y-98.116
X185.61Y-94.716
X185.61Y-98.116
T3
X39.953Y-100.267
X39.953Y-138.368
X39.953Y-157.417
X40.005Y-119.317
X46.302Y-97.727
X46.302Y-135.827
X46.302Y-154.877
X46.355Y-116.777
X59.002Y-133.605
X59.055Y-95.505
X59.055Y-114.555
X59.055Y-152.718
X65.352Y-131.065
X65.405Y-92.965
X65.405Y-112.015
X65.405Y-150.177
X78.052Y-90.742
X78.052Y-128.843
X78.052Y-147.892
X78.105Y-109.792
X84.402Y-88.203
X84.402Y-126.302
X84.402Y-145.352
X84.455Y-107.252
X97.102Y-90.742
X97.102Y-109.792
X97.155Y-128.905
X97.155Y-147.892
X103.453Y-88.203
X103.453Y-107.252
X103.505Y-126.365
X103.505Y-145.352
X116.152Y-95.505
X116.152Y-114.555
X116.152Y-133.605
X116.152Y-152.655
X116.152Y-181.23
X122.502Y-92.965
X122.502Y-112.015
X122.502Y-131.065
X122.502Y-150.115
X122.502Y-178.69
X135.202Y-100.267
X135.202Y-119.317
X135.202Y-138.368
X135.202Y-157.417
X135.255Y-186.055
X141.552Y-97.727
X141.552Y-116.777
X141.552Y-135.827
X141.552Y-154.877
X141.605Y-183.515
X206.24Y-100.267
X206.24Y-119.317
X206.24Y-138.368
X206.24Y-157.417
X206.24Y-185.992
X212.59Y-97.727
X212.59Y-116.777
X212.59Y-135.827
X212.59Y-154.877
X212.59Y-183.452
X225.29Y-95.505
X225.29Y-114.555
X225.29Y-133.605
X225.29Y-152.655
X225.29Y-181.23
X231.641Y-92.965
X231.641Y-112.015
X231.641Y-131.065
X231.641Y-150.115
X231.641Y-178.69
X244.34Y-90.742
X244.34Y-109.792
X244.34Y-128.843
X244.34Y-147.892
X250.69Y-88.203
X250.69Y-107.252
X250.69Y-126.302
X250.69Y-145.352
X263.39Y-90.742
X263.39Y-109.792
X263.39Y-128.843
X263.39Y-147.892
X269.74Y-88.203
X269.74Y-107.252
X269.74Y-126.302
X269.74Y-145.352
X282.44Y-95.505
X282.44Y-114.555
X282.44Y-133.605
X282.44Y-152.655
X288.791Y-92.965
X288.791Y-112.015
X288.791Y-131.065
X288.791Y-150.115
X301.49Y-100.267
X301.49Y-119.317
X301.49Y-138.368
X301.49Y-157.417
X307.84Y-97.727
X307.84Y-116.777
X307.84Y-135.827
X307.84Y-154.877
M30
