G04 #@! TF.GenerationSoftware,KiCad,Pcbnew,10.0.3*
G04 #@! TF.CreationDate,2026-07-27T11:37:26-06:00*
G04 #@! TF.ProjectId,splitKey,73706c69-744b-4657-992e-6b696361645f,rev?*
G04 #@! TF.SameCoordinates,Original*
G04 #@! TF.FileFunction,Other,User*
%FSLAX46Y46*%
G04 Gerber Fmt 4.6, Leading zero omitted, Abs format (unit mm)*
G04 Created by KiCad (PCBNEW 10.0.3) date 2026-07-27 11:37:26*
%MOMM*%
%LPD*%
G01*
G04 APERTURE LIST*
%ADD10C,0.050000*%
G04 APERTURE END LIST*
G04 #@! TO.C,H4*
D10*
X183425000Y-119062500D02*
G75*
G02*
X178525000Y-119062500I-2450000J0D01*
G01*
X178525000Y-119062500D02*
G75*
G02*
X183425000Y-119062500I2450000J0D01*
G01*
G04 #@! TO.C,TP3*
X187150000Y-109990000D02*
G75*
G02*
X184150000Y-109990000I-1500000J0D01*
G01*
X184150000Y-109990000D02*
G75*
G02*
X187150000Y-109990000I1500000J0D01*
G01*
G04 #@! TO.C,U2*
X181165000Y-87166000D02*
X198965000Y-87166000D01*
X198965000Y-108116000D01*
X181165000Y-108116000D01*
X181165000Y-87166000D01*
G04 #@! TO.C,TP1*
X152180000Y-109880000D02*
G75*
G02*
X149180000Y-109880000I-1500000J0D01*
G01*
X149180000Y-109880000D02*
G75*
G02*
X152180000Y-109880000I1500000J0D01*
G01*
G04 #@! TO.C,H3*
X244568000Y-157100000D02*
G75*
G02*
X239668000Y-157100000I-2450000J0D01*
G01*
X239668000Y-157100000D02*
G75*
G02*
X244568000Y-157100000I2450000J0D01*
G01*
G04 #@! TO.C,H10*
X106537500Y-157100000D02*
G75*
G02*
X101637500Y-157100000I-2450000J0D01*
G01*
X101637500Y-157100000D02*
G75*
G02*
X106537500Y-157100000I2450000J0D01*
G01*
G04 #@! TO.C,H15*
X163687500Y-185675000D02*
G75*
G02*
X158787500Y-185675000I-2450000J0D01*
G01*
X158787500Y-185675000D02*
G75*
G02*
X163687500Y-185675000I2450000J0D01*
G01*
G04 #@! TO.C,TP2*
X155430000Y-110060000D02*
G75*
G02*
X152430000Y-110060000I-1500000J0D01*
G01*
X152430000Y-110060000D02*
G75*
G02*
X155430000Y-110060000I1500000J0D01*
G01*
G04 #@! TO.C,U1*
X147530000Y-87166000D02*
X165330000Y-87166000D01*
X165330000Y-108116000D01*
X147530000Y-108116000D01*
X147530000Y-87166000D01*
G04 #@! TO.C,H11*
X58912500Y-161862500D02*
G75*
G02*
X54012500Y-161862500I-2450000J0D01*
G01*
X54012500Y-161862500D02*
G75*
G02*
X58912500Y-161862500I2450000J0D01*
G01*
G04 #@! TO.C,H2*
X187418000Y-185675000D02*
G75*
G02*
X182518000Y-185675000I-2450000J0D01*
G01*
X182518000Y-185675000D02*
G75*
G02*
X187418000Y-185675000I2450000J0D01*
G01*
G04 #@! TO.C,H5*
X292193000Y-161862500D02*
G75*
G02*
X287293000Y-161862500I-2450000J0D01*
G01*
X287293000Y-161862500D02*
G75*
G02*
X292193000Y-161862500I2450000J0D01*
G01*
G04 #@! TO.C,TP5*
X164900000Y-177100000D02*
X164900000Y-179100000D01*
X164900000Y-177100000D02*
X166900000Y-177100000D01*
X166900000Y-179100000D02*
X164900000Y-179100000D01*
X166900000Y-179100000D02*
X166900000Y-177100000D01*
G04 #@! TO.C,H1*
X235043000Y-76137500D02*
G75*
G02*
X230143000Y-76137500I-2450000J0D01*
G01*
X230143000Y-76137500D02*
G75*
G02*
X235043000Y-76137500I2450000J0D01*
G01*
G04 #@! TO.C,H12*
X49387500Y-80900000D02*
G75*
G02*
X44487500Y-80900000I-2450000J0D01*
G01*
X44487500Y-80900000D02*
G75*
G02*
X49387500Y-80900000I2450000J0D01*
G01*
G04 #@! TO.C,H6*
X301718000Y-80900000D02*
G75*
G02*
X296818000Y-80900000I-2450000J0D01*
G01*
X296818000Y-80900000D02*
G75*
G02*
X301718000Y-80900000I2450000J0D01*
G01*
G04 #@! TO.C,H14*
X168450000Y-119000000D02*
G75*
G02*
X163550000Y-119000000I-2450000J0D01*
G01*
X163550000Y-119000000D02*
G75*
G02*
X168450000Y-119000000I2450000J0D01*
G01*
G04 #@! TO.C,TP6*
X180000000Y-177000000D02*
X180000000Y-179000000D01*
X180000000Y-177000000D02*
X182000000Y-177000000D01*
X182000000Y-179000000D02*
X180000000Y-179000000D01*
X182000000Y-179000000D02*
X182000000Y-177000000D01*
G04 #@! TO.C,TP4*
X191200000Y-110090000D02*
G75*
G02*
X188200000Y-110090000I-1500000J0D01*
G01*
X188200000Y-110090000D02*
G75*
G02*
X191200000Y-110090000I1500000J0D01*
G01*
G04 #@! TO.C,H13*
X116062500Y-76137500D02*
G75*
G02*
X111162500Y-76137500I-2450000J0D01*
G01*
X111162500Y-76137500D02*
G75*
G02*
X116062500Y-76137500I2450000J0D01*
G01*
G04 #@! TO.C,SW4*
X35242500Y-145087500D02*
X49742500Y-145087500D01*
X35242500Y-159587500D02*
X35242500Y-145087500D01*
X49742500Y-145087500D02*
X49742500Y-159587500D01*
X49742500Y-159587500D02*
X35242500Y-159587500D01*
G04 #@! TO.C,SW12*
X73342500Y-135562500D02*
X87842500Y-135562500D01*
X73342500Y-150062500D02*
X73342500Y-135562500D01*
X87842500Y-135562500D02*
X87842500Y-150062500D01*
X87842500Y-150062500D02*
X73342500Y-150062500D01*
G04 #@! TO.C,SW9*
X73342500Y-78412500D02*
X87842500Y-78412500D01*
X73342500Y-92912500D02*
X73342500Y-78412500D01*
X87842500Y-78412500D02*
X87842500Y-92912500D01*
X87842500Y-92912500D02*
X73342500Y-92912500D01*
G04 #@! TO.C,SW28*
X201530500Y-106987500D02*
X216030500Y-106987500D01*
X201530500Y-121487500D02*
X201530500Y-106987500D01*
X216030500Y-106987500D02*
X216030500Y-121487500D01*
X216030500Y-121487500D02*
X201530500Y-121487500D01*
G04 #@! TO.C,SW36*
X239630500Y-97462500D02*
X254130500Y-97462500D01*
X239630500Y-111962500D02*
X239630500Y-97462500D01*
X254130500Y-97462500D02*
X254130500Y-111962500D01*
X254130500Y-111962500D02*
X239630500Y-111962500D01*
G04 #@! TO.C,SW45*
X277730500Y-121275000D02*
X292230500Y-121275000D01*
X277730500Y-135775000D02*
X277730500Y-121275000D01*
X292230500Y-121275000D02*
X292230500Y-135775000D01*
X292230500Y-135775000D02*
X277730500Y-135775000D01*
G04 #@! TO.C,SW3*
X35242500Y-126037500D02*
X49742500Y-126037500D01*
X35242500Y-140537500D02*
X35242500Y-126037500D01*
X49742500Y-126037500D02*
X49742500Y-140537500D01*
X49742500Y-140537500D02*
X35242500Y-140537500D01*
G04 #@! TO.C,SW18*
X111442500Y-102225000D02*
X125942500Y-102225000D01*
X111442500Y-116725000D02*
X111442500Y-102225000D01*
X125942500Y-102225000D02*
X125942500Y-116725000D01*
X125942500Y-116725000D02*
X111442500Y-116725000D01*
G04 #@! TO.C,SW16*
X92445000Y-135562500D02*
X106945000Y-135562500D01*
X92445000Y-150062500D02*
X92445000Y-135562500D01*
X106945000Y-135562500D02*
X106945000Y-150062500D01*
X106945000Y-150062500D02*
X92445000Y-150062500D01*
G04 #@! TO.C,SW15*
X92445000Y-116575000D02*
X106945000Y-116575000D01*
X92445000Y-131075000D02*
X92445000Y-116575000D01*
X106945000Y-116575000D02*
X106945000Y-131075000D01*
X106945000Y-131075000D02*
X92445000Y-131075000D01*
G04 #@! TO.C,SW31*
X220580500Y-83175000D02*
X235080500Y-83175000D01*
X220580500Y-97675000D02*
X220580500Y-83175000D01*
X235080500Y-83175000D02*
X235080500Y-97675000D01*
X235080500Y-97675000D02*
X220580500Y-97675000D01*
G04 #@! TO.C,SW32*
X220580500Y-102225000D02*
X235080500Y-102225000D01*
X220580500Y-116725000D02*
X220580500Y-102225000D01*
X235080500Y-102225000D02*
X235080500Y-116725000D01*
X235080500Y-116725000D02*
X220580500Y-116725000D01*
G04 #@! TO.C,SW40*
X258680500Y-97462500D02*
X273180500Y-97462500D01*
X258680500Y-111962500D02*
X258680500Y-97462500D01*
X273180500Y-97462500D02*
X273180500Y-111962500D01*
X273180500Y-111962500D02*
X258680500Y-111962500D01*
G04 #@! TO.C,SW46*
X277730500Y-140325000D02*
X292230500Y-140325000D01*
X277730500Y-154825000D02*
X277730500Y-140325000D01*
X292230500Y-140325000D02*
X292230500Y-154825000D01*
X292230500Y-154825000D02*
X277730500Y-154825000D01*
G04 #@! TO.C,SW20*
X111442500Y-140325000D02*
X125942500Y-140325000D01*
X111442500Y-154825000D02*
X111442500Y-140325000D01*
X125942500Y-140325000D02*
X125942500Y-154825000D01*
X125942500Y-154825000D02*
X111442500Y-154825000D01*
G04 #@! TO.C,SW10*
X73395000Y-97462500D02*
X87895000Y-97462500D01*
X73395000Y-111962500D02*
X73395000Y-97462500D01*
X87895000Y-97462500D02*
X87895000Y-111962500D01*
X87895000Y-111962500D02*
X73395000Y-111962500D01*
G04 #@! TO.C,SW29*
X201530500Y-126037500D02*
X216030500Y-126037500D01*
X201530500Y-140537500D02*
X201530500Y-126037500D01*
X216030500Y-126037500D02*
X216030500Y-140537500D01*
X216030500Y-140537500D02*
X201530500Y-140537500D01*
G04 #@! TO.C,SW2*
X35295000Y-106987500D02*
X49795000Y-106987500D01*
X35295000Y-121487500D02*
X35295000Y-106987500D01*
X49795000Y-106987500D02*
X49795000Y-121487500D01*
X49795000Y-121487500D02*
X35295000Y-121487500D01*
G04 #@! TO.C,SW26*
X130545000Y-173725000D02*
X145045000Y-173725000D01*
X130545000Y-188225000D02*
X130545000Y-173725000D01*
X145045000Y-173725000D02*
X145045000Y-188225000D01*
X145045000Y-188225000D02*
X130545000Y-188225000D01*
G04 #@! TO.C,SW43*
X277730500Y-83175000D02*
X292230500Y-83175000D01*
X277730500Y-97675000D02*
X277730500Y-83175000D01*
X292230500Y-83175000D02*
X292230500Y-97675000D01*
X292230500Y-97675000D02*
X277730500Y-97675000D01*
G04 #@! TO.C,SW41*
X258680500Y-116512500D02*
X273180500Y-116512500D01*
X258680500Y-131012500D02*
X258680500Y-116512500D01*
X273180500Y-116512500D02*
X273180500Y-131012500D01*
X273180500Y-131012500D02*
X258680500Y-131012500D01*
G04 #@! TO.C,SW17*
X111442500Y-83175000D02*
X125942500Y-83175000D01*
X111442500Y-97675000D02*
X111442500Y-83175000D01*
X125942500Y-83175000D02*
X125942500Y-97675000D01*
X125942500Y-97675000D02*
X111442500Y-97675000D01*
G04 #@! TO.C,SW23*
X130492500Y-106987500D02*
X144992500Y-106987500D01*
X130492500Y-121487500D02*
X130492500Y-106987500D01*
X144992500Y-106987500D02*
X144992500Y-121487500D01*
X144992500Y-121487500D02*
X130492500Y-121487500D01*
G04 #@! TO.C,SW48*
X296780500Y-87937500D02*
X311280500Y-87937500D01*
X296780500Y-102437500D02*
X296780500Y-87937500D01*
X311280500Y-87937500D02*
X311280500Y-102437500D01*
X311280500Y-102437500D02*
X296780500Y-102437500D01*
G04 #@! TO.C,SW38*
X239630500Y-135562500D02*
X254130500Y-135562500D01*
X239630500Y-150062500D02*
X239630500Y-135562500D01*
X254130500Y-135562500D02*
X254130500Y-150062500D01*
X254130500Y-150062500D02*
X239630500Y-150062500D01*
G04 #@! TO.C,SW42*
X258680500Y-135562500D02*
X273180500Y-135562500D01*
X258680500Y-150062500D02*
X258680500Y-135562500D01*
X273180500Y-135562500D02*
X273180500Y-150062500D01*
X273180500Y-150062500D02*
X258680500Y-150062500D01*
G04 #@! TO.C,SW14*
X92392500Y-97462500D02*
X106892500Y-97462500D01*
X92392500Y-111962500D02*
X92392500Y-97462500D01*
X106892500Y-97462500D02*
X106892500Y-111962500D01*
X106892500Y-111962500D02*
X92392500Y-111962500D01*
G04 #@! TO.C,SW24*
X130492500Y-126037500D02*
X144992500Y-126037500D01*
X130492500Y-140537500D02*
X130492500Y-126037500D01*
X144992500Y-126037500D02*
X144992500Y-140537500D01*
X144992500Y-140537500D02*
X130492500Y-140537500D01*
G04 #@! TO.C,SW39*
X258680500Y-78412500D02*
X273180500Y-78412500D01*
X258680500Y-92912500D02*
X258680500Y-78412500D01*
X273180500Y-78412500D02*
X273180500Y-92912500D01*
X273180500Y-92912500D02*
X258680500Y-92912500D01*
G04 #@! TO.C,SW25*
X130492500Y-145087500D02*
X144992500Y-145087500D01*
X130492500Y-159587500D02*
X130492500Y-145087500D01*
X144992500Y-145087500D02*
X144992500Y-159587500D01*
X144992500Y-159587500D02*
X130492500Y-159587500D01*
G04 #@! TO.C,SW11*
X73342500Y-116512500D02*
X87842500Y-116512500D01*
X73342500Y-131012500D02*
X73342500Y-116512500D01*
X87842500Y-116512500D02*
X87842500Y-131012500D01*
X87842500Y-131012500D02*
X73342500Y-131012500D01*
G04 #@! TO.C,SW7*
X54292500Y-121275000D02*
X68792500Y-121275000D01*
X54292500Y-135775000D02*
X54292500Y-121275000D01*
X68792500Y-121275000D02*
X68792500Y-135775000D01*
X68792500Y-135775000D02*
X54292500Y-135775000D01*
G04 #@! TO.C,SW33*
X220580500Y-121275000D02*
X235080500Y-121275000D01*
X220580500Y-135775000D02*
X220580500Y-121275000D01*
X235080500Y-121275000D02*
X235080500Y-135775000D01*
X235080500Y-135775000D02*
X220580500Y-135775000D01*
G04 #@! TO.C,SW34*
X220580500Y-140325000D02*
X235080500Y-140325000D01*
X220580500Y-154825000D02*
X220580500Y-140325000D01*
X235080500Y-140325000D02*
X235080500Y-154825000D01*
X235080500Y-154825000D02*
X220580500Y-154825000D01*
G04 #@! TO.C,SW51*
X296780500Y-145087500D02*
X311280500Y-145087500D01*
X296780500Y-159587500D02*
X296780500Y-145087500D01*
X311280500Y-145087500D02*
X311280500Y-159587500D01*
X311280500Y-159587500D02*
X296780500Y-159587500D01*
G04 #@! TO.C,SW44*
X277730500Y-102225000D02*
X292230500Y-102225000D01*
X277730500Y-116725000D02*
X277730500Y-102225000D01*
X292230500Y-102225000D02*
X292230500Y-116725000D01*
X292230500Y-116725000D02*
X277730500Y-116725000D01*
G04 #@! TO.C,SW50*
X296780500Y-126037500D02*
X311280500Y-126037500D01*
X296780500Y-140537500D02*
X296780500Y-126037500D01*
X311280500Y-126037500D02*
X311280500Y-140537500D01*
X311280500Y-140537500D02*
X296780500Y-140537500D01*
G04 #@! TO.C,SW8*
X54345000Y-140387500D02*
X68845000Y-140387500D01*
X54345000Y-154887500D02*
X54345000Y-140387500D01*
X68845000Y-140387500D02*
X68845000Y-154887500D01*
X68845000Y-154887500D02*
X54345000Y-154887500D01*
G04 #@! TO.C,SW13*
X92392500Y-78412500D02*
X106892500Y-78412500D01*
X92392500Y-92912500D02*
X92392500Y-78412500D01*
X106892500Y-78412500D02*
X106892500Y-92912500D01*
X106892500Y-92912500D02*
X92392500Y-92912500D01*
G04 #@! TO.C,SW47*
X201530500Y-173662500D02*
X216030500Y-173662500D01*
X201530500Y-188162500D02*
X201530500Y-173662500D01*
X216030500Y-173662500D02*
X216030500Y-188162500D01*
X216030500Y-188162500D02*
X201530500Y-188162500D01*
G04 #@! TO.C,SW1*
X35242500Y-87937500D02*
X49742500Y-87937500D01*
X35242500Y-102437500D02*
X35242500Y-87937500D01*
X49742500Y-87937500D02*
X49742500Y-102437500D01*
X49742500Y-102437500D02*
X35242500Y-102437500D01*
G04 #@! TO.C,SW5*
X54345000Y-83175000D02*
X68845000Y-83175000D01*
X54345000Y-97675000D02*
X54345000Y-83175000D01*
X68845000Y-83175000D02*
X68845000Y-97675000D01*
X68845000Y-97675000D02*
X54345000Y-97675000D01*
G04 #@! TO.C,SW52*
X220580500Y-168900000D02*
X235080500Y-168900000D01*
X220580500Y-183400000D02*
X220580500Y-168900000D01*
X235080500Y-168900000D02*
X235080500Y-183400000D01*
X235080500Y-183400000D02*
X220580500Y-183400000D01*
G04 #@! TO.C,SW6*
X54345000Y-102225000D02*
X68845000Y-102225000D01*
X54345000Y-116725000D02*
X54345000Y-102225000D01*
X68845000Y-102225000D02*
X68845000Y-116725000D01*
X68845000Y-116725000D02*
X54345000Y-116725000D01*
G04 #@! TO.C,SW35*
X239630500Y-78412500D02*
X254130500Y-78412500D01*
X239630500Y-92912500D02*
X239630500Y-78412500D01*
X254130500Y-78412500D02*
X254130500Y-92912500D01*
X254130500Y-92912500D02*
X239630500Y-92912500D01*
G04 #@! TO.C,SW21*
X111442500Y-168900000D02*
X125942500Y-168900000D01*
X111442500Y-183400000D02*
X111442500Y-168900000D01*
X125942500Y-168900000D02*
X125942500Y-183400000D01*
X125942500Y-183400000D02*
X111442500Y-183400000D01*
G04 #@! TO.C,SW37*
X239630500Y-116512500D02*
X254130500Y-116512500D01*
X239630500Y-131012500D02*
X239630500Y-116512500D01*
X254130500Y-116512500D02*
X254130500Y-131012500D01*
X254130500Y-131012500D02*
X239630500Y-131012500D01*
G04 #@! TO.C,SW27*
X201530500Y-87937500D02*
X216030500Y-87937500D01*
X201530500Y-102437500D02*
X201530500Y-87937500D01*
X216030500Y-87937500D02*
X216030500Y-102437500D01*
X216030500Y-102437500D02*
X201530500Y-102437500D01*
G04 #@! TO.C,SW22*
X130492500Y-87937500D02*
X144992500Y-87937500D01*
X130492500Y-102437500D02*
X130492500Y-87937500D01*
X144992500Y-87937500D02*
X144992500Y-102437500D01*
X144992500Y-102437500D02*
X130492500Y-102437500D01*
G04 #@! TO.C,SW30*
X201530500Y-145087500D02*
X216030500Y-145087500D01*
X201530500Y-159587500D02*
X201530500Y-145087500D01*
X216030500Y-145087500D02*
X216030500Y-159587500D01*
X216030500Y-159587500D02*
X201530500Y-159587500D01*
G04 #@! TO.C,SW19*
X111442500Y-121275000D02*
X125942500Y-121275000D01*
X111442500Y-135775000D02*
X111442500Y-121275000D01*
X125942500Y-121275000D02*
X125942500Y-135775000D01*
X125942500Y-135775000D02*
X111442500Y-135775000D01*
G04 #@! TO.C,SW49*
X296780500Y-106987500D02*
X311280500Y-106987500D01*
X296780500Y-121487500D02*
X296780500Y-106987500D01*
X311280500Y-106987500D02*
X311280500Y-121487500D01*
X311280500Y-121487500D02*
X296780500Y-121487500D01*
G04 #@! TD*
M02*
