%TF.GenerationSoftware,KiCad,Pcbnew,10.0.3*%
%TF.CreationDate,2026-07-27T11:37:26-06:00*%
%TF.ProjectId,splitKey,73706c69-744b-4657-992e-6b696361645f,rev?*%
%TF.SameCoordinates,Original*%
%TF.FileFunction,Drillmap*%
%TF.FilePolarity,Positive*%
%FSLAX45Y45*%
G04 Gerber Fmt 4.5, Leading zero omitted, Abs format (unit mm)*
G04 Created by KiCad (PCBNEW 10.0.3) date 2026-07-27 11:37:26*
%MOMM*%
%LPD*%
G01*
G04 APERTURE LIST*
%ADD10C,0.050000*%
%ADD11C,0.200000*%
%ADD12C,0.100000*%
%ADD13C,0.250000*%
%ADD14C,0.305000*%
G04 APERTURE END LIST*
D10*
X2788750Y-8566250D02*
X4217500Y-7137500D01*
X2788750Y-16662500D02*
X2788750Y-8566250D01*
X4217500Y-7137500D02*
X12790000Y-7137500D01*
X9456250Y-16662500D02*
X2788750Y-16662500D01*
X10885000Y-19520000D02*
X9456250Y-16662500D01*
X12790000Y-7137500D02*
X14218750Y-8566250D01*
X12790000Y-19520000D02*
X10885000Y-19520000D01*
X14218750Y-8566250D02*
X17076250Y-8566250D01*
X17076250Y-19520000D02*
X12790000Y-19520000D01*
X17076250Y-19520000D02*
X17080000Y-18349000D01*
X17077734Y-14123932D02*
G75*
G02*
X17582265Y-14121785I252266J932D01*
G01*
X17077883Y-13122627D02*
X17081000Y-10498000D01*
X17080000Y-17349000D02*
X17077813Y-14123932D01*
X17080000Y-18349000D02*
G75*
G02*
X17580000Y-18349000I250000J0D01*
G01*
X17081000Y-9498000D02*
X17076250Y-8566250D01*
X17081000Y-10498000D02*
G75*
G02*
X17581000Y-10498000I250000J0D01*
G01*
X17580000Y-17349000D02*
G75*
G02*
X17080000Y-17349000I-250000J0D01*
G01*
X17581000Y-9498296D02*
G75*
G02*
X17081000Y-9498000I-250000J296D01*
G01*
X17581000Y-9498296D02*
X17582250Y-8566250D01*
X17582118Y-13123088D02*
G75*
G02*
X17077883Y-13122627I-252118J88D01*
G01*
X17582118Y-13123088D02*
X17581000Y-10498000D01*
X17582250Y-19520000D02*
X17580000Y-18349000D01*
X17582250Y-19520000D02*
X21868500Y-19520000D01*
X17582265Y-14121785D02*
X17580000Y-17349000D01*
X20439750Y-8566250D02*
X17582250Y-8566250D01*
X21868500Y-7137500D02*
X20439750Y-8566250D01*
X21868500Y-19520000D02*
X23773500Y-19520000D01*
X23773500Y-19520000D02*
X25202250Y-16662500D01*
X25202250Y-16662500D02*
X31869750Y-16662500D01*
X30441000Y-7137500D02*
X21868500Y-7137500D01*
X31869750Y-8566250D02*
X30441000Y-7137500D01*
X31869750Y-16662500D02*
X31869750Y-8566250D01*
D11*
D12*
X13995000Y-10125000D02*
X14025000Y-10155000D01*
X14025000Y-10125000D02*
X13995000Y-10155000D01*
X14205000Y-10635000D02*
X14235000Y-10665000D01*
X14235000Y-10635000D02*
X14205000Y-10665000D01*
X14545000Y-10015000D02*
X14575000Y-10045000D01*
X14575000Y-10015000D02*
X14545000Y-10045000D01*
X15085000Y-10585000D02*
X15115000Y-10615000D01*
X15115000Y-10585000D02*
X15085000Y-10615000D01*
X16415000Y-10965000D02*
X16445000Y-10995000D01*
X16445000Y-10965000D02*
X16415000Y-10995000D01*
X16535000Y-10975000D02*
X16565000Y-11005000D01*
X16565000Y-10975000D02*
X16535000Y-11005000D01*
X16785000Y-10985000D02*
X16815000Y-11015000D01*
X16815000Y-10985000D02*
X16785000Y-11015000D01*
X16985000Y-10985000D02*
X17015000Y-11015000D01*
X17015000Y-10985000D02*
X16985000Y-11015000D01*
X18145000Y-10835000D02*
X18175000Y-10865000D01*
X18175000Y-10835000D02*
X18145000Y-10865000D01*
X19745000Y-10975000D02*
X19775000Y-11005000D01*
X19775000Y-10975000D02*
X19745000Y-11005000D01*
X20025000Y-10535000D02*
X20055000Y-10565000D01*
X20055000Y-10535000D02*
X20025000Y-10565000D01*
X20115000Y-10225000D02*
X20145000Y-10255000D01*
X20145000Y-10225000D02*
X20115000Y-10255000D01*
X20125000Y-9765000D02*
X20155000Y-9795000D01*
X20155000Y-9765000D02*
X20125000Y-9795000D01*
X21135000Y-10925000D02*
X21165000Y-10955000D01*
X21165000Y-10925000D02*
X21135000Y-10955000D01*
X29345000Y-10585000D02*
X29375000Y-10615000D01*
X29375000Y-10585000D02*
X29345000Y-10615000D01*
D13*
X15322500Y-9471600D02*
G75*
G02*
X15072500Y-9471600I-125000J0D01*
G01*
X15072500Y-9471600D02*
G75*
G02*
X15322500Y-9471600I125000J0D01*
G01*
X15322500Y-9811600D02*
G75*
G02*
X15072500Y-9811600I-125000J0D01*
G01*
X15072500Y-9811600D02*
G75*
G02*
X15322500Y-9811600I125000J0D01*
G01*
X18686000Y-9471600D02*
G75*
G02*
X18436000Y-9471600I-125000J0D01*
G01*
X18436000Y-9471600D02*
G75*
G02*
X18686000Y-9471600I125000J0D01*
G01*
X18686000Y-9811600D02*
G75*
G02*
X18436000Y-9811600I-125000J0D01*
G01*
X18436000Y-9811600D02*
G75*
G02*
X18686000Y-9811600I125000J0D01*
G01*
D14*
X3995250Y-9874250D02*
X3995250Y-10179250D01*
X3842750Y-10026750D02*
X4147750Y-10026750D01*
X3995250Y-13684250D02*
X3995250Y-13989250D01*
X3842750Y-13836750D02*
X4147750Y-13836750D01*
X3995250Y-15589250D02*
X3995250Y-15894250D01*
X3842750Y-15741750D02*
X4147750Y-15741750D01*
X4000500Y-11779250D02*
X4000500Y-12084250D01*
X3848000Y-11931750D02*
X4153000Y-11931750D01*
X4630250Y-9620250D02*
X4630250Y-9925250D01*
X4477750Y-9772750D02*
X4782750Y-9772750D01*
X4630250Y-13430250D02*
X4630250Y-13735250D01*
X4477750Y-13582750D02*
X4782750Y-13582750D01*
X4630250Y-15335250D02*
X4630250Y-15640250D01*
X4477750Y-15487750D02*
X4782750Y-15487750D01*
X4635500Y-11525250D02*
X4635500Y-11830250D01*
X4483000Y-11677750D02*
X4788000Y-11677750D01*
X5900250Y-13208000D02*
X5900250Y-13513000D01*
X5747750Y-13360500D02*
X6052750Y-13360500D01*
X5905500Y-9398000D02*
X5905500Y-9703000D01*
X5753000Y-9550500D02*
X6058000Y-9550500D01*
X5905500Y-11303000D02*
X5905500Y-11608000D01*
X5753000Y-11455500D02*
X6058000Y-11455500D01*
X5905500Y-15119250D02*
X5905500Y-15424250D01*
X5753000Y-15271750D02*
X6058000Y-15271750D01*
X6535250Y-12954000D02*
X6535250Y-13259000D01*
X6382750Y-13106500D02*
X6687750Y-13106500D01*
X6540500Y-9144000D02*
X6540500Y-9449000D01*
X6388000Y-9296500D02*
X6693000Y-9296500D01*
X6540500Y-11049000D02*
X6540500Y-11354000D01*
X6388000Y-11201500D02*
X6693000Y-11201500D01*
X6540500Y-14865250D02*
X6540500Y-15170250D01*
X6388000Y-15017750D02*
X6693000Y-15017750D01*
X7805250Y-8921750D02*
X7805250Y-9226750D01*
X7652750Y-9074250D02*
X7957750Y-9074250D01*
X7805250Y-12731750D02*
X7805250Y-13036750D01*
X7652750Y-12884250D02*
X7957750Y-12884250D01*
X7805250Y-14636750D02*
X7805250Y-14941750D01*
X7652750Y-14789250D02*
X7957750Y-14789250D01*
X7810500Y-10826750D02*
X7810500Y-11131750D01*
X7658000Y-10979250D02*
X7963000Y-10979250D01*
X8440250Y-8667750D02*
X8440250Y-8972750D01*
X8287750Y-8820250D02*
X8592750Y-8820250D01*
X8440250Y-12477750D02*
X8440250Y-12782750D01*
X8287750Y-12630250D02*
X8592750Y-12630250D01*
X8440250Y-14382750D02*
X8440250Y-14687750D01*
X8287750Y-14535250D02*
X8592750Y-14535250D01*
X8445500Y-10572750D02*
X8445500Y-10877750D01*
X8293000Y-10725250D02*
X8598000Y-10725250D01*
X9710250Y-8921750D02*
X9710250Y-9226750D01*
X9557750Y-9074250D02*
X9862750Y-9074250D01*
X9710250Y-10826750D02*
X9710250Y-11131750D01*
X9557750Y-10979250D02*
X9862750Y-10979250D01*
X9715500Y-12738000D02*
X9715500Y-13043000D01*
X9563000Y-12890500D02*
X9868000Y-12890500D01*
X9715500Y-14636750D02*
X9715500Y-14941750D01*
X9563000Y-14789250D02*
X9868000Y-14789250D01*
X10345250Y-8667750D02*
X10345250Y-8972750D01*
X10192750Y-8820250D02*
X10497750Y-8820250D01*
X10345250Y-10572750D02*
X10345250Y-10877750D01*
X10192750Y-10725250D02*
X10497750Y-10725250D01*
X10350500Y-12484000D02*
X10350500Y-12789000D01*
X10198000Y-12636500D02*
X10503000Y-12636500D01*
X10350500Y-14382750D02*
X10350500Y-14687750D01*
X10198000Y-14535250D02*
X10503000Y-14535250D01*
X11615250Y-9398000D02*
X11615250Y-9703000D01*
X11462750Y-9550500D02*
X11767750Y-9550500D01*
X11615250Y-11303000D02*
X11615250Y-11608000D01*
X11462750Y-11455500D02*
X11767750Y-11455500D01*
X11615250Y-13208000D02*
X11615250Y-13513000D01*
X11462750Y-13360500D02*
X11767750Y-13360500D01*
X11615250Y-15113000D02*
X11615250Y-15418000D01*
X11462750Y-15265500D02*
X11767750Y-15265500D01*
X11615250Y-17970500D02*
X11615250Y-18275500D01*
X11462750Y-18123000D02*
X11767750Y-18123000D01*
X12250250Y-9144000D02*
X12250250Y-9449000D01*
X12097750Y-9296500D02*
X12402750Y-9296500D01*
X12250250Y-11049000D02*
X12250250Y-11354000D01*
X12097750Y-11201500D02*
X12402750Y-11201500D01*
X12250250Y-12954000D02*
X12250250Y-13259000D01*
X12097750Y-13106500D02*
X12402750Y-13106500D01*
X12250250Y-14859000D02*
X12250250Y-15164000D01*
X12097750Y-15011500D02*
X12402750Y-15011500D01*
X12250250Y-17716500D02*
X12250250Y-18021500D01*
X12097750Y-17869000D02*
X12402750Y-17869000D01*
X13520250Y-9874250D02*
X13520250Y-10179250D01*
X13367750Y-10026750D02*
X13672750Y-10026750D01*
X13520250Y-11779250D02*
X13520250Y-12084250D01*
X13367750Y-11931750D02*
X13672750Y-11931750D01*
X13520250Y-13684250D02*
X13520250Y-13989250D01*
X13367750Y-13836750D02*
X13672750Y-13836750D01*
X13520250Y-15589250D02*
X13520250Y-15894250D01*
X13367750Y-15741750D02*
X13672750Y-15741750D01*
X13525500Y-18453000D02*
X13525500Y-18758000D01*
X13373000Y-18605500D02*
X13678000Y-18605500D01*
X14155250Y-9620250D02*
X14155250Y-9925250D01*
X14002750Y-9772750D02*
X14307750Y-9772750D01*
X14155250Y-11525250D02*
X14155250Y-11830250D01*
X14002750Y-11677750D02*
X14307750Y-11677750D01*
X14155250Y-13430250D02*
X14155250Y-13735250D01*
X14002750Y-13582750D02*
X14307750Y-13582750D01*
X14155250Y-15335250D02*
X14155250Y-15640250D01*
X14002750Y-15487750D02*
X14307750Y-15487750D01*
X14160500Y-18199000D02*
X14160500Y-18504000D01*
X14008000Y-18351500D02*
X14313000Y-18351500D01*
X20624050Y-9874250D02*
X20624050Y-10179250D01*
X20471550Y-10026750D02*
X20776550Y-10026750D01*
X20624050Y-11779250D02*
X20624050Y-12084250D01*
X20471550Y-11931750D02*
X20776550Y-11931750D01*
X20624050Y-13684250D02*
X20624050Y-13989250D01*
X20471550Y-13836750D02*
X20776550Y-13836750D01*
X20624050Y-15589250D02*
X20624050Y-15894250D01*
X20471550Y-15741750D02*
X20776550Y-15741750D01*
X20624050Y-18446750D02*
X20624050Y-18751750D01*
X20471550Y-18599250D02*
X20776550Y-18599250D01*
X21259050Y-9620250D02*
X21259050Y-9925250D01*
X21106550Y-9772750D02*
X21411550Y-9772750D01*
X21259050Y-11525250D02*
X21259050Y-11830250D01*
X21106550Y-11677750D02*
X21411550Y-11677750D01*
X21259050Y-13430250D02*
X21259050Y-13735250D01*
X21106550Y-13582750D02*
X21411550Y-13582750D01*
X21259050Y-15335250D02*
X21259050Y-15640250D01*
X21106550Y-15487750D02*
X21411550Y-15487750D01*
X21259050Y-18192750D02*
X21259050Y-18497750D01*
X21106550Y-18345250D02*
X21411550Y-18345250D01*
X22529050Y-9398000D02*
X22529050Y-9703000D01*
X22376550Y-9550500D02*
X22681550Y-9550500D01*
X22529050Y-11303000D02*
X22529050Y-11608000D01*
X22376550Y-11455500D02*
X22681550Y-11455500D01*
X22529050Y-13208000D02*
X22529050Y-13513000D01*
X22376550Y-13360500D02*
X22681550Y-13360500D01*
X22529050Y-15113000D02*
X22529050Y-15418000D01*
X22376550Y-15265500D02*
X22681550Y-15265500D01*
X22529050Y-17970500D02*
X22529050Y-18275500D01*
X22376550Y-18123000D02*
X22681550Y-18123000D01*
X23164050Y-9144000D02*
X23164050Y-9449000D01*
X23011550Y-9296500D02*
X23316550Y-9296500D01*
X23164050Y-11049000D02*
X23164050Y-11354000D01*
X23011550Y-11201500D02*
X23316550Y-11201500D01*
X23164050Y-12954000D02*
X23164050Y-13259000D01*
X23011550Y-13106500D02*
X23316550Y-13106500D01*
X23164050Y-14859000D02*
X23164050Y-15164000D01*
X23011550Y-15011500D02*
X23316550Y-15011500D01*
X23164050Y-17716500D02*
X23164050Y-18021500D01*
X23011550Y-17869000D02*
X23316550Y-17869000D01*
X24434050Y-8921750D02*
X24434050Y-9226750D01*
X24281550Y-9074250D02*
X24586550Y-9074250D01*
X24434050Y-10826750D02*
X24434050Y-11131750D01*
X24281550Y-10979250D02*
X24586550Y-10979250D01*
X24434050Y-12731750D02*
X24434050Y-13036750D01*
X24281550Y-12884250D02*
X24586550Y-12884250D01*
X24434050Y-14636750D02*
X24434050Y-14941750D01*
X24281550Y-14789250D02*
X24586550Y-14789250D01*
X25069050Y-8667750D02*
X25069050Y-8972750D01*
X24916550Y-8820250D02*
X25221550Y-8820250D01*
X25069050Y-10572750D02*
X25069050Y-10877750D01*
X24916550Y-10725250D02*
X25221550Y-10725250D01*
X25069050Y-12477750D02*
X25069050Y-12782750D01*
X24916550Y-12630250D02*
X25221550Y-12630250D01*
X25069050Y-14382750D02*
X25069050Y-14687750D01*
X24916550Y-14535250D02*
X25221550Y-14535250D01*
X26339050Y-8921750D02*
X26339050Y-9226750D01*
X26186550Y-9074250D02*
X26491550Y-9074250D01*
X26339050Y-10826750D02*
X26339050Y-11131750D01*
X26186550Y-10979250D02*
X26491550Y-10979250D01*
X26339050Y-12731750D02*
X26339050Y-13036750D01*
X26186550Y-12884250D02*
X26491550Y-12884250D01*
X26339050Y-14636750D02*
X26339050Y-14941750D01*
X26186550Y-14789250D02*
X26491550Y-14789250D01*
X26974050Y-8667750D02*
X26974050Y-8972750D01*
X26821550Y-8820250D02*
X27126550Y-8820250D01*
X26974050Y-10572750D02*
X26974050Y-10877750D01*
X26821550Y-10725250D02*
X27126550Y-10725250D01*
X26974050Y-12477750D02*
X26974050Y-12782750D01*
X26821550Y-12630250D02*
X27126550Y-12630250D01*
X26974050Y-14382750D02*
X26974050Y-14687750D01*
X26821550Y-14535250D02*
X27126550Y-14535250D01*
X28244050Y-9398000D02*
X28244050Y-9703000D01*
X28091550Y-9550500D02*
X28396550Y-9550500D01*
X28244050Y-11303000D02*
X28244050Y-11608000D01*
X28091550Y-11455500D02*
X28396550Y-11455500D01*
X28244050Y-13208000D02*
X28244050Y-13513000D01*
X28091550Y-13360500D02*
X28396550Y-13360500D01*
X28244050Y-15113000D02*
X28244050Y-15418000D01*
X28091550Y-15265500D02*
X28396550Y-15265500D01*
X28879050Y-9144000D02*
X28879050Y-9449000D01*
X28726550Y-9296500D02*
X29031550Y-9296500D01*
X28879050Y-11049000D02*
X28879050Y-11354000D01*
X28726550Y-11201500D02*
X29031550Y-11201500D01*
X28879050Y-12954000D02*
X28879050Y-13259000D01*
X28726550Y-13106500D02*
X29031550Y-13106500D01*
X28879050Y-14859000D02*
X28879050Y-15164000D01*
X28726550Y-15011500D02*
X29031550Y-15011500D01*
X30149050Y-9874250D02*
X30149050Y-10179250D01*
X29996550Y-10026750D02*
X30301550Y-10026750D01*
X30149050Y-11779250D02*
X30149050Y-12084250D01*
X29996550Y-11931750D02*
X30301550Y-11931750D01*
X30149050Y-13684250D02*
X30149050Y-13989250D01*
X29996550Y-13836750D02*
X30301550Y-13836750D01*
X30149050Y-15589250D02*
X30149050Y-15894250D01*
X29996550Y-15741750D02*
X30301550Y-15741750D01*
X30784050Y-9620250D02*
X30784050Y-9925250D01*
X30631550Y-9772750D02*
X30936550Y-9772750D01*
X30784050Y-11525250D02*
X30784050Y-11830250D01*
X30631550Y-11677750D02*
X30936550Y-11677750D01*
X30784050Y-13430250D02*
X30784050Y-13735250D01*
X30631550Y-13582750D02*
X30936550Y-13582750D01*
X30784050Y-15335250D02*
X30784050Y-15640250D01*
X30631550Y-15487750D02*
X30936550Y-15487750D01*
D11*
X3047027Y-19833984D02*
X3047027Y-19633984D01*
X3047027Y-19633984D02*
X3094646Y-19633984D01*
X3094646Y-19633984D02*
X3123217Y-19643508D01*
X3123217Y-19643508D02*
X3142265Y-19662555D01*
X3142265Y-19662555D02*
X3151789Y-19681603D01*
X3151789Y-19681603D02*
X3161312Y-19719698D01*
X3161312Y-19719698D02*
X3161312Y-19748270D01*
X3161312Y-19748270D02*
X3151789Y-19786365D01*
X3151789Y-19786365D02*
X3142265Y-19805412D01*
X3142265Y-19805412D02*
X3123217Y-19824460D01*
X3123217Y-19824460D02*
X3094646Y-19833984D01*
X3094646Y-19833984D02*
X3047027Y-19833984D01*
X3247027Y-19833984D02*
X3247027Y-19700650D01*
X3247027Y-19738746D02*
X3256551Y-19719698D01*
X3256551Y-19719698D02*
X3266074Y-19710174D01*
X3266074Y-19710174D02*
X3285122Y-19700650D01*
X3285122Y-19700650D02*
X3304170Y-19700650D01*
X3370836Y-19833984D02*
X3370836Y-19700650D01*
X3370836Y-19633984D02*
X3361312Y-19643508D01*
X3361312Y-19643508D02*
X3370836Y-19653031D01*
X3370836Y-19653031D02*
X3380360Y-19643508D01*
X3380360Y-19643508D02*
X3370836Y-19633984D01*
X3370836Y-19633984D02*
X3370836Y-19653031D01*
X3494646Y-19833984D02*
X3475598Y-19824460D01*
X3475598Y-19824460D02*
X3466074Y-19805412D01*
X3466074Y-19805412D02*
X3466074Y-19633984D01*
X3599408Y-19833984D02*
X3580360Y-19824460D01*
X3580360Y-19824460D02*
X3570836Y-19805412D01*
X3570836Y-19805412D02*
X3570836Y-19633984D01*
X3827979Y-19833984D02*
X3827979Y-19633984D01*
X3827979Y-19633984D02*
X3894646Y-19776841D01*
X3894646Y-19776841D02*
X3961312Y-19633984D01*
X3961312Y-19633984D02*
X3961312Y-19833984D01*
X4142265Y-19833984D02*
X4142265Y-19729222D01*
X4142265Y-19729222D02*
X4132741Y-19710174D01*
X4132741Y-19710174D02*
X4113693Y-19700650D01*
X4113693Y-19700650D02*
X4075598Y-19700650D01*
X4075598Y-19700650D02*
X4056551Y-19710174D01*
X4142265Y-19824460D02*
X4123217Y-19833984D01*
X4123217Y-19833984D02*
X4075598Y-19833984D01*
X4075598Y-19833984D02*
X4056551Y-19824460D01*
X4056551Y-19824460D02*
X4047027Y-19805412D01*
X4047027Y-19805412D02*
X4047027Y-19786365D01*
X4047027Y-19786365D02*
X4056551Y-19767317D01*
X4056551Y-19767317D02*
X4075598Y-19757793D01*
X4075598Y-19757793D02*
X4123217Y-19757793D01*
X4123217Y-19757793D02*
X4142265Y-19748270D01*
X4237503Y-19700650D02*
X4237503Y-19900650D01*
X4237503Y-19710174D02*
X4256551Y-19700650D01*
X4256551Y-19700650D02*
X4294646Y-19700650D01*
X4294646Y-19700650D02*
X4313694Y-19710174D01*
X4313694Y-19710174D02*
X4323217Y-19719698D01*
X4323217Y-19719698D02*
X4332741Y-19738746D01*
X4332741Y-19738746D02*
X4332741Y-19795889D01*
X4332741Y-19795889D02*
X4323217Y-19814936D01*
X4323217Y-19814936D02*
X4313694Y-19824460D01*
X4313694Y-19824460D02*
X4294646Y-19833984D01*
X4294646Y-19833984D02*
X4256551Y-19833984D01*
X4256551Y-19833984D02*
X4237503Y-19824460D01*
X4418455Y-19814936D02*
X4427979Y-19824460D01*
X4427979Y-19824460D02*
X4418455Y-19833984D01*
X4418455Y-19833984D02*
X4408932Y-19824460D01*
X4408932Y-19824460D02*
X4418455Y-19814936D01*
X4418455Y-19814936D02*
X4418455Y-19833984D01*
X4418455Y-19710174D02*
X4427979Y-19719698D01*
X4427979Y-19719698D02*
X4418455Y-19729222D01*
X4418455Y-19729222D02*
X4408932Y-19719698D01*
X4408932Y-19719698D02*
X4418455Y-19710174D01*
X4418455Y-19710174D02*
X4418455Y-19729222D01*
D12*
X2756250Y-20147500D02*
X2786250Y-20177500D01*
X2786250Y-20147500D02*
X2756250Y-20177500D01*
D11*
X3085122Y-20053984D02*
X3104170Y-20053984D01*
X3104170Y-20053984D02*
X3123217Y-20063508D01*
X3123217Y-20063508D02*
X3132741Y-20073031D01*
X3132741Y-20073031D02*
X3142265Y-20092079D01*
X3142265Y-20092079D02*
X3151789Y-20130174D01*
X3151789Y-20130174D02*
X3151789Y-20177793D01*
X3151789Y-20177793D02*
X3142265Y-20215889D01*
X3142265Y-20215889D02*
X3132741Y-20234936D01*
X3132741Y-20234936D02*
X3123217Y-20244460D01*
X3123217Y-20244460D02*
X3104170Y-20253984D01*
X3104170Y-20253984D02*
X3085122Y-20253984D01*
X3085122Y-20253984D02*
X3066074Y-20244460D01*
X3066074Y-20244460D02*
X3056551Y-20234936D01*
X3056551Y-20234936D02*
X3047027Y-20215889D01*
X3047027Y-20215889D02*
X3037503Y-20177793D01*
X3037503Y-20177793D02*
X3037503Y-20130174D01*
X3037503Y-20130174D02*
X3047027Y-20092079D01*
X3047027Y-20092079D02*
X3056551Y-20073031D01*
X3056551Y-20073031D02*
X3066074Y-20063508D01*
X3066074Y-20063508D02*
X3085122Y-20053984D01*
X3237503Y-20234936D02*
X3247027Y-20244460D01*
X3247027Y-20244460D02*
X3237503Y-20253984D01*
X3237503Y-20253984D02*
X3227979Y-20244460D01*
X3227979Y-20244460D02*
X3237503Y-20234936D01*
X3237503Y-20234936D02*
X3237503Y-20253984D01*
X3313693Y-20053984D02*
X3437503Y-20053984D01*
X3437503Y-20053984D02*
X3370836Y-20130174D01*
X3370836Y-20130174D02*
X3399408Y-20130174D01*
X3399408Y-20130174D02*
X3418455Y-20139698D01*
X3418455Y-20139698D02*
X3427979Y-20149222D01*
X3427979Y-20149222D02*
X3437503Y-20168270D01*
X3437503Y-20168270D02*
X3437503Y-20215889D01*
X3437503Y-20215889D02*
X3427979Y-20234936D01*
X3427979Y-20234936D02*
X3418455Y-20244460D01*
X3418455Y-20244460D02*
X3399408Y-20253984D01*
X3399408Y-20253984D02*
X3342265Y-20253984D01*
X3342265Y-20253984D02*
X3323217Y-20244460D01*
X3323217Y-20244460D02*
X3313693Y-20234936D01*
X3561312Y-20053984D02*
X3580360Y-20053984D01*
X3580360Y-20053984D02*
X3599408Y-20063508D01*
X3599408Y-20063508D02*
X3608932Y-20073031D01*
X3608932Y-20073031D02*
X3618455Y-20092079D01*
X3618455Y-20092079D02*
X3627979Y-20130174D01*
X3627979Y-20130174D02*
X3627979Y-20177793D01*
X3627979Y-20177793D02*
X3618455Y-20215889D01*
X3618455Y-20215889D02*
X3608932Y-20234936D01*
X3608932Y-20234936D02*
X3599408Y-20244460D01*
X3599408Y-20244460D02*
X3580360Y-20253984D01*
X3580360Y-20253984D02*
X3561312Y-20253984D01*
X3561312Y-20253984D02*
X3542265Y-20244460D01*
X3542265Y-20244460D02*
X3532741Y-20234936D01*
X3532741Y-20234936D02*
X3523217Y-20215889D01*
X3523217Y-20215889D02*
X3513693Y-20177793D01*
X3513693Y-20177793D02*
X3513693Y-20130174D01*
X3513693Y-20130174D02*
X3523217Y-20092079D01*
X3523217Y-20092079D02*
X3532741Y-20073031D01*
X3532741Y-20073031D02*
X3542265Y-20063508D01*
X3542265Y-20063508D02*
X3561312Y-20053984D01*
X3751789Y-20053984D02*
X3770836Y-20053984D01*
X3770836Y-20053984D02*
X3789884Y-20063508D01*
X3789884Y-20063508D02*
X3799408Y-20073031D01*
X3799408Y-20073031D02*
X3808932Y-20092079D01*
X3808932Y-20092079D02*
X3818455Y-20130174D01*
X3818455Y-20130174D02*
X3818455Y-20177793D01*
X3818455Y-20177793D02*
X3808932Y-20215889D01*
X3808932Y-20215889D02*
X3799408Y-20234936D01*
X3799408Y-20234936D02*
X3789884Y-20244460D01*
X3789884Y-20244460D02*
X3770836Y-20253984D01*
X3770836Y-20253984D02*
X3751789Y-20253984D01*
X3751789Y-20253984D02*
X3732741Y-20244460D01*
X3732741Y-20244460D02*
X3723217Y-20234936D01*
X3723217Y-20234936D02*
X3713693Y-20215889D01*
X3713693Y-20215889D02*
X3704170Y-20177793D01*
X3704170Y-20177793D02*
X3704170Y-20130174D01*
X3704170Y-20130174D02*
X3713693Y-20092079D01*
X3713693Y-20092079D02*
X3723217Y-20073031D01*
X3723217Y-20073031D02*
X3732741Y-20063508D01*
X3732741Y-20063508D02*
X3751789Y-20053984D01*
X3904170Y-20253984D02*
X3904170Y-20120650D01*
X3904170Y-20139698D02*
X3913693Y-20130174D01*
X3913693Y-20130174D02*
X3932741Y-20120650D01*
X3932741Y-20120650D02*
X3961313Y-20120650D01*
X3961313Y-20120650D02*
X3980360Y-20130174D01*
X3980360Y-20130174D02*
X3989884Y-20149222D01*
X3989884Y-20149222D02*
X3989884Y-20253984D01*
X3989884Y-20149222D02*
X3999408Y-20130174D01*
X3999408Y-20130174D02*
X4018455Y-20120650D01*
X4018455Y-20120650D02*
X4047027Y-20120650D01*
X4047027Y-20120650D02*
X4066074Y-20130174D01*
X4066074Y-20130174D02*
X4075598Y-20149222D01*
X4075598Y-20149222D02*
X4075598Y-20253984D01*
X4170836Y-20253984D02*
X4170836Y-20120650D01*
X4170836Y-20139698D02*
X4180360Y-20130174D01*
X4180360Y-20130174D02*
X4199408Y-20120650D01*
X4199408Y-20120650D02*
X4227979Y-20120650D01*
X4227979Y-20120650D02*
X4247027Y-20130174D01*
X4247027Y-20130174D02*
X4256551Y-20149222D01*
X4256551Y-20149222D02*
X4256551Y-20253984D01*
X4256551Y-20149222D02*
X4266075Y-20130174D01*
X4266075Y-20130174D02*
X4285122Y-20120650D01*
X4285122Y-20120650D02*
X4313694Y-20120650D01*
X4313694Y-20120650D02*
X4332741Y-20130174D01*
X4332741Y-20130174D02*
X4342265Y-20149222D01*
X4342265Y-20149222D02*
X4342265Y-20253984D01*
X4732741Y-20044460D02*
X4561313Y-20301603D01*
X4989884Y-20053984D02*
X5008932Y-20053984D01*
X5008932Y-20053984D02*
X5027979Y-20063508D01*
X5027979Y-20063508D02*
X5037503Y-20073031D01*
X5037503Y-20073031D02*
X5047027Y-20092079D01*
X5047027Y-20092079D02*
X5056551Y-20130174D01*
X5056551Y-20130174D02*
X5056551Y-20177793D01*
X5056551Y-20177793D02*
X5047027Y-20215889D01*
X5047027Y-20215889D02*
X5037503Y-20234936D01*
X5037503Y-20234936D02*
X5027979Y-20244460D01*
X5027979Y-20244460D02*
X5008932Y-20253984D01*
X5008932Y-20253984D02*
X4989884Y-20253984D01*
X4989884Y-20253984D02*
X4970837Y-20244460D01*
X4970837Y-20244460D02*
X4961313Y-20234936D01*
X4961313Y-20234936D02*
X4951789Y-20215889D01*
X4951789Y-20215889D02*
X4942265Y-20177793D01*
X4942265Y-20177793D02*
X4942265Y-20130174D01*
X4942265Y-20130174D02*
X4951789Y-20092079D01*
X4951789Y-20092079D02*
X4961313Y-20073031D01*
X4961313Y-20073031D02*
X4970837Y-20063508D01*
X4970837Y-20063508D02*
X4989884Y-20053984D01*
X5142265Y-20234936D02*
X5151789Y-20244460D01*
X5151789Y-20244460D02*
X5142265Y-20253984D01*
X5142265Y-20253984D02*
X5132741Y-20244460D01*
X5132741Y-20244460D02*
X5142265Y-20234936D01*
X5142265Y-20234936D02*
X5142265Y-20253984D01*
X5275598Y-20053984D02*
X5294646Y-20053984D01*
X5294646Y-20053984D02*
X5313694Y-20063508D01*
X5313694Y-20063508D02*
X5323218Y-20073031D01*
X5323218Y-20073031D02*
X5332741Y-20092079D01*
X5332741Y-20092079D02*
X5342265Y-20130174D01*
X5342265Y-20130174D02*
X5342265Y-20177793D01*
X5342265Y-20177793D02*
X5332741Y-20215889D01*
X5332741Y-20215889D02*
X5323218Y-20234936D01*
X5323218Y-20234936D02*
X5313694Y-20244460D01*
X5313694Y-20244460D02*
X5294646Y-20253984D01*
X5294646Y-20253984D02*
X5275598Y-20253984D01*
X5275598Y-20253984D02*
X5256551Y-20244460D01*
X5256551Y-20244460D02*
X5247027Y-20234936D01*
X5247027Y-20234936D02*
X5237503Y-20215889D01*
X5237503Y-20215889D02*
X5227979Y-20177793D01*
X5227979Y-20177793D02*
X5227979Y-20130174D01*
X5227979Y-20130174D02*
X5237503Y-20092079D01*
X5237503Y-20092079D02*
X5247027Y-20073031D01*
X5247027Y-20073031D02*
X5256551Y-20063508D01*
X5256551Y-20063508D02*
X5275598Y-20053984D01*
X5532741Y-20253984D02*
X5418456Y-20253984D01*
X5475598Y-20253984D02*
X5475598Y-20053984D01*
X5475598Y-20053984D02*
X5456551Y-20082555D01*
X5456551Y-20082555D02*
X5437503Y-20101603D01*
X5437503Y-20101603D02*
X5418456Y-20111127D01*
X5723217Y-20253984D02*
X5608932Y-20253984D01*
X5666075Y-20253984D02*
X5666075Y-20053984D01*
X5666075Y-20053984D02*
X5647027Y-20082555D01*
X5647027Y-20082555D02*
X5627979Y-20101603D01*
X5627979Y-20101603D02*
X5608932Y-20111127D01*
X5837503Y-20139698D02*
X5818456Y-20130174D01*
X5818456Y-20130174D02*
X5808932Y-20120650D01*
X5808932Y-20120650D02*
X5799408Y-20101603D01*
X5799408Y-20101603D02*
X5799408Y-20092079D01*
X5799408Y-20092079D02*
X5808932Y-20073031D01*
X5808932Y-20073031D02*
X5818456Y-20063508D01*
X5818456Y-20063508D02*
X5837503Y-20053984D01*
X5837503Y-20053984D02*
X5875598Y-20053984D01*
X5875598Y-20053984D02*
X5894646Y-20063508D01*
X5894646Y-20063508D02*
X5904170Y-20073031D01*
X5904170Y-20073031D02*
X5913694Y-20092079D01*
X5913694Y-20092079D02*
X5913694Y-20101603D01*
X5913694Y-20101603D02*
X5904170Y-20120650D01*
X5904170Y-20120650D02*
X5894646Y-20130174D01*
X5894646Y-20130174D02*
X5875598Y-20139698D01*
X5875598Y-20139698D02*
X5837503Y-20139698D01*
X5837503Y-20139698D02*
X5818456Y-20149222D01*
X5818456Y-20149222D02*
X5808932Y-20158746D01*
X5808932Y-20158746D02*
X5799408Y-20177793D01*
X5799408Y-20177793D02*
X5799408Y-20215889D01*
X5799408Y-20215889D02*
X5808932Y-20234936D01*
X5808932Y-20234936D02*
X5818456Y-20244460D01*
X5818456Y-20244460D02*
X5837503Y-20253984D01*
X5837503Y-20253984D02*
X5875598Y-20253984D01*
X5875598Y-20253984D02*
X5894646Y-20244460D01*
X5894646Y-20244460D02*
X5904170Y-20234936D01*
X5904170Y-20234936D02*
X5913694Y-20215889D01*
X5913694Y-20215889D02*
X5913694Y-20177793D01*
X5913694Y-20177793D02*
X5904170Y-20158746D01*
X5904170Y-20158746D02*
X5894646Y-20149222D01*
X5894646Y-20149222D02*
X5875598Y-20139698D01*
X5989884Y-20053984D02*
X5989884Y-20092079D01*
X6066075Y-20053984D02*
X6066075Y-20092079D01*
X6361313Y-20330174D02*
X6351789Y-20320650D01*
X6351789Y-20320650D02*
X6332741Y-20292079D01*
X6332741Y-20292079D02*
X6323218Y-20273031D01*
X6323218Y-20273031D02*
X6313694Y-20244460D01*
X6313694Y-20244460D02*
X6304170Y-20196841D01*
X6304170Y-20196841D02*
X6304170Y-20158746D01*
X6304170Y-20158746D02*
X6313694Y-20111127D01*
X6313694Y-20111127D02*
X6323218Y-20082555D01*
X6323218Y-20082555D02*
X6332741Y-20063508D01*
X6332741Y-20063508D02*
X6351789Y-20034936D01*
X6351789Y-20034936D02*
X6361313Y-20025412D01*
X6542265Y-20253984D02*
X6427979Y-20253984D01*
X6485122Y-20253984D02*
X6485122Y-20053984D01*
X6485122Y-20053984D02*
X6466075Y-20082555D01*
X6466075Y-20082555D02*
X6447027Y-20101603D01*
X6447027Y-20101603D02*
X6427979Y-20111127D01*
X6723218Y-20053984D02*
X6627979Y-20053984D01*
X6627979Y-20053984D02*
X6618456Y-20149222D01*
X6618456Y-20149222D02*
X6627979Y-20139698D01*
X6627979Y-20139698D02*
X6647027Y-20130174D01*
X6647027Y-20130174D02*
X6694646Y-20130174D01*
X6694646Y-20130174D02*
X6713694Y-20139698D01*
X6713694Y-20139698D02*
X6723218Y-20149222D01*
X6723218Y-20149222D02*
X6732741Y-20168270D01*
X6732741Y-20168270D02*
X6732741Y-20215889D01*
X6732741Y-20215889D02*
X6723218Y-20234936D01*
X6723218Y-20234936D02*
X6713694Y-20244460D01*
X6713694Y-20244460D02*
X6694646Y-20253984D01*
X6694646Y-20253984D02*
X6647027Y-20253984D01*
X6647027Y-20253984D02*
X6627979Y-20244460D01*
X6627979Y-20244460D02*
X6618456Y-20234936D01*
X6970837Y-20253984D02*
X6970837Y-20053984D01*
X7056551Y-20253984D02*
X7056551Y-20149222D01*
X7056551Y-20149222D02*
X7047027Y-20130174D01*
X7047027Y-20130174D02*
X7027980Y-20120650D01*
X7027980Y-20120650D02*
X6999408Y-20120650D01*
X6999408Y-20120650D02*
X6980360Y-20130174D01*
X6980360Y-20130174D02*
X6970837Y-20139698D01*
X7180360Y-20253984D02*
X7161313Y-20244460D01*
X7161313Y-20244460D02*
X7151789Y-20234936D01*
X7151789Y-20234936D02*
X7142265Y-20215889D01*
X7142265Y-20215889D02*
X7142265Y-20158746D01*
X7142265Y-20158746D02*
X7151789Y-20139698D01*
X7151789Y-20139698D02*
X7161313Y-20130174D01*
X7161313Y-20130174D02*
X7180360Y-20120650D01*
X7180360Y-20120650D02*
X7208932Y-20120650D01*
X7208932Y-20120650D02*
X7227980Y-20130174D01*
X7227980Y-20130174D02*
X7237503Y-20139698D01*
X7237503Y-20139698D02*
X7247027Y-20158746D01*
X7247027Y-20158746D02*
X7247027Y-20215889D01*
X7247027Y-20215889D02*
X7237503Y-20234936D01*
X7237503Y-20234936D02*
X7227980Y-20244460D01*
X7227980Y-20244460D02*
X7208932Y-20253984D01*
X7208932Y-20253984D02*
X7180360Y-20253984D01*
X7361313Y-20253984D02*
X7342265Y-20244460D01*
X7342265Y-20244460D02*
X7332741Y-20225412D01*
X7332741Y-20225412D02*
X7332741Y-20053984D01*
X7513694Y-20244460D02*
X7494646Y-20253984D01*
X7494646Y-20253984D02*
X7456551Y-20253984D01*
X7456551Y-20253984D02*
X7437503Y-20244460D01*
X7437503Y-20244460D02*
X7427980Y-20225412D01*
X7427980Y-20225412D02*
X7427980Y-20149222D01*
X7427980Y-20149222D02*
X7437503Y-20130174D01*
X7437503Y-20130174D02*
X7456551Y-20120650D01*
X7456551Y-20120650D02*
X7494646Y-20120650D01*
X7494646Y-20120650D02*
X7513694Y-20130174D01*
X7513694Y-20130174D02*
X7523218Y-20149222D01*
X7523218Y-20149222D02*
X7523218Y-20168270D01*
X7523218Y-20168270D02*
X7427980Y-20187317D01*
X7599408Y-20244460D02*
X7618456Y-20253984D01*
X7618456Y-20253984D02*
X7656551Y-20253984D01*
X7656551Y-20253984D02*
X7675599Y-20244460D01*
X7675599Y-20244460D02*
X7685122Y-20225412D01*
X7685122Y-20225412D02*
X7685122Y-20215889D01*
X7685122Y-20215889D02*
X7675599Y-20196841D01*
X7675599Y-20196841D02*
X7656551Y-20187317D01*
X7656551Y-20187317D02*
X7627980Y-20187317D01*
X7627980Y-20187317D02*
X7608932Y-20177793D01*
X7608932Y-20177793D02*
X7599408Y-20158746D01*
X7599408Y-20158746D02*
X7599408Y-20149222D01*
X7599408Y-20149222D02*
X7608932Y-20130174D01*
X7608932Y-20130174D02*
X7627980Y-20120650D01*
X7627980Y-20120650D02*
X7656551Y-20120650D01*
X7656551Y-20120650D02*
X7675599Y-20130174D01*
X7751789Y-20330174D02*
X7761313Y-20320650D01*
X7761313Y-20320650D02*
X7780361Y-20292079D01*
X7780361Y-20292079D02*
X7789884Y-20273031D01*
X7789884Y-20273031D02*
X7799408Y-20244460D01*
X7799408Y-20244460D02*
X7808932Y-20196841D01*
X7808932Y-20196841D02*
X7808932Y-20158746D01*
X7808932Y-20158746D02*
X7799408Y-20111127D01*
X7799408Y-20111127D02*
X7789884Y-20082555D01*
X7789884Y-20082555D02*
X7780361Y-20063508D01*
X7780361Y-20063508D02*
X7761313Y-20034936D01*
X7761313Y-20034936D02*
X7751789Y-20025412D01*
X2786250Y-20426500D02*
G75*
G02*
X2586250Y-20426500I-100000J0D01*
G01*
X2586250Y-20426500D02*
G75*
G02*
X2786250Y-20426500I100000J0D01*
G01*
X3037503Y-20337031D02*
X3047027Y-20327508D01*
X3047027Y-20327508D02*
X3066074Y-20317984D01*
X3066074Y-20317984D02*
X3113693Y-20317984D01*
X3113693Y-20317984D02*
X3132741Y-20327508D01*
X3132741Y-20327508D02*
X3142265Y-20337031D01*
X3142265Y-20337031D02*
X3151789Y-20356079D01*
X3151789Y-20356079D02*
X3151789Y-20375127D01*
X3151789Y-20375127D02*
X3142265Y-20403698D01*
X3142265Y-20403698D02*
X3027979Y-20517984D01*
X3027979Y-20517984D02*
X3151789Y-20517984D01*
X3237503Y-20498936D02*
X3247027Y-20508460D01*
X3247027Y-20508460D02*
X3237503Y-20517984D01*
X3237503Y-20517984D02*
X3227979Y-20508460D01*
X3227979Y-20508460D02*
X3237503Y-20498936D01*
X3237503Y-20498936D02*
X3237503Y-20517984D01*
X3427979Y-20317984D02*
X3332741Y-20317984D01*
X3332741Y-20317984D02*
X3323217Y-20413222D01*
X3323217Y-20413222D02*
X3332741Y-20403698D01*
X3332741Y-20403698D02*
X3351789Y-20394174D01*
X3351789Y-20394174D02*
X3399408Y-20394174D01*
X3399408Y-20394174D02*
X3418455Y-20403698D01*
X3418455Y-20403698D02*
X3427979Y-20413222D01*
X3427979Y-20413222D02*
X3437503Y-20432270D01*
X3437503Y-20432270D02*
X3437503Y-20479889D01*
X3437503Y-20479889D02*
X3427979Y-20498936D01*
X3427979Y-20498936D02*
X3418455Y-20508460D01*
X3418455Y-20508460D02*
X3399408Y-20517984D01*
X3399408Y-20517984D02*
X3351789Y-20517984D01*
X3351789Y-20517984D02*
X3332741Y-20508460D01*
X3332741Y-20508460D02*
X3323217Y-20498936D01*
X3561312Y-20317984D02*
X3580360Y-20317984D01*
X3580360Y-20317984D02*
X3599408Y-20327508D01*
X3599408Y-20327508D02*
X3608932Y-20337031D01*
X3608932Y-20337031D02*
X3618455Y-20356079D01*
X3618455Y-20356079D02*
X3627979Y-20394174D01*
X3627979Y-20394174D02*
X3627979Y-20441793D01*
X3627979Y-20441793D02*
X3618455Y-20479889D01*
X3618455Y-20479889D02*
X3608932Y-20498936D01*
X3608932Y-20498936D02*
X3599408Y-20508460D01*
X3599408Y-20508460D02*
X3580360Y-20517984D01*
X3580360Y-20517984D02*
X3561312Y-20517984D01*
X3561312Y-20517984D02*
X3542265Y-20508460D01*
X3542265Y-20508460D02*
X3532741Y-20498936D01*
X3532741Y-20498936D02*
X3523217Y-20479889D01*
X3523217Y-20479889D02*
X3513693Y-20441793D01*
X3513693Y-20441793D02*
X3513693Y-20394174D01*
X3513693Y-20394174D02*
X3523217Y-20356079D01*
X3523217Y-20356079D02*
X3532741Y-20337031D01*
X3532741Y-20337031D02*
X3542265Y-20327508D01*
X3542265Y-20327508D02*
X3561312Y-20317984D01*
X3751789Y-20317984D02*
X3770836Y-20317984D01*
X3770836Y-20317984D02*
X3789884Y-20327508D01*
X3789884Y-20327508D02*
X3799408Y-20337031D01*
X3799408Y-20337031D02*
X3808932Y-20356079D01*
X3808932Y-20356079D02*
X3818455Y-20394174D01*
X3818455Y-20394174D02*
X3818455Y-20441793D01*
X3818455Y-20441793D02*
X3808932Y-20479889D01*
X3808932Y-20479889D02*
X3799408Y-20498936D01*
X3799408Y-20498936D02*
X3789884Y-20508460D01*
X3789884Y-20508460D02*
X3770836Y-20517984D01*
X3770836Y-20517984D02*
X3751789Y-20517984D01*
X3751789Y-20517984D02*
X3732741Y-20508460D01*
X3732741Y-20508460D02*
X3723217Y-20498936D01*
X3723217Y-20498936D02*
X3713693Y-20479889D01*
X3713693Y-20479889D02*
X3704170Y-20441793D01*
X3704170Y-20441793D02*
X3704170Y-20394174D01*
X3704170Y-20394174D02*
X3713693Y-20356079D01*
X3713693Y-20356079D02*
X3723217Y-20337031D01*
X3723217Y-20337031D02*
X3732741Y-20327508D01*
X3732741Y-20327508D02*
X3751789Y-20317984D01*
X3904170Y-20517984D02*
X3904170Y-20384650D01*
X3904170Y-20403698D02*
X3913693Y-20394174D01*
X3913693Y-20394174D02*
X3932741Y-20384650D01*
X3932741Y-20384650D02*
X3961313Y-20384650D01*
X3961313Y-20384650D02*
X3980360Y-20394174D01*
X3980360Y-20394174D02*
X3989884Y-20413222D01*
X3989884Y-20413222D02*
X3989884Y-20517984D01*
X3989884Y-20413222D02*
X3999408Y-20394174D01*
X3999408Y-20394174D02*
X4018455Y-20384650D01*
X4018455Y-20384650D02*
X4047027Y-20384650D01*
X4047027Y-20384650D02*
X4066074Y-20394174D01*
X4066074Y-20394174D02*
X4075598Y-20413222D01*
X4075598Y-20413222D02*
X4075598Y-20517984D01*
X4170836Y-20517984D02*
X4170836Y-20384650D01*
X4170836Y-20403698D02*
X4180360Y-20394174D01*
X4180360Y-20394174D02*
X4199408Y-20384650D01*
X4199408Y-20384650D02*
X4227979Y-20384650D01*
X4227979Y-20384650D02*
X4247027Y-20394174D01*
X4247027Y-20394174D02*
X4256551Y-20413222D01*
X4256551Y-20413222D02*
X4256551Y-20517984D01*
X4256551Y-20413222D02*
X4266075Y-20394174D01*
X4266075Y-20394174D02*
X4285122Y-20384650D01*
X4285122Y-20384650D02*
X4313694Y-20384650D01*
X4313694Y-20384650D02*
X4332741Y-20394174D01*
X4332741Y-20394174D02*
X4342265Y-20413222D01*
X4342265Y-20413222D02*
X4342265Y-20517984D01*
X4732741Y-20308460D02*
X4561313Y-20565603D01*
X4989884Y-20317984D02*
X5008932Y-20317984D01*
X5008932Y-20317984D02*
X5027979Y-20327508D01*
X5027979Y-20327508D02*
X5037503Y-20337031D01*
X5037503Y-20337031D02*
X5047027Y-20356079D01*
X5047027Y-20356079D02*
X5056551Y-20394174D01*
X5056551Y-20394174D02*
X5056551Y-20441793D01*
X5056551Y-20441793D02*
X5047027Y-20479889D01*
X5047027Y-20479889D02*
X5037503Y-20498936D01*
X5037503Y-20498936D02*
X5027979Y-20508460D01*
X5027979Y-20508460D02*
X5008932Y-20517984D01*
X5008932Y-20517984D02*
X4989884Y-20517984D01*
X4989884Y-20517984D02*
X4970837Y-20508460D01*
X4970837Y-20508460D02*
X4961313Y-20498936D01*
X4961313Y-20498936D02*
X4951789Y-20479889D01*
X4951789Y-20479889D02*
X4942265Y-20441793D01*
X4942265Y-20441793D02*
X4942265Y-20394174D01*
X4942265Y-20394174D02*
X4951789Y-20356079D01*
X4951789Y-20356079D02*
X4961313Y-20337031D01*
X4961313Y-20337031D02*
X4970837Y-20327508D01*
X4970837Y-20327508D02*
X4989884Y-20317984D01*
X5142265Y-20498936D02*
X5151789Y-20508460D01*
X5151789Y-20508460D02*
X5142265Y-20517984D01*
X5142265Y-20517984D02*
X5132741Y-20508460D01*
X5132741Y-20508460D02*
X5142265Y-20498936D01*
X5142265Y-20498936D02*
X5142265Y-20517984D01*
X5275598Y-20317984D02*
X5294646Y-20317984D01*
X5294646Y-20317984D02*
X5313694Y-20327508D01*
X5313694Y-20327508D02*
X5323218Y-20337031D01*
X5323218Y-20337031D02*
X5332741Y-20356079D01*
X5332741Y-20356079D02*
X5342265Y-20394174D01*
X5342265Y-20394174D02*
X5342265Y-20441793D01*
X5342265Y-20441793D02*
X5332741Y-20479889D01*
X5332741Y-20479889D02*
X5323218Y-20498936D01*
X5323218Y-20498936D02*
X5313694Y-20508460D01*
X5313694Y-20508460D02*
X5294646Y-20517984D01*
X5294646Y-20517984D02*
X5275598Y-20517984D01*
X5275598Y-20517984D02*
X5256551Y-20508460D01*
X5256551Y-20508460D02*
X5247027Y-20498936D01*
X5247027Y-20498936D02*
X5237503Y-20479889D01*
X5237503Y-20479889D02*
X5227979Y-20441793D01*
X5227979Y-20441793D02*
X5227979Y-20394174D01*
X5227979Y-20394174D02*
X5237503Y-20356079D01*
X5237503Y-20356079D02*
X5247027Y-20337031D01*
X5247027Y-20337031D02*
X5256551Y-20327508D01*
X5256551Y-20327508D02*
X5275598Y-20317984D01*
X5437503Y-20517984D02*
X5475598Y-20517984D01*
X5475598Y-20517984D02*
X5494646Y-20508460D01*
X5494646Y-20508460D02*
X5504170Y-20498936D01*
X5504170Y-20498936D02*
X5523218Y-20470365D01*
X5523218Y-20470365D02*
X5532741Y-20432270D01*
X5532741Y-20432270D02*
X5532741Y-20356079D01*
X5532741Y-20356079D02*
X5523218Y-20337031D01*
X5523218Y-20337031D02*
X5513694Y-20327508D01*
X5513694Y-20327508D02*
X5494646Y-20317984D01*
X5494646Y-20317984D02*
X5456551Y-20317984D01*
X5456551Y-20317984D02*
X5437503Y-20327508D01*
X5437503Y-20327508D02*
X5427979Y-20337031D01*
X5427979Y-20337031D02*
X5418456Y-20356079D01*
X5418456Y-20356079D02*
X5418456Y-20403698D01*
X5418456Y-20403698D02*
X5427979Y-20422746D01*
X5427979Y-20422746D02*
X5437503Y-20432270D01*
X5437503Y-20432270D02*
X5456551Y-20441793D01*
X5456551Y-20441793D02*
X5494646Y-20441793D01*
X5494646Y-20441793D02*
X5513694Y-20432270D01*
X5513694Y-20432270D02*
X5523218Y-20422746D01*
X5523218Y-20422746D02*
X5532741Y-20403698D01*
X5647027Y-20403698D02*
X5627979Y-20394174D01*
X5627979Y-20394174D02*
X5618456Y-20384650D01*
X5618456Y-20384650D02*
X5608932Y-20365603D01*
X5608932Y-20365603D02*
X5608932Y-20356079D01*
X5608932Y-20356079D02*
X5618456Y-20337031D01*
X5618456Y-20337031D02*
X5627979Y-20327508D01*
X5627979Y-20327508D02*
X5647027Y-20317984D01*
X5647027Y-20317984D02*
X5685122Y-20317984D01*
X5685122Y-20317984D02*
X5704170Y-20327508D01*
X5704170Y-20327508D02*
X5713694Y-20337031D01*
X5713694Y-20337031D02*
X5723217Y-20356079D01*
X5723217Y-20356079D02*
X5723217Y-20365603D01*
X5723217Y-20365603D02*
X5713694Y-20384650D01*
X5713694Y-20384650D02*
X5704170Y-20394174D01*
X5704170Y-20394174D02*
X5685122Y-20403698D01*
X5685122Y-20403698D02*
X5647027Y-20403698D01*
X5647027Y-20403698D02*
X5627979Y-20413222D01*
X5627979Y-20413222D02*
X5618456Y-20422746D01*
X5618456Y-20422746D02*
X5608932Y-20441793D01*
X5608932Y-20441793D02*
X5608932Y-20479889D01*
X5608932Y-20479889D02*
X5618456Y-20498936D01*
X5618456Y-20498936D02*
X5627979Y-20508460D01*
X5627979Y-20508460D02*
X5647027Y-20517984D01*
X5647027Y-20517984D02*
X5685122Y-20517984D01*
X5685122Y-20517984D02*
X5704170Y-20508460D01*
X5704170Y-20508460D02*
X5713694Y-20498936D01*
X5713694Y-20498936D02*
X5723217Y-20479889D01*
X5723217Y-20479889D02*
X5723217Y-20441793D01*
X5723217Y-20441793D02*
X5713694Y-20422746D01*
X5713694Y-20422746D02*
X5704170Y-20413222D01*
X5704170Y-20413222D02*
X5685122Y-20403698D01*
X5894646Y-20384650D02*
X5894646Y-20517984D01*
X5847027Y-20308460D02*
X5799408Y-20451317D01*
X5799408Y-20451317D02*
X5923217Y-20451317D01*
X5989884Y-20317984D02*
X5989884Y-20356079D01*
X6066075Y-20317984D02*
X6066075Y-20356079D01*
X6361313Y-20594174D02*
X6351789Y-20584650D01*
X6351789Y-20584650D02*
X6332741Y-20556079D01*
X6332741Y-20556079D02*
X6323218Y-20537031D01*
X6323218Y-20537031D02*
X6313694Y-20508460D01*
X6313694Y-20508460D02*
X6304170Y-20460841D01*
X6304170Y-20460841D02*
X6304170Y-20422746D01*
X6304170Y-20422746D02*
X6313694Y-20375127D01*
X6313694Y-20375127D02*
X6323218Y-20346555D01*
X6323218Y-20346555D02*
X6332741Y-20327508D01*
X6332741Y-20327508D02*
X6351789Y-20298936D01*
X6351789Y-20298936D02*
X6361313Y-20289412D01*
X6523218Y-20384650D02*
X6523218Y-20517984D01*
X6475598Y-20308460D02*
X6427979Y-20451317D01*
X6427979Y-20451317D02*
X6551789Y-20451317D01*
X6780360Y-20517984D02*
X6780360Y-20317984D01*
X6866075Y-20517984D02*
X6866075Y-20413222D01*
X6866075Y-20413222D02*
X6856551Y-20394174D01*
X6856551Y-20394174D02*
X6837503Y-20384650D01*
X6837503Y-20384650D02*
X6808932Y-20384650D01*
X6808932Y-20384650D02*
X6789884Y-20394174D01*
X6789884Y-20394174D02*
X6780360Y-20403698D01*
X6989884Y-20517984D02*
X6970837Y-20508460D01*
X6970837Y-20508460D02*
X6961313Y-20498936D01*
X6961313Y-20498936D02*
X6951789Y-20479889D01*
X6951789Y-20479889D02*
X6951789Y-20422746D01*
X6951789Y-20422746D02*
X6961313Y-20403698D01*
X6961313Y-20403698D02*
X6970837Y-20394174D01*
X6970837Y-20394174D02*
X6989884Y-20384650D01*
X6989884Y-20384650D02*
X7018456Y-20384650D01*
X7018456Y-20384650D02*
X7037503Y-20394174D01*
X7037503Y-20394174D02*
X7047027Y-20403698D01*
X7047027Y-20403698D02*
X7056551Y-20422746D01*
X7056551Y-20422746D02*
X7056551Y-20479889D01*
X7056551Y-20479889D02*
X7047027Y-20498936D01*
X7047027Y-20498936D02*
X7037503Y-20508460D01*
X7037503Y-20508460D02*
X7018456Y-20517984D01*
X7018456Y-20517984D02*
X6989884Y-20517984D01*
X7170837Y-20517984D02*
X7151789Y-20508460D01*
X7151789Y-20508460D02*
X7142265Y-20489412D01*
X7142265Y-20489412D02*
X7142265Y-20317984D01*
X7323218Y-20508460D02*
X7304170Y-20517984D01*
X7304170Y-20517984D02*
X7266075Y-20517984D01*
X7266075Y-20517984D02*
X7247027Y-20508460D01*
X7247027Y-20508460D02*
X7237503Y-20489412D01*
X7237503Y-20489412D02*
X7237503Y-20413222D01*
X7237503Y-20413222D02*
X7247027Y-20394174D01*
X7247027Y-20394174D02*
X7266075Y-20384650D01*
X7266075Y-20384650D02*
X7304170Y-20384650D01*
X7304170Y-20384650D02*
X7323218Y-20394174D01*
X7323218Y-20394174D02*
X7332741Y-20413222D01*
X7332741Y-20413222D02*
X7332741Y-20432270D01*
X7332741Y-20432270D02*
X7237503Y-20451317D01*
X7408932Y-20508460D02*
X7427980Y-20517984D01*
X7427980Y-20517984D02*
X7466075Y-20517984D01*
X7466075Y-20517984D02*
X7485122Y-20508460D01*
X7485122Y-20508460D02*
X7494646Y-20489412D01*
X7494646Y-20489412D02*
X7494646Y-20479889D01*
X7494646Y-20479889D02*
X7485122Y-20460841D01*
X7485122Y-20460841D02*
X7466075Y-20451317D01*
X7466075Y-20451317D02*
X7437503Y-20451317D01*
X7437503Y-20451317D02*
X7418456Y-20441793D01*
X7418456Y-20441793D02*
X7408932Y-20422746D01*
X7408932Y-20422746D02*
X7408932Y-20413222D01*
X7408932Y-20413222D02*
X7418456Y-20394174D01*
X7418456Y-20394174D02*
X7437503Y-20384650D01*
X7437503Y-20384650D02*
X7466075Y-20384650D01*
X7466075Y-20384650D02*
X7485122Y-20394174D01*
X7561313Y-20594174D02*
X7570837Y-20584650D01*
X7570837Y-20584650D02*
X7589884Y-20556079D01*
X7589884Y-20556079D02*
X7599408Y-20537031D01*
X7599408Y-20537031D02*
X7608932Y-20508460D01*
X7608932Y-20508460D02*
X7618456Y-20460841D01*
X7618456Y-20460841D02*
X7618456Y-20422746D01*
X7618456Y-20422746D02*
X7608932Y-20375127D01*
X7608932Y-20375127D02*
X7599408Y-20346555D01*
X7599408Y-20346555D02*
X7589884Y-20327508D01*
X7589884Y-20327508D02*
X7570837Y-20298936D01*
X7570837Y-20298936D02*
X7561313Y-20289412D01*
X2686250Y-20646500D02*
X2686250Y-20846500D01*
X2586250Y-20746500D02*
X2786250Y-20746500D01*
X3027979Y-20637984D02*
X3151789Y-20637984D01*
X3151789Y-20637984D02*
X3085122Y-20714174D01*
X3085122Y-20714174D02*
X3113693Y-20714174D01*
X3113693Y-20714174D02*
X3132741Y-20723698D01*
X3132741Y-20723698D02*
X3142265Y-20733222D01*
X3142265Y-20733222D02*
X3151789Y-20752270D01*
X3151789Y-20752270D02*
X3151789Y-20799889D01*
X3151789Y-20799889D02*
X3142265Y-20818936D01*
X3142265Y-20818936D02*
X3132741Y-20828460D01*
X3132741Y-20828460D02*
X3113693Y-20837984D01*
X3113693Y-20837984D02*
X3056551Y-20837984D01*
X3056551Y-20837984D02*
X3037503Y-20828460D01*
X3037503Y-20828460D02*
X3027979Y-20818936D01*
X3237503Y-20818936D02*
X3247027Y-20828460D01*
X3247027Y-20828460D02*
X3237503Y-20837984D01*
X3237503Y-20837984D02*
X3227979Y-20828460D01*
X3227979Y-20828460D02*
X3237503Y-20818936D01*
X3237503Y-20818936D02*
X3237503Y-20837984D01*
X3370836Y-20637984D02*
X3389884Y-20637984D01*
X3389884Y-20637984D02*
X3408932Y-20647508D01*
X3408932Y-20647508D02*
X3418455Y-20657031D01*
X3418455Y-20657031D02*
X3427979Y-20676079D01*
X3427979Y-20676079D02*
X3437503Y-20714174D01*
X3437503Y-20714174D02*
X3437503Y-20761793D01*
X3437503Y-20761793D02*
X3427979Y-20799889D01*
X3427979Y-20799889D02*
X3418455Y-20818936D01*
X3418455Y-20818936D02*
X3408932Y-20828460D01*
X3408932Y-20828460D02*
X3389884Y-20837984D01*
X3389884Y-20837984D02*
X3370836Y-20837984D01*
X3370836Y-20837984D02*
X3351789Y-20828460D01*
X3351789Y-20828460D02*
X3342265Y-20818936D01*
X3342265Y-20818936D02*
X3332741Y-20799889D01*
X3332741Y-20799889D02*
X3323217Y-20761793D01*
X3323217Y-20761793D02*
X3323217Y-20714174D01*
X3323217Y-20714174D02*
X3332741Y-20676079D01*
X3332741Y-20676079D02*
X3342265Y-20657031D01*
X3342265Y-20657031D02*
X3351789Y-20647508D01*
X3351789Y-20647508D02*
X3370836Y-20637984D01*
X3618455Y-20637984D02*
X3523217Y-20637984D01*
X3523217Y-20637984D02*
X3513693Y-20733222D01*
X3513693Y-20733222D02*
X3523217Y-20723698D01*
X3523217Y-20723698D02*
X3542265Y-20714174D01*
X3542265Y-20714174D02*
X3589884Y-20714174D01*
X3589884Y-20714174D02*
X3608932Y-20723698D01*
X3608932Y-20723698D02*
X3618455Y-20733222D01*
X3618455Y-20733222D02*
X3627979Y-20752270D01*
X3627979Y-20752270D02*
X3627979Y-20799889D01*
X3627979Y-20799889D02*
X3618455Y-20818936D01*
X3618455Y-20818936D02*
X3608932Y-20828460D01*
X3608932Y-20828460D02*
X3589884Y-20837984D01*
X3589884Y-20837984D02*
X3542265Y-20837984D01*
X3542265Y-20837984D02*
X3523217Y-20828460D01*
X3523217Y-20828460D02*
X3513693Y-20818936D01*
X3751789Y-20637984D02*
X3770836Y-20637984D01*
X3770836Y-20637984D02*
X3789884Y-20647508D01*
X3789884Y-20647508D02*
X3799408Y-20657031D01*
X3799408Y-20657031D02*
X3808932Y-20676079D01*
X3808932Y-20676079D02*
X3818455Y-20714174D01*
X3818455Y-20714174D02*
X3818455Y-20761793D01*
X3818455Y-20761793D02*
X3808932Y-20799889D01*
X3808932Y-20799889D02*
X3799408Y-20818936D01*
X3799408Y-20818936D02*
X3789884Y-20828460D01*
X3789884Y-20828460D02*
X3770836Y-20837984D01*
X3770836Y-20837984D02*
X3751789Y-20837984D01*
X3751789Y-20837984D02*
X3732741Y-20828460D01*
X3732741Y-20828460D02*
X3723217Y-20818936D01*
X3723217Y-20818936D02*
X3713693Y-20799889D01*
X3713693Y-20799889D02*
X3704170Y-20761793D01*
X3704170Y-20761793D02*
X3704170Y-20714174D01*
X3704170Y-20714174D02*
X3713693Y-20676079D01*
X3713693Y-20676079D02*
X3723217Y-20657031D01*
X3723217Y-20657031D02*
X3732741Y-20647508D01*
X3732741Y-20647508D02*
X3751789Y-20637984D01*
X3904170Y-20837984D02*
X3904170Y-20704650D01*
X3904170Y-20723698D02*
X3913693Y-20714174D01*
X3913693Y-20714174D02*
X3932741Y-20704650D01*
X3932741Y-20704650D02*
X3961313Y-20704650D01*
X3961313Y-20704650D02*
X3980360Y-20714174D01*
X3980360Y-20714174D02*
X3989884Y-20733222D01*
X3989884Y-20733222D02*
X3989884Y-20837984D01*
X3989884Y-20733222D02*
X3999408Y-20714174D01*
X3999408Y-20714174D02*
X4018455Y-20704650D01*
X4018455Y-20704650D02*
X4047027Y-20704650D01*
X4047027Y-20704650D02*
X4066074Y-20714174D01*
X4066074Y-20714174D02*
X4075598Y-20733222D01*
X4075598Y-20733222D02*
X4075598Y-20837984D01*
X4170836Y-20837984D02*
X4170836Y-20704650D01*
X4170836Y-20723698D02*
X4180360Y-20714174D01*
X4180360Y-20714174D02*
X4199408Y-20704650D01*
X4199408Y-20704650D02*
X4227979Y-20704650D01*
X4227979Y-20704650D02*
X4247027Y-20714174D01*
X4247027Y-20714174D02*
X4256551Y-20733222D01*
X4256551Y-20733222D02*
X4256551Y-20837984D01*
X4256551Y-20733222D02*
X4266075Y-20714174D01*
X4266075Y-20714174D02*
X4285122Y-20704650D01*
X4285122Y-20704650D02*
X4313694Y-20704650D01*
X4313694Y-20704650D02*
X4332741Y-20714174D01*
X4332741Y-20714174D02*
X4342265Y-20733222D01*
X4342265Y-20733222D02*
X4342265Y-20837984D01*
X4732741Y-20628460D02*
X4561313Y-20885603D01*
X4989884Y-20637984D02*
X5008932Y-20637984D01*
X5008932Y-20637984D02*
X5027979Y-20647508D01*
X5027979Y-20647508D02*
X5037503Y-20657031D01*
X5037503Y-20657031D02*
X5047027Y-20676079D01*
X5047027Y-20676079D02*
X5056551Y-20714174D01*
X5056551Y-20714174D02*
X5056551Y-20761793D01*
X5056551Y-20761793D02*
X5047027Y-20799889D01*
X5047027Y-20799889D02*
X5037503Y-20818936D01*
X5037503Y-20818936D02*
X5027979Y-20828460D01*
X5027979Y-20828460D02*
X5008932Y-20837984D01*
X5008932Y-20837984D02*
X4989884Y-20837984D01*
X4989884Y-20837984D02*
X4970837Y-20828460D01*
X4970837Y-20828460D02*
X4961313Y-20818936D01*
X4961313Y-20818936D02*
X4951789Y-20799889D01*
X4951789Y-20799889D02*
X4942265Y-20761793D01*
X4942265Y-20761793D02*
X4942265Y-20714174D01*
X4942265Y-20714174D02*
X4951789Y-20676079D01*
X4951789Y-20676079D02*
X4961313Y-20657031D01*
X4961313Y-20657031D02*
X4970837Y-20647508D01*
X4970837Y-20647508D02*
X4989884Y-20637984D01*
X5142265Y-20818936D02*
X5151789Y-20828460D01*
X5151789Y-20828460D02*
X5142265Y-20837984D01*
X5142265Y-20837984D02*
X5132741Y-20828460D01*
X5132741Y-20828460D02*
X5142265Y-20818936D01*
X5142265Y-20818936D02*
X5142265Y-20837984D01*
X5342265Y-20837984D02*
X5227979Y-20837984D01*
X5285122Y-20837984D02*
X5285122Y-20637984D01*
X5285122Y-20637984D02*
X5266075Y-20666555D01*
X5266075Y-20666555D02*
X5247027Y-20685603D01*
X5247027Y-20685603D02*
X5227979Y-20695127D01*
X5418456Y-20657031D02*
X5427979Y-20647508D01*
X5427979Y-20647508D02*
X5447027Y-20637984D01*
X5447027Y-20637984D02*
X5494646Y-20637984D01*
X5494646Y-20637984D02*
X5513694Y-20647508D01*
X5513694Y-20647508D02*
X5523218Y-20657031D01*
X5523218Y-20657031D02*
X5532741Y-20676079D01*
X5532741Y-20676079D02*
X5532741Y-20695127D01*
X5532741Y-20695127D02*
X5523218Y-20723698D01*
X5523218Y-20723698D02*
X5408932Y-20837984D01*
X5408932Y-20837984D02*
X5532741Y-20837984D01*
X5656551Y-20637984D02*
X5675598Y-20637984D01*
X5675598Y-20637984D02*
X5694646Y-20647508D01*
X5694646Y-20647508D02*
X5704170Y-20657031D01*
X5704170Y-20657031D02*
X5713694Y-20676079D01*
X5713694Y-20676079D02*
X5723217Y-20714174D01*
X5723217Y-20714174D02*
X5723217Y-20761793D01*
X5723217Y-20761793D02*
X5713694Y-20799889D01*
X5713694Y-20799889D02*
X5704170Y-20818936D01*
X5704170Y-20818936D02*
X5694646Y-20828460D01*
X5694646Y-20828460D02*
X5675598Y-20837984D01*
X5675598Y-20837984D02*
X5656551Y-20837984D01*
X5656551Y-20837984D02*
X5637503Y-20828460D01*
X5637503Y-20828460D02*
X5627979Y-20818936D01*
X5627979Y-20818936D02*
X5618456Y-20799889D01*
X5618456Y-20799889D02*
X5608932Y-20761793D01*
X5608932Y-20761793D02*
X5608932Y-20714174D01*
X5608932Y-20714174D02*
X5618456Y-20676079D01*
X5618456Y-20676079D02*
X5627979Y-20657031D01*
X5627979Y-20657031D02*
X5637503Y-20647508D01*
X5637503Y-20647508D02*
X5656551Y-20637984D01*
X5913694Y-20837984D02*
X5799408Y-20837984D01*
X5856551Y-20837984D02*
X5856551Y-20637984D01*
X5856551Y-20637984D02*
X5837503Y-20666555D01*
X5837503Y-20666555D02*
X5818456Y-20685603D01*
X5818456Y-20685603D02*
X5799408Y-20695127D01*
X5989884Y-20637984D02*
X5989884Y-20676079D01*
X6066075Y-20637984D02*
X6066075Y-20676079D01*
X6361313Y-20914174D02*
X6351789Y-20904650D01*
X6351789Y-20904650D02*
X6332741Y-20876079D01*
X6332741Y-20876079D02*
X6323218Y-20857031D01*
X6323218Y-20857031D02*
X6313694Y-20828460D01*
X6313694Y-20828460D02*
X6304170Y-20780841D01*
X6304170Y-20780841D02*
X6304170Y-20742746D01*
X6304170Y-20742746D02*
X6313694Y-20695127D01*
X6313694Y-20695127D02*
X6323218Y-20666555D01*
X6323218Y-20666555D02*
X6332741Y-20647508D01*
X6332741Y-20647508D02*
X6351789Y-20618936D01*
X6351789Y-20618936D02*
X6361313Y-20609412D01*
X6542265Y-20837984D02*
X6427979Y-20837984D01*
X6485122Y-20837984D02*
X6485122Y-20637984D01*
X6485122Y-20637984D02*
X6466075Y-20666555D01*
X6466075Y-20666555D02*
X6447027Y-20685603D01*
X6447027Y-20685603D02*
X6427979Y-20695127D01*
X6666075Y-20637984D02*
X6685122Y-20637984D01*
X6685122Y-20637984D02*
X6704170Y-20647508D01*
X6704170Y-20647508D02*
X6713694Y-20657031D01*
X6713694Y-20657031D02*
X6723218Y-20676079D01*
X6723218Y-20676079D02*
X6732741Y-20714174D01*
X6732741Y-20714174D02*
X6732741Y-20761793D01*
X6732741Y-20761793D02*
X6723218Y-20799889D01*
X6723218Y-20799889D02*
X6713694Y-20818936D01*
X6713694Y-20818936D02*
X6704170Y-20828460D01*
X6704170Y-20828460D02*
X6685122Y-20837984D01*
X6685122Y-20837984D02*
X6666075Y-20837984D01*
X6666075Y-20837984D02*
X6647027Y-20828460D01*
X6647027Y-20828460D02*
X6637503Y-20818936D01*
X6637503Y-20818936D02*
X6627979Y-20799889D01*
X6627979Y-20799889D02*
X6618456Y-20761793D01*
X6618456Y-20761793D02*
X6618456Y-20714174D01*
X6618456Y-20714174D02*
X6627979Y-20676079D01*
X6627979Y-20676079D02*
X6637503Y-20657031D01*
X6637503Y-20657031D02*
X6647027Y-20647508D01*
X6647027Y-20647508D02*
X6666075Y-20637984D01*
X6904170Y-20704650D02*
X6904170Y-20837984D01*
X6856551Y-20628460D02*
X6808932Y-20771317D01*
X6808932Y-20771317D02*
X6932741Y-20771317D01*
X7161313Y-20837984D02*
X7161313Y-20637984D01*
X7247027Y-20837984D02*
X7247027Y-20733222D01*
X7247027Y-20733222D02*
X7237503Y-20714174D01*
X7237503Y-20714174D02*
X7218456Y-20704650D01*
X7218456Y-20704650D02*
X7189884Y-20704650D01*
X7189884Y-20704650D02*
X7170837Y-20714174D01*
X7170837Y-20714174D02*
X7161313Y-20723698D01*
X7370837Y-20837984D02*
X7351789Y-20828460D01*
X7351789Y-20828460D02*
X7342265Y-20818936D01*
X7342265Y-20818936D02*
X7332741Y-20799889D01*
X7332741Y-20799889D02*
X7332741Y-20742746D01*
X7332741Y-20742746D02*
X7342265Y-20723698D01*
X7342265Y-20723698D02*
X7351789Y-20714174D01*
X7351789Y-20714174D02*
X7370837Y-20704650D01*
X7370837Y-20704650D02*
X7399408Y-20704650D01*
X7399408Y-20704650D02*
X7418456Y-20714174D01*
X7418456Y-20714174D02*
X7427980Y-20723698D01*
X7427980Y-20723698D02*
X7437503Y-20742746D01*
X7437503Y-20742746D02*
X7437503Y-20799889D01*
X7437503Y-20799889D02*
X7427980Y-20818936D01*
X7427980Y-20818936D02*
X7418456Y-20828460D01*
X7418456Y-20828460D02*
X7399408Y-20837984D01*
X7399408Y-20837984D02*
X7370837Y-20837984D01*
X7551789Y-20837984D02*
X7532741Y-20828460D01*
X7532741Y-20828460D02*
X7523218Y-20809412D01*
X7523218Y-20809412D02*
X7523218Y-20637984D01*
X7704170Y-20828460D02*
X7685122Y-20837984D01*
X7685122Y-20837984D02*
X7647027Y-20837984D01*
X7647027Y-20837984D02*
X7627980Y-20828460D01*
X7627980Y-20828460D02*
X7618456Y-20809412D01*
X7618456Y-20809412D02*
X7618456Y-20733222D01*
X7618456Y-20733222D02*
X7627980Y-20714174D01*
X7627980Y-20714174D02*
X7647027Y-20704650D01*
X7647027Y-20704650D02*
X7685122Y-20704650D01*
X7685122Y-20704650D02*
X7704170Y-20714174D01*
X7704170Y-20714174D02*
X7713694Y-20733222D01*
X7713694Y-20733222D02*
X7713694Y-20752270D01*
X7713694Y-20752270D02*
X7618456Y-20771317D01*
X7789884Y-20828460D02*
X7808932Y-20837984D01*
X7808932Y-20837984D02*
X7847027Y-20837984D01*
X7847027Y-20837984D02*
X7866075Y-20828460D01*
X7866075Y-20828460D02*
X7875599Y-20809412D01*
X7875599Y-20809412D02*
X7875599Y-20799889D01*
X7875599Y-20799889D02*
X7866075Y-20780841D01*
X7866075Y-20780841D02*
X7847027Y-20771317D01*
X7847027Y-20771317D02*
X7818456Y-20771317D01*
X7818456Y-20771317D02*
X7799408Y-20761793D01*
X7799408Y-20761793D02*
X7789884Y-20742746D01*
X7789884Y-20742746D02*
X7789884Y-20733222D01*
X7789884Y-20733222D02*
X7799408Y-20714174D01*
X7799408Y-20714174D02*
X7818456Y-20704650D01*
X7818456Y-20704650D02*
X7847027Y-20704650D01*
X7847027Y-20704650D02*
X7866075Y-20714174D01*
X7942265Y-20914174D02*
X7951789Y-20904650D01*
X7951789Y-20904650D02*
X7970837Y-20876079D01*
X7970837Y-20876079D02*
X7980361Y-20857031D01*
X7980361Y-20857031D02*
X7989884Y-20828460D01*
X7989884Y-20828460D02*
X7999408Y-20780841D01*
X7999408Y-20780841D02*
X7999408Y-20742746D01*
X7999408Y-20742746D02*
X7989884Y-20695127D01*
X7989884Y-20695127D02*
X7980361Y-20666555D01*
X7980361Y-20666555D02*
X7970837Y-20647508D01*
X7970837Y-20647508D02*
X7951789Y-20618936D01*
X7951789Y-20618936D02*
X7942265Y-20609412D01*
M02*
