G04 #@! TF.GenerationSoftware,KiCad,Pcbnew,9.0.7*
G04 #@! TF.CreationDate,2026-04-25T22:04:41-06:00*
G04 #@! TF.ProjectId,splitKey,73706c69-744b-4657-992e-6b696361645f,rev?*
G04 #@! TF.SameCoordinates,Original*
G04 #@! TF.FileFunction,Soldermask,Top*
G04 #@! TF.FilePolarity,Negative*
%FSLAX46Y46*%
G04 Gerber Fmt 4.6, Leading zero omitted, Abs format (unit mm)*
G04 Created by KiCad (PCBNEW 9.0.7) date 2026-04-25 22:04:41*
%MOMM*%
%LPD*%
G01*
G04 APERTURE LIST*
G04 Aperture macros list*
%AMRoundRect*
0 Rectangle with rounded corners*
0 $1 Rounding radius*
0 $2 $3 $4 $5 $6 $7 $8 $9 X,Y pos of 4 corners*
0 Add a 4 corners polygon primitive as box body*
4,1,4,$2,$3,$4,$5,$6,$7,$8,$9,$2,$3,0*
0 Add four circle primitives for the rounded corners*
1,1,$1+$1,$2,$3*
1,1,$1+$1,$4,$5*
1,1,$1+$1,$6,$7*
1,1,$1+$1,$8,$9*
0 Add four rect primitives between the rounded corners*
20,1,$1+$1,$2,$3,$4,$5,0*
20,1,$1+$1,$4,$5,$6,$7,0*
20,1,$1+$1,$6,$7,$8,$9,0*
20,1,$1+$1,$8,$9,$2,$3,0*%
G04 Aperture macros list end*
%ADD10C,3.600000*%
%ADD11C,1.750000*%
%ADD12C,4.000000*%
%ADD13C,2.200000*%
%ADD14C,2.000000*%
%ADD15RoundRect,0.525400X-0.900400X-0.525400X0.900400X-0.525400X0.900400X0.525400X-0.900400X0.525400X0*%
%ADD16RoundRect,0.775400X0.775400X0.775400X-0.775400X0.775400X-0.775400X-0.775400X0.775400X-0.775400X0*%
%ADD17RoundRect,0.300400X-0.300400X1.000400X-0.300400X-1.000400X0.300400X-1.000400X0.300400X1.000400X0*%
%ADD18C,1.700000*%
%ADD19C,0.500000*%
G04 APERTURE END LIST*
D10*
G04 #@! TO.C,SW21*
X116152500Y-181230000D03*
X122502500Y-178690000D03*
D11*
X113612500Y-176150000D03*
D12*
X118692500Y-176150000D03*
D11*
X123772500Y-176150000D03*
G04 #@! TD*
G04 #@! TO.C,SW28*
X213860500Y-114237500D03*
D12*
X208780500Y-114237500D03*
D11*
X203700500Y-114237500D03*
D10*
X212590500Y-116777500D03*
X206240500Y-119317500D03*
G04 #@! TD*
D11*
G04 #@! TO.C,SW27*
X213860500Y-95187500D03*
D12*
X208780500Y-95187500D03*
D11*
X203700500Y-95187500D03*
D10*
X212590500Y-97727500D03*
X206240500Y-100267500D03*
G04 #@! TD*
D11*
G04 #@! TO.C,SW29*
X213860500Y-133287500D03*
D12*
X208780500Y-133287500D03*
D11*
X203700500Y-133287500D03*
D10*
X212590500Y-135827500D03*
X206240500Y-138367500D03*
G04 #@! TD*
D11*
G04 #@! TO.C,SW48*
X309110500Y-95187500D03*
D12*
X304030500Y-95187500D03*
D11*
X298950500Y-95187500D03*
D10*
X307840500Y-97727500D03*
X301490500Y-100267500D03*
G04 #@! TD*
D11*
G04 #@! TO.C,SW49*
X309110500Y-114237500D03*
D12*
X304030500Y-114237500D03*
D11*
X298950500Y-114237500D03*
D10*
X307840500Y-116777500D03*
X301490500Y-119317500D03*
G04 #@! TD*
G04 #@! TO.C,SW40*
X263390500Y-109792500D03*
X269740500Y-107252500D03*
D11*
X260850500Y-104712500D03*
D12*
X265930500Y-104712500D03*
D11*
X271010500Y-104712500D03*
G04 #@! TD*
D10*
G04 #@! TO.C,SW36*
X244340500Y-109792500D03*
X250690500Y-107252500D03*
D11*
X241800500Y-104712500D03*
D12*
X246880500Y-104712500D03*
D11*
X251960500Y-104712500D03*
G04 #@! TD*
D10*
G04 #@! TO.C,SW33*
X225290500Y-133605000D03*
X231640500Y-131065000D03*
D11*
X222750500Y-128525000D03*
D12*
X227830500Y-128525000D03*
D11*
X232910500Y-128525000D03*
G04 #@! TD*
D10*
G04 #@! TO.C,SW37*
X244340500Y-128842500D03*
X250690500Y-126302500D03*
D11*
X241800500Y-123762500D03*
D12*
X246880500Y-123762500D03*
D11*
X251960500Y-123762500D03*
G04 #@! TD*
D10*
G04 #@! TO.C,SW43*
X282440500Y-95505000D03*
X288790500Y-92965000D03*
D11*
X279900500Y-90425000D03*
D12*
X284980500Y-90425000D03*
D11*
X290060500Y-90425000D03*
G04 #@! TD*
D10*
G04 #@! TO.C,SW41*
X263390500Y-128842500D03*
X269740500Y-126302500D03*
D11*
X260850500Y-123762500D03*
D12*
X265930500Y-123762500D03*
D11*
X271010500Y-123762500D03*
G04 #@! TD*
D10*
G04 #@! TO.C,SW45*
X282440500Y-133605000D03*
X288790500Y-131065000D03*
D11*
X279900500Y-128525000D03*
D12*
X284980500Y-128525000D03*
D11*
X290060500Y-128525000D03*
G04 #@! TD*
G04 #@! TO.C,SW30*
X213860500Y-152337500D03*
D12*
X208780500Y-152337500D03*
D11*
X203700500Y-152337500D03*
D10*
X212590500Y-154877500D03*
X206240500Y-157417500D03*
G04 #@! TD*
D11*
G04 #@! TO.C,SW9*
X85672500Y-85662500D03*
D12*
X80592500Y-85662500D03*
D11*
X75512500Y-85662500D03*
D10*
X84402500Y-88202500D03*
X78052500Y-90742500D03*
G04 #@! TD*
G04 #@! TO.C,SW17*
X116152500Y-95505000D03*
X122502500Y-92965000D03*
D11*
X113612500Y-90425000D03*
D12*
X118692500Y-90425000D03*
D11*
X123772500Y-90425000D03*
G04 #@! TD*
D10*
G04 #@! TO.C,SW23*
X135202500Y-119317500D03*
X141552500Y-116777500D03*
D11*
X132662500Y-114237500D03*
D12*
X137742500Y-114237500D03*
D11*
X142822500Y-114237500D03*
G04 #@! TD*
D10*
G04 #@! TO.C,SW14*
X97102500Y-109792500D03*
X103452500Y-107252500D03*
D11*
X94562500Y-104712500D03*
D12*
X99642500Y-104712500D03*
D11*
X104722500Y-104712500D03*
G04 #@! TD*
D10*
G04 #@! TO.C,SW25*
X135202500Y-157417500D03*
X141552500Y-154877500D03*
D11*
X132662500Y-152337500D03*
D12*
X137742500Y-152337500D03*
D11*
X142822500Y-152337500D03*
G04 #@! TD*
D10*
G04 #@! TO.C,SW24*
X135202500Y-138367500D03*
X141552500Y-135827500D03*
D11*
X132662500Y-133287500D03*
D12*
X137742500Y-133287500D03*
D11*
X142822500Y-133287500D03*
G04 #@! TD*
D10*
G04 #@! TO.C,SW7*
X59002500Y-133605000D03*
X65352500Y-131065000D03*
D11*
X56462500Y-128525000D03*
D12*
X61542500Y-128525000D03*
D11*
X66622500Y-128525000D03*
G04 #@! TD*
D10*
G04 #@! TO.C,SW5*
X59055000Y-95505000D03*
X65405000Y-92965000D03*
D11*
X56515000Y-90425000D03*
D12*
X61595000Y-90425000D03*
D11*
X66675000Y-90425000D03*
G04 #@! TD*
D10*
G04 #@! TO.C,SW8*
X59055000Y-152717500D03*
X65405000Y-150177500D03*
D11*
X56515000Y-147637500D03*
D12*
X61595000Y-147637500D03*
D11*
X66675000Y-147637500D03*
G04 #@! TD*
D10*
G04 #@! TO.C,SW1*
X39952500Y-100267500D03*
X46302500Y-97727500D03*
D11*
X37412500Y-95187500D03*
D12*
X42492500Y-95187500D03*
D11*
X47572500Y-95187500D03*
G04 #@! TD*
D10*
G04 #@! TO.C,SW13*
X97102500Y-90742500D03*
X103452500Y-88202500D03*
D11*
X94562500Y-85662500D03*
D12*
X99642500Y-85662500D03*
D11*
X104722500Y-85662500D03*
G04 #@! TD*
D10*
G04 #@! TO.C,SW6*
X59055000Y-114555000D03*
X65405000Y-112015000D03*
D11*
X56515000Y-109475000D03*
D12*
X61595000Y-109475000D03*
D11*
X66675000Y-109475000D03*
G04 #@! TD*
D10*
G04 #@! TO.C,SW22*
X135202500Y-100267500D03*
X141552500Y-97727500D03*
D11*
X132662500Y-95187500D03*
D12*
X137742500Y-95187500D03*
D11*
X142822500Y-95187500D03*
G04 #@! TD*
D10*
G04 #@! TO.C,SW19*
X116152500Y-133605000D03*
X122502500Y-131065000D03*
D11*
X113612500Y-128525000D03*
D12*
X118692500Y-128525000D03*
D11*
X123772500Y-128525000D03*
G04 #@! TD*
D10*
G04 #@! TO.C,SW4*
X39952500Y-157417500D03*
X46302500Y-154877500D03*
D11*
X37412500Y-152337500D03*
D12*
X42492500Y-152337500D03*
D11*
X47572500Y-152337500D03*
G04 #@! TD*
D10*
G04 #@! TO.C,SW12*
X78052500Y-147892500D03*
X84402500Y-145352500D03*
D11*
X75512500Y-142812500D03*
D12*
X80592500Y-142812500D03*
D11*
X85672500Y-142812500D03*
G04 #@! TD*
D10*
G04 #@! TO.C,SW11*
X78052500Y-128842500D03*
X84402500Y-126302500D03*
D11*
X75512500Y-123762500D03*
D12*
X80592500Y-123762500D03*
D11*
X85672500Y-123762500D03*
G04 #@! TD*
D10*
G04 #@! TO.C,SW18*
X116152500Y-114555000D03*
X122502500Y-112015000D03*
D11*
X113612500Y-109475000D03*
D12*
X118692500Y-109475000D03*
D11*
X123772500Y-109475000D03*
G04 #@! TD*
D10*
G04 #@! TO.C,SW16*
X97155000Y-147892500D03*
X103505000Y-145352500D03*
D11*
X94615000Y-142812500D03*
D12*
X99695000Y-142812500D03*
D11*
X104775000Y-142812500D03*
G04 #@! TD*
D10*
G04 #@! TO.C,SW15*
X97155000Y-128905000D03*
X103505000Y-126365000D03*
D11*
X94615000Y-123825000D03*
D12*
X99695000Y-123825000D03*
D11*
X104775000Y-123825000D03*
G04 #@! TD*
D10*
G04 #@! TO.C,SW20*
X116152500Y-152655000D03*
X122502500Y-150115000D03*
D11*
X113612500Y-147575000D03*
D12*
X118692500Y-147575000D03*
D11*
X123772500Y-147575000D03*
G04 #@! TD*
D10*
G04 #@! TO.C,SW10*
X78105000Y-109792500D03*
X84455000Y-107252500D03*
D11*
X75565000Y-104712500D03*
D12*
X80645000Y-104712500D03*
D11*
X85725000Y-104712500D03*
G04 #@! TD*
D10*
G04 #@! TO.C,SW2*
X40005000Y-119317500D03*
X46355000Y-116777500D03*
D11*
X37465000Y-114237500D03*
D12*
X42545000Y-114237500D03*
D11*
X47625000Y-114237500D03*
G04 #@! TD*
D10*
G04 #@! TO.C,SW26*
X135255000Y-186055000D03*
X141605000Y-183515000D03*
D11*
X132715000Y-180975000D03*
D12*
X137795000Y-180975000D03*
D11*
X142875000Y-180975000D03*
G04 #@! TD*
D10*
G04 #@! TO.C,SW3*
X39952500Y-138367500D03*
X46302500Y-135827500D03*
D11*
X37412500Y-133287500D03*
D12*
X42492500Y-133287500D03*
D11*
X47572500Y-133287500D03*
G04 #@! TD*
D10*
G04 #@! TO.C,SW34*
X225290500Y-152655000D03*
X231640500Y-150115000D03*
D11*
X222750500Y-147575000D03*
D12*
X227830500Y-147575000D03*
D11*
X232910500Y-147575000D03*
G04 #@! TD*
D13*
G04 #@! TO.C,H4*
X180975000Y-119062500D03*
G04 #@! TD*
D14*
G04 #@! TO.C,TP3*
X185650000Y-109990000D03*
G04 #@! TD*
D15*
G04 #@! TO.C,U2*
X182000000Y-90096000D03*
X182000000Y-92636000D03*
X182000000Y-95176000D03*
X182000000Y-97716000D03*
X182000000Y-100256000D03*
X182000000Y-102796000D03*
X182000000Y-105336000D03*
X198165000Y-105336000D03*
X198165000Y-102796000D03*
X198165000Y-100256000D03*
X198165000Y-97716000D03*
X198165000Y-95176000D03*
X198165000Y-92636000D03*
X198165000Y-90096000D03*
D16*
X185610000Y-98116000D03*
X185610000Y-94716000D03*
D17*
X193865000Y-106952900D03*
X195770000Y-106952900D03*
D18*
X188785000Y-89147500D03*
X191325000Y-89147500D03*
X188785000Y-91687500D03*
X191325000Y-91687500D03*
G04 #@! TD*
D14*
G04 #@! TO.C,TP1*
X150680000Y-109880000D03*
G04 #@! TD*
D11*
G04 #@! TO.C,SW31*
X232910500Y-90425000D03*
D12*
X227830500Y-90425000D03*
D11*
X222750500Y-90425000D03*
D10*
X231640500Y-92965000D03*
X225290500Y-95505000D03*
G04 #@! TD*
D11*
G04 #@! TO.C,SW32*
X232910500Y-109475000D03*
D12*
X227830500Y-109475000D03*
D11*
X222750500Y-109475000D03*
D10*
X231640500Y-112015000D03*
X225290500Y-114555000D03*
G04 #@! TD*
D11*
G04 #@! TO.C,SW46*
X290060500Y-147575000D03*
D12*
X284980500Y-147575000D03*
D11*
X279900500Y-147575000D03*
D10*
X288790500Y-150115000D03*
X282440500Y-152655000D03*
G04 #@! TD*
D13*
G04 #@! TO.C,H3*
X242118000Y-157100000D03*
G04 #@! TD*
G04 #@! TO.C,H10*
X104087500Y-157100000D03*
G04 #@! TD*
G04 #@! TO.C,H15*
X161237500Y-185675000D03*
G04 #@! TD*
D14*
G04 #@! TO.C,TP2*
X153930000Y-110060000D03*
G04 #@! TD*
D15*
G04 #@! TO.C,U1*
X148365000Y-90096000D03*
X148365000Y-92636000D03*
X148365000Y-95176000D03*
X148365000Y-97716000D03*
X148365000Y-100256000D03*
X148365000Y-102796000D03*
X148365000Y-105336000D03*
X164530000Y-105336000D03*
X164530000Y-102796000D03*
X164530000Y-100256000D03*
X164530000Y-97716000D03*
X164530000Y-95176000D03*
X164530000Y-92636000D03*
X164530000Y-90096000D03*
D16*
X151975000Y-98116000D03*
X151975000Y-94716000D03*
D17*
X160230000Y-106952900D03*
X162135000Y-106952900D03*
D18*
X155150000Y-89147500D03*
X157690000Y-89147500D03*
X155150000Y-91687500D03*
X157690000Y-91687500D03*
G04 #@! TD*
D13*
G04 #@! TO.C,H11*
X56462500Y-161862500D03*
G04 #@! TD*
G04 #@! TO.C,H2*
X184968000Y-185675000D03*
G04 #@! TD*
D11*
G04 #@! TO.C,SW38*
X251960500Y-142812500D03*
D12*
X246880500Y-142812500D03*
D11*
X241800500Y-142812500D03*
D10*
X250690500Y-145352500D03*
X244340500Y-147892500D03*
G04 #@! TD*
D11*
G04 #@! TO.C,SW42*
X271010500Y-142812500D03*
D12*
X265930500Y-142812500D03*
D11*
X260850500Y-142812500D03*
D10*
X269740500Y-145352500D03*
X263390500Y-147892500D03*
G04 #@! TD*
D13*
G04 #@! TO.C,H5*
X289743000Y-161862500D03*
G04 #@! TD*
D11*
G04 #@! TO.C,SW39*
X271010500Y-85662500D03*
D12*
X265930500Y-85662500D03*
D11*
X260850500Y-85662500D03*
D10*
X269740500Y-88202500D03*
X263390500Y-90742500D03*
G04 #@! TD*
D11*
G04 #@! TO.C,SW51*
X309110500Y-152337500D03*
D12*
X304030500Y-152337500D03*
D11*
X298950500Y-152337500D03*
D10*
X307840500Y-154877500D03*
X301490500Y-157417500D03*
G04 #@! TD*
D11*
G04 #@! TO.C,SW44*
X290060500Y-109475000D03*
D12*
X284980500Y-109475000D03*
D11*
X279900500Y-109475000D03*
D10*
X288790500Y-112015000D03*
X282440500Y-114555000D03*
G04 #@! TD*
D11*
G04 #@! TO.C,SW50*
X309110500Y-133287500D03*
D12*
X304030500Y-133287500D03*
D11*
X298950500Y-133287500D03*
D10*
X307840500Y-135827500D03*
X301490500Y-138367500D03*
G04 #@! TD*
D13*
G04 #@! TO.C,H1*
X232593000Y-76137500D03*
G04 #@! TD*
D11*
G04 #@! TO.C,SW35*
X251960500Y-85662500D03*
D12*
X246880500Y-85662500D03*
D11*
X241800500Y-85662500D03*
D10*
X250690500Y-88202500D03*
X244340500Y-90742500D03*
G04 #@! TD*
D13*
G04 #@! TO.C,H12*
X46937500Y-80900000D03*
G04 #@! TD*
G04 #@! TO.C,H6*
X299268000Y-80900000D03*
G04 #@! TD*
G04 #@! TO.C,H14*
X166000000Y-119000000D03*
G04 #@! TD*
D14*
G04 #@! TO.C,TP4*
X189700000Y-110090000D03*
G04 #@! TD*
D13*
G04 #@! TO.C,H13*
X113612500Y-76137500D03*
G04 #@! TD*
D11*
G04 #@! TO.C,SW52*
X232910500Y-176150000D03*
D12*
X227830500Y-176150000D03*
D11*
X222750500Y-176150000D03*
D10*
X231640500Y-178690000D03*
X225290500Y-181230000D03*
G04 #@! TD*
G04 #@! TO.C,SW47*
X206240500Y-185992500D03*
X212590500Y-183452500D03*
D11*
X203700500Y-180912500D03*
D12*
X208780500Y-180912500D03*
D11*
X213860500Y-180912500D03*
G04 #@! TD*
D19*
G04 #@! TO.C,H18*
X170810000Y-103730000D03*
X175810000Y-103730000D03*
X170810000Y-102980000D03*
X170810000Y-102980000D03*
X175810000Y-102980000D03*
X175810000Y-102980000D03*
X170810000Y-102230000D03*
X175810000Y-102230000D03*
X170810000Y-101480000D03*
X175810000Y-101480000D03*
X170810000Y-100730000D03*
X175810000Y-100730000D03*
X170810000Y-99980000D03*
X175810000Y-99980000D03*
X170810000Y-99230000D03*
X175810000Y-99230000D03*
X170810000Y-98480000D03*
X175810000Y-98480000D03*
X170810000Y-97730000D03*
X175810000Y-97730000D03*
X170810000Y-96980000D03*
X175810000Y-96980000D03*
X170810000Y-96230000D03*
X175810000Y-96230000D03*
G04 #@! TD*
G04 #@! TO.C,H16*
X170800000Y-139980000D03*
X175800000Y-139980000D03*
X170800000Y-139230000D03*
X170800000Y-139230000D03*
X175800000Y-139230000D03*
X175800000Y-139230000D03*
X170800000Y-138480000D03*
X175800000Y-138480000D03*
X170800000Y-137730000D03*
X175800000Y-137730000D03*
X170800000Y-136980000D03*
X175800000Y-136980000D03*
X170800000Y-136230000D03*
X175800000Y-136230000D03*
X170800000Y-135480000D03*
X175800000Y-135480000D03*
X170800000Y-134730000D03*
X175800000Y-134730000D03*
X170800000Y-133980000D03*
X175800000Y-133980000D03*
X170800000Y-133230000D03*
X175800000Y-133230000D03*
X170800000Y-132480000D03*
X175800000Y-132480000D03*
G04 #@! TD*
G04 #@! TO.C,H17*
X170800000Y-182240000D03*
X175800000Y-182240000D03*
X170800000Y-181490000D03*
X170800000Y-181490000D03*
X175800000Y-181490000D03*
X175800000Y-181490000D03*
X170800000Y-180740000D03*
X175800000Y-180740000D03*
X170800000Y-179990000D03*
X175800000Y-179990000D03*
X170800000Y-179240000D03*
X175800000Y-179240000D03*
X170800000Y-178490000D03*
X175800000Y-178490000D03*
X170800000Y-177740000D03*
X175800000Y-177740000D03*
X170800000Y-176990000D03*
X175800000Y-176990000D03*
X170800000Y-176240000D03*
X175800000Y-176240000D03*
X170800000Y-175490000D03*
X175800000Y-175490000D03*
X170800000Y-174740000D03*
X175800000Y-174740000D03*
G04 #@! TD*
M02*
