M48
; DRILL file {KiCad 9.0.7} date 2026-04-25T22:04:41-0600
; FORMAT={-:-/ absolute / metric / decimal}
; #@! TF.CreationDate,2026-04-25T22:04:41-06:00
; #@! TF.GenerationSoftware,Kicad,Pcbnew,9.0.7
; #@! TF.FileFunction,Plated,1,2,PTH
FMAT,2
METRIC
; #@! TA.AperFunction,Plated,PTH,ViaDrill
T1C0.300
; #@! TA.AperFunction,Plated,PTH,ComponentDrill
T2C2.500
; #@! TA.AperFunction,Plated,PTH,ComponentDrill
T3C3.050
%
G90
G05
T1
X141.4Y-87.0
X143.2Y-102.2
X143.3Y-106.4
X160.1Y-116.5
X160.8Y-117.3
X168.3Y-90.1
X168.7Y-100.5
X168.9Y-110.8
X185.8Y-105.9
X188.4Y-98.2
X190.1Y-95.7
X190.2Y-102.0
X192.2Y-97.7
X204.2Y-103.2
X204.5Y-105.6
X207.0Y-108.8
T2
X151.975Y-94.716
X151.975Y-98.116
X185.61Y-94.716
X185.61Y-98.116
T3
X39.953Y-100.267
X39.953Y-138.368
X39.953Y-157.417
X40.005Y-119.317
X46.302Y-97.727
X46.302Y-135.827
X46.302Y-154.877
X46.355Y-116.777
X59.002Y-133.605
X59.055Y-95.505
X59.055Y-114.555
X59.055Y-152.718
X65.352Y-131.065
X65.405Y-92.965
X65.405Y-112.015
X65.405Y-150.177
X78.052Y-90.742
X78.052Y-128.843
X78.052Y-147.892
X78.105Y-109.792
X84.402Y-88.203
X84.402Y-126.302
X84.402Y-145.352
X84.455Y-107.252
X97.102Y-90.742
X97.102Y-109.792
X97.155Y-128.905
X97.155Y-147.892
X103.453Y-88.203
X103.453Y-107.252
X103.505Y-126.365
X103.505Y-145.352
X116.152Y-95.505
X116.152Y-114.555
X116.152Y-133.605
X116.152Y-152.655
X116.152Y-181.23
X122.502Y-92.965
X122.502Y-112.015
X122.502Y-131.065
X122.502Y-150.115
X122.502Y-178.69
X135.202Y-100.267
X135.202Y-119.317
X135.202Y-138.368
X135.202Y-157.417
X135.255Y-186.055
X141.552Y-97.727
X141.552Y-116.777
X141.552Y-135.827
X141.552Y-154.877
X141.605Y-183.515
X206.24Y-100.267
X206.24Y-119.317
X206.24Y-138.368
X206.24Y-157.417
X206.24Y-185.992
X212.59Y-97.727
X212.59Y-116.777
X212.59Y-135.827
X212.59Y-154.877
X212.59Y-183.452
X225.29Y-95.505
X225.29Y-114.555
X225.29Y-133.605
X225.29Y-152.655
X225.29Y-181.23
X231.641Y-92.965
X231.641Y-112.015
X231.641Y-131.065
X231.641Y-150.115
X231.641Y-178.69
X244.34Y-90.742
X244.34Y-109.792
X244.34Y-128.843
X244.34Y-147.892
X250.69Y-88.203
X250.69Y-107.252
X250.69Y-126.302
X250.69Y-145.352
X263.39Y-90.742
X263.39Y-109.792
X263.39Y-128.843
X263.39Y-147.892
X269.74Y-88.203
X269.74Y-107.252
X269.74Y-126.302
X269.74Y-145.352
X282.44Y-95.505
X282.44Y-114.555
X282.44Y-133.605
X282.44Y-152.655
X288.791Y-92.965
X288.791Y-112.015
X288.791Y-131.065
X288.791Y-150.115
X301.49Y-100.267
X301.49Y-119.317
X301.49Y-138.368
X301.49Y-157.417
X307.84Y-97.727
X307.84Y-116.777
X307.84Y-135.827
X307.84Y-154.877
M30
