  0
SECTION
  2
HEADER
  9
$ANGBASE
  50
0.0
  9
$ANGDIR
  70
1
  9
$MEASUREMENT
  70
1
  0
ENDSEC
  0
SECTION
  2
TABLES
  0
TABLE
  2
LTYPE
  70
4
  0
LTYPE
  5
40F
  2
CONTINUOUS
  70
0
  3
Solid line
  72
65
  73
0
  40
0.0
  0
LTYPE
  5
410
  2
DASHDOT
 70
0
  3
Dash Dot ____ _ ____ _
 72
65
 73
4
 40
2.0
 49
1.25
 49
-0.25
 49
0.25
 49
-0.25
  0
LTYPE
  5
411
  2
DASHED
 70
0
  3
Dashed __ __ __ __ __
 72
65
 73
2
 40
0.75
 49
0.5
 49
-0.25
  0
LTYPE
  5
43B
  2
DOTTED
 70
0
  3
Dotted .  .  .  .
 72
65
 73
2
 40
0.2
 49
0.0
 49
-0.2
  0
ENDTAB
  0
TABLE
  2
STYLE
  70
4
  0
STYLE
  2
KICAD
  70
0
  40
0
  41
1
  42
1
  50
0
  71
0
  3
isocp.shx
  0
STYLE
  2
KICADB
  70
0
  40
0
  41
1
  42
1
  50
0
  71
0
  3
isocp.shx
  0
STYLE
  2
KICADI
  70
0
  40
0
  41
1
  42
1
  50
15
  71
0
  3
isocp.shx
  0
STYLE
  2
KICADBI
  70
0
  40
0
  41
1
  42
1
  50
15
  71
0
  3
isocp.shx
  0
ENDTAB
  0
TABLE
  2
LAYER
  70
1
  0
LAYER
  2
BLACK
  70
0
  62
7
  6
CONTINUOUS
  0
ENDTAB
  0
ENDSEC
  0
SECTION
  2
ENTITIES
0
LINE
8
BLACK
6
CONTINUOUS
10
173.6043549999999982
20
-138.7234100000000012
11
173.9042719999999917
21
-138.7783719999999903
0
LINE
8
BLACK
6
CONTINUOUS
10
173.9042719999999917
20
-138.7783719999999903
11
174.1953769999999793
21
-138.8690839999999866
0
LINE
8
BLACK
6
CONTINUOUS
10
174.1953769999999793
20
-138.8690839999999866
11
174.4734259999999892
21
-138.9942240000000027
0
LINE
8
BLACK
6
CONTINUOUS
10
174.4734259999999892
20
-138.9942240000000027
11
174.7343630000000019
21
-139.1519659999999874
0
LINE
8
BLACK
6
CONTINUOUS
10
174.7343630000000019
20
-139.1519659999999874
11
174.9743849999999838
21
-139.3400100000000066
0
LINE
8
BLACK
6
CONTINUOUS
10
174.9743849999999838
20
-139.3400100000000066
11
175.1899899999999946
21
-139.5556149999999889
0
LINE
8
BLACK
6
CONTINUOUS
10
175.1899899999999946
20
-139.5556149999999889
11
175.3780339999999853
21
-139.7956369999999993
0
LINE
8
BLACK
6
CONTINUOUS
10
175.3780339999999853
20
-139.7956369999999993
11
175.5357759999999985
21
-140.0565739999999835
0
LINE
8
BLACK
6
CONTINUOUS
10
175.5357759999999985
20
-140.0565739999999835
11
175.6609159999999861
21
-140.3346229999999935
0
LINE
8
BLACK
6
CONTINUOUS
10
175.6609159999999861
20
-140.3346229999999935
11
175.7516279999999824
21
-140.625727999999981
0
LINE
8
BLACK
6
CONTINUOUS
10
175.7516279999999824
20
-140.625727999999981
11
175.8065899999999999
21
-140.9256450000000029
0
LINE
8
BLACK
6
CONTINUOUS
10
175.8065899999999999
20
-140.9256450000000029
11
175.8249999999999886
21
-141.2299999999999898
0
LINE
8
BLACK
6
CONTINUOUS
10
175.8249999999999886
20
-141.2299999999999898
11
175.8249999999999886
21
-173.4899999999999807
0
LINE
8
BLACK
6
CONTINUOUS
10
175.8249999999999886
20
-173.4899999999999807
11
175.8065899999999999
21
-173.7943549999999959
0
LINE
8
BLACK
6
CONTINUOUS
10
175.8065899999999999
20
-173.7943549999999959
11
175.7516279999999824
21
-174.0942719999999895
0
LINE
8
BLACK
6
CONTINUOUS
10
175.7516279999999824
20
-174.0942719999999895
11
175.6609159999999861
21
-174.3853770000000054
0
LINE
8
BLACK
6
CONTINUOUS
10
175.6609159999999861
20
-174.3853770000000054
11
175.5357759999999985
21
-174.663425999999987
0
LINE
8
BLACK
6
CONTINUOUS
10
175.5357759999999985
20
-174.663425999999987
11
175.3780339999999853
21
-174.9243629999999996
0
LINE
8
BLACK
6
CONTINUOUS
10
175.3780339999999853
20
-174.9243629999999996
11
175.1899899999999946
21
-175.1643849999999816
0
LINE
8
BLACK
6
CONTINUOUS
10
175.1899899999999946
20
-175.1643849999999816
11
174.9743849999999838
21
-175.3799899999999923
0
LINE
8
BLACK
6
CONTINUOUS
10
174.9743849999999838
20
-175.3799899999999923
11
174.7343630000000019
21
-175.5680339999999831
0
LINE
8
BLACK
6
CONTINUOUS
10
174.7343630000000019
20
-175.5680339999999831
11
174.4734259999999892
21
-175.7257759999999962
0
LINE
8
BLACK
6
CONTINUOUS
10
174.4734259999999892
20
-175.7257759999999962
11
174.1953769999999793
21
-175.8509159999999838
0
LINE
8
BLACK
6
CONTINUOUS
10
174.1953769999999793
20
-175.8509159999999838
11
173.9042719999999917
21
-175.9416279999999801
0
LINE
8
BLACK
6
CONTINUOUS
10
173.9042719999999917
20
-175.9416279999999801
11
173.6043549999999982
21
-175.9965899999999976
0
LINE
8
BLACK
6
CONTINUOUS
10
173.6043549999999982
20
-175.9965899999999976
11
173.2999999999999829
21
-176.0149999999999864
0
LINE
8
BLACK
6
CONTINUOUS
10
173.2999999999999829
20
-176.0149999999999864
11
172.9956449999999961
21
-175.9965899999999976
0
LINE
8
BLACK
6
CONTINUOUS
10
172.9956449999999961
20
-175.9965899999999976
11
172.6957280000000026
21
-175.9416279999999801
0
LINE
8
BLACK
6
CONTINUOUS
10
172.6957280000000026
20
-175.9416279999999801
11
172.4046229999999866
21
-175.8509159999999838
0
LINE
8
BLACK
6
CONTINUOUS
10
172.4046229999999866
20
-175.8509159999999838
11
172.1265740000000051
21
-175.7257759999999962
0
LINE
8
BLACK
6
CONTINUOUS
10
172.1265740000000051
20
-175.7257759999999962
11
171.8656369999999924
21
-175.5680339999999831
0
LINE
8
BLACK
6
CONTINUOUS
10
171.8656369999999924
20
-175.5680339999999831
11
171.625614999999982
21
-175.3799899999999923
0
LINE
8
BLACK
6
CONTINUOUS
10
171.625614999999982
20
-175.3799899999999923
11
171.4100099999999998
21
-175.1643849999999816
0
LINE
8
BLACK
6
CONTINUOUS
10
171.4100099999999998
20
-175.1643849999999816
11
171.2219659999999806
21
-174.9243629999999996
0
LINE
8
BLACK
6
CONTINUOUS
10
171.2219659999999806
20
-174.9243629999999996
11
171.0642239999999958
21
-174.663425999999987
0
LINE
8
BLACK
6
CONTINUOUS
10
171.0642239999999958
20
-174.663425999999987
11
170.9390839999999798
21
-174.3853770000000054
0
LINE
8
BLACK
6
CONTINUOUS
10
170.9390839999999798
20
-174.3853770000000054
11
170.8483719999999835
21
-174.0942719999999895
0
LINE
8
BLACK
6
CONTINUOUS
10
170.8483719999999835
20
-174.0942719999999895
11
170.7934099999999944
21
-173.7943549999999959
0
LINE
8
BLACK
6
CONTINUOUS
10
170.7934099999999944
20
-173.7943549999999959
11
170.7750000000000057
21
-173.4899999999999807
0
LINE
8
BLACK
6
CONTINUOUS
10
170.7750000000000057
20
-173.4899999999999807
11
170.7750000000000057
21
-141.2299999999999898
0
LINE
8
BLACK
6
CONTINUOUS
10
170.7750000000000057
20
-141.2299999999999898
11
170.7934099999999944
21
-140.9256450000000029
0
LINE
8
BLACK
6
CONTINUOUS
10
170.7934099999999944
20
-140.9256450000000029
11
170.8483719999999835
21
-140.625727999999981
0
LINE
8
BLACK
6
CONTINUOUS
10
170.8483719999999835
20
-140.625727999999981
11
170.9390839999999798
21
-140.3346229999999935
0
LINE
8
BLACK
6
CONTINUOUS
10
170.9390839999999798
20
-140.3346229999999935
11
171.0642239999999958
21
-140.0565739999999835
0
LINE
8
BLACK
6
CONTINUOUS
10
171.0642239999999958
20
-140.0565739999999835
11
171.2219659999999806
21
-139.7956369999999993
0
LINE
8
BLACK
6
CONTINUOUS
10
171.2219659999999806
20
-139.7956369999999993
11
171.4100099999999998
21
-139.5556149999999889
0
LINE
8
BLACK
6
CONTINUOUS
10
171.4100099999999998
20
-139.5556149999999889
11
171.625614999999982
21
-139.3400100000000066
0
LINE
8
BLACK
6
CONTINUOUS
10
171.625614999999982
20
-139.3400100000000066
11
171.8656369999999924
21
-139.1519659999999874
0
LINE
8
BLACK
6
CONTINUOUS
10
171.8656369999999924
20
-139.1519659999999874
11
172.1265740000000051
21
-138.9942240000000027
0
LINE
8
BLACK
6
CONTINUOUS
10
172.1265740000000051
20
-138.9942240000000027
11
172.4046229999999866
21
-138.8690839999999866
0
LINE
8
BLACK
6
CONTINUOUS
10
172.4046229999999866
20
-138.8690839999999866
11
172.6957280000000026
21
-138.7783719999999903
0
LINE
8
BLACK
6
CONTINUOUS
10
172.6957280000000026
20
-138.7783719999999903
11
172.9956449999999961
21
-138.7234100000000012
0
LINE
8
BLACK
6
CONTINUOUS
10
172.9956449999999961
20
-138.7234100000000012
11
173.2999999999999829
21
-138.7049999999999841
0
LINE
8
BLACK
6
CONTINUOUS
10
173.2999999999999829
20
-138.7049999999999841
11
173.6043549999999982
21
-138.7234100000000012
0
LINE
8
BLACK
6
CONTINUOUS
10
172.8530529999999885
20
-138.7910909999999944
11
172.5623339999999928
21
-138.8627469999999846
0
LINE
8
BLACK
6
CONTINUOUS
10
172.5623339999999928
20
-138.8627469999999846
11
172.282371999999981
21
-138.9689219999999921
0
LINE
8
BLACK
6
CONTINUOUS
10
172.282371999999981
20
-138.9689219999999921
11
172.017247999999995
21
-139.1080699999999979
0
LINE
8
BLACK
6
CONTINUOUS
10
172.017247999999995
20
-139.1080699999999979
11
171.7708309999999869
21
-139.2781599999999855
0
LINE
8
BLACK
6
CONTINUOUS
10
171.7708309999999869
20
-139.2781599999999855
11
171.5467119999999852
21
-139.476711999999992
0
LINE
8
BLACK
6
CONTINUOUS
10
171.5467119999999852
20
-139.476711999999992
11
171.3481599999999787
21
-139.7008309999999938
0
LINE
8
BLACK
6
CONTINUOUS
10
171.3481599999999787
20
-139.7008309999999938
11
171.1780699999999911
21
-139.9472480000000019
0
LINE
8
BLACK
6
CONTINUOUS
10
171.1780699999999911
20
-139.9472480000000019
11
171.0389219999999852
21
-140.2123719999999878
0
LINE
8
BLACK
6
CONTINUOUS
10
171.0389219999999852
20
-140.2123719999999878
11
170.9327470000000062
21
-140.4923339999999996
0
LINE
8
BLACK
6
CONTINUOUS
10
170.9327470000000062
20
-140.4923339999999996
11
170.8610909999999876
21
-140.7830529999999953
0
LINE
8
BLACK
6
CONTINUOUS
10
170.8610909999999876
20
-140.7830529999999953
11
170.8249999999999886
21
-141.0802899999999909
0
LINE
8
BLACK
6
CONTINUOUS
10
170.8249999999999886
20
-141.0802899999999909
11
170.8249999999999886
21
-141.2299999999999898
0
LINE
8
BLACK
6
CONTINUOUS
10
170.8249999999999886
20
-141.2299999999999898
11
170.8249999999999886
21
-173.4899999999999807
0
LINE
8
BLACK
6
CONTINUOUS
10
170.8249999999999886
20
-173.4899999999999807
11
170.8249999999999886
21
-173.6397099999999796
0
LINE
8
BLACK
6
CONTINUOUS
10
170.8249999999999886
20
-173.6397099999999796
11
170.8610909999999876
21
-173.9369470000000035
0
LINE
8
BLACK
6
CONTINUOUS
10
170.8610909999999876
20
-173.9369470000000035
11
170.9327470000000062
21
-174.2276659999999993
0
LINE
8
BLACK
6
CONTINUOUS
10
170.9327470000000062
20
-174.2276659999999993
11
171.0389219999999852
21
-174.5076279999999826
0
LINE
8
BLACK
6
CONTINUOUS
10
171.0389219999999852
20
-174.5076279999999826
11
171.1780699999999911
21
-174.772751999999997
0
LINE
8
BLACK
6
CONTINUOUS
10
171.1780699999999911
20
-174.772751999999997
11
171.3481599999999787
21
-175.0191690000000051
0
LINE
8
BLACK
6
CONTINUOUS
10
171.3481599999999787
20
-175.0191690000000051
11
171.5467119999999852
21
-175.2432879999999784
0
LINE
8
BLACK
6
CONTINUOUS
10
171.5467119999999852
20
-175.2432879999999784
11
171.7708309999999869
21
-175.4418399999999849
0
LINE
8
BLACK
6
CONTINUOUS
10
171.7708309999999869
20
-175.4418399999999849
11
172.017247999999995
21
-175.611930000000001
0
LINE
8
BLACK
6
CONTINUOUS
10
172.017247999999995
20
-175.611930000000001
11
172.282371999999981
21
-175.7510779999999784
0
LINE
8
BLACK
6
CONTINUOUS
10
172.282371999999981
20
-175.7510779999999784
11
172.5623339999999928
21
-175.8572529999999858
0
LINE
8
BLACK
6
CONTINUOUS
10
172.5623339999999928
20
-175.8572529999999858
11
172.8530529999999885
21
-175.9289090000000044
0
LINE
8
BLACK
6
CONTINUOUS
10
172.8530529999999885
20
-175.9289090000000044
11
173.150289999999984
21
-175.9650000000000034
0
LINE
8
BLACK
6
CONTINUOUS
10
173.150289999999984
20
-175.9650000000000034
11
173.4497099999999818
21
-175.9650000000000034
0
LINE
8
BLACK
6
CONTINUOUS
10
173.4497099999999818
20
-175.9650000000000034
11
173.7469470000000058
21
-175.9289090000000044
0
LINE
8
BLACK
6
CONTINUOUS
10
173.7469470000000058
20
-175.9289090000000044
11
174.0376660000000015
21
-175.8572529999999858
0
LINE
8
BLACK
6
CONTINUOUS
10
174.0376660000000015
20
-175.8572529999999858
11
174.3176279999999849
21
-175.7510779999999784
0
LINE
8
BLACK
6
CONTINUOUS
10
174.3176279999999849
20
-175.7510779999999784
11
174.5827519999999993
21
-175.611930000000001
0
LINE
8
BLACK
6
CONTINUOUS
10
174.5827519999999993
20
-175.611930000000001
11
174.829168999999979
21
-175.4418399999999849
0
LINE
8
BLACK
6
CONTINUOUS
10
174.829168999999979
20
-175.4418399999999849
11
175.0532879999999807
21
-175.2432879999999784
0
LINE
8
BLACK
6
CONTINUOUS
10
175.0532879999999807
20
-175.2432879999999784
11
175.2518399999999872
21
-175.0191690000000051
0
LINE
8
BLACK
6
CONTINUOUS
10
175.2518399999999872
20
-175.0191690000000051
11
175.4219300000000032
21
-174.772751999999997
0
LINE
8
BLACK
6
CONTINUOUS
10
175.4219300000000032
20
-174.772751999999997
11
175.5610779999999806
21
-174.5076279999999826
0
LINE
8
BLACK
6
CONTINUOUS
10
175.5610779999999806
20
-174.5076279999999826
11
175.6672529999999881
21
-174.2276659999999993
0
LINE
8
BLACK
6
CONTINUOUS
10
175.6672529999999881
20
-174.2276659999999993
11
175.7389089999999783
21
-173.9369470000000035
0
LINE
8
BLACK
6
CONTINUOUS
10
175.7389089999999783
20
-173.9369470000000035
11
175.7750000000000057
21
-173.6397099999999796
0
LINE
8
BLACK
6
CONTINUOUS
10
175.7750000000000057
20
-173.6397099999999796
11
175.7750000000000057
21
-173.4899999999999807
0
LINE
8
BLACK
6
CONTINUOUS
10
175.7750000000000057
20
-173.4899999999999807
11
175.7750000000000057
21
-141.2299999999999898
0
LINE
8
BLACK
6
CONTINUOUS
10
175.7750000000000057
20
-141.2299999999999898
11
175.7750000000000057
21
-141.0802899999999909
0
LINE
8
BLACK
6
CONTINUOUS
10
175.7750000000000057
20
-141.0802899999999909
11
175.7389089999999783
21
-140.7830529999999953
0
LINE
8
BLACK
6
CONTINUOUS
10
175.7389089999999783
20
-140.7830529999999953
11
175.6672529999999881
21
-140.4923339999999996
0
LINE
8
BLACK
6
CONTINUOUS
10
175.6672529999999881
20
-140.4923339999999996
11
175.5610779999999806
21
-140.2123719999999878
0
LINE
8
BLACK
6
CONTINUOUS
10
175.5610779999999806
20
-140.2123719999999878
11
175.4219300000000032
21
-139.9472480000000019
0
LINE
8
BLACK
6
CONTINUOUS
10
175.4219300000000032
20
-139.9472480000000019
11
175.2518399999999872
21
-139.7008309999999938
0
LINE
8
BLACK
6
CONTINUOUS
10
175.2518399999999872
20
-139.7008309999999938
11
175.0532879999999807
21
-139.476711999999992
0
LINE
8
BLACK
6
CONTINUOUS
10
175.0532879999999807
20
-139.476711999999992
11
174.829168999999979
21
-139.2781599999999855
0
LINE
8
BLACK
6
CONTINUOUS
10
174.829168999999979
20
-139.2781599999999855
11
174.5827519999999993
21
-139.1080699999999979
0
LINE
8
BLACK
6
CONTINUOUS
10
174.5827519999999993
20
-139.1080699999999979
11
174.3176279999999849
21
-138.9689219999999921
0
LINE
8
BLACK
6
CONTINUOUS
10
174.3176279999999849
20
-138.9689219999999921
11
174.0376660000000015
21
-138.8627469999999846
0
LINE
8
BLACK
6
CONTINUOUS
10
174.0376660000000015
20
-138.8627469999999846
11
173.7469470000000058
21
-138.7910909999999944
0
LINE
8
BLACK
6
CONTINUOUS
10
173.7469470000000058
20
-138.7910909999999944
11
173.4497099999999818
21
-138.7549999999999955
0
LINE
8
BLACK
6
CONTINUOUS
10
173.4497099999999818
20
-138.7549999999999955
11
173.150289999999984
21
-138.7549999999999955
0
LINE
8
BLACK
6
CONTINUOUS
10
173.150289999999984
20
-138.7549999999999955
11
172.8530529999999885
21
-138.7910909999999944
0
LINE
8
BLACK
6
CONTINUOUS
10
173.6143549999999891
20
-102.4734100000000012
11
173.9142719999999827
21
-102.5283719999999903
0
LINE
8
BLACK
6
CONTINUOUS
10
173.9142719999999827
20
-102.5283719999999903
11
174.2053769999999986
21
-102.6190840000000009
0
LINE
8
BLACK
6
CONTINUOUS
10
174.2053769999999986
20
-102.6190840000000009
11
174.4834259999999801
21
-102.7442239999999885
0
LINE
8
BLACK
6
CONTINUOUS
10
174.4834259999999801
20
-102.7442239999999885
11
174.7443629999999928
21
-102.9019660000000016
0
LINE
8
BLACK
6
CONTINUOUS
10
174.7443629999999928
20
-102.9019660000000016
11
174.9843850000000032
21
-103.0900099999999924
0
LINE
8
BLACK
6
CONTINUOUS
10
174.9843850000000032
20
-103.0900099999999924
11
175.1999899999999855
21
-103.3056149999999889
0
LINE
8
BLACK
6
CONTINUOUS
10
175.1999899999999855
20
-103.3056149999999889
11
175.3880340000000047
21
-103.5456369999999993
0
LINE
8
BLACK
6
CONTINUOUS
10
175.3880340000000047
20
-103.5456369999999993
11
175.5457759999999894
21
-103.8065739999999977
0
LINE
8
BLACK
6
CONTINUOUS
10
175.5457759999999894
20
-103.8065739999999977
11
175.6709160000000054
21
-104.0846229999999935
0
LINE
8
BLACK
6
CONTINUOUS
10
175.6709160000000054
20
-104.0846229999999935
11
175.7616280000000017
21
-104.3757279999999952
0
LINE
8
BLACK
6
CONTINUOUS
10
175.7616280000000017
20
-104.3757279999999952
11
175.8165899999999908
21
-104.6756449999999887
0
LINE
8
BLACK
6
CONTINUOUS
10
175.8165899999999908
20
-104.6756449999999887
11
175.8349999999999795
21
-104.9799999999999898
0
LINE
8
BLACK
6
CONTINUOUS
10
175.8349999999999795
20
-104.9799999999999898
11
175.8349979999999846
21
-104.9800029999999964
0
LINE
8
BLACK
6
CONTINUOUS
10
175.8349979999999846
20
-104.9800029999999964
11
175.8349999999999795
21
-104.9800089999999955
0
LINE
8
BLACK
6
CONTINUOUS
10
175.8349999999999795
20
-104.9800089999999955
11
175.8249989999999912
21
-131.230874
0
LINE
8
BLACK
6
CONTINUOUS
10
175.8249989999999912
20
-131.230874
11
175.8249999999999886
21
-131.2308779999999899
0
LINE
8
BLACK
6
CONTINUOUS
10
175.8249999999999886
20
-131.2308779999999899
11
175.8064880000000016
21
-131.5351929999999925
0
LINE
8
BLACK
6
CONTINUOUS
10
175.8064880000000016
20
-131.5351929999999925
11
175.7514339999999891
21
-131.8350590000000011
0
LINE
8
BLACK
6
CONTINUOUS
10
175.7514339999999891
20
-131.8350590000000011
11
175.6606409999999983
21
-132.1261030000000005
0
LINE
8
BLACK
6
CONTINUOUS
10
175.6606409999999983
20
-132.1261030000000005
11
175.5354309999999884
21
-132.4040839999999832
0
LINE
8
BLACK
6
CONTINUOUS
10
175.5354309999999884
20
-132.4040839999999832
11
175.3776309999999796
21
-132.6649469999999837
0
LINE
8
BLACK
6
CONTINUOUS
10
175.3776309999999796
20
-132.6649469999999837
11
175.1895419999999888
21
-132.9048899999999946
0
LINE
8
BLACK
6
CONTINUOUS
10
175.1895419999999888
20
-132.9048899999999946
11
174.973905000000002
21
-133.12041499999998
0
LINE
8
BLACK
6
CONTINUOUS
10
174.973905000000002
20
-133.12041499999998
11
174.7338629999999853
21
-133.3083790000000022
0
LINE
8
BLACK
6
CONTINUOUS
10
174.7338629999999853
20
-133.3083790000000022
11
174.4729179999999928
21
-133.4660429999999849
0
LINE
8
BLACK
6
CONTINUOUS
10
174.4729179999999928
20
-133.4660429999999849
11
174.1948720000000037
21
-133.5911069999999938
0
LINE
8
BLACK
6
CONTINUOUS
10
174.1948720000000037
20
-133.5911069999999938
11
173.9037799999999834
21
-133.6817489999999964
0
LINE
8
BLACK
6
CONTINUOUS
10
173.9037799999999834
20
-133.6817489999999964
11
173.6038859999999886
21
-133.7366470000000049
0
LINE
8
BLACK
6
CONTINUOUS
10
173.6038859999999886
20
-133.7366470000000049
11
173.2995609999999829
21
-133.7549999999999955
0
LINE
8
BLACK
6
CONTINUOUS
10
173.2995609999999829
20
-133.7549999999999955
11
172.9952429999999879
21
-133.7365409999999883
0
LINE
8
BLACK
6
CONTINUOUS
10
172.9952429999999879
20
-133.7365409999999883
11
172.6953670000000045
21
-133.6815389999999866
0
LINE
8
BLACK
6
CONTINUOUS
10
172.6953670000000045
20
-133.6815389999999866
11
172.4043069999999886
21
-133.5907959999999832
0
LINE
8
BLACK
6
CONTINUOUS
10
172.4043069999999886
20
-133.5907959999999832
11
172.1263050000000021
21
-133.4656349999999918
0
LINE
8
BLACK
6
CONTINUOUS
10
172.1263050000000021
20
-133.4656349999999918
11
171.865413999999987
21
-133.3078809999999805
0
LINE
8
BLACK
6
CONTINUOUS
10
171.865413999999987
20
-133.3078809999999805
11
171.6254380000000026
21
-133.1198329999999999
0
LINE
8
BLACK
6
CONTINUOUS
10
171.6254380000000026
20
-133.1198329999999999
11
171.409875999999997
21
-132.9042330000000049
0
LINE
8
BLACK
6
CONTINUOUS
10
171.409875999999997
20
-132.9042330000000049
11
171.2218699999999956
21
-132.6642249999999876
0
LINE
8
BLACK
6
CONTINUOUS
10
171.2218699999999956
20
-132.6642249999999876
11
171.0641609999999844
21
-132.4033059999999864
0
LINE
8
BLACK
6
CONTINUOUS
10
171.0641609999999844
20
-132.4033059999999864
11
170.9390479999999854
21
-132.125282999999996
0
LINE
8
BLACK
6
CONTINUOUS
10
170.9390479999999854
20
-132.125282999999996
11
170.8483559999999954
21
-131.8342059999999947
0
LINE
8
BLACK
6
CONTINUOUS
10
170.8483559999999954
20
-131.8342059999999947
11
170.7934060000000045
21
-131.5343220000000031
0
LINE
8
BLACK
6
CONTINUOUS
10
170.7934060000000045
20
-131.5343220000000031
11
170.7750000000000057
21
-131.2299999999999898
0
LINE
8
BLACK
6
CONTINUOUS
10
170.7750000000000057
20
-131.2299999999999898
11
170.7750010000000032
21
-131.2299959999999999
0
LINE
8
BLACK
6
CONTINUOUS
10
170.7750010000000032
20
-131.2299959999999999
11
170.7750000000000057
21
-131.2299899999999866
0
LINE
8
BLACK
6
CONTINUOUS
10
170.7750000000000057
20
-131.2299899999999866
11
170.7849999999999966
21
-104.9799900000000008
0
LINE
8
BLACK
6
CONTINUOUS
10
170.7849999999999966
20
-104.9799900000000008
11
170.7849999999999966
21
-104.9799849999999992
0
LINE
8
BLACK
6
CONTINUOUS
10
170.7849999999999966
20
-104.9799849999999992
11
170.8034099999999853
21
-104.6756449999999887
0
LINE
8
BLACK
6
CONTINUOUS
10
170.8034099999999853
20
-104.6756449999999887
11
170.8583720000000028
21
-104.3757279999999952
0
LINE
8
BLACK
6
CONTINUOUS
10
170.8583720000000028
20
-104.3757279999999952
11
170.9490839999999992
21
-104.0846229999999935
0
LINE
8
BLACK
6
CONTINUOUS
10
170.9490839999999992
20
-104.0846229999999935
11
171.0742239999999867
21
-103.8065739999999977
0
LINE
8
BLACK
6
CONTINUOUS
10
171.0742239999999867
20
-103.8065739999999977
11
171.2319659999999999
21
-103.5456369999999993
0
LINE
8
BLACK
6
CONTINUOUS
10
171.2319659999999999
20
-103.5456369999999993
11
171.4200099999999907
21
-103.3056149999999889
0
LINE
8
BLACK
6
CONTINUOUS
10
171.4200099999999907
20
-103.3056149999999889
11
171.6356150000000014
21
-103.0900099999999924
0
LINE
8
BLACK
6
CONTINUOUS
10
171.6356150000000014
20
-103.0900099999999924
11
171.8756369999999833
21
-102.9019660000000016
0
LINE
8
BLACK
6
CONTINUOUS
10
171.8756369999999833
20
-102.9019660000000016
11
172.136573999999996
21
-102.7442239999999885
0
LINE
8
BLACK
6
CONTINUOUS
10
172.136573999999996
20
-102.7442239999999885
11
172.414623000000006
21
-102.6190840000000009
0
LINE
8
BLACK
6
CONTINUOUS
10
172.414623000000006
20
-102.6190840000000009
11
172.7057279999999935
21
-102.5283719999999903
0
LINE
8
BLACK
6
CONTINUOUS
10
172.7057279999999935
20
-102.5283719999999903
11
173.005644999999987
21
-102.4734100000000012
0
LINE
8
BLACK
6
CONTINUOUS
10
173.005644999999987
20
-102.4734100000000012
11
173.3100000000000023
21
-102.4549999999999983
0
LINE
8
BLACK
6
CONTINUOUS
10
173.3100000000000023
20
-102.4549999999999983
11
173.6143549999999891
21
-102.4734100000000012
0
LINE
8
BLACK
6
CONTINUOUS
10
172.8630529999999794
20
-102.5410909999999944
11
172.5723339999999837
21
-102.6127469999999988
0
LINE
8
BLACK
6
CONTINUOUS
10
172.5723339999999837
20
-102.6127469999999988
11
172.2923720000000003
21
-102.7189219999999921
0
LINE
8
BLACK
6
CONTINUOUS
10
172.2923720000000003
20
-102.7189219999999921
11
172.027247999999986
21
-102.8580699999999979
0
LINE
8
BLACK
6
CONTINUOUS
10
172.027247999999986
20
-102.8580699999999979
11
171.7808310000000063
21
-103.0281599999999997
0
LINE
8
BLACK
6
CONTINUOUS
10
171.7808310000000063
20
-103.0281599999999997
11
171.5567120000000045
21
-103.226711999999992
0
LINE
8
BLACK
6
CONTINUOUS
10
171.5567120000000045
20
-103.226711999999992
11
171.358159999999998
21
-103.4508309999999938
0
LINE
8
BLACK
6
CONTINUOUS
10
171.358159999999998
20
-103.4508309999999938
11
171.188069999999982
21
-103.6972480000000019
0
LINE
8
BLACK
6
CONTINUOUS
10
171.188069999999982
20
-103.6972480000000019
11
171.0489220000000046
21
-103.962372000000002
0
LINE
8
BLACK
6
CONTINUOUS
10
171.0489220000000046
20
-103.962372000000002
11
170.9427469999999971
21
-104.2423339999999996
0
LINE
8
BLACK
6
CONTINUOUS
10
170.9427469999999971
20
-104.2423339999999996
11
170.8710909999999785
21
-104.5330529999999953
0
LINE
8
BLACK
6
CONTINUOUS
10
170.8710909999999785
20
-104.5330529999999953
11
170.8349999999999795
21
-104.8302899999999909
0
LINE
8
BLACK
6
CONTINUOUS
10
170.8349999999999795
20
-104.8302899999999909
11
170.8349999999999795
21
-104.9799999999999898
0
LINE
8
BLACK
6
CONTINUOUS
10
170.8349999999999795
20
-104.9799999999999898
11
170.8349979999999846
21
-104.9800029999999964
0
LINE
8
BLACK
6
CONTINUOUS
10
170.8349979999999846
20
-104.9800029999999964
11
170.8349999999999795
21
-104.9800089999999955
0
LINE
8
BLACK
6
CONTINUOUS
10
170.8349999999999795
20
-104.9800089999999955
11
170.8249999999999886
21
-131.2299999999999898
0
LINE
8
BLACK
6
CONTINUOUS
10
170.8249999999999886
20
-131.2299999999999898
11
170.8249989999999912
21
-131.3796930000000032
0
LINE
8
BLACK
6
CONTINUOUS
10
170.8249989999999912
20
-131.3796930000000032
11
170.8610819999999819
21
-131.6768979999999942
0
LINE
8
BLACK
6
CONTINUOUS
10
170.8610819999999819
20
-131.6768979999999942
11
170.9327219999999841
21
-131.9675869999999804
0
LINE
8
BLACK
6
CONTINUOUS
10
170.9327219999999841
20
-131.9675869999999804
11
171.0388749999999902
21
-132.247523000000001
0
LINE
8
BLACK
6
CONTINUOUS
10
171.0388749999999902
20
-132.247523000000001
11
171.1779929999999865
21
-132.5126239999999882
0
LINE
8
BLACK
6
CONTINUOUS
10
171.1779929999999865
20
-132.5126239999999882
11
171.3480469999999798
21
-132.7590260000000058
0
LINE
8
BLACK
6
CONTINUOUS
10
171.3480469999999798
20
-132.7590260000000058
11
171.546559000000002
21
-132.9831360000000018
0
LINE
8
BLACK
6
CONTINUOUS
10
171.546559000000002
20
-132.9831360000000018
11
171.7706349999999986
21
-133.1816869999999824
0
LINE
8
BLACK
6
CONTINUOUS
10
171.7706349999999986
20
-133.1816869999999824
11
172.0170069999999782
21
-133.3517839999999808
0
LINE
8
BLACK
6
CONTINUOUS
10
172.0170069999999782
20
-133.3517839999999808
11
172.2820839999999976
21
-133.490948000000003
0
LINE
8
BLACK
6
CONTINUOUS
10
172.2820839999999976
20
-133.490948000000003
11
172.5620019999999784
21
-133.5971499999999992
0
LINE
8
BLACK
6
CONTINUOUS
10
172.5620019999999784
20
-133.5971499999999992
11
172.8526779999999974
21
-133.6688399999999888
0
LINE
8
BLACK
6
CONTINUOUS
10
172.8526779999999974
20
-133.6688399999999888
11
173.1498760000000061
21
-133.7049749999999904
0
LINE
8
BLACK
6
CONTINUOUS
10
173.1498760000000061
20
-133.7049749999999904
11
173.449263000000002
21
-133.7050270000000012
0
LINE
8
BLACK
6
CONTINUOUS
10
173.449263000000002
20
-133.7050270000000012
11
173.7464740000000063
21
-133.6689959999999928
0
LINE
8
BLACK
6
CONTINUOUS
10
173.7464740000000063
20
-133.6689959999999928
11
174.0371749999999906
21
-133.5974060000000065
0
LINE
8
BLACK
6
CONTINUOUS
10
174.0371749999999906
20
-133.5974060000000065
11
174.3171299999999917
21
-133.4913019999999904
0
LINE
8
BLACK
6
CONTINUOUS
10
174.3171299999999917
20
-133.4913019999999904
11
174.5822550000000035
21
-133.3522299999999916
0
LINE
8
BLACK
6
CONTINUOUS
10
174.5822550000000035
20
-133.3522299999999916
11
174.8286860000000047
21
-133.182218000000006
0
LINE
8
BLACK
6
CONTINUOUS
10
174.8286860000000047
20
-133.182218000000006
11
175.0528309999999976
21
-132.983744999999999
0
LINE
8
BLACK
6
CONTINUOUS
10
175.0528309999999976
20
-132.983744999999999
11
175.2514209999999935
21
-132.7597039999999993
0
LINE
8
BLACK
6
CONTINUOUS
10
175.2514209999999935
20
-132.7597039999999993
11
175.421560999999997
21
-132.5133610000000033
0
LINE
8
BLACK
6
CONTINUOUS
10
175.421560999999997
20
-132.5133610000000033
11
175.5607709999999884
21
-132.2483090000000061
0
LINE
8
BLACK
6
CONTINUOUS
10
175.5607709999999884
20
-132.2483090000000061
11
175.6670210000000054
21
-131.9684100000000058
0
LINE
8
BLACK
6
CONTINUOUS
10
175.6670210000000054
20
-131.9684100000000058
11
175.7387630000000058
21
-131.6777459999999849
0
LINE
8
BLACK
6
CONTINUOUS
10
175.7387630000000058
20
-131.6777459999999849
11
175.7749489999999923
21
-131.3805539999999894
0
LINE
8
BLACK
6
CONTINUOUS
10
175.7749489999999923
20
-131.3805539999999894
11
175.7749989999999798
21
-131.2308639999999968
0
LINE
8
BLACK
6
CONTINUOUS
10
175.7749989999999798
20
-131.2308639999999968
11
175.7749989999999798
21
-131.2308589999999811
0
LINE
8
BLACK
6
CONTINUOUS
10
175.7749989999999798
20
-131.2308589999999811
11
175.7849999999999966
21
-104.9799900000000008
0
LINE
8
BLACK
6
CONTINUOUS
10
175.7849999999999966
20
-104.9799900000000008
11
175.7849999999999966
21
-104.8302899999999909
0
LINE
8
BLACK
6
CONTINUOUS
10
175.7849999999999966
20
-104.8302899999999909
11
175.7489089999999976
21
-104.5330529999999953
0
LINE
8
BLACK
6
CONTINUOUS
10
175.7489089999999976
20
-104.5330529999999953
11
175.677252999999979
21
-104.2423339999999996
0
LINE
8
BLACK
6
CONTINUOUS
10
175.677252999999979
20
-104.2423339999999996
11
175.571078
21
-103.962372000000002
0
LINE
8
BLACK
6
CONTINUOUS
10
175.571078
20
-103.962372000000002
11
175.4319299999999942
21
-103.6972480000000019
0
LINE
8
BLACK
6
CONTINUOUS
10
175.4319299999999942
20
-103.6972480000000019
11
175.2618399999999781
21
-103.4508309999999938
0
LINE
8
BLACK
6
CONTINUOUS
10
175.2618399999999781
20
-103.4508309999999938
11
175.063288
21
-103.226711999999992
0
LINE
8
BLACK
6
CONTINUOUS
10
175.063288
20
-103.226711999999992
11
174.8391689999999983
21
-103.0281599999999997
0
LINE
8
BLACK
6
CONTINUOUS
10
174.8391689999999983
20
-103.0281599999999997
11
174.5927519999999902
21
-102.8580699999999979
0
LINE
8
BLACK
6
CONTINUOUS
10
174.5927519999999902
20
-102.8580699999999979
11
174.3276280000000042
21
-102.7189219999999921
0
LINE
8
BLACK
6
CONTINUOUS
10
174.3276280000000042
20
-102.7189219999999921
11
174.0476659999999924
21
-102.6127469999999988
0
LINE
8
BLACK
6
CONTINUOUS
10
174.0476659999999924
20
-102.6127469999999988
11
173.7569469999999967
21
-102.5410909999999944
0
LINE
8
BLACK
6
CONTINUOUS
10
173.7569469999999967
20
-102.5410909999999944
11
173.4597100000000012
21
-102.5049999999999955
0
LINE
8
BLACK
6
CONTINUOUS
10
173.4597100000000012
20
-102.5049999999999955
11
173.1602900000000034
21
-102.5049999999999955
0
LINE
8
BLACK
6
CONTINUOUS
10
173.1602900000000034
20
-102.5049999999999955
11
172.8630529999999794
21
-102.5410909999999944
0
LINE
8
BLACK
6
CONTINUOUS
10
127.9095669999999956
20
-71.351902999999993
11
127.9176779999999951
21
-71.3573219999999964
0
LINE
8
BLACK
6
CONTINUOUS
10
127.9176779999999951
20
-71.3573219999999964
11
142.1978550000000041
21
-85.6375000000000028
0
LINE
8
BLACK
6
CONTINUOUS
10
142.1978550000000041
20
-85.6375000000000028
11
170.7624999999999886
21
-85.6375000000000028
0
LINE
8
BLACK
6
CONTINUOUS
10
170.7624999999999886
20
-85.6375000000000028
11
170.7718279999999993
21
-85.6393549999999948
0
LINE
8
BLACK
6
CONTINUOUS
10
170.7718279999999993
20
-85.6393549999999948
11
170.7719490000000064
21
-85.6393549999999948
0
LINE
8
BLACK
6
CONTINUOUS
10
170.7719490000000064
20
-85.6393549999999948
11
170.771979999999985
21
-85.6393849999999901
0
LINE
8
BLACK
6
CONTINUOUS
10
170.771979999999985
20
-85.6393849999999901
11
170.7720669999999927
21
-85.6394030000000015
0
LINE
8
BLACK
6
CONTINUOUS
10
170.7720669999999927
20
-85.6394030000000015
11
170.7787969999999973
21
-85.6461329999999919
0
LINE
8
BLACK
6
CONTINUOUS
10
170.7787969999999973
20
-85.6461329999999919
11
170.7855480000000057
21
-85.6528149999999897
0
LINE
8
BLACK
6
CONTINUOUS
10
170.7855480000000057
20
-85.6528149999999897
11
170.7855649999999912
21
-85.652901
0
LINE
8
BLACK
6
CONTINUOUS
10
170.7855649999999912
20
-85.652901
11
170.7855969999999957
21
-85.6529329999999902
0
LINE
8
BLACK
6
CONTINUOUS
10
170.7855969999999957
20
-85.6529329999999902
11
170.7855969999999957
21
-85.6530539999999974
0
LINE
8
BLACK
6
CONTINUOUS
10
170.7855969999999957
20
-85.6530539999999974
11
170.7874999999999943
21
-85.6623730000000023
0
LINE
8
BLACK
6
CONTINUOUS
10
170.7874999999999943
20
-85.6623730000000023
11
170.8349999999999795
21
-94.9798720000000003
0
LINE
8
BLACK
6
CONTINUOUS
10
170.8349999999999795
20
-94.9798720000000003
11
170.8349839999999915
21
-94.9799519999999973
0
LINE
8
BLACK
6
CONTINUOUS
10
170.8349839999999915
20
-94.9799519999999973
11
170.8349999999999795
21
-94.9799999999999898
0
LINE
8
BLACK
6
CONTINUOUS
10
170.8349999999999795
20
-94.9799999999999898
11
170.8350010000000054
21
-94.9799999999999898
0
LINE
8
BLACK
6
CONTINUOUS
10
170.8350010000000054
20
-94.9799999999999898
11
170.8349969999999871
21
-95.1296540000000022
0
LINE
8
BLACK
6
CONTINUOUS
10
170.8349969999999871
20
-95.1296540000000022
11
170.8710609999999974
21
-95.4267799999999937
0
LINE
8
BLACK
6
CONTINUOUS
10
170.8710609999999974
20
-95.4267799999999937
11
170.9426639999999793
21
-95.7173959999999937
0
LINE
8
BLACK
6
CONTINUOUS
10
170.9426639999999793
20
-95.7173959999999937
11
171.0487609999999847
21
-95.9972679999999912
0
LINE
8
BLACK
6
CONTINUOUS
10
171.0487609999999847
20
-95.9972679999999912
11
171.1878079999999898
21
-96.2623169999999959
0
LINE
8
BLACK
6
CONTINUOUS
10
171.1878079999999898
20
-96.2623169999999959
11
171.3577779999999962
21
-96.5086799999999982
0
LINE
8
BLACK
6
CONTINUOUS
10
171.3577779999999962
20
-96.5086799999999982
11
171.556194000000005
21
-96.7327689999999905
0
LINE
8
BLACK
6
CONTINUOUS
10
171.556194000000005
20
-96.7327689999999905
11
171.7801659999999799
21
-96.9313179999999903
0
LINE
8
BLACK
6
CONTINUOUS
10
171.7801659999999799
20
-96.9313179999999903
11
172.0264289999999789
21
-97.1014330000000001
0
LINE
8
BLACK
6
CONTINUOUS
10
172.0264289999999789
20
-97.1014330000000001
11
172.2913949999999943
21
-97.2406369999999924
0
LINE
8
BLACK
6
CONTINUOUS
10
172.2913949999999943
20
-97.2406369999999924
11
172.5712039999999945
21
-97.3468999999999909
0
LINE
8
BLACK
6
CONTINUOUS
10
172.5712039999999945
20
-97.3468999999999909
11
172.8617779999999868
21
-97.4186739999999958
0
LINE
8
BLACK
6
CONTINUOUS
10
172.8617779999999868
20
-97.4186739999999958
11
173.158883000000003
21
-97.4549140000000023
0
LINE
8
BLACK
6
CONTINUOUS
10
173.158883000000003
20
-97.4549140000000023
11
173.4581900000000019
21
-97.4550909999999959
0
LINE
8
BLACK
6
CONTINUOUS
10
173.4581900000000019
20
-97.4550909999999959
11
173.7553379999999947
21
-97.4192019999999985
0
LINE
8
BLACK
6
CONTINUOUS
10
173.7553379999999947
20
-97.4192019999999985
11
174.0459960000000024
21
-97.347771999999992
0
LINE
8
BLACK
6
CONTINUOUS
10
174.0459960000000024
20
-97.347771999999992
11
174.3259299999999996
21
-97.2418399999999963
0
LINE
8
BLACK
6
CONTINUOUS
10
174.3259299999999996
20
-97.2418399999999963
11
174.5910609999999963
21
-97.1029499999999928
0
LINE
8
BLACK
6
CONTINUOUS
10
174.5910609999999963
20
-97.1029499999999928
11
174.8375249999999994
21
-96.9331260000000015
0
LINE
8
BLACK
6
CONTINUOUS
10
174.8375249999999994
20
-96.9331260000000015
11
175.0617309999999804
21
-96.7348420000000004
0
LINE
8
BLACK
6
CONTINUOUS
10
175.0617309999999804
20
-96.7348420000000004
11
175.2604129999999998
21
-96.5109879999999976
0
LINE
8
BLACK
6
CONTINUOUS
10
175.2604129999999998
20
-96.5109879999999976
11
175.430673999999982
21
-96.2648259999999993
0
LINE
8
BLACK
6
CONTINUOUS
10
175.430673999999982
20
-96.2648259999999993
11
175.5700339999999926
21
-95.9999419999999901
0
LINE
8
BLACK
6
CONTINUOUS
10
175.5700339999999926
20
-95.9999419999999901
11
175.6764619999999866
21
-95.7201960000000014
0
LINE
8
BLACK
6
CONTINUOUS
10
175.6764619999999866
20
-95.7201960000000014
11
175.748408999999981
21
-95.429665
0
LINE
8
BLACK
6
CONTINUOUS
10
175.748408999999981
20
-95.429665
11
175.7848239999999862
21
-95.1325810000000018
0
LINE
8
BLACK
6
CONTINUOUS
10
175.7848239999999862
20
-95.1325810000000018
11
175.7849970000000042
21
-94.9829269999999894
0
LINE
8
BLACK
6
CONTINUOUS
10
175.7849970000000042
20
-94.9829269999999894
11
175.7849980000000016
21
-94.9829269999999894
0
LINE
8
BLACK
6
CONTINUOUS
10
175.7849980000000016
20
-94.9829269999999894
11
175.7849980000000016
21
-94.9829249999999945
0
LINE
8
BLACK
6
CONTINUOUS
10
175.7849980000000016
20
-94.9829249999999945
11
175.7849980000000016
21
-94.9829229999999995
0
LINE
8
BLACK
6
CONTINUOUS
10
175.7849980000000016
20
-94.9829229999999995
11
175.7974999999999852
21
-85.6624669999999924
0
LINE
8
BLACK
6
CONTINUOUS
10
175.7974999999999852
20
-85.6624669999999924
11
175.7994029999999839
21
-85.6529659999999922
0
LINE
8
BLACK
6
CONTINUOUS
10
175.7994029999999839
20
-85.6529659999999922
11
175.7994029999999839
21
-85.6529329999999902
0
LINE
8
BLACK
6
CONTINUOUS
10
175.7994029999999839
20
-85.6529329999999902
11
175.7994109999999921
21
-85.6529239999999987
0
LINE
8
BLACK
6
CONTINUOUS
10
175.7994109999999921
20
-85.6529239999999987
11
175.7994159999999795
21
-85.6529019999999974
0
LINE
8
BLACK
6
CONTINUOUS
10
175.7994159999999795
20
-85.6529019999999974
11
175.8060059999999964
21
-85.6463289999999944
0
LINE
8
BLACK
6
CONTINUOUS
10
175.8060059999999964
20
-85.6463289999999944
11
175.8129329999999868
21
-85.6394030000000015
0
LINE
8
BLACK
6
CONTINUOUS
10
175.8129329999999868
20
-85.6394030000000015
11
175.8129559999999856
21
-85.6393979999999999
0
LINE
8
BLACK
6
CONTINUOUS
10
175.8129559999999856
20
-85.6393979999999999
11
175.8129639999999938
21
-85.6393909999999892
0
LINE
8
BLACK
6
CONTINUOUS
10
175.8129639999999938
20
-85.6393909999999892
11
175.8129930000000058
21
-85.6393909999999892
0
LINE
8
BLACK
6
CONTINUOUS
10
175.8129930000000058
20
-85.6393909999999892
11
175.8224999999999909
21
-85.6375000000000028
0
LINE
8
BLACK
6
CONTINUOUS
10
175.8224999999999909
20
-85.6375000000000028
11
204.387143999999978
21
-85.6375000000000028
0
LINE
8
BLACK
6
CONTINUOUS
10
204.387143999999978
20
-85.6375000000000028
11
218.6673219999999844
21
-71.3573229999999938
0
LINE
8
BLACK
6
CONTINUOUS
10
218.6673219999999844
20
-71.3573229999999938
11
218.6754329999999982
21
-71.351902999999993
0
LINE
8
BLACK
6
CONTINUOUS
10
218.6754329999999982
20
-71.351902999999993
11
218.6850000000000023
21
-71.3499999999999943
0
LINE
8
BLACK
6
CONTINUOUS
10
218.6850000000000023
20
-71.3499999999999943
11
304.4099999999999682
21
-71.3499999999999943
0
LINE
8
BLACK
6
CONTINUOUS
10
304.4099999999999682
20
-71.3499999999999943
11
304.4195669999999723
21
-71.351902999999993
0
LINE
8
BLACK
6
CONTINUOUS
10
304.4195669999999723
20
-71.351902999999993
11
304.4276780000000144
21
-71.3573219999999964
0
LINE
8
BLACK
6
CONTINUOUS
10
304.4276780000000144
20
-71.3573219999999964
11
318.7151769999999829
21
-85.6448219999999907
0
LINE
8
BLACK
6
CONTINUOUS
10
318.7151769999999829
20
-85.6448219999999907
11
318.7205969999999979
21
-85.6529329999999902
0
LINE
8
BLACK
6
CONTINUOUS
10
318.7205969999999979
20
-85.6529329999999902
11
318.7224999999999682
21
-85.6624999999999943
0
LINE
8
BLACK
6
CONTINUOUS
10
318.7224999999999682
20
-85.6624999999999943
11
318.7224999999999682
21
-166.625
0
LINE
8
BLACK
6
CONTINUOUS
10
318.7224999999999682
20
-166.625
11
318.7205969999999979
21
-166.6345670000000041
0
LINE
8
BLACK
6
CONTINUOUS
10
318.7205969999999979
20
-166.6345670000000041
11
318.707066999999995
21
-166.6480969999999786
0
LINE
8
BLACK
6
CONTINUOUS
10
318.707066999999995
20
-166.6480969999999786
11
318.6974999999999909
21
-166.6500000000000057
0
LINE
8
BLACK
6
CONTINUOUS
10
318.6974999999999909
20
-166.6500000000000057
11
252.0379509999999925
21
-166.6500000000000057
0
LINE
8
BLACK
6
CONTINUOUS
10
252.0379509999999925
20
-166.6500000000000057
11
237.7573610000000031
21
-195.2111799999999846
0
LINE
8
BLACK
6
CONTINUOUS
10
237.7573610000000031
20
-195.2111799999999846
11
237.7513799999999833
21
-195.2188859999999977
0
LINE
8
BLACK
6
CONTINUOUS
10
237.7513799999999833
20
-195.2188859999999977
11
237.7474759999999776
21
-195.2201869999999815
0
LINE
8
BLACK
6
CONTINUOUS
10
237.7474759999999776
20
-195.2201869999999815
11
237.7445669999999893
21
-195.2230969999999957
0
LINE
8
BLACK
6
CONTINUOUS
10
237.7445669999999893
20
-195.2230969999999957
11
237.7349999999999852
21
-195.2249999999999943
0
LINE
8
BLACK
6
CONTINUOUS
10
237.7349999999999852
20
-195.2249999999999943
11
218.6850000000000023
21
-195.2249999999999943
0
LINE
8
BLACK
6
CONTINUOUS
10
218.6850000000000023
20
-195.2249999999999943
11
175.8224999999999909
21
-195.2249999999999943
0
LINE
8
BLACK
6
CONTINUOUS
10
175.8224999999999909
20
-195.2249999999999943
11
175.8130280000000027
21
-195.2231149999999786
0
LINE
8
BLACK
6
CONTINUOUS
10
175.8130280000000027
20
-195.2231149999999786
11
175.8129769999999894
21
-195.2231160000000045
0
LINE
8
BLACK
6
CONTINUOUS
10
175.8129769999999894
20
-195.2231160000000045
11
175.8129639999999938
21
-195.2231029999999805
0
LINE
8
BLACK
6
CONTINUOUS
10
175.8129639999999938
20
-195.2231029999999805
11
175.8129329999999868
21
-195.2230969999999957
0
LINE
8
BLACK
6
CONTINUOUS
10
175.8129329999999868
20
-195.2230969999999957
11
175.8064589999999896
21
-195.2166229999999985
0
LINE
8
BLACK
6
CONTINUOUS
10
175.8064589999999896
20
-195.2166229999999985
11
175.7994209999999953
21
-195.2096119999999928
0
LINE
8
BLACK
6
CONTINUOUS
10
175.7994209999999953
20
-195.2096119999999928
11
175.7994139999999845
21
-195.2095779999999934
0
LINE
8
BLACK
6
CONTINUOUS
10
175.7994139999999845
20
-195.2095779999999934
11
175.7994029999999839
21
-195.2095669999999927
0
LINE
8
BLACK
6
CONTINUOUS
10
175.7994029999999839
20
-195.2095669999999927
11
175.7994029999999839
21
-195.2095219999999927
0
LINE
8
BLACK
6
CONTINUOUS
10
175.7994029999999839
20
-195.2095219999999927
11
175.7974999999999852
21
-195.2000479999999811
0
LINE
8
BLACK
6
CONTINUOUS
10
175.7974999999999852
20
-195.2000479999999811
11
175.7750000000000057
21
-183.4900480000000016
0
LINE
8
BLACK
6
CONTINUOUS
10
175.7750000000000057
20
-183.4900480000000016
11
175.7750049999999931
21
-183.4900179999999921
0
LINE
8
BLACK
6
CONTINUOUS
10
175.7750049999999931
20
-183.4900179999999921
11
175.7750000000000057
21
-183.4899999999999807
0
LINE
8
BLACK
6
CONTINUOUS
10
175.7750000000000057
20
-183.4899999999999807
11
175.7750000000000057
21
-183.3402899999999818
0
LINE
8
BLACK
6
CONTINUOUS
10
175.7750000000000057
20
-183.3402899999999818
11
175.7389089999999783
21
-183.0430529999999862
0
LINE
8
BLACK
6
CONTINUOUS
10
175.7389089999999783
20
-183.0430529999999862
11
175.6672529999999881
21
-182.7523339999999905
0
LINE
8
BLACK
6
CONTINUOUS
10
175.6672529999999881
20
-182.7523339999999905
11
175.5610779999999806
21
-182.4723719999999787
0
LINE
8
BLACK
6
CONTINUOUS
10
175.5610779999999806
20
-182.4723719999999787
11
175.4219300000000032
21
-182.2072479999999928
0
LINE
8
BLACK
6
CONTINUOUS
10
175.4219300000000032
20
-182.2072479999999928
11
175.2518399999999872
21
-181.9608309999999847
0
LINE
8
BLACK
6
CONTINUOUS
10
175.2518399999999872
20
-181.9608309999999847
11
175.0532879999999807
21
-181.7367119999999829
0
LINE
8
BLACK
6
CONTINUOUS
10
175.0532879999999807
20
-181.7367119999999829
11
174.829168999999979
21
-181.5381600000000049
0
LINE
8
BLACK
6
CONTINUOUS
10
174.829168999999979
20
-181.5381600000000049
11
174.5827519999999993
21
-181.3680699999999888
0
LINE
8
BLACK
6
CONTINUOUS
10
174.5827519999999993
20
-181.3680699999999888
11
174.3176279999999849
21
-181.228921999999983
0
LINE
8
BLACK
6
CONTINUOUS
10
174.3176279999999849
20
-181.228921999999983
11
174.0376660000000015
21
-181.1227470000000039
0
LINE
8
BLACK
6
CONTINUOUS
10
174.0376660000000015
20
-181.1227470000000039
11
173.7469470000000058
21
-181.0510909999999853
0
LINE
8
BLACK
6
CONTINUOUS
10
173.7469470000000058
20
-181.0510909999999853
11
173.4497099999999818
21
-181.0149999999999864
0
LINE
8
BLACK
6
CONTINUOUS
10
173.4497099999999818
20
-181.0149999999999864
11
173.150289999999984
21
-181.0149999999999864
0
LINE
8
BLACK
6
CONTINUOUS
10
173.150289999999984
20
-181.0149999999999864
11
172.8530529999999885
21
-181.0510909999999853
0
LINE
8
BLACK
6
CONTINUOUS
10
172.8530529999999885
20
-181.0510909999999853
11
172.5623339999999928
21
-181.1227470000000039
0
LINE
8
BLACK
6
CONTINUOUS
10
172.5623339999999928
20
-181.1227470000000039
11
172.282371999999981
21
-181.228921999999983
0
LINE
8
BLACK
6
CONTINUOUS
10
172.282371999999981
20
-181.228921999999983
11
172.017247999999995
21
-181.3680699999999888
0
LINE
8
BLACK
6
CONTINUOUS
10
172.017247999999995
20
-181.3680699999999888
11
171.7708309999999869
21
-181.5381600000000049
0
LINE
8
BLACK
6
CONTINUOUS
10
171.7708309999999869
20
-181.5381600000000049
11
171.5467119999999852
21
-181.7367119999999829
0
LINE
8
BLACK
6
CONTINUOUS
10
171.5467119999999852
20
-181.7367119999999829
11
171.3481599999999787
21
-181.9608309999999847
0
LINE
8
BLACK
6
CONTINUOUS
10
171.3481599999999787
20
-181.9608309999999847
11
171.1780699999999911
21
-182.2072479999999928
0
LINE
8
BLACK
6
CONTINUOUS
10
171.1780699999999911
20
-182.2072479999999928
11
171.0389219999999852
21
-182.4723719999999787
0
LINE
8
BLACK
6
CONTINUOUS
10
171.0389219999999852
20
-182.4723719999999787
11
170.9327470000000062
21
-182.7523339999999905
0
LINE
8
BLACK
6
CONTINUOUS
10
170.9327470000000062
20
-182.7523339999999905
11
170.8610909999999876
21
-183.0430529999999862
0
LINE
8
BLACK
6
CONTINUOUS
10
170.8610909999999876
20
-183.0430529999999862
11
170.8249999999999886
21
-183.3402899999999818
0
LINE
8
BLACK
6
CONTINUOUS
10
170.8249999999999886
20
-183.3402899999999818
11
170.8249999999999886
21
-183.4899999999999807
0
LINE
8
BLACK
6
CONTINUOUS
10
170.8249999999999886
20
-183.4899999999999807
11
170.8249899999999855
21
-183.4900299999999902
0
LINE
8
BLACK
6
CONTINUOUS
10
170.8249899999999855
20
-183.4900299999999902
11
170.8249999999999886
21
-183.4900799999999776
0
LINE
8
BLACK
6
CONTINUOUS
10
170.8249999999999886
20
-183.4900799999999776
11
170.7874999999999943
21
-195.2000799999999856
0
LINE
8
BLACK
6
CONTINUOUS
10
170.7874999999999943
20
-195.2000799999999856
11
170.7855969999999957
21
-195.2094869999999958
0
LINE
8
BLACK
6
CONTINUOUS
10
170.7855969999999957
20
-195.2094869999999958
11
170.7855969999999957
21
-195.2095669999999927
0
LINE
8
BLACK
6
CONTINUOUS
10
170.7855969999999957
20
-195.2095669999999927
11
170.7855759999999918
21
-195.2095869999999991
0
LINE
8
BLACK
6
CONTINUOUS
10
170.7855759999999918
20
-195.2095869999999991
11
170.7855659999999887
21
-195.2096410000000049
0
LINE
8
BLACK
6
CONTINUOUS
10
170.7855659999999887
20
-195.2096410000000049
11
170.7787840000000017
21
-195.2163799999999867
0
LINE
8
BLACK
6
CONTINUOUS
10
170.7787840000000017
20
-195.2163799999999867
11
170.7720669999999927
21
-195.2230969999999957
0
LINE
8
BLACK
6
CONTINUOUS
10
170.7720669999999927
20
-195.2230969999999957
11
170.772012999999987
21
-195.2231069999999988
0
LINE
8
BLACK
6
CONTINUOUS
10
170.772012999999987
20
-195.2231069999999988
11
170.7719929999999806
21
-195.2231280000000027
0
LINE
8
BLACK
6
CONTINUOUS
10
170.7719929999999806
20
-195.2231280000000027
11
170.7719119999999862
21
-195.2231270000000052
0
LINE
8
BLACK
6
CONTINUOUS
10
170.7719119999999862
20
-195.2231270000000052
11
170.7624999999999886
21
-195.2249999999999943
0
LINE
8
BLACK
6
CONTINUOUS
10
170.7624999999999886
20
-195.2249999999999943
11
127.8999999999999915
21
-195.2249999999999943
0
LINE
8
BLACK
6
CONTINUOUS
10
127.8999999999999915
20
-195.2249999999999943
11
108.8499999999999943
21
-195.2249999999999943
0
LINE
8
BLACK
6
CONTINUOUS
10
108.8499999999999943
20
-195.2249999999999943
11
108.8404329999999902
21
-195.2230969999999957
0
LINE
8
BLACK
6
CONTINUOUS
10
108.8404329999999902
20
-195.2230969999999957
11
108.8375229999999902
21
-195.2201869999999815
0
LINE
8
BLACK
6
CONTINUOUS
10
108.8375229999999902
20
-195.2201869999999815
11
108.8336199999999963
21
-195.2188859999999977
0
LINE
8
BLACK
6
CONTINUOUS
10
108.8336199999999963
20
-195.2188859999999977
11
108.8276389999999907
21
-195.2111799999999846
0
LINE
8
BLACK
6
CONTINUOUS
10
108.8276389999999907
20
-195.2111799999999846
11
94.5470490000000012
21
-166.6500000000000057
0
LINE
8
BLACK
6
CONTINUOUS
10
94.5470490000000012
20
-166.6500000000000057
11
27.8874999999999993
21
-166.6500000000000057
0
LINE
8
BLACK
6
CONTINUOUS
10
27.8874999999999993
20
-166.6500000000000057
11
27.8779329999999987
21
-166.6480969999999786
0
LINE
8
BLACK
6
CONTINUOUS
10
27.8779329999999987
20
-166.6480969999999786
11
27.8644029999999994
21
-166.6345670000000041
0
LINE
8
BLACK
6
CONTINUOUS
10
27.8644029999999994
20
-166.6345670000000041
11
27.8624999999999972
21
-166.625
0
LINE
8
BLACK
6
CONTINUOUS
10
27.8624999999999972
20
-166.625
11
27.8624999999999972
21
-85.6624999999999943
0
LINE
8
BLACK
6
CONTINUOUS
10
27.8624999999999972
20
-85.6624999999999943
11
27.8644029999999994
21
-85.6529329999999902
0
LINE
8
BLACK
6
CONTINUOUS
10
27.8644029999999994
20
-85.6529329999999902
11
27.8698219999999992
21
-85.6448219999999907
0
LINE
8
BLACK
6
CONTINUOUS
10
27.8698219999999992
20
-85.6448219999999907
11
42.1573220000000006
21
-71.3573229999999938
0
LINE
8
BLACK
6
CONTINUOUS
10
42.1573220000000006
20
-71.3573229999999938
11
42.1654330000000002
21
-71.351902999999993
0
LINE
8
BLACK
6
CONTINUOUS
10
42.1654330000000002
20
-71.351902999999993
11
42.1749999999999972
21
-71.3499999999999943
0
LINE
8
BLACK
6
CONTINUOUS
10
42.1749999999999972
20
-71.3499999999999943
11
127.8999999999999915
21
-71.3499999999999943
0
LINE
8
BLACK
6
CONTINUOUS
10
127.8999999999999915
20
-71.3499999999999943
11
127.9095669999999956
21
-71.351902999999993
0
LINE
8
BLACK
6
CONTINUOUS
10
42.1853550000000013
20
-71.3999999999999915
11
27.9124999999999979
21
-85.6728549999999984
0
LINE
8
BLACK
6
CONTINUOUS
10
27.9124999999999979
20
-85.6728549999999984
11
27.9124999999999979
21
-166.5999999999999943
0
LINE
8
BLACK
6
CONTINUOUS
10
27.9124999999999979
20
-166.5999999999999943
11
94.5625
21
-166.5999999999999943
0
LINE
8
BLACK
6
CONTINUOUS
10
94.5625
20
-166.5999999999999943
11
94.5720669999999899
21
-166.601902999999993
0
LINE
8
BLACK
6
CONTINUOUS
10
94.5720669999999899
20
-166.601902999999993
11
94.5749759999999924
21
-166.6048119999999813
0
LINE
8
BLACK
6
CONTINUOUS
10
94.5749759999999924
20
-166.6048119999999813
11
94.5788799999999981
21
-166.6061139999999909
0
LINE
8
BLACK
6
CONTINUOUS
10
94.5788799999999981
20
-166.6061139999999909
11
94.5848609999999894
21
-166.613820000000004
0
LINE
8
BLACK
6
CONTINUOUS
10
94.5848609999999894
20
-166.613820000000004
11
108.8654509999999931
21
-195.1749999999999829
0
LINE
8
BLACK
6
CONTINUOUS
10
108.8654509999999931
20
-195.1749999999999829
11
127.8999999999999915
21
-195.1749999999999829
0
LINE
8
BLACK
6
CONTINUOUS
10
127.8999999999999915
20
-195.1749999999999829
11
170.7375799999999799
21
-195.1749999999999829
0
LINE
8
BLACK
6
CONTINUOUS
10
170.7375799999999799
20
-195.1749999999999829
11
170.7750000000000057
21
-183.4899199999999837
0
LINE
8
BLACK
6
CONTINUOUS
10
170.7750000000000057
20
-183.4899199999999837
11
170.7750059999999905
21
-183.4898849999999868
0
LINE
8
BLACK
6
CONTINUOUS
10
170.7750059999999905
20
-183.4898849999999868
11
170.7934099999999944
21
-183.1856449999999938
0
LINE
8
BLACK
6
CONTINUOUS
10
170.7934099999999944
20
-183.1856449999999938
11
170.8483719999999835
21
-182.8857280000000003
0
LINE
8
BLACK
6
CONTINUOUS
10
170.8483719999999835
20
-182.8857280000000003
11
170.9390839999999798
21
-182.5946229999999844
0
LINE
8
BLACK
6
CONTINUOUS
10
170.9390839999999798
20
-182.5946229999999844
11
171.0642239999999958
21
-182.3165740000000028
0
LINE
8
BLACK
6
CONTINUOUS
10
171.0642239999999958
20
-182.3165740000000028
11
171.2219659999999806
21
-182.0556369999999902
0
LINE
8
BLACK
6
CONTINUOUS
10
171.2219659999999806
20
-182.0556369999999902
11
171.4100099999999998
21
-181.8156149999999798
0
LINE
8
BLACK
6
CONTINUOUS
10
171.4100099999999998
20
-181.8156149999999798
11
171.625614999999982
21
-181.6000099999999975
0
LINE
8
BLACK
6
CONTINUOUS
10
171.625614999999982
20
-181.6000099999999975
11
171.8656369999999924
21
-181.4119659999999783
0
LINE
8
BLACK
6
CONTINUOUS
10
171.8656369999999924
20
-181.4119659999999783
11
172.1265740000000051
21
-181.2542239999999936
0
LINE
8
BLACK
6
CONTINUOUS
10
172.1265740000000051
20
-181.2542239999999936
11
172.4046229999999866
21
-181.129084000000006
0
LINE
8
BLACK
6
CONTINUOUS
10
172.4046229999999866
20
-181.129084000000006
11
172.6957280000000026
21
-181.0383719999999812
0
LINE
8
BLACK
6
CONTINUOUS
10
172.6957280000000026
20
-181.0383719999999812
11
172.9956449999999961
21
-180.9834099999999921
0
LINE
8
BLACK
6
CONTINUOUS
10
172.9956449999999961
20
-180.9834099999999921
11
173.2999999999999829
21
-180.9650000000000034
0
LINE
8
BLACK
6
CONTINUOUS
10
173.2999999999999829
20
-180.9650000000000034
11
173.6043549999999982
21
-180.9834099999999921
0
LINE
8
BLACK
6
CONTINUOUS
10
173.6043549999999982
20
-180.9834099999999921
11
173.9042719999999917
21
-181.0383719999999812
0
LINE
8
BLACK
6
CONTINUOUS
10
173.9042719999999917
20
-181.0383719999999812
11
174.1953769999999793
21
-181.129084000000006
0
LINE
8
BLACK
6
CONTINUOUS
10
174.1953769999999793
20
-181.129084000000006
11
174.4734259999999892
21
-181.2542239999999936
0
LINE
8
BLACK
6
CONTINUOUS
10
174.4734259999999892
20
-181.2542239999999936
11
174.7343630000000019
21
-181.4119659999999783
0
LINE
8
BLACK
6
CONTINUOUS
10
174.7343630000000019
20
-181.4119659999999783
11
174.9743849999999838
21
-181.6000099999999975
0
LINE
8
BLACK
6
CONTINUOUS
10
174.9743849999999838
20
-181.6000099999999975
11
175.1899899999999946
21
-181.8156149999999798
0
LINE
8
BLACK
6
CONTINUOUS
10
175.1899899999999946
20
-181.8156149999999798
11
175.3780339999999853
21
-182.0556369999999902
0
LINE
8
BLACK
6
CONTINUOUS
10
175.3780339999999853
20
-182.0556369999999902
11
175.5357759999999985
21
-182.3165740000000028
0
LINE
8
BLACK
6
CONTINUOUS
10
175.5357759999999985
20
-182.3165740000000028
11
175.6609159999999861
21
-182.5946229999999844
0
LINE
8
BLACK
6
CONTINUOUS
10
175.6609159999999861
20
-182.5946229999999844
11
175.7516279999999824
21
-182.8857280000000003
0
LINE
8
BLACK
6
CONTINUOUS
10
175.7516279999999824
20
-182.8857280000000003
11
175.8065899999999999
21
-183.1856449999999938
0
LINE
8
BLACK
6
CONTINUOUS
10
175.8065899999999999
20
-183.1856449999999938
11
175.8249950000000013
21
-183.4899309999999844
0
LINE
8
BLACK
6
CONTINUOUS
10
175.8249950000000013
20
-183.4899309999999844
11
175.8249999999999886
21
-183.4899519999999882
0
LINE
8
BLACK
6
CONTINUOUS
10
175.8249999999999886
20
-183.4899519999999882
11
175.8474520000000041
21
-195.1749999999999829
0
LINE
8
BLACK
6
CONTINUOUS
10
175.8474520000000041
20
-195.1749999999999829
11
218.6850000000000023
21
-195.1749999999999829
0
LINE
8
BLACK
6
CONTINUOUS
10
218.6850000000000023
20
-195.1749999999999829
11
237.7195490000000007
21
-195.1749999999999829
0
LINE
8
BLACK
6
CONTINUOUS
10
237.7195490000000007
20
-195.1749999999999829
11
252.0001389999999901
21
-166.613820000000004
0
LINE
8
BLACK
6
CONTINUOUS
10
252.0001389999999901
20
-166.613820000000004
11
252.0061199999999815
21
-166.6061139999999909
0
LINE
8
BLACK
6
CONTINUOUS
10
252.0061199999999815
20
-166.6061139999999909
11
252.0100229999999897
21
-166.6048119999999813
0
LINE
8
BLACK
6
CONTINUOUS
10
252.0100229999999897
20
-166.6048119999999813
11
252.0129329999999754
21
-166.601902999999993
0
LINE
8
BLACK
6
CONTINUOUS
10
252.0129329999999754
20
-166.601902999999993
11
252.0224999999999795
21
-166.5999999999999943
0
LINE
8
BLACK
6
CONTINUOUS
10
252.0224999999999795
20
-166.5999999999999943
11
318.6725000000000136
21
-166.5999999999999943
0
LINE
8
BLACK
6
CONTINUOUS
10
318.6725000000000136
20
-166.5999999999999943
11
318.6725000000000136
21
-85.6728549999999984
0
LINE
8
BLACK
6
CONTINUOUS
10
318.6725000000000136
20
-85.6728549999999984
11
304.3996439999999666
21
-71.3999999999999915
0
LINE
8
BLACK
6
CONTINUOUS
10
304.3996439999999666
20
-71.3999999999999915
11
218.695354999999978
21
-71.3999999999999915
0
LINE
8
BLACK
6
CONTINUOUS
10
218.695354999999978
20
-71.3999999999999915
11
204.4151779999999974
21
-85.680177999999998
0
LINE
8
BLACK
6
CONTINUOUS
10
204.4151779999999974
20
-85.680177999999998
11
204.4070669999999836
21
-85.6855970000000013
0
LINE
8
BLACK
6
CONTINUOUS
10
204.4070669999999836
20
-85.6855970000000013
11
204.3974999999999795
21
-85.6875
0
LINE
8
BLACK
6
CONTINUOUS
10
204.3974999999999795
20
-85.6875
11
175.8474669999999946
21
-85.6875
0
LINE
8
BLACK
6
CONTINUOUS
10
175.8474669999999946
20
-85.6875
11
175.8349979999999846
21
-94.9829909999999984
0
LINE
8
BLACK
6
CONTINUOUS
10
175.8349979999999846
20
-94.9829909999999984
11
175.8349959999999896
21
-94.9829989999999924
0
LINE
8
BLACK
6
CONTINUOUS
10
175.8349959999999896
20
-94.9829989999999924
11
175.8162409999999909
21
-95.2872059999999976
0
LINE
8
BLACK
6
CONTINUOUS
10
175.8162409999999909
20
-95.2872059999999976
11
175.7609659999999963
21
-95.5869479999999925
0
LINE
8
BLACK
6
CONTINUOUS
10
175.7609659999999963
20
-95.5869479999999925
11
175.6699769999999887
21
-95.8778470000000027
0
LINE
8
BLACK
6
CONTINUOUS
10
175.6699769999999887
20
-95.8778470000000027
11
175.5446000000000026
21
-96.1556629999999899
0
LINE
8
BLACK
6
CONTINUOUS
10
175.5446000000000026
20
-96.1556629999999899
11
175.3866620000000012
21
-96.4163470000000018
0
LINE
8
BLACK
6
CONTINUOUS
10
175.3866620000000012
20
-96.4163470000000018
11
175.1984649999999988
21
-96.6561030000000017
0
LINE
8
BLACK
6
CONTINUOUS
10
175.1984649999999988
20
-96.6561030000000017
11
174.9827499999999816
21
-96.8714349999999911
0
LINE
8
BLACK
6
CONTINUOUS
10
174.9827499999999816
20
-96.8714349999999911
11
174.7426609999999982
21
-97.0592070000000007
0
LINE
8
BLACK
6
CONTINUOUS
10
174.7426609999999982
20
-97.0592070000000007
11
174.4816959999999995
21
-97.2166819999999916
0
LINE
8
BLACK
6
CONTINUOUS
10
174.4816959999999995
20
-97.2166819999999916
11
174.2036579999999901
21
-97.3415660000000003
0
LINE
8
BLACK
6
CONTINUOUS
10
174.2036579999999901
20
-97.3415660000000003
11
173.9125990000000002
21
-97.432038999999989
0
LINE
8
BLACK
6
CONTINUOUS
10
173.9125990000000002
20
-97.432038999999989
11
173.6127589999999827
21
-97.4867819999999909
0
LINE
8
BLACK
6
CONTINUOUS
10
173.6127589999999827
20
-97.4867819999999909
11
173.3085069999999916
21
-97.504998999999998
0
LINE
8
BLACK
6
CONTINUOUS
10
173.3085069999999916
20
-97.504998999999998
11
173.0042770000000019
21
-97.4864219999999904
0
LINE
8
BLACK
6
CONTINUOUS
10
173.0042770000000019
20
-97.4864219999999904
11
172.7045009999999934
21
-97.4313239999999894
0
LINE
8
BLACK
6
CONTINUOUS
10
172.7045009999999934
20
-97.4313239999999894
11
172.4135489999999891
21
-97.3405079999999998
0
LINE
8
BLACK
6
CONTINUOUS
10
172.4135489999999891
20
-97.3405079999999998
11
172.135659000000004
21
-97.2152949999999976
0
LINE
8
BLACK
6
CONTINUOUS
10
172.135659000000004
20
-97.2152949999999976
11
171.8748809999999878
21
-97.057510999999991
0
LINE
8
BLACK
6
CONTINUOUS
10
171.8748809999999878
20
-97.057510999999991
11
171.635013999999984
21
-96.8694559999999996
0
LINE
8
BLACK
6
CONTINUOUS
10
171.635013999999984
20
-96.8694559999999996
11
171.4195540000000051
21
-96.6538679999999886
0
LINE
8
BLACK
6
CONTINUOUS
10
171.4195540000000051
20
-96.6538679999999886
11
171.2316399999999987
21
-96.413889999999995
0
LINE
8
BLACK
6
CONTINUOUS
10
171.2316399999999987
20
-96.413889999999995
11
171.0740109999999845
21
-96.1530190000000005
0
LINE
8
BLACK
6
CONTINUOUS
10
171.0740109999999845
20
-96.1530190000000005
11
170.948962999999992
21
-95.875054999999989
0
LINE
8
BLACK
6
CONTINUOUS
10
170.948962999999992
20
-95.875054999999989
11
170.858317999999997
21
-95.5840489999999932
0
LINE
8
BLACK
6
CONTINUOUS
10
170.858317999999997
20
-95.5840489999999932
11
170.8033969999999897
21
-95.2842409999999944
0
LINE
8
BLACK
6
CONTINUOUS
10
170.8033969999999897
20
-95.2842409999999944
11
170.7850119999999947
21
-94.9801870000000008
0
LINE
8
BLACK
6
CONTINUOUS
10
170.7850119999999947
20
-94.9801870000000008
11
170.7849999999999966
21
-94.980126999999996
0
LINE
8
BLACK
6
CONTINUOUS
10
170.7849999999999966
20
-94.980126999999996
11
170.7376270000000034
21
-85.6875
0
LINE
8
BLACK
6
CONTINUOUS
10
170.7376270000000034
20
-85.6875
11
142.1875
21
-85.6875
0
LINE
8
BLACK
6
CONTINUOUS
10
142.1875
20
-85.6875
11
142.1779329999999959
21
-85.6855970000000013
0
LINE
8
BLACK
6
CONTINUOUS
10
142.1779329999999959
20
-85.6855970000000013
11
142.1698219999999822
21
-85.6801770000000005
0
LINE
8
BLACK
6
CONTINUOUS
10
142.1698219999999822
20
-85.6801770000000005
11
127.8896439999999899
21
-71.3999999999999915
0
LINE
8
BLACK
6
CONTINUOUS
10
127.8896439999999899
20
-71.3999999999999915
11
42.1853550000000013
21
-71.3999999999999915
  0
ENDSEC
  0
EOF
